<?xml version="1.0" encoding="utf-8"?>
<!-- Generator: Adobe Illustrator 23.1.1, SVG Export Plug-In . SVG Version: 6.00 Build 0)  -->
<svg version="1.2" baseProfile="tiny" id="g-homeless-pop-mobile-img" xmlns="http://www.w3.org/2000/svg" xmlns:xlink="http://www.w3.org/1999/xlink"
	 x="0px" y="0px" viewBox="0 0 300 2050" xml:space="preserve">
<g>
	
		<line fill="none" stroke="#000000" stroke-width="0.75" stroke-linecap="round" stroke-linejoin="round" stroke-miterlimit="10" stroke-dasharray="0.01,4" x1="2.53" y1="751.684" x2="147.282" y2="751.684"/>
	
		<line fill="none" stroke="#000000" stroke-width="0.75" stroke-linecap="round" stroke-linejoin="round" stroke-miterlimit="10" stroke-dasharray="0.01,4" x1="2.53" y1="698.978" x2="147.282" y2="698.978"/>
	
		<line fill="none" stroke="#000000" stroke-width="0.75" stroke-linecap="round" stroke-linejoin="round" stroke-miterlimit="10" stroke-dasharray="0.01,4" x1="2.53" y1="646.272" x2="147.282" y2="646.272"/>
	
		<line fill="none" stroke="#000000" stroke-width="0.75" stroke-linecap="round" stroke-linejoin="round" stroke-miterlimit="10" stroke-dasharray="0.01,4" x1="2.53" y1="593.565" x2="147.282" y2="593.565"/>
	<polygon fill="#DCF2F7" points="40.648,562.91 52.828,565.106 64.99,567.945 77.155,574.452 89.318,577.24 101.499,577.973 
		113.66,577.174 125.825,573.892 137.986,571.285 150.167,570.083 162.33,570.33 174.494,573.045 186.657,574.246 198.837,579.33 
		211.001,583.607 223.164,587.827 235.325,592.895 247.505,597.148 259.67,601.039 271.834,604.247 271.834,804.402 259.67,804.402 
		247.505,804.402 235.325,804.402 223.164,804.402 211.001,804.402 198.837,804.402 186.657,804.402 174.494,804.402 
		162.33,804.402 150.167,804.402 137.986,804.402 125.825,804.402 113.66,804.402 101.499,804.402 89.318,804.402 77.155,804.402 
		64.99,804.402 52.828,804.402 40.648,804.402 	"/>
	
		<line style="opacity:0.3;" fill="none" stroke="#000000" stroke-width="0.75" stroke-linecap="round" stroke-linejoin="round" stroke-miterlimit="10" stroke-dasharray="0.01,4" x1="2.53" y1="540.868" x2="271.834" y2="540.868"/>
	
		<line fill="none" stroke="#000000" stroke-width="0.75" stroke-linejoin="round" stroke-miterlimit="10" x1="40.648" y1="804.39" x2="271.834" y2="804.39"/>
	
		<line fill="none" stroke="#000000" stroke-width="0.75" stroke-linecap="round" stroke-linejoin="round" stroke-miterlimit="10" stroke-dasharray="0.01,4" x1="3.079" y1="349.679" x2="147.831" y2="349.679"/>
	
		<line fill="none" stroke="#000000" stroke-width="0.75" stroke-linecap="round" stroke-linejoin="round" stroke-miterlimit="10" stroke-dasharray="0.01,4" x1="3.079" y1="402.385" x2="147.831" y2="402.385"/>
	
		<line fill="none" stroke="#000000" stroke-width="0.75" stroke-linecap="round" stroke-linejoin="round" stroke-miterlimit="10" stroke-dasharray="0.01,4" x1="3.079" y1="296.974" x2="147.831" y2="296.974"/>
	
		<line fill="none" stroke="#000000" stroke-width="0.75" stroke-linecap="round" stroke-linejoin="round" stroke-miterlimit="10" stroke-dasharray="0.01,4" x1="3.079" y1="244.267" x2="147.831" y2="244.267"/>
	
		<line fill="none" stroke="#000000" stroke-width="0.75" stroke-linecap="round" stroke-linejoin="round" stroke-miterlimit="10" stroke-dasharray="0.01,4" x1="3.079" y1="191.569" x2="147.831" y2="191.569"/>
	
		<line fill="none" stroke="#000000" stroke-width="0.75" stroke-linecap="round" stroke-linejoin="round" stroke-miterlimit="10" stroke-dasharray="0.01,4" x1="3.079" y1="138.863" x2="271.834" y2="138.863"/>
	<polygon fill="#FBD3D0" points="41.197,118.626 53.349,119.812 65.483,122.896 77.617,129.469 89.751,132.907 101.903,134.389 
		114.036,133.302 126.172,130.036 138.305,126.26 150.457,124.063 162.592,122.567 174.725,125.208 186.859,124.739 
		199.011,129.386 211.145,133.994 223.279,136.634 235.414,142.508 247.565,145.526 259.701,148.932 271.834,151.195 
		271.834,455.092 259.701,455.092 247.565,455.092 235.414,455.092 223.279,455.092 211.145,455.092 199.011,455.092 
		186.859,455.092 174.725,455.092 162.592,455.092 150.457,455.092 138.305,455.092 126.172,455.092 114.036,455.092 
		101.903,455.092 89.751,455.092 77.617,455.092 65.483,455.092 53.349,455.092 41.197,455.092 	"/>
	
		<line fill="none" stroke="#000000" stroke-width="0.75" stroke-linejoin="round" stroke-miterlimit="10" x1="41.202" y1="455.092" x2="271.834" y2="455.092"/>
	
		<line style="opacity:0.3;" fill="none" stroke="#000000" stroke-width="0.75" stroke-linecap="round" stroke-linejoin="round" stroke-miterlimit="10" stroke-dasharray="0.01,4" x1="2.906" y1="894.028" x2="271.834" y2="894.028"/>
	
		<line fill="none" stroke="#000000" stroke-width="0.75" stroke-linecap="round" stroke-linejoin="round" stroke-miterlimit="10" stroke-dasharray="0.01,4" x1="2.906" y1="946.735" x2="147.659" y2="946.735"/>
	
		<line fill="none" stroke="#000000" stroke-width="0.75" stroke-linecap="round" stroke-linejoin="round" stroke-miterlimit="10" stroke-dasharray="0.01,4" x1="2.917" y1="1099.808" x2="271.834" y2="1099.808"/>
	
		<line fill="none" stroke="#000000" stroke-width="0.75" stroke-linecap="round" stroke-linejoin="round" stroke-miterlimit="10" stroke-dasharray="0.01,4" x1="2.917" y1="1152.515" x2="147.669" y2="1152.515"/>
	<polygon fill="#A4BEED" points="41.039,1084.622 53.183,1085.65 65.326,1086.885 77.47,1089.683 89.631,1090.703 101.773,1091.023 
		113.917,1090.884 126.06,1089.616 138.222,1088.497 150.365,1088.143 162.509,1088.465 174.651,1089.888 186.812,1090.414 
		198.956,1092.752 211.1,1094.792 223.243,1096.669 235.404,1099.35 247.547,1101.407 259.69,1103.464 271.834,1105.233 
		271.834,1205.243 259.69,1205.243 247.547,1205.243 235.404,1205.243 223.243,1205.243 211.1,1205.243 198.956,1205.243 
		186.812,1205.243 174.651,1205.243 162.509,1205.243 150.365,1205.243 138.222,1205.243 126.06,1205.243 113.917,1205.243 
		101.773,1205.243 89.631,1205.243 77.47,1205.243 65.326,1205.243 53.183,1205.243 41.039,1205.243 	"/>
	<polygon fill="#A0DCE9" points="41.025,917.787 53.185,918.568 65.329,919.367 77.473,921.3 89.615,922.106 101.776,922.55 
		113.92,922.376 126.064,921.406 138.206,920.583 150.367,920.403 162.509,920.525 174.653,921.48 186.796,922.056 198.957,923.841 
		211.102,925.141 223.245,926.383 235.386,928.168 247.547,929.476 259.692,930.686 271.834,931.631 271.834,999.441 
		259.692,999.441 247.547,999.441 235.386,999.441 223.245,999.441 211.102,999.441 198.957,999.441 186.796,999.441 
		174.653,999.441 162.509,999.441 150.367,999.441 138.206,999.441 126.064,999.441 113.92,999.441 101.776,999.441 89.615,999.441 
		77.473,999.441 65.329,999.441 53.185,999.441 41.025,999.441 	"/>
	
		<line fill="none" stroke="#000000" stroke-width="0.75" stroke-linejoin="round" stroke-miterlimit="10" x1="41.039" y1="1205.221" x2="271.834" y2="1205.221"/>
	
		<line fill="none" stroke="#000000" stroke-width="0.75" stroke-linejoin="round" stroke-miterlimit="10" x1="41.029" y1="999.441" x2="271.834" y2="999.441"/>
	
		<line fill="none" stroke="#000000" stroke-width="0.75" stroke-linecap="round" stroke-linejoin="round" stroke-miterlimit="10" stroke-dasharray="0.01,4" x1="3.295" y1="1309.032" x2="148.048" y2="1309.032"/>
	
		<line fill="none" stroke="#000000" stroke-width="0.75" stroke-linecap="round" stroke-linejoin="round" stroke-miterlimit="10" stroke-dasharray="0.01,4" x1="3.295" y1="1361.738" x2="148.048" y2="1361.738"/>
	<polygon fill="#C8F5A7" points="41.418,1293.71 53.541,1294.87 65.665,1296.482 77.788,1300.185 89.93,1301.96 102.053,1302.372 
		114.176,1301.714 126.3,1299.698 138.44,1298.218 150.564,1297.362 162.688,1297.296 174.812,1298.589 186.952,1299.255 
		199.075,1302.002 211.199,1304.248 223.322,1306.593 235.464,1308.962 247.587,1311.167 259.711,1313.001 271.834,1314.432 
		271.834,1414.605 259.711,1414.605 247.587,1414.605 235.464,1414.605 223.322,1414.605 211.199,1414.605 199.075,1414.605 
		186.952,1414.605 174.812,1414.605 162.688,1414.605 150.564,1414.605 138.44,1414.605 126.3,1414.605 114.176,1414.605 
		102.053,1414.605 89.93,1414.605 77.788,1414.605 65.665,1414.605 53.541,1414.605 41.418,1414.605 	"/>
	
		<line fill="none" stroke="#000000" stroke-width="0.75" stroke-linejoin="round" stroke-miterlimit="10" x1="41.418" y1="1414.445" x2="271.834" y2="1414.445"/>
	
		<line style="opacity:0.3;" fill="none" stroke="#000000" stroke-width="0.75" stroke-linecap="round" stroke-linejoin="round" stroke-miterlimit="10" stroke-dasharray="0.01,4" x1="3.53" y1="1499.033" x2="271.834" y2="1499.033"/>
	
		<line fill="none" stroke="#000000" stroke-width="0.75" stroke-linecap="round" stroke-linejoin="round" stroke-miterlimit="10" stroke-dasharray="0.01,4" x1="3.53" y1="1551.739" x2="148.282" y2="1551.739"/>
	<polygon fill="#F8B4CC" points="41.652,1509.495 53.763,1508.483 65.875,1508.73 77.986,1508.796 90.114,1509.445 
		102.225,1510.194 114.337,1509.906 126.448,1509.923 138.577,1508.746 150.687,1507.751 162.798,1506.007 174.91,1505.941 
		187.039,1504.279 199.149,1503.835 211.26,1504.164 223.372,1502.585 235.501,1503.399 247.611,1502.157 259.722,1501.672 
		271.834,1500.725 271.834,1604.468 259.722,1604.468 247.611,1604.468 235.501,1604.468 223.372,1604.468 211.26,1604.468 
		199.149,1604.468 187.039,1604.468 174.91,1604.468 162.798,1604.468 150.687,1604.468 138.577,1604.468 126.448,1604.468 
		114.337,1604.468 102.225,1604.468 90.114,1604.468 77.986,1604.468 65.875,1604.468 53.763,1604.468 41.652,1604.468 	"/>
	
		<line fill="none" stroke="#000000" stroke-width="0.75" stroke-linejoin="round" stroke-miterlimit="10" x1="41.652" y1="1604.445" x2="271.834" y2="1604.445"/>
	
		<line fill="none" stroke="#000000" stroke-width="0.75" stroke-linecap="round" stroke-linejoin="round" stroke-miterlimit="10" stroke-dasharray="0.01,4" x1="3.908" y1="1744.904" x2="148.661" y2="1744.904"/>
	<polygon fill="#FFF264" points="42.031,1727.151 54.122,1726.207 66.213,1726.23 78.304,1726.23 90.413,1726.518 102.505,1727.307 
		114.595,1727.036 126.686,1727.283 138.796,1726.781 150.886,1726.008 162.978,1724.503 175.069,1724.552 187.177,1723.393 
		199.269,1722.833 211.36,1722.85 223.451,1721.319 235.56,1721.443 247.651,1720.069 259.743,1719.599 271.834,1719.056 
		271.834,1797.61 259.743,1797.61 247.651,1797.61 235.56,1797.61 223.451,1797.61 211.36,1797.61 199.269,1797.61 187.177,1797.61 
		175.069,1797.61 162.978,1797.61 150.886,1797.61 138.796,1797.61 126.686,1797.61 114.595,1797.61 102.505,1797.61 
		90.413,1797.61 78.304,1797.61 66.213,1797.61 54.122,1797.61 42.031,1797.61 	"/>
	
		<line style="opacity:0.3;" fill="none" stroke="#000000" stroke-width="0.75" stroke-linecap="round" stroke-linejoin="round" stroke-miterlimit="10" stroke-dasharray="0.01,4" x1="3.908" y1="1692.197" x2="271.834" y2="1692.197"/>
	
		<line fill="none" stroke="#000000" stroke-width="0.75" stroke-linejoin="round" stroke-miterlimit="10" x1="42.031" y1="1797.61" x2="271.834" y2="1797.61"/>
	
		<line style="opacity:0.3;" fill="none" stroke="#000000" stroke-width="0.75" stroke-linecap="round" stroke-linejoin="round" stroke-miterlimit="10" stroke-dasharray="0.01,4" x1="4.287" y1="1884.904" x2="271.749" y2="1884.904"/>
	<polygon fill="#FCB578" points="42.409,1913.097 54.476,1913.031 66.545,1913.252 78.61,1913.326 90.694,1913.681 
		102.761,1913.639 114.828,1913.623 126.894,1913.392 138.979,1912.727 151.046,1912.496 163.113,1912.257 175.18,1912.142 
		187.246,1911.64 199.331,1911.755 211.397,1912.069 223.465,1912.018 235.531,1912.701 247.615,1912.841 259.682,1912.826 
		271.749,1912.429 271.749,1937.611 259.682,1937.611 247.615,1937.611 235.531,1937.611 223.465,1937.611 211.397,1937.611 
		199.331,1937.611 187.246,1937.611 175.18,1937.611 163.113,1937.611 151.046,1937.611 138.979,1937.611 126.894,1937.611 
		114.828,1937.611 102.761,1937.611 90.694,1937.611 78.61,1937.611 66.545,1937.611 54.476,1937.611 42.409,1937.611 	"/>
	
		<line fill="none" stroke="#000000" stroke-width="0.75" stroke-linejoin="round" stroke-miterlimit="10" x1="42.409" y1="1937.61" x2="271.834" y2="1937.61"/>
</g>
<style>
#g-homeless-pop-mobile-img rect, #g-homeless-pop-mobile-img circle, #g-homeless-pop-mobile-img path, #g-homeless-pop-mobile-img line, #g-homeless-pop-mobile-img polyline { vector-effect: non-scaling-stroke; }
</style>
</svg>

