<?xml version="1.0" encoding="utf-8"?>
<!-- Generator: Adobe Illustrator 23.1.1, SVG Export Plug-In . SVG Version: 6.00 Build 0)  -->
<svg version="1.2" baseProfile="tiny" id="g-pantries-desktop-img" xmlns="http://www.w3.org/2000/svg" xmlns:xlink="http://www.w3.org/1999/xlink"
	 x="0px" y="0px" viewBox="0 0 1200 1600" xml:space="preserve">
<g>
	<g>
		<path fill="#D495AB" d="M95.859,813.225h58.578v76.51H95.859V813.225z M124.5,790.005l29.937,23.267l-58.578,0.344L124.5,790.005z
			"/>
		<rect x="4.437" y="813.616" fill="#F8C1D5" width="91.422" height="76.119"/>
		<polygon fill="#8F5066" points="95.955,813.616 67.337,790.005 124.573,790.005 		"/>
		<polygon fill="#8F5066" points="33.055,790.005 4.437,813.616 61.673,813.616 		"/>
		<rect x="33.055" y="790.004" fill="#8F5066" width="62.9" height="23.611"/>
		<polygon fill="#D495AB" points="133.083,868.373 12.818,893.583 12.818,843.163 		"/>
		<rect x="34.285" y="847.011" fill="#8F5066" width="31.727" height="42.724"/>
		<rect x="65.801" y="846.97" fill="#F8C1D5" width="29.848" height="42.724"/>
		<path fill="#46B5CC" d="M97.422,313.571H156v76.51H97.422V313.571z M126.063,290.351L156,313.618l-58.578,0.344L126.063,290.351z"
			/>
		<rect x="6" y="313.962" fill="#B1DFE9" width="91.422" height="76.119"/>
		<polygon fill="#00657A" points="97.518,313.961 68.9,290.35 126.136,290.35 		"/>
		<polygon fill="#00657A" points="34.618,290.351 6,313.962 63.236,313.962 		"/>
		<rect x="34.618" y="290.351" fill="#00657A" width="62.9" height="23.611"/>
		<rect x="35.848" y="347.357" fill="#00657A" width="31.727" height="42.724"/>
		<path fill="#FFF264" d="M62.853,366.949c-2.462,0-2.466,3.826,0,3.826C65.313,370.775,65.317,366.949,62.853,366.949"/>
		<path fill="#46B5CC" d="M227.422,313.571H286v76.51h-58.578V313.571z M256.063,290.351L286,313.618l-58.578,0.344L256.063,290.351
			z"/>
		<rect x="136" y="313.962" fill="#B1DFE9" width="91.422" height="76.119"/>
		<polygon fill="#00657A" points="227.518,313.961 198.9,290.35 256.136,290.35 		"/>
		<polygon fill="#00657A" points="164.618,290.351 136,313.962 193.236,313.962 		"/>
		<rect x="164.618" y="290.351" fill="#00657A" width="62.9" height="23.611"/>
		<rect x="165.848" y="347.357" fill="#00657A" width="31.727" height="42.724"/>
		<path fill="#FFF264" d="M192.852,366.949c-2.462,0-2.466,3.826,0,3.826C195.313,370.775,195.317,366.949,192.852,366.949"/>
		<path fill="#46B5CC" d="M357.422,313.571h58.577v76.51h-58.577V313.571z M386.064,290.351L416,313.618l-58.578,0.344
			L386.064,290.351z"/>
		<rect x="266" y="313.962" fill="#B1DFE9" width="91.423" height="76.119"/>
		<polygon fill="#00657A" points="357.518,313.961 328.901,290.35 386.136,290.35 		"/>
		<polygon fill="#00657A" points="294.618,290.351 266,313.962 323.236,313.962 		"/>
		<rect x="294.619" y="290.351" fill="#00657A" width="62.899" height="23.611"/>
		<rect x="295.847" y="347.357" fill="#00657A" width="31.728" height="42.724"/>
		<path fill="#FFF264" d="M322.853,366.949c-2.462,0-2.466,3.826,0,3.826C325.314,370.775,325.318,366.949,322.853,366.949"/>
		<path fill="#D495AB" d="M225.859,813.225h58.578v76.51h-58.578V813.225z M254.5,790.005l29.937,23.267l-58.578,0.344
			L254.5,790.005z"/>
		<rect x="134.437" y="813.616" fill="#F8C1D5" width="91.422" height="76.119"/>
		<polygon fill="#8F5066" points="225.955,813.616 197.337,790.005 254.573,790.005 		"/>
		<polygon fill="#8F5066" points="163.055,790.005 134.437,813.616 191.673,813.616 		"/>
		<rect x="163.055" y="790.004" fill="#8F5066" width="62.9" height="23.611"/>
		<polygon fill="#D495AB" points="263.083,868.373 142.818,893.583 142.818,843.163 		"/>
		<rect x="164.285" y="847.011" fill="#8F5066" width="31.727" height="42.724"/>
		<rect x="195.801" y="846.97" fill="#F8C1D5" width="29.848" height="42.724"/>
		<path fill="#D495AB" d="M355.86,813.225h58.577v76.51H355.86V813.225z M384.501,790.005l29.937,23.267l-58.578,0.344
			L384.501,790.005z"/>
		<rect x="264.437" y="813.616" fill="#F8C1D5" width="91.423" height="76.119"/>
		<polygon fill="#8F5066" points="355.955,813.616 327.338,790.005 384.573,790.005 		"/>
		<polygon fill="#8F5066" points="293.055,790.005 264.437,813.616 321.673,813.616 		"/>
		<rect x="293.056" y="790.004" fill="#8F5066" width="62.899" height="23.611"/>
		<polygon fill="#D495AB" points="393.083,868.373 272.818,893.583 272.818,843.163 		"/>
		<rect x="294.284" y="847.011" fill="#8F5066" width="31.728" height="42.724"/>
		<rect x="325.801" y="846.97" fill="#F8C1D5" width="29.848" height="42.724"/>
	</g>
	<path fill="#D6CC5A" d="M355.86,813.223h58.577v76.51H355.86V813.223z M384.501,790.003l29.937,23.267l-58.578,0.344
		L384.501,790.003z"/>
	<path fill="#D495AB" d="M355.86,813.222h30.84v76.51h-30.84V813.222z M384.501,790.003l-0.612,24.294l-28.029-0.684
		L384.501,790.003z"/>
	<path fill="#D495AB" d="M383.417,791.707h3.283v22.59h-3.283V791.707z"/>
	<path fill="#D495AB" d="M384.501,790.003l-0.1,1.774l2.299-0.07L384.501,790.003z"/>
	<g>
		<g>
			<path fill="#FEFEFE" d="M1069.077,816.399c-3.6,0.981-6.314,2.978-7.983,6.366c-0.185,0.375-0.746,0.791-1.126,0.786
				c-0.482-0.004-0.977-0.393-1.429-0.675c-0.2-0.125-0.308-0.396-0.535-0.704c-2.018,2.097-4.579,1.73-6.929,1.199
				c-2.997-0.678-2.224-3.794-3.375-6.192c-1.615,0.231-3.413,0.423-5.175,0.794c-0.36,0.076-0.712,0.791-0.828,1.271
				c-0.154,0.631-0.072,1.32-0.091,1.984c0.218,1.412-1.07,1.762-1.781,2.519c0.034,1.212,0.068,2.423,0.102,3.635
				c0.143,0.552,0.287,1.104,0.43,1.658c0.025,1.102,0.052,2.204,0.079,3.308c1.139,0.79,0.448,1.887,0.477,2.863
				c0.018,0.888,0.035,1.775,0.052,2.663l0.351,0.963c1.081,2.961,2.052,5.969,3.286,8.865c0.741,1.744,0.787,2.195-0.84,3.164
				c-0.474,0.282-0.944,0.573-1.417,0.86c0.475,0.202,0.952,0.404,1.426,0.606l0.023,0.014c0.935,0.272,1.927,0.427,2.792,0.844
				c1.102,0.53,1.245,1.959,0.67,3.156c-0.276,0.573-0.374,1.385-0.202,1.991c0.565,2.003,0.068,3.789-1.431,4.507
				c-0.596,0.023-1.192,0.045-1.79,0.067c-0.219-0.152-0.439-0.304-0.658-0.455c-0.305-0.004-0.61-0.009-0.915-0.013
				c-0.001,0.102-0.005,0.205-0.003,0.307c0.056,2.382,0.056,2.382-2.464,2.829c0.144,0.604,0.25,1.211,0.434,1.793
				c0.369,1.166,0.301,2.264-0.762,2.978c-0.883,0.593-1.768,0.468-2.736-0.189c-2.58-1.751-2.841-4.401-3.056-7.121
				c-0.07-0.896,0.421-2.017-0.893-2.472c-0.924,0.318-1.829,0.722-2.777,0.927c-0.804,0.175-1.334-0.097-1.622-1.094
				c-0.707-2.449-1.626-4.837-2.477-7.242c-0.036-0.102-0.253-0.14-0.386-0.207l-0.23,1.833c-0.066,0.405-0.132,0.81-0.198,1.216
				c-0.246,0.253-0.492,0.507-0.737,0.76c0.42,0.875,0.835,1.752,1.261,2.624c0.111,0.224,0.327,0.417,0.379,0.649
				c1.102,4.956,3.46,9.367,5.771,13.826c1.176,2.269,2.138,4.618,2.041,7.437c-0.095,2.773,0.889,5.567,1.18,8.374
				c0.183,1.756,0.04,3.56-0.104,5.331c-0.129,1.586-1.522,1.804-2.721,2.161c-0.098,0.757-0.196,1.515-0.294,2.272
				c0.982,0.304,1.948,0.694,2.952,0.891c2.274,0.447,4.456,1.033,6.17,2.807c-0.564,1.168-1.291,1.719-2.621,1.679
				c-3.115-0.098-6.236,0.011-9.352-0.065c-0.671-0.018-1.816-0.351-1.903-0.732c-0.222-0.971-0.088-2.079,0.139-3.079
				c0.118-0.519,0.735-0.924,1.125-1.382c-0.184-0.771-0.367-1.542-0.552-2.313c-1.15-0.012-2.319,0.101-3.445-0.073
				c-1.203-0.185-1.769-0.933-1.786-2.314c-0.054-4.429-0.271-8.856-0.442-13.282c-0.013-0.341-0.113-0.701-0.261-1.009
				c-1.302-2.714-2.625-5.417-3.941-8.123c-0.171-0.017-0.453-0.103-0.492-0.041c-1.11,1.847-2.21,3.7-3.284,5.569
				c-2.382,4.147-4.743,8.306-7.122,12.454c-0.8,1.394-1.605,2.786-2.454,4.15c-0.867,1.395-2.186,1.529-3.44,0.456
				c-0.572-0.488-1.222-0.887-1.837-1.326c-0.124,0.319-0.25,0.639-0.374,0.958c1.114,1.605,2.27,3.185,3.324,4.828
				c0.496,0.774,0.934,1.641,1.147,2.526c0.25,1.037-1.531,2.039-2.534,1.312c-2.309-1.675-4.627-3.385-6.672-5.36
				c-1.648-1.59-0.901-3.537,1.352-4.267c0.06-0.993,0.121-1.987,0.182-2.98c-1.185-0.653-2.377-1.297-3.555-1.964
				c-2.135-1.207-2.223-2.332-0.613-4.178c1.806-2.072,3.648-4.159,5.114-6.468c1.498-2.356,2.564-4.988,3.808-7.505
				c1.689-3.415,3.352-6.844,5.058-10.252c0.532-1.064,1.168-2.075,1.759-3.11c-1.032-3.837-0.016-7.644,0.398-11.412
				c0.244-2.221,1.383-4.39,2.352-6.476c1.57-3.38,3.096-6.82,5.079-9.959c1.984-3.142,3.521-6.624,6.39-9.188
				c1.826-1.629,3.324-3.661,5.265-5.115c2.135-1.599,4.52-2.953,6.972-3.997c1.24-0.527,2.932-0.791,4.284,0.312
				c1.112-0.083,2.239-0.075,3.331-0.267c1.74-0.306,3.519-0.58,5.157-1.199c0.805-0.304,1.517-1.255,1.945-2.082
				c1.108-2.137,2.458-3.876,4.76-4.914c1.762-0.794,3.203-2.43,5.003-2.976c3.508-1.06,7.028-1.525,10.173,1.505
				c2.885,2.78,4.668,5.894,4.536,9.919C1072.871,813.978,1071.704,815.684,1069.077,816.399"/>
			<path fill="#D8C09B" d="M1007.312,857.24c-1.031-3.837-0.017-7.644,0.398-11.413c0.244-2.221,1.383-4.391,2.352-6.476
				c1.571-3.379,3.096-6.82,5.079-9.958c1.984-3.143,3.521-6.625,6.391-9.188c1.825-1.63,3.323-3.662,5.265-5.116
				c2.134-1.598,4.519-2.953,6.972-3.997c1.24-0.527,2.933-0.791,4.282,0.311c-0.144,3.755,1.011,7.041,3.556,9.824
				c0.217,1.412-1.071,1.762-1.781,2.519c-3.23,1.949-4.714,5.276-5.68,8.536c-1.244,4.186-0.473,8.544,0.8,12.737
				c0.556,1.829,0.971,3.7,1.522,5.531c0.339,1.126,0.815,2.212,1.23,3.316c0.099,0.541,0.121,1.111,0.312,1.617
				c0.505,1.342,0.364,2.456-0.915,3.278c-0.334-0.2-0.771-0.649-0.986-0.56c-1.053,0.435-2.061,0.986-3.047,1.563
				c-0.187,0.11-0.194,0.526-0.283,0.801c-0.924,0.319-1.829,0.722-2.777,0.927c-0.804,0.175-1.334-0.097-1.623-1.094
				c-0.706-2.449-1.625-4.837-2.477-7.242c-0.036-0.102-0.253-0.14-0.386-0.207c-0.147-0.495-0.399-0.984-0.421-1.484
				c-0.062-1.451-0.03-2.907-0.035-4.36c0.007-1.353,0.058-2.709-0.006-4.059c-0.02-0.407-0.361-0.8-0.556-1.199
				c-0.002-1.42-0.003-2.841-0.005-4.263c0.188-0.217,0.376-0.434,0.564-0.651c0.21-1.427,0.422-2.853,0.632-4.279
				c0.098-0.211,0.196-0.421,0.293-0.633c0.211-0.711,0.422-1.42,0.636-2.131c0.014-0.167,0.029-0.334,0.044-0.503
				c-0.114,0.168-0.229,0.337-0.344,0.506c-0.376,0.401-0.97,0.746-1.094,1.216c-0.813,3.08-1.763,6.153-2.2,9.295
				c-0.425,3.055-0.25,6.19-0.408,9.285c-0.115,2.265-0.344,4.524-0.499,6.479c-0.776,0.456-1.22,0.718-1.665,0.979
				c-1.815,0.097-3.63,0.268-5.447,0.273C1012.439,857.425,1009.875,857.306,1007.312,857.24"/>
			<path fill="#67522F" d="M1007.312,857.24c2.563,0.066,5.127,0.185,7.69,0.18c1.817-0.004,3.632-0.176,5.447-0.273
				c0.727,0.024,1.453,0.047,2.179,0.071c-0.58,1.163-1.229,2.297-1.723,3.496c-0.696,1.702-1.294,3.445-1.906,5.18
				c-0.747,2.114-1.831,4.179-1.055,6.541c-0.169-0.016-0.453-0.103-0.491-0.041c-1.111,1.847-2.211,3.7-3.285,5.569
				c-2.381,4.147-4.742,8.306-7.121,12.454c-0.801,1.394-1.605,2.786-2.455,4.151c-0.867,1.394-2.186,1.528-3.44,0.456
				c-0.571-0.49-1.222-0.888-1.837-1.327c-0.654-1.637-1.965-2.488-3.574-2.982c-1.186-0.654-2.378-1.298-3.556-1.965
				c-2.134-1.207-2.222-2.332-0.613-4.178c1.806-2.072,3.649-4.159,5.115-6.468c1.497-2.356,2.564-4.987,3.808-7.505
				c1.688-3.416,3.352-6.844,5.057-10.252C1006.087,859.286,1006.722,858.276,1007.312,857.24"/>
			<path fill="#DB394D" d="M1041.606,821.228c-2.544-2.783-3.699-6.069-3.555-9.824c1.112-0.081,2.24-0.074,3.332-0.266
				c1.74-0.306,3.519-0.58,5.156-1.199c0.806-0.305,1.517-1.255,1.946-2.082c1.108-2.138,2.456-3.876,4.76-4.914
				c1.762-0.794,3.202-2.43,5.003-2.974c3.507-1.062,7.028-1.526,10.173,1.505c2.885,2.779,4.668,5.893,4.536,9.918
				c-0.085,2.587-1.253,4.293-3.879,5.008c-3.601,0.981-6.315,2.977-7.983,6.366c-0.185,0.375-0.746,0.791-1.127,0.786
				c-0.481-0.004-0.976-0.393-1.428-0.675c-0.2-0.125-0.309-0.396-0.536-0.705c-2.019,2.098-4.578,1.731-6.929,1.2
				c-2.996-0.678-2.223-3.794-3.374-6.192c-1.616,0.231-3.413,0.424-5.175,0.794c-0.36,0.076-0.713,0.791-0.828,1.271
				C1041.542,819.875,1041.626,820.563,1041.606,821.228"/>
			<path fill="#4F3E24" d="M1017.945,872.436c-0.777-2.362,0.308-4.427,1.055-6.542c0.613-1.735,1.21-3.478,1.906-5.179
				c0.494-1.199,1.143-2.333,1.723-3.496c0.574-0.155,1.149-0.308,1.723-0.462c0.42,0.875,0.835,1.751,1.262,2.622
				c0.11,0.226,0.327,0.417,0.378,0.65c1.102,4.956,3.459,9.365,5.772,13.826c1.176,2.269,2.137,4.617,2.039,7.437
				c-0.094,2.772,0.89,5.566,1.18,8.374c0.183,1.756,0.04,3.56-0.103,5.33c-0.13,1.587-1.522,1.804-2.722,2.163
				c-1.445,0.026-2.89,0.052-4.335,0.078c-1.149-0.013-2.32,0.1-3.445-0.073c-1.205-0.186-1.771-0.933-1.786-2.314
				c-0.054-4.429-0.271-8.856-0.443-13.284c-0.012-0.34-0.112-0.7-0.261-1.009C1020.583,877.846,1019.261,875.142,1017.945,872.436"
				/>
			<path fill="#AA977B" d="M1037.697,853.867c-0.415-1.104-0.891-2.19-1.23-3.316c-0.551-1.83-0.967-3.701-1.522-5.531
				c-1.273-4.193-2.044-8.551-0.8-12.738c0.967-3.259,2.451-6.586,5.68-8.535c0.034,1.212,0.067,2.423,0.101,3.635
				c0.143,0.552,0.286,1.106,0.43,1.658c0.025,1.102,0.053,2.204,0.079,3.308c0.16,0.954,0.319,1.909,0.479,2.863
				c0.016,0.888,0.034,1.775,0.053,2.663c0.115,0.32,0.232,0.641,0.349,0.963c1.08,2.961,2.053,5.969,3.285,8.865
				c0.743,1.742,0.789,2.195-0.838,3.164c-0.475,0.282-0.945,0.573-1.415,0.856c-0.151,0.162-0.305,0.329-0.457,0.496
				c-0.177,0.041-0.353,0.081-0.528,0.122c-0.209,0.19-0.419,0.381-0.628,0.57c-0.436,0.327-0.869,0.653-1.305,0.98
				C1038.853,853.881,1038.275,853.875,1037.697,853.867"/>
			<path fill="#5F5B54" d="M1031.863,899.431c0.983,0.302,1.948,0.694,2.952,0.891c2.274,0.445,4.456,1.033,6.17,2.807
				c-0.564,1.168-1.291,1.719-2.621,1.677c-3.115-0.098-6.236,0.011-9.352-0.065c-0.671-0.016-1.816-0.351-1.903-0.73
				c-0.222-0.972-0.088-2.08,0.139-3.079c0.118-0.519,0.735-0.925,1.125-1.382C1029.537,899.512,1030.699,899.472,1031.863,899.431"
				/>
			<path fill="#5E5953" d="M998.943,894.658c1.114,1.605,2.269,3.185,3.323,4.828c0.497,0.774,0.935,1.641,1.147,2.526
				c0.251,1.037-1.53,2.039-2.533,1.312c-2.309-1.675-4.627-3.385-6.673-5.36c-1.647-1.59-0.9-3.536,1.351-4.267
				C996.501,894.666,997.699,894.744,998.943,894.658"/>
			<path fill="#DB394D" d="M1039.431,853.888c0.436-0.327,0.869-0.653,1.305-0.98c0.209-0.189,0.418-0.38,0.628-0.57
				c0.175-0.041,0.351-0.081,0.528-0.121c0.627,0.039,1.253,0.076,1.879,0.113l0.023,0.015c0.698,0.437,1.417,0.844,2.088,1.319
				c0.51,0.361,0.96,0.808,1.536,1.302c-0.913,0.498-1.475,0.805-2.039,1.113c0.439,1.124,0.899,2.077,1.178,3.079
				c0.378,1.367-0.322,2.53-0.934,3.684c-0.596,0.022-1.193,0.045-1.79,0.067c-0.219-0.152-0.438-0.304-0.658-0.455
				c-0.305-0.004-0.609-0.01-0.915-0.013l0.024,0.012c0.25-0.88-0.074-1.182-0.943-0.938l0.02,0.02
				C1041.441,858.804,1040.764,856.263,1039.431,853.888"/>
			<path fill="#AB997B" d="M1026.466,829.896l-0.15-0.002c-0.377,0.401-0.971,0.747-1.094,1.215c-0.813,3.08-1.763,6.155-2.2,9.295
				c-0.425,3.056-0.25,6.19-0.408,9.286c-0.085,1.658-0.23,3.31-0.363,4.844c-0.013,0.032-0.047,0.117-0.058,0.144
				c-0.251,0.595-0.559,1.167-0.904,1.713c-0.058,0.091-0.076,0.199-0.076,0.308c-0.286,0.168-0.527,0.309-0.763,0.448
				c0.323,0.011,0.646,0.022,0.969,0.032c0.033,0.031,0.06,0.066,0.1,0.087c0.257,0.136,0.507,0.096,0.707-0.06
				c0.134,0.005,0.268,0.009,0.403,0.013c0.574-0.153,1.15-0.307,1.723-0.461c0.246-0.254,0.491-0.508,0.737-0.761
				c0.067-0.405,0.133-0.811,0.199-1.216c0.076-0.612,0.152-1.222,0.229-1.833c-0.147-0.494-0.4-0.984-0.421-1.484
				c-0.062-1.451-0.03-2.906-0.035-4.359c-0.196-0.399-0.539-0.791-0.558-1.197c-0.065-1.351-0.013-2.707-0.004-4.061
				c-0.002-1.421-0.003-2.842-0.005-4.263c0.188-0.218,0.376-0.435,0.564-0.652c0.21-1.427,0.422-2.852,0.633-4.279
				c0.098-0.21,0.196-0.42,0.293-0.631c0.211-0.711,0.422-1.421,0.636-2.131L1026.466,829.896z"/>
			<path fill="#E05350" d="M1045.622,862.843c0.612-1.154,1.312-2.315,0.934-3.684c-0.279-1.002-0.739-1.954-1.178-3.079
				c0.564-0.308,1.126-0.615,2.039-1.113c-0.575-0.493-1.025-0.94-1.536-1.302c-0.671-0.475-1.389-0.882-2.088-1.319
				c0.935,0.272,1.927,0.427,2.792,0.844c1.102,0.53,1.245,1.959,0.67,3.156c-0.276,0.573-0.373,1.385-0.202,1.99
				C1047.618,860.339,1047.121,862.126,1045.622,862.843"/>
			<path fill="#DB394D" d="M1031.863,899.431c-1.164,0.041-2.326,0.08-3.49,0.12c-0.184-0.771-0.367-1.542-0.551-2.313
				c1.445-0.026,2.89-0.053,4.335-0.078C1032.059,897.918,1031.961,898.675,1031.863,899.431"/>
			<path fill="#DB394D" d="M998.943,894.658c-1.244,0.086-2.442,0.008-3.385-0.961c0.062-0.993,0.123-1.987,0.185-2.98
				c1.609,0.495,2.918,1.346,3.574,2.983C999.192,894.019,999.067,894.339,998.943,894.658"/>
			<path fill="#DBD4C9" d="M1040.915,835.211c-0.16-0.955-0.319-1.91-0.479-2.864
				C1041.576,833.137,1040.885,834.235,1040.915,835.211"/>
			<path fill="#E05350" d="M1043.771,852.331c-0.626-0.037-1.253-0.076-1.879-0.114c0.152-0.167,0.305-0.334,0.455-0.496
				C1042.821,851.928,1043.296,852.129,1043.771,852.331"/>
			<path fill="#DBD4C9" d="M1040.357,829.04c-0.144-0.552-0.287-1.104-0.43-1.657C1040.07,827.935,1040.214,828.487,1040.357,829.04
				"/>
			<path fill="#DBD4C9" d="M1041.316,838.836c-0.117-0.321-0.233-0.641-0.349-0.963
				C1041.083,838.195,1041.2,838.515,1041.316,838.836"/>
			<path fill="#C0AC8C" d="M1025.088,855.997c0.067-0.405,0.133-0.811,0.199-1.216
				C1025.22,855.186,1025.155,855.592,1025.088,855.997"/>
			<path fill="#E05350" d="M1043.175,862.455c0.219,0.152,0.438,0.304,0.658,0.455
				C1043.613,862.758,1043.394,862.606,1043.175,862.455"/>
			<path fill="#FFFBF0" d="M1039.431,853.888c1.333,2.375,2.01,4.916,1.929,7.647c-1.422-0.925-2.845-1.849-4.266-2.774
				c1.279-0.821,1.42-1.936,0.915-3.277c-0.191-0.506-0.213-1.077-0.312-1.618C1038.275,853.874,1038.854,853.882,1039.431,853.888"
				/>
			<path fill="#C0AC8C" d="M1025.059,847.105c-0.196-0.398-0.538-0.79-0.558-1.197c-0.064-1.351-0.013-2.706-0.004-4.06
				c0.195,0.398,0.537,0.79,0.556,1.198C1025.117,844.396,1025.066,845.752,1025.059,847.105"/>
			<path fill="#BFAA89" d="M1026.617,829.891l-0.151,0.004l-0.149-0.002c0.114-0.168,0.23-0.337,0.343-0.505
				C1026.645,829.556,1026.632,829.724,1026.617,829.891"/>
			<path fill="#C0AC8C" d="M1025.689,832.654c0.098-0.21,0.196-0.42,0.293-0.631
				C1025.884,832.232,1025.786,832.444,1025.689,832.654"/>
			<path fill="#C0AC8C" d="M1024.492,837.585c0.188-0.218,0.376-0.435,0.564-0.652
				C1024.868,837.149,1024.68,837.367,1024.492,837.585"/>
			<path fill="#E05350" d="M1041.364,852.339c-0.209,0.19-0.419,0.381-0.628,0.57
				C1040.944,852.719,1041.155,852.529,1041.364,852.339"/>
			<path fill="#FEFEFE" d="M1041.341,861.515c0.869-0.244,1.192,0.059,0.942,0.939
				C1041.968,862.141,1041.655,861.829,1041.341,861.515"/>
			<path fill="#FFFBF0" d="M1042.644,835.369c-0.014-0.319-0.261-0.618-0.594-0.631c-0.005-0.016-0.011-0.033-0.015-0.049
				c-0.065-0.252-0.11-0.509-0.146-0.767c-0.005-0.036-0.011-0.089-0.012-0.103c-0.009-0.066-0.016-0.132-0.023-0.198
				c-0.014-0.133-0.027-0.266-0.042-0.399c-0.03-0.285-0.059-0.571-0.089-0.856c-0.022-0.215-0.135-0.416-0.308-0.535
				c-0.107-1.414-0.169-2.831-0.165-4.252c0.003-0.823-1.276-0.824-1.278,0c-0.012,3.447,0.307,6.886,0.941,10.275
				c0.151,0.807,1.384,0.465,1.233-0.34c-0.093-0.503-0.166-1.008-0.245-1.511c0.035,0.001,0.07,0.008,0.106,0.007
				C1042.338,835.993,1042.661,835.726,1042.644,835.369"/>
			<path fill="#DB394D" d="M1047.311,855.624c0.249-0.693,0.079-1.426-0.386-1.982c-0.485-0.581-1.227-0.839-1.925-1.059
				c-0.041-0.013-0.074-0.007-0.112-0.012c-0.496-0.198-0.992-0.392-1.496-0.57c-0.145-0.052-0.29-0.101-0.437-0.151
				c-0.18-0.062-0.364-0.142-0.559-0.136c-0.413,0.011-0.714,0.399-0.994,0.659c-0.246,0.228-0.249,0.678,0,0.905
				c0.263,0.241,0.641,0.242,0.904,0c0.078-0.074,0.157-0.146,0.237-0.219c0.247,0.084,0.494,0.169,0.74,0.257
				c0.53,0.191,1.056,0.394,1.578,0.607c0.065,0.026,0.136,0.027,0.204,0.023c0.374,0.128,0.751,0.297,0.967,0.624
				c0.26,0.391,0.046,0.835-0.264,1.122c-0.237,0.219-0.442,0.447-0.514,0.772c-0.074,0.336-0.002,0.678,0.093,1.001
				c0.188,0.637,0.319,1.275,0.364,1.938c0.01,0.14,0.065,0.266,0.143,0.373c-0.007,0.136,0.001,0.271-0.016,0.408
				c-0.029,0.224-0.102,0.563-0.187,0.821c-0.081,0.247-0.163,0.371-0.353,0.546c-0.022,0.02-0.03,0.03-0.033,0.033
				c-0.005,0.002-0.019,0.009-0.045,0.024c-0.056,0.033-0.113,0.066-0.169,0.099c-0.025,0.015-0.035,0.022-0.04,0.025
				c-0.007,0.002-0.018,0.005-0.047,0.015c-0.062,0.022-0.124,0.043-0.188,0.059c-0.256,0.069-0.539,0.077-0.831,0.039
				c-0.206-0.029-0.505-0.103-0.735-0.191c-0.042-0.015-0.044-0.015-0.004,0c-0.032-0.013-0.063-0.028-0.092-0.043
				c-0.061-0.031-0.119-0.064-0.176-0.099c-0.029-0.019-0.056-0.036-0.084-0.056c0.033,0.025,0.033,0.024-0.001-0.004
				c-0.058-0.052-0.111-0.108-0.163-0.167c-0.107-0.125-0.265-0.179-0.427-0.182c-0.079-0.037-0.171-0.06-0.278-0.06
				c-0.799,0-0.816,1.196-0.063,1.266c0.514,0.498,1.25,0.721,1.945,0.806c0.795,0.097,1.602-0.072,2.234-0.578
				c0.619-0.494,0.861-1.271,0.972-2.026c0.123-0.828,0.097-1.648-0.088-2.465c-0.034-0.157-0.142-0.279-0.275-0.361
				c-0.047-0.203-0.087-0.408-0.145-0.61c-0.019-0.066-0.043-0.135-0.054-0.205c-0.004-0.03-0.001-0.152-0.015-0.119
				c0.004-0.011,0.196-0.169,0.244-0.219C1046.997,856.277,1047.188,855.965,1047.311,855.624"/>
			<path fill="#FEFEFE" d="M1048.246,857.041c0.001,0,0.001,0,0.001,0.001C1048.247,857.041,1048.247,857.041,1048.246,857.041z"/>
			<path fill="#FFFBF0" d="M1049.186,858.89c-0.068-0.075-0.136-0.152-0.202-0.23c-0.039-0.046-0.077-0.095-0.115-0.142
				c-0.004-0.005-0.008-0.009-0.012-0.014c-0.002-0.058-0.007-0.117-0.026-0.173c0.109-0.193,0.141-0.429,0.009-0.625
				c-0.135-0.199-0.297-0.361-0.465-0.529c-0.032-0.031-0.062-0.062-0.09-0.095c-0.003-0.002-0.013-0.014-0.021-0.025
				c-0.01-0.014-0.018-0.03-0.027-0.045v-0.052c0.003-0.014,0.005-0.029,0.01-0.043c0.004-0.02,0.011-0.04,0.019-0.058
				c0.001-0.002,0.002-0.004,0.003-0.008c0.017-0.03,0.047-0.047,0.057-0.084c0.003-0.009,0-0.02,0.002-0.03
				c0.029-0.049,0.058-0.099,0.09-0.147c0.004-0.007,0.007-0.013,0.01-0.019c0.177-0.158,0.322-0.348,0.361-0.591
				c0.009-0.053,0.005-0.108,0.002-0.163c0.115-0.157,0.232-0.315,0.348-0.473c0.092-0.125,0.105-0.349,0.065-0.492
				c-0.041-0.15-0.155-0.31-0.294-0.383c-0.002-0.001-0.004-0.001-0.007-0.002c-0.029-0.067-0.069-0.129-0.126-0.18
				c-0.253-0.233-0.653-0.255-0.903,0c-0.209,0.21-0.25,0.45-0.286,0.728c0.008-0.057,0.015-0.114,0.022-0.17
				c-0.032,0.219-0.102,0.429-0.185,0.634c-0.024,0.054-0.053,0.104-0.079,0.157l-0.273,0.37c-0.365,0.333-0.539,0.78-0.362,1.29
				c0.044,0.126,0.106,0.247,0.159,0.372c0.108,0.32,0.271,0.622,0.47,0.895c0.281,0.44,0.604,0.855,0.944,1.23
				c0.225,0.249,0.679,0.246,0.904,0C1049.43,859.529,1049.427,859.155,1049.186,858.89"/>
			<path fill="#FFFBF0" d="M1049.769,863.152c-1.621-0.226-3.304,0.088-4.905-0.261c-1.189-0.26-2.034-0.998-2.637-1.962
				c-0.348-1.025-0.781-2.024-1.321-2.962c-0.166-0.29-0.586-0.416-0.876-0.23c-0.292,0.189-0.407,0.564-0.229,0.876
				c0.275,0.48,0.528,0.972,0.751,1.478c0.004,0.009,0.008,0.016,0.011,0.025c-0.579-0.452-1.164-0.917-1.58-1.525
				c-0.462-0.675-1.57-0.036-1.104,0.645c0.82,1.197,2.079,1.88,3.082,2.889c0.432,0.435,0.802,0.934,0.937,1.541
				c0.037,0.172,0.173,1.613-0.069,1.618c-0.822,0.02-0.825,1.298,0,1.279c1.052-0.024,1.389-1.017,1.403-1.911
				c0.004-0.363-0.024-0.714-0.079-1.057c0.305,0.173,0.627,0.321,0.975,0.427c1.727,0.522,3.542,0.118,5.301,0.363
				c0.344,0.048,0.683-0.084,0.786-0.447C1050.301,863.64,1050.111,863.199,1049.769,863.152"/>
			<path fill="#DB394D" d="M1042.26,862.442l0.023,0.012c-0.315-0.312-0.628-0.626-0.942-0.938l0.02,0.02
				c-1.422-0.925-2.845-1.849-4.266-2.774c-0.336-0.2-0.771-0.648-0.987-0.559c-1.053,0.435-2.061,0.986-3.046,1.562
				c-0.187,0.11-0.194,0.527-0.283,0.802c1.314,0.454,0.823,1.575,0.893,2.472c0.215,2.72,0.476,5.369,3.056,7.121
				c0.968,0.656,1.852,0.782,2.736,0.189c0.583-0.392,0.859-0.901,0.936-1.471c0.108-0.274,0.186-0.56,0.198-0.849
				c0.02-0.442-0.062-0.902-0.174-1.329c-0.089-0.34-0.239-0.646-0.42-0.936c0.148,0.021,0.301,0.023,0.454,0.01
				c0.268-0.023,0.525-0.063,0.773-0.167c0.344-0.145,0.593-0.395,0.741-0.706c0.321-0.352,0.31-0.945,0.283-2.153
				C1042.254,862.646,1042.258,862.544,1042.26,862.442"/>
			<path fill="#FEFEFE" d="M1042.56,862.121c-0.458-0.646-1.03-1.187-1.605-1.725c-0.675-0.631-1.351-1.262-2.026-1.892
				c-0.601-0.561-1.507,0.341-0.904,0.904c1.062,0.992,2.223,1.94,3.178,3.04c0.634,0.732,1.283,2.038,0.534,2.924
				c-0.222,0.263-0.259,0.646,0,0.904c0.229,0.229,0.68,0.265,0.904,0C1043.669,865.061,1043.437,863.355,1042.56,862.121"/>
			<path fill="#AB997B" d="M1023.971,836.752c-0.018,3.319-0.033,6.637-0.051,9.956c-0.004,0.824,1.274,0.824,1.278,0l0.052-9.956
				C1025.255,835.93,1023.975,835.929,1023.971,836.752"/>
			<path fill="#D8C09B" d="M1029.459,860.396c-0.007,0.004-0.009,0.014-0.041-0.002c-0.12-0.063-0.183-0.179-0.245-0.293
				c-0.153-0.284-0.253-0.6-0.371-0.9c-0.3-0.77-0.598-1.541-0.876-2.319c-0.545-1.528-1.006-3.086-1.279-4.687
				c-0.005-0.029-0.02-0.046-0.029-0.073c0.253-0.117,0.44-0.368,0.345-0.716c-0.934-3.464-0.864-7.062-0.712-10.617
				c0.158-3.716,0.488-7.424,1.329-11.054c0.185-0.801-1.047-1.143-1.233-0.34c-0.865,3.739-1.211,7.567-1.374,11.394
				c-0.157,3.669-0.208,7.383,0.757,10.957c0.01,0.034,0.03,0.054,0.042,0.084c-0.235,0.128-0.416,0.373-0.359,0.705
				c0.354,2.078,1.03,4.073,1.78,6.037c0.18,0.472,0.364,0.944,0.55,1.415c0.166,0.42,0.32,0.856,0.633,1.194
				c0.595,0.649,1.661,0.667,2.155-0.105C1030.965,860.395,1029.919,859.773,1029.459,860.396"/>
			<path fill="#67522F" d="M1021.993,857.029c-0.657-0.009-1.311,0.026-1.962,0.107c-0.343,0.042-0.64,0.264-0.64,0.639
				c0,0.314,0.294,0.682,0.64,0.64c0.289-0.035,0.579-0.03,0.869-0.047c-0.054,0.074-0.108,0.146-0.155,0.217
				c-0.262,0.386-0.526,0.77-0.792,1.154c-0.55,0.793-1.109,1.578-1.675,2.361c-0.203,0.279-0.048,0.713,0.229,0.875
				c0.323,0.189,0.672,0.052,0.876-0.229c0.584-0.807,1.161-1.619,1.727-2.438c0.285-0.409,0.567-0.82,0.846-1.232
				c0.258-0.383,0.568-0.771,0.656-1.236C1022.686,857.432,1022.434,857.035,1021.993,857.029"/>
			<path fill="#4F3E24" d="M1024.502,857.2c-0.133-0.301-0.436-0.438-0.756-0.371c-0.403,0.086-0.805,0.171-1.209,0.256
				c-0.326,0.068-0.515,0.44-0.448,0.752c-0.004,0.007-0.012,0.011-0.016,0.018c-0.333,0.537-0.616,1.107-0.858,1.689
				c-0.48,1.154-0.741,2.381-0.805,3.629c-0.017,0.345,0.308,0.639,0.64,0.639c0.361,0,0.621-0.293,0.639-0.639
				c0.054-1.064,0.288-2.108,0.682-3.098c0.186-0.472,0.428-0.92,0.681-1.359c0.142-0.245,0.161-0.268,0.408-0.376
				c0.26-0.114,0.519-0.228,0.78-0.342C1024.527,857.872,1024.616,857.462,1024.502,857.2"/>
		</g>
	</g>
	<g>
		<g>
			<path fill="#FEFEFE" d="M987.105,844.392c-3.6,0.981-6.314,2.978-7.983,6.366c-0.185,0.375-0.746,0.791-1.126,0.786
				c-0.482-0.004-0.977-0.393-1.429-0.675c-0.2-0.125-0.308-0.396-0.535-0.704c-2.018,2.097-4.579,1.73-6.929,1.199
				c-2.997-0.678-2.224-3.794-3.375-6.192c-1.615,0.231-3.413,0.424-5.175,0.794c-0.36,0.076-0.712,0.791-0.828,1.271
				c-0.154,0.631-0.072,1.32-0.091,1.984c0.218,1.412-1.07,1.762-1.781,2.519c0.034,1.212,0.068,2.423,0.102,3.635
				c0.143,0.552,0.287,1.104,0.43,1.658c0.025,1.102,0.052,2.204,0.079,3.308c1.139,0.79,0.448,1.886,0.477,2.863
				c0.018,0.888,0.035,1.775,0.052,2.663l0.351,0.963c1.081,2.961,2.053,5.969,3.286,8.865c0.741,1.744,0.788,2.195-0.84,3.164
				c-0.474,0.282-0.944,0.573-1.417,0.86c0.475,0.202,0.951,0.404,1.426,0.606l0.023,0.014c0.935,0.272,1.927,0.427,2.792,0.844
				c1.102,0.53,1.245,1.959,0.67,3.156c-0.276,0.573-0.374,1.385-0.202,1.991c0.565,2.003,0.068,3.789-1.431,4.507
				c-0.596,0.023-1.192,0.045-1.79,0.067c-0.219-0.152-0.439-0.304-0.658-0.455c-0.305-0.004-0.61-0.009-0.915-0.013
				c-0.001,0.102-0.005,0.205-0.003,0.307c0.056,2.381,0.056,2.381-2.464,2.829c0.144,0.604,0.25,1.211,0.435,1.793
				c0.369,1.166,0.301,2.264-0.762,2.978c-0.883,0.593-1.768,0.468-2.736-0.189c-2.579-1.751-2.841-4.401-3.056-7.121
				c-0.07-0.897,0.421-2.017-0.893-2.472c-0.924,0.318-1.829,0.722-2.778,0.927c-0.804,0.175-1.334-0.097-1.622-1.094
				c-0.707-2.449-1.626-4.837-2.477-7.242c-0.036-0.102-0.253-0.14-0.386-0.207l-0.23,1.833c-0.066,0.405-0.132,0.81-0.198,1.215
				c-0.246,0.253-0.492,0.507-0.737,0.76c0.42,0.875,0.835,1.752,1.261,2.623c0.111,0.224,0.327,0.417,0.38,0.649
				c1.102,4.956,3.459,9.367,5.771,13.826c1.176,2.269,2.138,4.618,2.041,7.437c-0.095,2.773,0.889,5.567,1.18,8.374
				c0.183,1.756,0.04,3.56-0.105,5.331c-0.129,1.586-1.522,1.804-2.721,2.161c-0.098,0.757-0.196,1.515-0.294,2.271
				c0.982,0.304,1.948,0.694,2.952,0.891c2.274,0.447,4.456,1.033,6.17,2.807c-0.564,1.168-1.291,1.719-2.621,1.679
				c-3.115-0.098-6.236,0.011-9.352-0.065c-0.671-0.018-1.816-0.351-1.903-0.732c-0.222-0.971-0.088-2.079,0.139-3.079
				c0.118-0.519,0.735-0.924,1.125-1.382c-0.184-0.771-0.367-1.542-0.552-2.313c-1.15-0.012-2.319,0.101-3.445-0.073
				c-1.203-0.185-1.769-0.933-1.786-2.314c-0.054-4.429-0.271-8.856-0.442-13.283c-0.013-0.341-0.113-0.701-0.261-1.009
				c-1.302-2.714-2.625-5.417-3.941-8.123c-0.171-0.016-0.453-0.103-0.492-0.041c-1.11,1.847-2.21,3.7-3.284,5.569
				c-2.382,4.147-4.743,8.306-7.122,12.454c-0.8,1.394-1.605,2.786-2.454,4.15c-0.867,1.395-2.186,1.529-3.44,0.456
				c-0.572-0.488-1.222-0.887-1.837-1.326c-0.124,0.319-0.25,0.639-0.374,0.958c1.114,1.605,2.27,3.184,3.324,4.828
				c0.496,0.774,0.934,1.641,1.147,2.526c0.25,1.037-1.531,2.039-2.534,1.312c-2.309-1.675-4.627-3.385-6.672-5.36
				c-1.648-1.59-0.901-3.536,1.352-4.267c0.06-0.993,0.121-1.987,0.182-2.98c-1.185-0.653-2.377-1.297-3.555-1.964
				c-2.135-1.207-2.223-2.332-0.613-4.178c1.806-2.072,3.648-4.159,5.114-6.468c1.498-2.356,2.564-4.988,3.808-7.505
				c1.689-3.416,3.352-6.844,5.058-10.252c0.532-1.064,1.168-2.075,1.759-3.11c-1.032-3.837-0.016-7.644,0.398-11.413
				c0.244-2.221,1.383-4.39,2.352-6.476c1.57-3.38,3.096-6.82,5.079-9.959c1.984-3.142,3.521-6.624,6.39-9.188
				c1.826-1.629,3.324-3.661,5.265-5.115c2.135-1.599,4.52-2.953,6.972-3.997c1.24-0.527,2.933-0.791,4.284,0.312
				c1.112-0.082,2.238-0.075,3.331-0.267c1.74-0.306,3.519-0.58,5.157-1.199c0.805-0.304,1.517-1.255,1.945-2.082
				c1.108-2.137,2.457-3.876,4.76-4.914c1.762-0.794,3.203-2.43,5.003-2.976c3.508-1.06,7.028-1.525,10.173,1.505
				c2.885,2.78,4.668,5.894,4.536,9.919C990.899,841.971,989.732,843.677,987.105,844.392"/>
			<path fill="#D8C09B" d="M925.339,885.234c-1.031-3.837-0.017-7.644,0.398-11.413c0.244-2.221,1.383-4.391,2.352-6.476
				c1.571-3.379,3.096-6.82,5.079-9.958c1.984-3.143,3.521-6.625,6.391-9.188c1.825-1.63,3.323-3.662,5.265-5.116
				c2.134-1.598,4.519-2.953,6.972-3.997c1.24-0.527,2.933-0.791,4.282,0.311c-0.144,3.755,1.011,7.041,3.556,9.824
				c0.217,1.412-1.071,1.762-1.781,2.519c-3.23,1.949-4.713,5.276-5.68,8.536c-1.244,4.185-0.473,8.544,0.8,12.737
				c0.556,1.829,0.971,3.7,1.522,5.531c0.339,1.126,0.815,2.212,1.23,3.316c0.099,0.541,0.121,1.111,0.312,1.617
				c0.505,1.342,0.364,2.456-0.915,3.278c-0.334-0.2-0.771-0.649-0.986-0.56c-1.053,0.434-2.061,0.986-3.047,1.563
				c-0.187,0.11-0.194,0.526-0.283,0.801c-0.924,0.319-1.829,0.722-2.777,0.927c-0.804,0.175-1.334-0.097-1.622-1.095
				c-0.706-2.449-1.625-4.837-2.477-7.242c-0.036-0.102-0.253-0.14-0.386-0.207c-0.147-0.495-0.399-0.984-0.421-1.484
				c-0.062-1.451-0.03-2.907-0.035-4.36c0.007-1.353,0.058-2.709-0.007-4.059c-0.02-0.407-0.361-0.8-0.555-1.199
				c-0.002-1.42-0.003-2.841-0.005-4.263c0.188-0.217,0.376-0.435,0.564-0.651c0.21-1.427,0.422-2.853,0.633-4.279
				c0.098-0.211,0.196-0.421,0.293-0.633c0.211-0.711,0.422-1.42,0.636-2.131c0.014-0.167,0.029-0.334,0.044-0.503
				c-0.114,0.168-0.229,0.337-0.344,0.506c-0.376,0.401-0.97,0.746-1.095,1.216c-0.813,3.08-1.763,6.153-2.2,9.295
				c-0.425,3.055-0.25,6.19-0.408,9.285c-0.115,2.265-0.344,4.524-0.499,6.479c-0.776,0.456-1.22,0.718-1.665,0.979
				c-1.815,0.097-3.63,0.268-5.447,0.273C930.466,885.419,927.902,885.3,925.339,885.234"/>
			<path fill="#67522F" d="M925.339,885.234c2.563,0.066,5.127,0.185,7.69,0.18c1.817-0.004,3.632-0.176,5.447-0.273
				c0.727,0.024,1.453,0.047,2.179,0.071c-0.58,1.163-1.229,2.297-1.723,3.496c-0.696,1.702-1.294,3.445-1.906,5.18
				c-0.747,2.114-1.831,4.179-1.055,6.541c-0.169-0.016-0.453-0.103-0.491-0.041c-1.111,1.847-2.211,3.7-3.285,5.569
				c-2.381,4.147-4.742,8.306-7.121,12.454c-0.801,1.394-1.605,2.786-2.455,4.151c-0.867,1.394-2.186,1.528-3.44,0.457
				c-0.571-0.49-1.222-0.888-1.837-1.327c-0.654-1.637-1.965-2.488-3.574-2.982c-1.186-0.655-2.378-1.298-3.556-1.965
				c-2.134-1.207-2.222-2.332-0.613-4.178c1.806-2.072,3.649-4.159,5.115-6.468c1.497-2.356,2.564-4.987,3.808-7.505
				c1.688-3.415,3.352-6.844,5.057-10.252C924.114,887.28,924.75,886.269,925.339,885.234"/>
			<path fill="#DB394D" d="M959.634,849.221c-2.544-2.783-3.699-6.069-3.555-9.824c1.112-0.081,2.24-0.074,3.332-0.266
				c1.74-0.306,3.519-0.58,5.156-1.199c0.806-0.305,1.517-1.255,1.946-2.082c1.108-2.138,2.456-3.876,4.76-4.914
				c1.762-0.794,3.202-2.43,5.003-2.974c3.507-1.061,7.028-1.526,10.173,1.505c2.885,2.779,4.668,5.893,4.536,9.918
				c-0.085,2.587-1.253,4.293-3.879,5.008c-3.601,0.981-6.315,2.977-7.983,6.366c-0.185,0.375-0.746,0.791-1.128,0.787
				c-0.481-0.004-0.976-0.393-1.428-0.675c-0.2-0.125-0.309-0.396-0.536-0.705c-2.018,2.098-4.578,1.731-6.929,1.2
				c-2.996-0.678-2.223-3.794-3.374-6.192c-1.616,0.231-3.413,0.423-5.175,0.794c-0.36,0.076-0.713,0.791-0.828,1.271
				C959.57,847.868,959.654,848.557,959.634,849.221"/>
			<path fill="#4F3E24" d="M935.972,900.43c-0.777-2.362,0.308-4.427,1.055-6.542c0.613-1.735,1.21-3.478,1.906-5.179
				c0.494-1.199,1.143-2.333,1.723-3.496c0.574-0.155,1.149-0.308,1.723-0.462c0.42,0.875,0.835,1.751,1.262,2.622
				c0.11,0.225,0.327,0.417,0.378,0.65c1.102,4.956,3.459,9.365,5.772,13.826c1.176,2.269,2.137,4.617,2.039,7.437
				c-0.095,2.772,0.89,5.566,1.18,8.374c0.183,1.756,0.04,3.56-0.103,5.33c-0.13,1.587-1.522,1.804-2.723,2.163
				c-1.445,0.026-2.89,0.052-4.335,0.078c-1.149-0.013-2.32,0.1-3.445-0.073c-1.205-0.186-1.771-0.933-1.786-2.314
				c-0.054-4.429-0.271-8.856-0.443-13.284c-0.012-0.34-0.112-0.7-0.261-1.009C938.611,905.84,937.289,903.136,935.972,900.43"/>
			<path fill="#AA977B" d="M955.725,881.861c-0.415-1.104-0.891-2.19-1.23-3.317c-0.551-1.83-0.967-3.701-1.522-5.531
				c-1.273-4.193-2.044-8.551-0.8-12.738c0.967-3.259,2.451-6.586,5.68-8.535c0.034,1.212,0.067,2.423,0.101,3.635
				c0.143,0.552,0.286,1.105,0.43,1.658c0.025,1.102,0.053,2.204,0.079,3.308c0.159,0.954,0.319,1.909,0.478,2.863
				c0.017,0.888,0.034,1.775,0.053,2.663c0.115,0.32,0.232,0.641,0.349,0.963c1.08,2.961,2.053,5.969,3.285,8.865
				c0.742,1.742,0.789,2.195-0.838,3.164c-0.475,0.282-0.945,0.573-1.415,0.856c-0.151,0.162-0.305,0.329-0.457,0.496
				c-0.177,0.041-0.353,0.081-0.528,0.122c-0.209,0.19-0.419,0.381-0.628,0.57c-0.436,0.327-0.869,0.653-1.305,0.98
				C956.881,881.875,956.302,881.868,955.725,881.861"/>
			<path fill="#5F5B54" d="M949.891,927.425c0.983,0.302,1.948,0.694,2.952,0.891c2.274,0.445,4.456,1.033,6.17,2.807
				c-0.564,1.168-1.291,1.719-2.621,1.677c-3.115-0.098-6.236,0.011-9.352-0.065c-0.671-0.016-1.816-0.351-1.903-0.73
				c-0.222-0.972-0.088-2.08,0.139-3.079c0.118-0.519,0.735-0.925,1.125-1.382C947.564,927.505,948.727,927.466,949.891,927.425"/>
			<path fill="#5E5953" d="M916.97,922.652c1.114,1.605,2.269,3.184,3.323,4.828c0.497,0.774,0.935,1.641,1.147,2.526
				c0.251,1.037-1.53,2.039-2.533,1.312c-2.309-1.675-4.627-3.385-6.673-5.36c-1.647-1.589-0.9-3.536,1.351-4.267
				C914.528,922.66,915.726,922.738,916.97,922.652"/>
			<path fill="#DB394D" d="M957.459,881.882c0.436-0.327,0.869-0.653,1.305-0.98c0.209-0.189,0.418-0.379,0.628-0.57
				c0.175-0.041,0.351-0.081,0.528-0.121c0.627,0.039,1.253,0.076,1.879,0.113l0.023,0.015c0.699,0.437,1.417,0.844,2.088,1.319
				c0.51,0.361,0.96,0.808,1.536,1.302c-0.913,0.498-1.475,0.805-2.039,1.113c0.439,1.124,0.899,2.077,1.178,3.079
				c0.378,1.367-0.322,2.53-0.934,3.684c-0.596,0.022-1.192,0.045-1.79,0.067c-0.219-0.152-0.438-0.304-0.658-0.455
				c-0.305-0.004-0.609-0.01-0.915-0.013l0.024,0.012c0.25-0.88-0.074-1.182-0.943-0.938l0.02,0.02
				C959.468,886.798,958.792,884.257,957.459,881.882"/>
			<path fill="#AB997B" d="M944.494,857.89l-0.15-0.002c-0.377,0.401-0.971,0.747-1.094,1.216c-0.813,3.08-1.763,6.154-2.2,9.295
				c-0.425,3.056-0.25,6.19-0.408,9.286c-0.085,1.658-0.23,3.31-0.363,4.844c-0.013,0.032-0.047,0.117-0.058,0.144
				c-0.251,0.595-0.559,1.167-0.904,1.713c-0.058,0.091-0.076,0.199-0.076,0.308c-0.286,0.168-0.527,0.309-0.763,0.448
				c0.323,0.011,0.646,0.022,0.969,0.032c0.033,0.031,0.06,0.066,0.1,0.087c0.257,0.136,0.507,0.096,0.707-0.06
				c0.134,0.005,0.268,0.009,0.403,0.013c0.574-0.153,1.15-0.307,1.723-0.461c0.246-0.254,0.491-0.508,0.737-0.761
				c0.067-0.405,0.133-0.811,0.199-1.216c0.076-0.612,0.152-1.222,0.229-1.833c-0.147-0.494-0.4-0.984-0.421-1.484
				c-0.062-1.451-0.03-2.906-0.035-4.359c-0.196-0.399-0.539-0.791-0.558-1.197c-0.065-1.351-0.013-2.707-0.004-4.061
				c-0.002-1.421-0.003-2.842-0.005-4.262c0.188-0.218,0.376-0.435,0.564-0.652c0.21-1.427,0.422-2.852,0.633-4.279
				c0.098-0.21,0.196-0.42,0.293-0.631c0.211-0.711,0.422-1.421,0.636-2.131L944.494,857.89z"/>
			<path fill="#E05350" d="M963.649,890.837c0.612-1.154,1.312-2.316,0.934-3.684c-0.279-1.002-0.739-1.954-1.178-3.079
				c0.564-0.308,1.126-0.615,2.039-1.113c-0.575-0.493-1.025-0.94-1.536-1.302c-0.671-0.475-1.389-0.882-2.088-1.319
				c0.935,0.272,1.927,0.427,2.792,0.844c1.102,0.53,1.245,1.959,0.67,3.156c-0.276,0.573-0.373,1.385-0.202,1.99
				C965.646,888.333,965.148,890.119,963.649,890.837"/>
			<path fill="#DB394D" d="M949.891,927.425c-1.164,0.041-2.327,0.08-3.49,0.12c-0.184-0.771-0.367-1.542-0.551-2.313
				c1.445-0.026,2.89-0.053,4.335-0.078C950.086,925.911,949.989,926.668,949.891,927.425"/>
			<path fill="#DB394D" d="M916.97,922.652c-1.244,0.086-2.442,0.008-3.385-0.961c0.062-0.993,0.123-1.987,0.185-2.98
				c1.609,0.495,2.918,1.346,3.574,2.983C917.22,922.013,917.094,922.333,916.97,922.652"/>
			<path fill="#DBD4C9" d="M958.942,863.205c-0.16-0.955-0.319-1.91-0.479-2.864C959.603,861.131,958.912,862.229,958.942,863.205"
				/>
			<path fill="#E05350" d="M961.798,880.325c-0.626-0.037-1.253-0.076-1.879-0.114c0.152-0.167,0.305-0.334,0.455-0.496
				C960.848,879.921,961.323,880.123,961.798,880.325"/>
			<path fill="#DBD4C9" d="M958.385,857.033c-0.144-0.552-0.287-1.104-0.43-1.657C958.097,855.929,958.242,856.481,958.385,857.033"
				/>
			<path fill="#DBD4C9" d="M959.344,866.83c-0.117-0.321-0.233-0.641-0.349-0.963C959.111,866.189,959.227,866.509,959.344,866.83"
				/>
			<path fill="#C0AC8C" d="M943.116,883.991c0.067-0.405,0.133-0.811,0.199-1.215C943.247,883.18,943.183,883.586,943.116,883.991"
				/>
			<path fill="#E05350" d="M961.202,890.448c0.219,0.152,0.438,0.304,0.658,0.455C961.64,890.752,961.421,890.6,961.202,890.448"/>
			<path fill="#FFFBF0" d="M957.459,881.882c1.333,2.375,2.01,4.916,1.929,7.647c-1.422-0.925-2.845-1.849-4.266-2.774
				c1.279-0.821,1.42-1.936,0.915-3.277c-0.191-0.506-0.213-1.077-0.312-1.618C956.302,881.868,956.881,881.875,957.459,881.882"/>
			<path fill="#C0AC8C" d="M943.087,875.099c-0.196-0.398-0.538-0.79-0.558-1.197c-0.064-1.351-0.013-2.706-0.004-4.06
				c0.195,0.398,0.537,0.79,0.555,1.198C943.145,872.39,943.093,873.746,943.087,875.099"/>
			<path fill="#BFAA89" d="M944.644,857.885l-0.151,0.004l-0.148-0.002c0.114-0.168,0.23-0.337,0.343-0.505
				C944.673,857.55,944.66,857.718,944.644,857.885"/>
			<path fill="#C0AC8C" d="M943.716,860.647c0.098-0.21,0.196-0.42,0.293-0.631C943.912,860.226,943.814,860.437,943.716,860.647"/>
			<path fill="#C0AC8C" d="M942.519,865.579c0.188-0.218,0.376-0.435,0.564-0.652C942.896,865.143,942.707,865.361,942.519,865.579"
				/>
			<path fill="#E05350" d="M959.391,880.332c-0.209,0.19-0.419,0.381-0.628,0.57C958.972,880.713,959.182,880.523,959.391,880.332"
				/>
			<path fill="#FEFEFE" d="M959.368,889.509c0.869-0.244,1.192,0.059,0.942,0.939C959.995,890.135,959.682,889.822,959.368,889.509"
				/>
			<path fill="#FFFBF0" d="M960.672,863.363c-0.014-0.319-0.261-0.618-0.594-0.631c-0.005-0.016-0.011-0.033-0.015-0.049
				c-0.065-0.252-0.11-0.509-0.146-0.767c-0.004-0.036-0.011-0.089-0.012-0.103c-0.009-0.066-0.016-0.132-0.023-0.198
				c-0.014-0.133-0.027-0.266-0.042-0.399c-0.03-0.285-0.059-0.571-0.089-0.856c-0.022-0.215-0.135-0.416-0.308-0.535
				c-0.107-1.414-0.169-2.831-0.165-4.252c0.003-0.823-1.276-0.824-1.278,0c-0.012,3.447,0.307,6.886,0.941,10.275
				c0.151,0.807,1.384,0.465,1.233-0.34c-0.093-0.503-0.166-1.008-0.245-1.511c0.035,0.001,0.07,0.008,0.106,0.007
				C960.366,863.987,960.688,863.719,960.672,863.363"/>
			<path fill="#DB394D" d="M965.338,883.617c0.249-0.693,0.079-1.426-0.386-1.982c-0.485-0.581-1.226-0.839-1.925-1.059
				c-0.041-0.013-0.074-0.007-0.112-0.012c-0.496-0.198-0.992-0.392-1.496-0.57c-0.145-0.052-0.29-0.101-0.437-0.151
				c-0.18-0.062-0.364-0.142-0.559-0.136c-0.412,0.011-0.714,0.399-0.994,0.659c-0.246,0.228-0.249,0.678,0,0.905
				c0.263,0.241,0.641,0.242,0.904,0c0.078-0.074,0.157-0.146,0.237-0.219c0.247,0.084,0.494,0.169,0.74,0.257
				c0.53,0.191,1.056,0.394,1.577,0.607c0.065,0.026,0.136,0.027,0.205,0.023c0.374,0.128,0.751,0.297,0.967,0.624
				c0.26,0.391,0.046,0.835-0.264,1.122c-0.237,0.219-0.442,0.447-0.514,0.772c-0.074,0.335-0.002,0.678,0.092,1.001
				c0.188,0.637,0.319,1.275,0.364,1.938c0.01,0.14,0.065,0.266,0.143,0.373c-0.007,0.136,0.001,0.271-0.017,0.408
				c-0.029,0.224-0.102,0.563-0.187,0.821c-0.081,0.247-0.163,0.371-0.353,0.546c-0.022,0.02-0.03,0.03-0.033,0.033
				c-0.005,0.002-0.019,0.009-0.045,0.024c-0.056,0.033-0.113,0.066-0.169,0.099c-0.025,0.015-0.035,0.022-0.04,0.025
				c-0.007,0.002-0.018,0.005-0.047,0.015c-0.062,0.022-0.124,0.043-0.188,0.059c-0.256,0.069-0.539,0.077-0.831,0.039
				c-0.206-0.029-0.505-0.103-0.735-0.191c-0.042-0.015-0.044-0.015-0.004,0c-0.032-0.013-0.063-0.027-0.092-0.043
				c-0.06-0.031-0.119-0.064-0.176-0.099c-0.029-0.019-0.056-0.036-0.084-0.056c0.033,0.025,0.033,0.024-0.001-0.004
				c-0.058-0.052-0.111-0.108-0.163-0.167c-0.107-0.125-0.265-0.179-0.427-0.182c-0.079-0.037-0.171-0.06-0.278-0.06
				c-0.799,0-0.816,1.196-0.063,1.266c0.514,0.498,1.25,0.72,1.945,0.806c0.795,0.097,1.602-0.071,2.234-0.578
				c0.619-0.494,0.861-1.271,0.972-2.026c0.123-0.828,0.097-1.648-0.088-2.465c-0.034-0.157-0.142-0.279-0.275-0.361
				c-0.047-0.204-0.087-0.408-0.145-0.611c-0.019-0.066-0.043-0.135-0.054-0.205c-0.004-0.03-0.001-0.152-0.015-0.119
				c0.004-0.011,0.196-0.169,0.244-0.219C965.024,884.271,965.216,883.958,965.338,883.617"/>
			<path fill="#FEFEFE" d="M966.274,885.034c0.001,0,0.001,0,0.001,0.001C966.275,885.034,966.275,885.034,966.274,885.034z"/>
			<path fill="#FFFBF0" d="M967.214,886.884c-0.068-0.075-0.136-0.152-0.202-0.23c-0.039-0.046-0.077-0.095-0.115-0.142
				c-0.004-0.005-0.008-0.009-0.012-0.014c-0.002-0.058-0.007-0.117-0.026-0.173c0.109-0.193,0.141-0.429,0.009-0.625
				c-0.135-0.199-0.297-0.361-0.465-0.529c-0.032-0.031-0.062-0.062-0.09-0.095c-0.003-0.002-0.013-0.014-0.021-0.025
				c-0.01-0.014-0.018-0.03-0.028-0.045v-0.052c0.003-0.014,0.005-0.029,0.01-0.043c0.004-0.02,0.011-0.04,0.019-0.058
				c0.001-0.002,0.002-0.004,0.003-0.008c0.017-0.03,0.047-0.047,0.057-0.084c0.003-0.009,0-0.02,0.002-0.03
				c0.029-0.049,0.058-0.099,0.09-0.147c0.004-0.007,0.007-0.013,0.01-0.019c0.177-0.158,0.322-0.348,0.361-0.591
				c0.009-0.053,0.006-0.108,0.002-0.163c0.115-0.157,0.232-0.315,0.348-0.473c0.092-0.125,0.105-0.349,0.065-0.492
				c-0.041-0.15-0.155-0.31-0.294-0.383c-0.002-0.001-0.004-0.001-0.007-0.002c-0.029-0.067-0.069-0.129-0.127-0.18
				c-0.253-0.233-0.653-0.255-0.903,0c-0.209,0.21-0.25,0.45-0.286,0.728c0.008-0.057,0.015-0.114,0.022-0.171
				c-0.032,0.219-0.102,0.429-0.185,0.634c-0.024,0.054-0.053,0.104-0.079,0.157l-0.273,0.37c-0.365,0.333-0.539,0.78-0.362,1.29
				c0.044,0.127,0.106,0.247,0.159,0.372c0.108,0.32,0.271,0.621,0.47,0.895c0.28,0.44,0.604,0.855,0.944,1.23
				c0.226,0.249,0.679,0.246,0.904,0C967.458,887.523,967.454,887.149,967.214,886.884"/>
			<path fill="#FFFBF0" d="M967.797,891.146c-1.621-0.225-3.304,0.088-4.905-0.261c-1.189-0.26-2.034-0.998-2.637-1.962
				c-0.348-1.025-0.781-2.024-1.321-2.962c-0.166-0.29-0.586-0.416-0.876-0.23c-0.292,0.189-0.407,0.564-0.229,0.876
				c0.275,0.48,0.528,0.972,0.751,1.478c0.004,0.009,0.008,0.016,0.011,0.025c-0.579-0.452-1.164-0.917-1.58-1.525
				c-0.462-0.675-1.57-0.036-1.104,0.645c0.82,1.197,2.079,1.88,3.082,2.889c0.432,0.435,0.802,0.934,0.937,1.541
				c0.037,0.172,0.173,1.613-0.069,1.618c-0.822,0.02-0.825,1.298,0,1.279c1.052-0.024,1.389-1.018,1.403-1.911
				c0.004-0.363-0.024-0.714-0.079-1.057c0.305,0.173,0.627,0.321,0.975,0.427c1.727,0.523,3.542,0.118,5.301,0.363
				c0.344,0.048,0.683-0.084,0.786-0.447C968.328,891.634,968.139,891.193,967.797,891.146"/>
			<path fill="#DB394D" d="M960.287,890.435l0.023,0.012c-0.315-0.312-0.628-0.626-0.942-0.938l0.02,0.02
				c-1.422-0.925-2.845-1.849-4.266-2.774c-0.336-0.2-0.771-0.648-0.987-0.559c-1.053,0.434-2.061,0.986-3.046,1.562
				c-0.187,0.11-0.194,0.527-0.283,0.802c1.315,0.454,0.823,1.575,0.893,2.472c0.214,2.72,0.476,5.369,3.056,7.121
				c0.968,0.656,1.852,0.782,2.736,0.189c0.583-0.392,0.859-0.901,0.936-1.471c0.108-0.274,0.186-0.56,0.198-0.849
				c0.02-0.442-0.062-0.902-0.174-1.329c-0.089-0.34-0.239-0.646-0.42-0.936c0.148,0.021,0.301,0.023,0.454,0.01
				c0.268-0.023,0.525-0.063,0.773-0.167c0.344-0.145,0.593-0.395,0.741-0.706c0.321-0.352,0.31-0.945,0.283-2.153
				C960.281,890.64,960.286,890.538,960.287,890.435"/>
			<path fill="#FFFBF0" d="M960.588,890.115c-0.458-0.646-1.03-1.187-1.605-1.725c-0.675-0.631-1.351-1.262-2.026-1.892
				c-0.601-0.561-1.507,0.341-0.904,0.904c1.063,0.992,2.223,1.94,3.178,3.04c0.634,0.732,1.283,2.038,0.533,2.924
				c-0.222,0.263-0.258,0.646,0,0.904c0.229,0.229,0.68,0.265,0.904,0C961.697,893.055,961.464,891.349,960.588,890.115"/>
			<path fill="#AB997B" d="M941.998,864.746c-0.018,3.319-0.033,6.637-0.051,9.956c-0.004,0.824,1.274,0.824,1.278,0l0.052-9.956
				C943.282,863.923,942.003,863.922,941.998,864.746"/>
			<path fill="#D8C09B" d="M947.487,888.39c-0.007,0.004-0.009,0.014-0.041-0.002c-0.12-0.063-0.183-0.179-0.245-0.293
				c-0.153-0.284-0.253-0.599-0.371-0.9c-0.3-0.77-0.598-1.541-0.876-2.319c-0.544-1.528-1.007-3.086-1.279-4.687
				c-0.005-0.029-0.02-0.046-0.029-0.073c0.253-0.117,0.44-0.368,0.345-0.716c-0.934-3.464-0.863-7.062-0.712-10.617
				c0.158-3.716,0.488-7.424,1.329-11.054c0.185-0.801-1.047-1.143-1.233-0.34c-0.865,3.739-1.211,7.567-1.374,11.394
				c-0.157,3.668-0.208,7.383,0.757,10.957c0.01,0.034,0.03,0.054,0.042,0.084c-0.235,0.128-0.416,0.373-0.359,0.705
				c0.354,2.078,1.03,4.073,1.78,6.037c0.18,0.472,0.364,0.944,0.55,1.415c0.166,0.42,0.32,0.856,0.633,1.193
				c0.595,0.649,1.661,0.667,2.155-0.104C948.992,888.388,947.946,887.767,947.487,888.39"/>
			<path fill="#67522F" d="M940.021,885.023c-0.657-0.009-1.311,0.026-1.962,0.107c-0.343,0.042-0.64,0.264-0.64,0.639
				c0,0.313,0.294,0.682,0.64,0.64c0.289-0.035,0.579-0.03,0.869-0.047c-0.054,0.074-0.108,0.146-0.155,0.217
				c-0.262,0.386-0.526,0.77-0.792,1.154c-0.55,0.793-1.109,1.578-1.675,2.361c-0.203,0.279-0.048,0.713,0.229,0.874
				c0.323,0.189,0.672,0.052,0.876-0.229c0.584-0.807,1.161-1.619,1.727-2.438c0.285-0.409,0.567-0.82,0.846-1.232
				c0.258-0.383,0.568-0.771,0.656-1.236C940.714,885.426,940.462,885.029,940.021,885.023"/>
			<path fill="#4F3E24" d="M942.529,885.194c-0.133-0.301-0.436-0.438-0.756-0.371c-0.403,0.086-0.805,0.17-1.209,0.256
				c-0.326,0.068-0.515,0.44-0.448,0.752c-0.004,0.007-0.012,0.011-0.016,0.018c-0.333,0.537-0.616,1.107-0.858,1.688
				c-0.48,1.154-0.741,2.381-0.805,3.629c-0.017,0.345,0.308,0.639,0.64,0.639c0.361,0,0.621-0.293,0.639-0.639
				c0.054-1.064,0.288-2.108,0.682-3.098c0.186-0.472,0.428-0.92,0.681-1.359c0.142-0.245,0.161-0.268,0.408-0.376
				c0.26-0.114,0.519-0.228,0.78-0.342C942.554,885.866,942.643,885.456,942.529,885.194"/>
		</g>
	</g>
	<g>
		<g>
			<path fill="#FEFEFE" d="M932.181,793.735c-3.6,0.981-6.314,2.978-7.983,6.366c-0.185,0.375-0.746,0.791-1.126,0.786
				c-0.482-0.004-0.977-0.393-1.429-0.675c-0.2-0.125-0.308-0.396-0.535-0.704c-2.018,2.097-4.579,1.73-6.929,1.199
				c-2.997-0.678-2.224-3.794-3.375-6.192c-1.615,0.231-3.413,0.424-5.175,0.794c-0.36,0.076-0.712,0.791-0.828,1.271
				c-0.154,0.631-0.071,1.32-0.091,1.984c0.218,1.412-1.07,1.762-1.781,2.519c0.034,1.212,0.068,2.423,0.102,3.635
				c0.143,0.552,0.287,1.104,0.43,1.658c0.025,1.102,0.052,2.204,0.079,3.308c1.138,0.79,0.448,1.886,0.477,2.863
				c0.018,0.888,0.035,1.775,0.052,2.663l0.351,0.962c1.081,2.961,2.053,5.969,3.286,8.865c0.741,1.743,0.788,2.194-0.84,3.164
				c-0.474,0.282-0.944,0.573-1.417,0.86c0.475,0.202,0.951,0.404,1.426,0.606l0.023,0.014c0.935,0.272,1.927,0.427,2.792,0.844
				c1.102,0.53,1.245,1.959,0.67,3.156c-0.276,0.573-0.374,1.385-0.202,1.991c0.565,2.003,0.068,3.789-1.431,4.507
				c-0.596,0.023-1.192,0.045-1.79,0.067c-0.219-0.152-0.439-0.304-0.658-0.455c-0.305-0.004-0.611-0.009-0.915-0.013
				c-0.001,0.102-0.005,0.205-0.003,0.307c0.056,2.382,0.056,2.382-2.464,2.829c0.144,0.604,0.25,1.211,0.435,1.793
				c0.369,1.166,0.301,2.264-0.762,2.978c-0.883,0.593-1.768,0.467-2.736-0.189c-2.58-1.751-2.841-4.401-3.056-7.121
				c-0.07-0.896,0.421-2.017-0.893-2.472c-0.924,0.318-1.829,0.722-2.777,0.927c-0.804,0.175-1.334-0.097-1.622-1.095
				c-0.707-2.449-1.626-4.837-2.477-7.242c-0.036-0.102-0.253-0.14-0.386-0.207l-0.23,1.833c-0.066,0.405-0.132,0.81-0.198,1.216
				c-0.246,0.253-0.492,0.507-0.737,0.76c0.42,0.875,0.835,1.752,1.261,2.624c0.111,0.224,0.327,0.417,0.38,0.649
				c1.102,4.955,3.459,9.366,5.771,13.826c1.176,2.269,2.138,4.618,2.04,7.437c-0.095,2.773,0.889,5.567,1.18,8.374
				c0.183,1.756,0.04,3.56-0.104,5.331c-0.129,1.586-1.522,1.804-2.721,2.161c-0.098,0.757-0.196,1.515-0.294,2.271
				c0.982,0.304,1.948,0.694,2.952,0.891c2.274,0.447,4.456,1.033,6.17,2.807c-0.564,1.168-1.291,1.719-2.621,1.679
				c-3.115-0.098-6.236,0.011-9.352-0.065c-0.671-0.018-1.816-0.351-1.903-0.732c-0.222-0.971-0.088-2.079,0.139-3.079
				c0.118-0.519,0.735-0.924,1.125-1.382c-0.184-0.771-0.367-1.542-0.552-2.313c-1.149-0.012-2.319,0.101-3.445-0.073
				c-1.203-0.185-1.769-0.933-1.786-2.314c-0.054-4.429-0.271-8.856-0.442-13.283c-0.013-0.341-0.113-0.701-0.261-1.009
				c-1.302-2.714-2.625-5.418-3.941-8.124c-0.17-0.016-0.453-0.103-0.492-0.041c-1.11,1.847-2.21,3.7-3.284,5.569
				c-2.381,4.147-4.743,8.306-7.122,12.454c-0.8,1.394-1.605,2.786-2.454,4.15c-0.867,1.395-2.186,1.529-3.44,0.456
				c-0.572-0.488-1.222-0.887-1.837-1.326c-0.124,0.319-0.25,0.639-0.374,0.958c1.114,1.605,2.27,3.185,3.324,4.828
				c0.496,0.774,0.934,1.641,1.147,2.526c0.25,1.037-1.531,2.039-2.534,1.312c-2.309-1.675-4.627-3.385-6.672-5.36
				c-1.648-1.589-0.901-3.536,1.352-4.267c0.06-0.993,0.121-1.987,0.182-2.98c-1.185-0.653-2.377-1.297-3.555-1.963
				c-2.135-1.207-2.223-2.332-0.613-4.178c1.806-2.072,3.648-4.159,5.114-6.468c1.498-2.356,2.564-4.989,3.808-7.505
				c1.688-3.416,3.352-6.844,5.058-10.252c0.532-1.064,1.168-2.075,1.759-3.11c-1.032-3.837-0.016-7.644,0.398-11.412
				c0.244-2.221,1.383-4.39,2.352-6.476c1.57-3.38,3.097-6.82,5.079-9.959c1.984-3.142,3.521-6.624,6.39-9.188
				c1.826-1.629,3.324-3.661,5.265-5.115c2.135-1.599,4.52-2.954,6.972-3.997c1.24-0.527,2.933-0.791,4.285,0.312
				c1.112-0.083,2.238-0.075,3.331-0.267c1.74-0.306,3.519-0.58,5.157-1.199c0.805-0.304,1.517-1.255,1.945-2.082
				c1.108-2.137,2.457-3.876,4.76-4.914c1.762-0.794,3.203-2.43,5.003-2.975c3.508-1.06,7.028-1.525,10.173,1.505
				c2.885,2.78,4.668,5.894,4.536,9.919C935.975,791.314,934.808,793.021,932.181,793.735"/>
			<path fill="#D8C09B" d="M870.416,834.577c-1.031-3.837-0.016-7.644,0.398-11.412c0.244-2.221,1.383-4.391,2.352-6.476
				c1.571-3.379,3.096-6.82,5.079-9.958c1.984-3.143,3.521-6.625,6.391-9.188c1.825-1.63,3.323-3.662,5.265-5.116
				c2.134-1.598,4.519-2.953,6.972-3.997c1.24-0.527,2.933-0.791,4.282,0.311c-0.144,3.755,1.011,7.041,3.556,9.824
				c0.217,1.412-1.071,1.762-1.781,2.519c-3.23,1.949-4.714,5.276-5.68,8.536c-1.244,4.185-0.473,8.544,0.8,12.737
				c0.555,1.829,0.971,3.7,1.522,5.531c0.339,1.126,0.815,2.212,1.23,3.317c0.099,0.541,0.121,1.111,0.312,1.617
				c0.505,1.342,0.364,2.456-0.915,3.278c-0.334-0.2-0.771-0.649-0.986-0.56c-1.053,0.435-2.061,0.986-3.047,1.563
				c-0.187,0.11-0.194,0.526-0.283,0.801c-0.924,0.319-1.829,0.722-2.778,0.927c-0.804,0.175-1.334-0.097-1.622-1.095
				c-0.706-2.449-1.625-4.837-2.477-7.242c-0.036-0.102-0.253-0.14-0.386-0.207c-0.147-0.495-0.399-0.984-0.421-1.484
				c-0.062-1.451-0.03-2.907-0.035-4.36c0.007-1.353,0.058-2.709-0.007-4.059c-0.02-0.407-0.361-0.8-0.555-1.199
				c-0.002-1.42-0.003-2.841-0.005-4.263c0.188-0.217,0.376-0.435,0.564-0.651c0.21-1.427,0.422-2.853,0.633-4.279
				c0.098-0.211,0.196-0.421,0.293-0.632c0.211-0.711,0.422-1.42,0.636-2.131c0.014-0.167,0.029-0.334,0.044-0.503
				c-0.114,0.168-0.229,0.337-0.344,0.506c-0.376,0.401-0.97,0.746-1.094,1.216c-0.813,3.08-1.763,6.153-2.2,9.295
				c-0.425,3.055-0.25,6.19-0.408,9.285c-0.115,2.265-0.344,4.524-0.499,6.479c-0.775,0.457-1.22,0.718-1.665,0.979
				c-1.815,0.097-3.63,0.268-5.447,0.273C875.543,834.762,872.979,834.643,870.416,834.577"/>
			<path fill="#67522F" d="M870.416,834.577c2.563,0.066,5.127,0.185,7.69,0.18c1.817-0.004,3.632-0.176,5.447-0.273
				c0.727,0.024,1.453,0.047,2.179,0.072c-0.58,1.163-1.229,2.297-1.723,3.496c-0.696,1.702-1.294,3.445-1.906,5.18
				c-0.747,2.114-1.831,4.179-1.055,6.541c-0.169-0.017-0.453-0.103-0.491-0.041c-1.111,1.847-2.211,3.7-3.285,5.569
				c-2.382,4.147-4.742,8.306-7.121,12.454c-0.801,1.394-1.605,2.786-2.455,4.151c-0.867,1.394-2.186,1.528-3.44,0.457
				c-0.571-0.49-1.222-0.888-1.837-1.327c-0.654-1.637-1.965-2.488-3.574-2.982c-1.186-0.654-2.378-1.298-3.556-1.965
				c-2.134-1.207-2.222-2.332-0.613-4.178c1.806-2.072,3.649-4.159,5.115-6.468c1.497-2.356,2.564-4.987,3.808-7.505
				c1.689-3.415,3.352-6.844,5.057-10.252C869.19,836.623,869.826,835.612,870.416,834.577"/>
			<path fill="#DB394D" d="M904.71,798.565c-2.544-2.783-3.699-6.069-3.555-9.824c1.112-0.081,2.24-0.074,3.332-0.266
				c1.74-0.306,3.519-0.58,5.156-1.199c0.806-0.305,1.517-1.255,1.946-2.082c1.108-2.138,2.456-3.876,4.76-4.914
				c1.762-0.794,3.202-2.43,5.003-2.974c3.507-1.061,7.028-1.526,10.173,1.505c2.885,2.779,4.668,5.893,4.536,9.918
				c-0.085,2.587-1.253,4.293-3.879,5.008c-3.601,0.981-6.315,2.977-7.983,6.366c-0.185,0.375-0.746,0.791-1.128,0.786
				c-0.481-0.004-0.976-0.393-1.428-0.675c-0.2-0.125-0.309-0.396-0.536-0.705c-2.018,2.098-4.578,1.731-6.929,1.2
				c-2.996-0.678-2.223-3.794-3.374-6.192c-1.616,0.231-3.413,0.424-5.175,0.794c-0.36,0.076-0.713,0.791-0.828,1.271
				C904.646,797.212,904.73,797.9,904.71,798.565"/>
			<path fill="#4F3E24" d="M881.048,849.773c-0.777-2.362,0.308-4.427,1.055-6.542c0.613-1.735,1.21-3.478,1.906-5.179
				c0.494-1.199,1.143-2.333,1.723-3.496c0.574-0.155,1.149-0.308,1.723-0.462c0.42,0.875,0.835,1.751,1.262,2.622
				c0.11,0.226,0.327,0.417,0.378,0.65c1.102,4.956,3.46,9.365,5.772,13.826c1.176,2.269,2.137,4.617,2.039,7.437
				c-0.095,2.772,0.89,5.566,1.18,8.374c0.183,1.756,0.04,3.56-0.103,5.329c-0.13,1.587-1.522,1.804-2.722,2.163
				c-1.445,0.026-2.89,0.052-4.335,0.078c-1.149-0.013-2.32,0.1-3.445-0.073c-1.204-0.186-1.771-0.933-1.786-2.314
				c-0.054-4.429-0.271-8.856-0.443-13.284c-0.012-0.34-0.112-0.7-0.261-1.009C883.687,855.183,882.365,852.479,881.048,849.773"/>
			<path fill="#AA977B" d="M900.801,831.204c-0.415-1.104-0.891-2.19-1.23-3.317c-0.551-1.83-0.967-3.701-1.522-5.531
				c-1.273-4.193-2.044-8.551-0.8-12.738c0.967-3.259,2.451-6.586,5.68-8.535c0.034,1.212,0.067,2.423,0.101,3.635
				c0.143,0.552,0.286,1.105,0.43,1.658c0.025,1.102,0.053,2.204,0.079,3.308c0.16,0.954,0.319,1.909,0.479,2.863
				c0.016,0.888,0.034,1.775,0.053,2.663c0.115,0.32,0.232,0.641,0.349,0.962c1.08,2.961,2.053,5.969,3.285,8.865
				c0.742,1.742,0.789,2.194-0.838,3.164c-0.475,0.282-0.945,0.573-1.414,0.856c-0.151,0.162-0.305,0.329-0.457,0.496
				c-0.177,0.041-0.353,0.081-0.528,0.122c-0.209,0.19-0.419,0.381-0.628,0.57c-0.436,0.327-0.869,0.653-1.305,0.98
				C901.957,831.218,901.379,831.211,900.801,831.204"/>
			<path fill="#5F5B54" d="M894.967,876.768c0.983,0.303,1.948,0.694,2.952,0.891c2.274,0.445,4.456,1.033,6.17,2.807
				c-0.564,1.168-1.291,1.719-2.621,1.677c-3.115-0.098-6.236,0.011-9.352-0.065c-0.671-0.017-1.816-0.351-1.903-0.73
				c-0.222-0.972-0.088-2.08,0.139-3.079c0.118-0.519,0.735-0.925,1.125-1.382C892.641,876.849,893.803,876.809,894.967,876.768"/>
			<path fill="#5E5953" d="M862.047,871.995c1.114,1.605,2.269,3.185,3.323,4.828c0.497,0.774,0.935,1.641,1.147,2.526
				c0.251,1.037-1.53,2.039-2.533,1.312c-2.309-1.675-4.627-3.385-6.673-5.36c-1.647-1.589-0.9-3.536,1.351-4.267
				C859.605,872.003,860.802,872.081,862.047,871.995"/>
			<path fill="#DB394D" d="M902.535,831.225c0.436-0.327,0.869-0.653,1.305-0.98c0.209-0.189,0.418-0.38,0.628-0.57
				c0.175-0.041,0.351-0.081,0.528-0.121c0.627,0.039,1.253,0.076,1.879,0.113l0.023,0.015c0.698,0.437,1.417,0.844,2.088,1.319
				c0.51,0.361,0.96,0.809,1.536,1.302c-0.913,0.498-1.475,0.805-2.039,1.113c0.439,1.124,0.899,2.077,1.178,3.079
				c0.378,1.367-0.322,2.53-0.934,3.684c-0.596,0.022-1.192,0.045-1.79,0.067c-0.219-0.152-0.438-0.304-0.658-0.455
				c-0.305-0.004-0.609-0.01-0.915-0.013l0.024,0.012c0.25-0.88-0.074-1.182-0.943-0.938l0.02,0.02
				C904.545,836.141,903.868,833.6,902.535,831.225"/>
			<path fill="#AB997B" d="M889.57,807.233l-0.15-0.002c-0.377,0.401-0.971,0.747-1.095,1.216c-0.813,3.08-1.763,6.154-2.2,9.295
				c-0.425,3.056-0.25,6.19-0.408,9.286c-0.085,1.658-0.23,3.31-0.363,4.844c-0.013,0.032-0.047,0.117-0.058,0.144
				c-0.251,0.595-0.559,1.167-0.904,1.713c-0.058,0.091-0.076,0.199-0.076,0.308c-0.286,0.168-0.527,0.309-0.763,0.448
				c0.323,0.011,0.646,0.022,0.969,0.032c0.033,0.031,0.06,0.066,0.1,0.087c0.257,0.136,0.507,0.096,0.707-0.061
				c0.134,0.005,0.268,0.009,0.403,0.013c0.574-0.153,1.149-0.307,1.723-0.461c0.246-0.254,0.491-0.508,0.737-0.761
				c0.067-0.405,0.133-0.811,0.199-1.216c0.076-0.612,0.152-1.222,0.229-1.833c-0.147-0.494-0.4-0.984-0.421-1.484
				c-0.062-1.451-0.03-2.906-0.035-4.359c-0.196-0.399-0.539-0.791-0.558-1.197c-0.065-1.351-0.013-2.707-0.004-4.061
				c-0.002-1.421-0.003-2.842-0.005-4.263c0.188-0.218,0.376-0.435,0.564-0.652c0.21-1.427,0.422-2.852,0.633-4.279
				c0.098-0.21,0.196-0.42,0.293-0.631c0.211-0.711,0.422-1.421,0.636-2.131L889.57,807.233z"/>
			<path fill="#E05350" d="M908.726,840.18c0.612-1.154,1.312-2.315,0.934-3.684c-0.279-1.002-0.739-1.954-1.178-3.079
				c0.564-0.308,1.126-0.615,2.039-1.113c-0.575-0.493-1.025-0.941-1.536-1.302c-0.671-0.475-1.389-0.882-2.088-1.319
				c0.935,0.272,1.927,0.427,2.792,0.844c1.102,0.53,1.245,1.959,0.67,3.156c-0.276,0.573-0.373,1.385-0.202,1.99
				C910.722,837.676,910.225,839.463,908.726,840.18"/>
			<path fill="#DB394D" d="M894.967,876.768c-1.164,0.041-2.326,0.08-3.49,0.12c-0.184-0.771-0.367-1.542-0.551-2.313
				c1.445-0.026,2.89-0.053,4.335-0.078C895.163,875.255,895.065,876.011,894.967,876.768"/>
			<path fill="#DB394D" d="M862.047,871.995c-1.244,0.086-2.442,0.008-3.385-0.961c0.062-0.993,0.123-1.987,0.185-2.98
				c1.609,0.495,2.918,1.346,3.574,2.983C862.296,871.356,862.171,871.676,862.047,871.995"/>
			<path fill="#DBD4C9" d="M904.018,812.548c-0.159-0.955-0.319-1.91-0.479-2.864C904.679,810.474,903.989,811.572,904.018,812.548"
				/>
			<path fill="#E05350" d="M906.875,829.668c-0.626-0.037-1.253-0.076-1.879-0.114c0.152-0.167,0.305-0.334,0.455-0.496
				C905.924,829.264,906.4,829.466,906.875,829.668"/>
			<path fill="#DBD4C9" d="M903.461,806.376c-0.144-0.552-0.287-1.104-0.43-1.657C903.174,805.272,903.318,805.824,903.461,806.376"
				/>
			<path fill="#DBD4C9" d="M904.42,816.173c-0.117-0.321-0.233-0.641-0.349-0.962C904.187,815.532,904.304,815.852,904.42,816.173"
				/>
			<path fill="#C0AC8C" d="M888.192,833.334c0.067-0.405,0.133-0.811,0.199-1.216C888.324,832.523,888.259,832.929,888.192,833.334"
				/>
			<path fill="#E05350" d="M906.279,839.792c0.219,0.152,0.438,0.304,0.658,0.455C906.716,840.095,906.497,839.943,906.279,839.792"
				/>
			<path fill="#FFFBF0" d="M902.535,831.225c1.333,2.375,2.01,4.916,1.929,7.647c-1.422-0.925-2.845-1.849-4.266-2.774
				c1.279-0.821,1.42-1.936,0.915-3.277c-0.191-0.506-0.213-1.077-0.312-1.618C901.379,831.211,901.957,831.219,902.535,831.225"/>
			<path fill="#C0AC8C" d="M888.163,824.442c-0.196-0.398-0.538-0.79-0.558-1.197c-0.064-1.351-0.013-2.706-0.004-4.06
				c0.195,0.398,0.537,0.79,0.556,1.198C888.221,821.733,888.17,823.089,888.163,824.442"/>
			<path fill="#BFAA89" d="M889.721,807.228l-0.151,0.004l-0.148-0.002c0.114-0.168,0.23-0.337,0.343-0.505
				C889.749,806.893,889.736,807.061,889.721,807.228"/>
			<path fill="#C0AC8C" d="M888.792,809.99c0.098-0.21,0.196-0.42,0.293-0.631C888.988,809.569,888.89,809.78,888.792,809.99"/>
			<path fill="#C0AC8C" d="M887.596,814.922c0.188-0.218,0.376-0.434,0.564-0.652C887.972,814.486,887.784,814.704,887.596,814.922"
				/>
			<path fill="#E05350" d="M904.467,829.676c-0.209,0.19-0.419,0.381-0.628,0.57C904.048,830.056,904.258,829.866,904.467,829.676"
				/>
			<path fill="#FEFEFE" d="M904.445,838.852c0.869-0.244,1.192,0.059,0.942,0.939C905.072,839.478,904.758,839.166,904.445,838.852"
				/>
			<path fill="#FFFBF0" d="M905.748,812.706c-0.014-0.319-0.261-0.618-0.594-0.631c-0.006-0.016-0.011-0.033-0.015-0.049
				c-0.065-0.252-0.11-0.509-0.146-0.767c-0.004-0.036-0.011-0.089-0.012-0.103c-0.009-0.066-0.016-0.132-0.023-0.198
				c-0.014-0.133-0.027-0.266-0.042-0.399c-0.03-0.285-0.059-0.571-0.089-0.856c-0.022-0.214-0.135-0.416-0.308-0.535
				c-0.107-1.414-0.169-2.831-0.165-4.251c0.003-0.823-1.276-0.824-1.278,0c-0.012,3.447,0.307,6.886,0.941,10.275
				c0.151,0.807,1.384,0.465,1.233-0.34c-0.094-0.503-0.166-1.008-0.245-1.511c0.035,0.001,0.07,0.008,0.106,0.007
				C905.442,813.33,905.764,813.063,905.748,812.706"/>
			<path fill="#DB394D" d="M910.414,832.961c0.249-0.693,0.079-1.426-0.386-1.982c-0.485-0.581-1.227-0.839-1.925-1.059
				c-0.041-0.013-0.074-0.007-0.112-0.012c-0.496-0.198-0.992-0.392-1.496-0.57c-0.145-0.052-0.29-0.101-0.437-0.151
				c-0.18-0.062-0.364-0.142-0.559-0.136c-0.412,0.011-0.714,0.399-0.994,0.659c-0.246,0.228-0.249,0.678,0,0.905
				c0.263,0.241,0.641,0.242,0.904,0c0.078-0.074,0.157-0.146,0.237-0.219c0.247,0.084,0.494,0.169,0.74,0.257
				c0.53,0.191,1.056,0.394,1.577,0.607c0.065,0.026,0.136,0.028,0.205,0.023c0.374,0.128,0.751,0.297,0.967,0.624
				c0.26,0.391,0.046,0.835-0.264,1.122c-0.237,0.219-0.442,0.447-0.514,0.772c-0.074,0.336-0.002,0.678,0.092,1.001
				c0.188,0.637,0.319,1.275,0.364,1.938c0.01,0.14,0.065,0.266,0.143,0.373c-0.007,0.136,0.001,0.271-0.017,0.408
				c-0.029,0.224-0.102,0.563-0.187,0.821c-0.081,0.247-0.163,0.371-0.353,0.546c-0.022,0.02-0.03,0.03-0.033,0.033
				c-0.005,0.002-0.019,0.009-0.045,0.024c-0.056,0.033-0.113,0.066-0.169,0.099c-0.025,0.015-0.035,0.022-0.04,0.025
				c-0.007,0.002-0.018,0.005-0.047,0.015c-0.062,0.022-0.124,0.043-0.188,0.059c-0.256,0.069-0.539,0.077-0.831,0.039
				c-0.206-0.029-0.505-0.103-0.735-0.191c-0.042-0.015-0.044-0.015-0.004,0c-0.032-0.013-0.063-0.028-0.092-0.043
				c-0.06-0.031-0.119-0.064-0.176-0.099c-0.029-0.019-0.056-0.036-0.084-0.056c0.033,0.025,0.033,0.024-0.001-0.004
				c-0.058-0.052-0.111-0.108-0.163-0.167c-0.107-0.125-0.265-0.179-0.427-0.182c-0.079-0.037-0.171-0.06-0.278-0.06
				c-0.799,0-0.816,1.196-0.063,1.266c0.514,0.498,1.25,0.721,1.945,0.806c0.795,0.097,1.602-0.071,2.234-0.577
				c0.619-0.494,0.861-1.271,0.972-2.026c0.123-0.828,0.097-1.648-0.088-2.465c-0.034-0.157-0.142-0.279-0.275-0.361
				c-0.047-0.203-0.087-0.408-0.145-0.611c-0.019-0.066-0.043-0.135-0.054-0.205c-0.004-0.03-0.001-0.152-0.015-0.119
				c0.004-0.011,0.196-0.169,0.244-0.219C910.101,833.614,910.292,833.302,910.414,832.961"/>
			<path fill="#FEFEFE" d="M911.35,834.377c0.001,0,0.001,0,0.001,0.001C911.351,834.377,911.351,834.377,911.35,834.377z"/>
			<path fill="#FFFBF0" d="M912.29,836.227c-0.068-0.075-0.136-0.152-0.202-0.23c-0.039-0.046-0.077-0.095-0.115-0.142
				c-0.004-0.005-0.008-0.009-0.012-0.014c-0.002-0.058-0.007-0.117-0.026-0.173c0.109-0.193,0.141-0.429,0.009-0.625
				c-0.135-0.199-0.297-0.361-0.465-0.529c-0.032-0.031-0.062-0.062-0.09-0.095c-0.003-0.002-0.013-0.014-0.021-0.025
				c-0.01-0.014-0.018-0.03-0.028-0.045v-0.052c0.003-0.014,0.005-0.029,0.01-0.043c0.004-0.02,0.011-0.04,0.019-0.058
				c0.001-0.002,0.002-0.004,0.003-0.008c0.016-0.03,0.047-0.047,0.057-0.084c0.003-0.009,0-0.02,0.002-0.03
				c0.029-0.049,0.058-0.099,0.09-0.147c0.004-0.007,0.007-0.013,0.01-0.019c0.177-0.158,0.322-0.348,0.361-0.591
				c0.009-0.053,0.005-0.108,0.002-0.163c0.115-0.157,0.232-0.315,0.348-0.473c0.092-0.125,0.104-0.349,0.065-0.492
				c-0.041-0.15-0.155-0.31-0.294-0.383c-0.002-0.001-0.004-0.001-0.007-0.002c-0.029-0.067-0.069-0.129-0.126-0.18
				c-0.253-0.233-0.653-0.255-0.903,0c-0.209,0.21-0.25,0.45-0.286,0.728c0.008-0.057,0.015-0.114,0.022-0.171
				c-0.032,0.219-0.102,0.429-0.185,0.634c-0.024,0.054-0.053,0.104-0.079,0.157l-0.273,0.37c-0.365,0.333-0.539,0.78-0.362,1.29
				c0.044,0.127,0.106,0.247,0.159,0.372c0.108,0.32,0.271,0.621,0.47,0.895c0.281,0.44,0.604,0.855,0.944,1.23
				c0.226,0.249,0.679,0.246,0.904,0C912.534,836.866,912.531,836.492,912.29,836.227"/>
			<path fill="#FFFBF0" d="M912.873,840.489c-1.621-0.225-3.304,0.088-4.905-0.261c-1.189-0.26-2.034-0.998-2.637-1.962
				c-0.348-1.025-0.781-2.024-1.321-2.962c-0.166-0.29-0.586-0.416-0.876-0.23c-0.292,0.189-0.407,0.564-0.229,0.876
				c0.275,0.48,0.528,0.972,0.751,1.478c0.004,0.009,0.008,0.017,0.011,0.025c-0.579-0.452-1.164-0.917-1.58-1.525
				c-0.462-0.675-1.57-0.036-1.104,0.645c0.819,1.197,2.079,1.88,3.082,2.889c0.432,0.435,0.802,0.934,0.937,1.541
				c0.037,0.172,0.173,1.613-0.069,1.618c-0.822,0.02-0.825,1.298,0,1.279c1.052-0.024,1.389-1.018,1.403-1.911
				c0.004-0.363-0.024-0.714-0.079-1.057c0.305,0.173,0.627,0.321,0.975,0.427c1.727,0.523,3.542,0.118,5.301,0.363
				c0.344,0.048,0.683-0.084,0.786-0.447C913.404,840.977,913.215,840.536,912.873,840.489"/>
			<path fill="#DB394D" d="M905.363,839.779l0.023,0.012c-0.315-0.312-0.628-0.626-0.942-0.938l0.02,0.02
				c-1.422-0.925-2.845-1.849-4.266-2.774c-0.335-0.2-0.771-0.648-0.987-0.559c-1.053,0.435-2.061,0.986-3.046,1.562
				c-0.187,0.11-0.194,0.527-0.283,0.802c1.315,0.454,0.823,1.575,0.893,2.472c0.215,2.72,0.476,5.369,3.056,7.121
				c0.968,0.656,1.852,0.782,2.736,0.189c0.583-0.392,0.859-0.901,0.936-1.471c0.108-0.274,0.186-0.56,0.198-0.849
				c0.02-0.442-0.062-0.902-0.174-1.329c-0.089-0.34-0.239-0.646-0.42-0.936c0.148,0.021,0.301,0.023,0.454,0.01
				c0.268-0.023,0.525-0.063,0.773-0.167c0.344-0.145,0.593-0.395,0.741-0.706c0.321-0.352,0.31-0.945,0.283-2.153
				C905.358,839.983,905.362,839.881,905.363,839.779"/>
			<path fill="#FFFBF0" d="M905.664,839.458c-0.458-0.646-1.03-1.187-1.605-1.725c-0.675-0.631-1.351-1.262-2.026-1.892
				c-0.601-0.561-1.507,0.341-0.904,0.904c1.063,0.992,2.223,1.94,3.178,3.04c0.634,0.732,1.283,2.038,0.533,2.924
				c-0.222,0.263-0.258,0.646,0,0.904c0.229,0.229,0.68,0.265,0.904,0C906.773,842.398,906.541,840.692,905.664,839.458"/>
			<path fill="#AB997B" d="M887.075,814.089c-0.018,3.319-0.033,6.637-0.051,9.956c-0.004,0.824,1.274,0.824,1.278,0l0.052-9.956
				C888.358,813.266,887.079,813.265,887.075,814.089"/>
			<path fill="#D8C09B" d="M892.563,837.733c-0.007,0.004-0.009,0.014-0.041-0.002c-0.12-0.063-0.183-0.179-0.245-0.293
				c-0.153-0.284-0.253-0.599-0.371-0.9c-0.3-0.77-0.598-1.541-0.876-2.319c-0.544-1.528-1.006-3.086-1.279-4.687
				c-0.005-0.029-0.02-0.046-0.029-0.073c0.253-0.117,0.44-0.369,0.345-0.716c-0.934-3.464-0.864-7.062-0.712-10.617
				c0.158-3.716,0.488-7.424,1.329-11.054c0.185-0.801-1.047-1.143-1.233-0.34c-0.865,3.739-1.211,7.567-1.374,11.394
				c-0.157,3.668-0.208,7.383,0.757,10.957c0.01,0.034,0.03,0.054,0.042,0.084c-0.235,0.128-0.416,0.373-0.359,0.705
				c0.354,2.078,1.03,4.073,1.78,6.037c0.18,0.472,0.364,0.944,0.55,1.415c0.166,0.42,0.32,0.856,0.633,1.193
				c0.595,0.649,1.661,0.667,2.155-0.104C894.069,837.732,893.023,837.11,892.563,837.733"/>
			<path fill="#67522F" d="M885.097,834.366c-0.657-0.009-1.311,0.026-1.962,0.107c-0.343,0.042-0.64,0.264-0.64,0.639
				c0,0.313,0.294,0.682,0.64,0.64c0.289-0.035,0.579-0.03,0.869-0.047c-0.054,0.074-0.108,0.146-0.155,0.217
				c-0.262,0.386-0.526,0.77-0.792,1.154c-0.55,0.793-1.109,1.578-1.675,2.361c-0.204,0.279-0.048,0.713,0.229,0.875
				c0.323,0.189,0.672,0.052,0.876-0.229c0.584-0.807,1.161-1.619,1.727-2.438c0.285-0.409,0.567-0.82,0.846-1.232
				c0.258-0.383,0.568-0.771,0.656-1.236C885.79,834.769,885.538,834.372,885.097,834.366"/>
			<path fill="#4F3E24" d="M887.605,834.537c-0.133-0.301-0.436-0.438-0.756-0.371c-0.403,0.086-0.805,0.17-1.209,0.256
				c-0.326,0.068-0.515,0.44-0.448,0.752c-0.004,0.007-0.012,0.011-0.016,0.018c-0.333,0.537-0.616,1.107-0.858,1.688
				c-0.48,1.154-0.741,2.382-0.805,3.629c-0.016,0.345,0.308,0.639,0.64,0.639c0.361,0,0.621-0.293,0.639-0.639
				c0.054-1.064,0.288-2.108,0.682-3.098c0.186-0.472,0.428-0.92,0.681-1.359c0.142-0.245,0.161-0.268,0.408-0.376
				c0.26-0.114,0.519-0.228,0.78-0.342C887.631,835.209,887.72,834.799,887.605,834.537"/>
		</g>
	</g>
	<path fill="#D495AB" d="M488.133,313.571h58.578v76.51h-58.578V313.571z M516.774,290.351l29.937,23.267l-58.578,0.344
		L516.774,290.351z"/>
	<rect x="396.711" y="313.962" fill="#F8B4CC" width="91.422" height="76.119"/>
	<polygon fill="#8F5066" points="488.229,313.962 459.611,290.351 516.847,290.351 	"/>
	<polygon fill="#8F5066" points="425.329,290.351 396.711,313.962 453.947,313.962 	"/>
	<rect x="425.329" y="290.35" fill="#8F5066" width="62.9" height="23.611"/>
	<polygon fill="#D495AB" points="525.357,368.719 405.092,393.929 405.092,343.509 	"/>
	<rect x="426.559" y="347.357" fill="#8F5066" width="31.727" height="42.724"/>
	<rect x="458.075" y="347.316" fill="#F8B4CC" width="29.848" height="42.724"/>
	<path fill="#D495AB" d="M618.133,313.571h58.578v76.51h-58.578V313.571z M646.774,290.351l29.937,23.267l-58.578,0.344
		L646.774,290.351z"/>
	<rect x="526.711" y="313.962" fill="#F8B4CC" width="91.422" height="76.119"/>
	<polygon fill="#8F5066" points="618.229,313.962 589.611,290.351 646.847,290.351 	"/>
	<polygon fill="#8F5066" points="555.329,290.351 526.711,313.962 583.947,313.962 	"/>
	<rect x="555.329" y="290.35" fill="#8F5066" width="62.9" height="23.611"/>
	<polygon fill="#D495AB" points="655.357,368.719 535.092,393.929 535.092,343.509 	"/>
	<rect x="556.559" y="347.357" fill="#8F5066" width="31.727" height="42.724"/>
	<rect x="588.075" y="347.316" fill="#F8B4CC" width="29.848" height="42.724"/>
	<path fill="#D495AB" d="M748.133,313.571h58.577v76.51h-58.577V313.571z M776.774,290.351l29.937,23.267l-58.578,0.344
		L776.774,290.351z"/>
	<rect x="656.711" y="313.962" fill="#F8B4CC" width="91.423" height="76.119"/>
	<polygon fill="#8F5066" points="748.228,313.962 719.611,290.351 776.846,290.351 	"/>
	<polygon fill="#8F5066" points="685.329,290.351 656.711,313.962 713.947,313.962 	"/>
	<rect x="685.33" y="290.35" fill="#8F5066" width="62.899" height="23.611"/>
	<polygon fill="#D495AB" points="785.356,368.719 665.091,393.929 665.091,343.509 	"/>
	<rect x="686.558" y="347.357" fill="#8F5066" width="31.728" height="42.724"/>
	<rect x="718.075" y="347.316" fill="#F8B4CC" width="29.848" height="42.724"/>
	<path fill="#D495AB" d="M875.702,313.275h58.578v76.511h-58.578V313.275z M904.343,290.055l29.937,23.268l-58.578,0.343
		L904.343,290.055z"/>
	<rect x="784.28" y="313.962" fill="#F8B4CC" width="91.422" height="76.119"/>
	<polygon fill="#8F5066" points="875.798,313.666 847.18,290.055 904.416,290.055 	"/>
	<polygon fill="#8F5066" points="812.898,290.055 784.28,313.666 841.516,313.666 	"/>
	<rect x="812.898" y="290.055" fill="#8F5066" width="62.9" height="23.611"/>
	<polygon fill="#D495AB" points="913.136,368.465 792.871,393.675 792.871,343.254 	"/>
	<rect x="845.854" y="347.061" fill="#F8B4CC" width="29.848" height="42.724"/>
	<rect x="814.128" y="347.061" fill="#8F5066" width="31.727" height="42.724"/>
	<path fill="#D495AB" d="M1005.702,313.275h58.578v76.511h-58.578V313.275z M1034.343,290.055l29.937,23.268l-58.578,0.343
		L1034.343,290.055z"/>
	<rect x="914.28" y="313.666" fill="#F8B4CC" width="91.422" height="76.119"/>
	<polygon fill="#8F5066" points="1005.798,313.666 977.18,290.055 1034.416,290.055 	"/>
	<polygon fill="#8F5066" points="942.898,290.055 914.28,313.666 971.516,313.666 	"/>
	<rect x="942.898" y="290.055" fill="#8F5066" width="62.9" height="23.611"/>
	<polygon fill="#D495AB" points="1043.136,368.465 922.871,393.675 922.871,343.254 	"/>
	<rect x="975.854" y="347.061" fill="#F8B4CC" width="29.848" height="42.724"/>
	<rect x="944.128" y="347.061" fill="#8F5066" width="31.727" height="42.724"/>
	<path fill="#D495AB" d="M1135.703,313.275h58.577v76.511h-58.577V313.275z M1164.344,290.055l29.937,23.268l-58.578,0.343
		L1164.344,290.055z"/>
	<rect x="1044.28" y="313.666" fill="#F8B4CC" width="91.423" height="76.119"/>
	<polygon fill="#8F5066" points="1135.798,313.666 1107.181,290.055 1164.416,290.055 	"/>
	<polygon fill="#8F5066" points="1072.898,290.055 1044.28,313.666 1101.516,313.666 	"/>
	<rect x="1072.899" y="290.055" fill="#8F5066" width="62.899" height="23.611"/>
	<polygon fill="#D495AB" points="1173.136,368.465 1052.871,393.675 1052.871,343.254 	"/>
	<rect x="1105.855" y="347.061" fill="#F8B4CC" width="29.848" height="42.724"/>
	<rect x="1074.127" y="347.061" fill="#8F5066" width="31.728" height="42.724"/>
	<rect style="opacity:0.7;" x="396.711" y="285.865" fill="#FFFCF1" width="803.289" height="109.221"/>
	<polygon fill="#46B5CC" points="406.275,306.06 396.711,313.962 396.711,298.629 	"/>
	<path fill="#D6CC5A" d="M488.55,813.223h58.578v76.511H488.55V813.223z M517.191,790.003l29.937,23.268l-58.578,0.343
		L517.191,790.003z"/>
	<rect x="397.128" y="813.614" fill="#FFF68F" width="91.422" height="76.119"/>
	<polygon fill="#BFA152" points="488.646,813.614 460.028,790.003 517.264,790.003 	"/>
	<polygon fill="#BFA152" points="425.746,790.003 397.128,813.614 454.364,813.614 	"/>
	<rect x="425.746" y="790.003" fill="#BFA152" width="62.9" height="23.611"/>
	<polygon fill="#D6CC5A" points="525.984,868.413 405.719,893.623 405.719,843.202 	"/>
	<rect x="458.702" y="847.009" fill="#FFF68F" width="29.848" height="42.724"/>
	<rect x="426.976" y="847.009" fill="#BFA152" width="31.727" height="42.724"/>
	<path fill="#D6CC5A" d="M618.55,813.223h58.578v76.511H618.55V813.223z M647.191,790.003l29.937,23.268l-58.578,0.343
		L647.191,790.003z"/>
	<rect x="527.128" y="813.614" fill="#FFF68F" width="91.422" height="76.119"/>
	<polygon fill="#BFA152" points="618.646,813.614 590.028,790.003 647.264,790.003 	"/>
	<polygon fill="#BFA152" points="555.746,790.003 527.128,813.614 584.364,813.614 	"/>
	<rect x="555.746" y="790.003" fill="#BFA152" width="62.9" height="23.611"/>
	<polygon fill="#D6CC5A" points="655.984,868.413 535.719,893.623 535.719,843.202 	"/>
	<rect x="588.702" y="847.009" fill="#FFF68F" width="29.848" height="42.724"/>
	<rect x="556.976" y="847.009" fill="#BFA152" width="31.727" height="42.724"/>
	<path fill="#D6CC5A" d="M748.55,813.223h58.577v76.511H748.55V813.223z M777.191,790.003l29.937,23.268l-58.578,0.343
		L777.191,790.003z"/>
	<rect x="657.128" y="813.614" fill="#FFF68F" width="91.423" height="76.119"/>
	<polygon fill="#BFA152" points="748.645,813.614 720.028,790.003 777.263,790.003 	"/>
	<polygon fill="#BFA152" points="685.746,790.003 657.128,813.614 714.364,813.614 	"/>
	<rect x="685.747" y="790.003" fill="#BFA152" width="62.899" height="23.611"/>
	<polygon fill="#D6CC5A" points="785.984,868.413 665.719,893.623 665.719,843.202 	"/>
	<rect x="718.703" y="847.009" fill="#FFF68F" width="29.848" height="42.724"/>
	<rect x="686.975" y="847.009" fill="#BFA152" width="31.728" height="42.724"/>
	<rect style="opacity:0.7;" x="386.605" y="786.687" fill="#FFFCF1" width="421.107" height="109.221"/>
	
		<rect x="526.797" y="798.088" fill="none" stroke="#D495AB" stroke-linecap="round" stroke-linejoin="round" stroke-miterlimit="10" width="0.01" height="0.01"/>
	<rect x="396.55" y="300.626" fill="#46B5CC" width="0.161" height="13.106"/>
	<rect style="opacity:0.7;" x="961.695" y="410.865" fill="#FFFCF1" width="4.022" height="23.589"/>
	<path fill="#46B5CC" d="M95.273,1288.44h58.578v76.51H95.273V1288.44z M123.914,1265.22l29.937,23.267l-58.578,0.344
		L123.914,1265.22z"/>
	<rect x="3.851" y="1288.831" fill="#B1DFE9" width="91.422" height="76.119"/>
	<polygon fill="#00657A" points="95.369,1288.831 66.751,1265.22 123.987,1265.22 	"/>
	<polygon fill="#00657A" points="32.469,1265.22 3.851,1288.831 61.087,1288.831 	"/>
	<rect x="32.469" y="1265.22" fill="#00657A" width="62.9" height="23.611"/>
	<rect x="33.699" y="1322.226" fill="#00657A" width="31.727" height="42.724"/>
	<path fill="#FFF264" d="M60.704,1341.818c-2.462,0-2.466,3.826,0,3.826C63.165,1345.644,63.169,1341.818,60.704,1341.818"/>
	<path fill="#46B5CC" d="M225.273,1288.44h58.578v76.51h-58.578V1288.44z M253.914,1265.22l29.937,23.267l-58.578,0.344
		L253.914,1265.22z"/>
	<rect x="133.851" y="1288.831" fill="#B1DFE9" width="91.422" height="76.119"/>
	<polygon fill="#00657A" points="225.369,1288.831 196.751,1265.22 253.987,1265.22 	"/>
	<polygon fill="#00657A" points="162.469,1265.22 133.851,1288.831 191.087,1288.831 	"/>
	<rect x="162.469" y="1265.22" fill="#00657A" width="62.9" height="23.611"/>
	<rect x="163.699" y="1322.226" fill="#00657A" width="31.727" height="42.724"/>
	<path fill="#FFF264" d="M190.704,1341.818c-2.462,0-2.466,3.826,0,3.826C193.165,1345.644,193.169,1341.818,190.704,1341.818"/>
	<path fill="#46B5CC" d="M355.274,1288.44h58.577v76.51h-58.577V1288.44z M383.915,1265.22l29.937,23.267l-58.578,0.344
		L383.915,1265.22z"/>
	<rect x="263.851" y="1288.831" fill="#B1DFE9" width="91.423" height="76.119"/>
	<polygon fill="#00657A" points="355.369,1288.831 326.752,1265.22 383.987,1265.22 	"/>
	<polygon fill="#00657A" points="292.469,1265.22 263.851,1288.831 321.087,1288.831 	"/>
	<rect x="292.47" y="1265.22" fill="#00657A" width="62.899" height="23.611"/>
	<rect x="293.698" y="1322.226" fill="#00657A" width="31.728" height="42.724"/>
	<path fill="#FFF264" d="M320.704,1341.818c-2.462,0-2.466,3.826,0,3.826C323.165,1345.644,323.17,1341.818,320.704,1341.818"/>
	<path fill="#D495AB" d="M485.984,1288.44h58.578v76.51h-58.578V1288.44z M514.625,1265.22l29.937,23.267l-58.578,0.344
		L514.625,1265.22z"/>
	<rect x="394.562" y="1288.832" fill="#F8B4CC" width="91.422" height="76.119"/>
	<polygon fill="#8F5066" points="486.08,1288.831 457.462,1265.22 514.698,1265.22 	"/>
	<polygon fill="#8F5066" points="423.18,1265.22 394.562,1288.831 451.798,1288.831 	"/>
	<rect x="423.18" y="1265.22" fill="#8F5066" width="62.9" height="23.611"/>
	<polygon fill="#D495AB" points="523.208,1343.588 402.943,1368.798 402.943,1318.378 	"/>
	<rect x="424.41" y="1322.227" fill="#8F5066" width="31.727" height="42.724"/>
	<rect x="455.926" y="1322.186" fill="#F8B4CC" width="29.848" height="42.724"/>
	<path fill="#D495AB" d="M615.984,1288.44h58.578v76.51h-58.578V1288.44z M644.625,1265.22l29.937,23.267l-58.578,0.344
		L644.625,1265.22z"/>
	<rect x="524.562" y="1288.832" fill="#F8B4CC" width="91.422" height="76.119"/>
	<polygon fill="#8F5066" points="616.08,1288.831 587.462,1265.22 644.698,1265.22 	"/>
	<polygon fill="#8F5066" points="553.18,1265.22 524.562,1288.831 581.798,1288.831 	"/>
	<rect x="553.18" y="1265.22" fill="#8F5066" width="62.9" height="23.611"/>
	<polygon fill="#D495AB" points="653.208,1343.588 532.943,1368.798 532.943,1318.378 	"/>
	<rect x="554.41" y="1322.227" fill="#8F5066" width="31.727" height="42.724"/>
	<rect x="585.926" y="1322.186" fill="#F8B4CC" width="29.848" height="42.724"/>
	<rect x="654.562" y="1288.832" fill="#F8B4CC" width="91.423" height="76.119"/>
	<polygon fill="#8F5066" points="746.08,1288.831 717.463,1265.22 774.698,1265.22 	"/>
	<polygon fill="#8F5066" points="683.18,1265.22 654.562,1288.831 711.798,1288.831 	"/>
	<rect x="683.181" y="1265.22" fill="#8F5066" width="62.899" height="23.611"/>
	<polygon fill="#D495AB" points="783.208,1343.588 662.943,1368.798 662.943,1318.378 	"/>
	<rect x="715.926" y="1322.186" fill="#F8B4CC" width="29.848" height="42.724"/>
	<path fill="#D6CC5A" d="M873.544,1288.441h58.578v76.511h-58.578V1288.441z M902.185,1265.221l29.937,23.268l-58.578,0.343
		L902.185,1265.221z"/>
	<path fill="#D6CC5A" d="M745.984,1288.44h58.577v76.51h-58.577V1288.44z M774.626,1265.22l29.937,23.267l-58.578,0.344
		L774.626,1265.22z"/>
	<rect x="782.122" y="1288.832" fill="#FFF68F" width="91.422" height="76.119"/>
	<polygon fill="#BFA152" points="873.64,1288.832 845.022,1265.221 902.258,1265.221 	"/>
	<polygon fill="#BFA152" points="810.74,1265.221 782.122,1288.832 839.358,1288.832 	"/>
	<rect x="810.74" y="1265.221" fill="#BFA152" width="62.9" height="23.611"/>
	<polygon fill="#D6CC5A" points="910.978,1343.631 790.713,1368.841 790.713,1318.42 	"/>
	<rect x="843.696" y="1322.227" fill="#FFF68F" width="29.848" height="42.724"/>
	<rect x="811.97" y="1322.227" fill="#BFA152" width="31.727" height="42.724"/>
	<path fill="#D6CC5A" d="M1003.544,1288.441h58.578v76.511h-58.578V1288.441z M1032.185,1265.221l29.937,23.268l-58.578,0.343
		L1032.185,1265.221z"/>
	<rect x="912.122" y="1288.832" fill="#FFF68F" width="91.422" height="76.119"/>
	<polygon fill="#BFA152" points="1003.64,1288.832 975.022,1265.221 1032.258,1265.221 	"/>
	<polygon fill="#BFA152" points="940.74,1265.221 912.122,1288.832 969.358,1288.832 	"/>
	<rect x="940.74" y="1265.221" fill="#BFA152" width="62.9" height="23.611"/>
	<polygon fill="#D6CC5A" points="1040.978,1343.631 920.713,1368.841 920.713,1318.42 	"/>
	<rect x="973.696" y="1322.227" fill="#FFF68F" width="29.848" height="42.724"/>
	<rect x="941.97" y="1322.227" fill="#BFA152" width="31.727" height="42.724"/>
	<path fill="#D6CC5A" d="M1133.544,1288.441h58.577v76.511h-58.577V1288.441z M1162.186,1265.221l29.937,23.268l-58.578,0.343
		L1162.186,1265.221z"/>
	<rect x="1042.122" y="1288.832" fill="#FFF68F" width="91.423" height="76.119"/>
	<polygon fill="#BFA152" points="1133.64,1288.832 1105.023,1265.221 1162.258,1265.221 	"/>
	<polygon fill="#BFA152" points="1070.74,1265.221 1042.122,1288.832 1099.358,1288.832 	"/>
	<rect x="1070.741" y="1265.221" fill="#BFA152" width="62.899" height="23.611"/>
	<polygon fill="#D6CC5A" points="1170.978,1343.631 1050.713,1368.841 1050.713,1318.42 	"/>
	<rect x="1103.697" y="1322.227" fill="#FFF68F" width="29.848" height="42.724"/>
	<rect x="1071.969" y="1322.227" fill="#BFA152" width="31.728" height="42.724"/>
	<path fill="#FFFCF1" d="M782.122,1271.353"/>
	<path fill="#D495AB" d="M745.984,1288.44h30.84v76.51h-30.84V1288.44z M774.626,1265.22l-0.612,24.294l-28.029-0.684
		L774.626,1265.22z"/>
	<path fill="#D495AB" d="M773.542,1266.924h3.283v22.59h-3.283V1266.924z"/>
	<path fill="#D495AB" d="M774.626,1265.22l-0.1,1.774l2.299-0.07L774.626,1265.22z"/>
	<rect x="684.409" y="1322.227" fill="#8F5066" width="31.728" height="42.724"/>
	<rect style="opacity:0.7;" x="2.851" y="1260.734" fill="#FFFCF1" width="773.973" height="109.221"/>
</g>
<style>
#g-pantries-desktop-img rect, #g-pantries-desktop-img circle, #g-pantries-desktop-img path, #g-pantries-desktop-img line, #g-pantries-desktop-img polyline { vector-effect: non-scaling-stroke; }
</style>
</svg>

