<?xml version="1.0" encoding="utf-8"?>
<!-- Generator: Adobe Illustrator 23.1.1, SVG Export Plug-In . SVG Version: 6.00 Build 0)  -->
<svg version="1.2" baseProfile="tiny" id="g-pantries-mobile-img" xmlns="http://www.w3.org/2000/svg" xmlns:xlink="http://www.w3.org/1999/xlink"
	 x="0px" y="0px" viewBox="0 0 300 2200" xml:space="preserve">
<g>
	<path fill="#D495AB" d="M68.408,373.872h42.235v55.164H68.408V373.872z M89.058,357.131l21.585,16.776l-42.235,0.248
		L89.058,357.131z"/>
	<rect x="2.492" y="374.155" fill="#F8B4CC" width="65.915" height="54.882"/>
	<polygon fill="#8F5066" points="68.477,374.154 47.843,357.131 89.111,357.131 	"/>
	<polygon fill="#8F5066" points="23.126,357.131 2.493,374.154 43.76,374.154 	"/>
	<rect x="23.126" y="357.13" fill="#8F5066" width="45.351" height="17.024"/>
	<polygon fill="#D495AB" points="95.246,413.634 8.535,431.811 8.535,395.458 	"/>
	<rect x="24.013" y="398.232" fill="#8F5066" width="22.875" height="30.804"/>
	<rect x="46.736" y="398.203" fill="#F8B4CC" width="21.52" height="30.804"/>
	<path fill="#D495AB" d="M162.138,373.872h42.235v55.164h-42.235V373.872z M182.788,357.131l21.585,16.776l-42.235,0.248
		L182.788,357.131z"/>
	<rect x="96.222" y="374.155" fill="#F8B4CC" width="65.915" height="54.882"/>
	<polygon fill="#8F5066" points="162.207,374.154 141.573,357.131 182.841,357.131 	"/>
	<polygon fill="#8F5066" points="116.856,357.131 96.223,374.154 137.49,374.154 	"/>
	<rect x="116.856" y="357.13" fill="#8F5066" width="45.351" height="17.024"/>
	<polygon fill="#D495AB" points="188.976,413.634 102.265,431.811 102.265,395.458 	"/>
	<rect x="117.743" y="398.232" fill="#8F5066" width="22.875" height="30.804"/>
	<rect x="140.466" y="398.203" fill="#F8B4CC" width="21.52" height="30.804"/>
	<path fill="#D495AB" d="M255.868,373.872h42.234v55.164h-42.234V373.872z M276.518,357.131l21.585,16.776l-42.235,0.248
		L276.518,357.131z"/>
	<rect x="189.952" y="374.155" fill="#F8B4CC" width="65.916" height="54.882"/>
	<polygon fill="#8F5066" points="255.937,374.154 235.304,357.131 276.57,357.131 	"/>
	<polygon fill="#8F5066" points="210.586,357.131 189.953,374.154 231.22,374.154 	"/>
	<rect x="210.587" y="357.13" fill="#8F5066" width="45.35" height="17.024"/>
	<polygon fill="#D495AB" points="282.706,413.634 195.995,431.811 195.995,395.458 	"/>
	<rect x="211.472" y="398.232" fill="#8F5066" width="22.876" height="30.804"/>
	<rect x="234.196" y="398.203" fill="#F8B4CC" width="21.52" height="30.804"/>
	<rect style="opacity:0.7;" x="2.493" y="353.897" fill="#FFFCF1" width="295.947" height="78.748"/>
	<path fill="#46B5CC" d="M68.576,284.46h42.235v55.164H68.576V284.46z M89.226,267.719l21.585,16.776l-42.235,0.248L89.226,267.719z
		"/>
	<rect x="2.661" y="284.742" fill="#B1DFE9" width="65.915" height="54.882"/>
	<polygon fill="#00657A" points="68.645,284.742 48.012,267.719 89.279,267.719 	"/>
	<polygon fill="#00657A" points="23.295,267.719 2.661,284.742 43.928,284.742 	"/>
	<rect x="23.294" y="267.719" fill="#00657A" width="45.351" height="17.024"/>
	<rect x="24.181" y="308.82" fill="#00657A" width="22.875" height="30.804"/>
	<path fill="#FFF264" d="M43.651,322.946c-1.775,0-1.778,2.759,0,2.759C45.426,325.705,45.429,322.946,43.651,322.946"/>
	<path fill="#46B5CC" d="M162.306,284.46h42.235v55.164h-42.235V284.46z M182.956,267.719l21.585,16.776l-42.235,0.248
		L182.956,267.719z"/>
	<rect x="96.391" y="284.742" fill="#B1DFE9" width="65.915" height="54.882"/>
	<polygon fill="#00657A" points="162.375,284.742 141.742,267.719 183.009,267.719 	"/>
	<polygon fill="#00657A" points="117.025,267.719 96.391,284.742 137.658,284.742 	"/>
	<rect x="117.024" y="267.719" fill="#00657A" width="45.351" height="17.024"/>
	<rect x="117.911" y="308.82" fill="#00657A" width="22.875" height="30.804"/>
	<path fill="#FFF264" d="M137.381,322.946c-1.775,0-1.778,2.759,0,2.759C139.156,325.705,139.159,322.946,137.381,322.946"/>
	<polyline fill="#46B5CC" points="298.27,339.624 256.036,339.624 256.036,284.46 298.27,284.46 	"/>
	<polyline fill="#46B5CC" points="298.271,284.494 256.036,284.742 276.687,267.719 298.271,284.494 	"/>
	<rect x="190.121" y="284.742" fill="#B1DFE9" width="65.916" height="54.882"/>
	<polygon fill="#00657A" points="256.105,284.742 235.472,267.719 276.739,267.719 	"/>
	<polygon fill="#00657A" points="210.755,267.719 190.121,284.742 231.388,284.742 	"/>
	<rect x="210.755" y="267.719" fill="#00657A" width="45.35" height="17.024"/>
	<rect x="211.641" y="308.82" fill="#00657A" width="22.876" height="30.804"/>
	<path fill="#FFF264" d="M231.111,322.946c-1.775,0-1.778,2.759,0,2.759C232.886,325.705,232.889,322.946,231.111,322.946"/>
	<path fill="#D495AB" d="M67.815,1017.94h42.235v55.164H67.815V1017.94z M88.465,1001.199l21.585,16.776l-42.235,0.248
		L88.465,1001.199z"/>
	<rect x="1.9" y="1018.223" fill="#F8C1D5" width="65.915" height="54.882"/>
	<polygon fill="#8F5066" points="67.884,1018.222 47.251,1001.199 88.518,1001.199 	"/>
	<polygon fill="#8F5066" points="22.533,1001.199 1.9,1018.222 43.167,1018.222 	"/>
	<rect x="22.533" y="1001.198" fill="#8F5066" width="45.351" height="17.024"/>
	<polygon fill="#D495AB" points="94.653,1057.702 7.942,1075.879 7.942,1039.526 	"/>
	<rect x="23.42" y="1042.301" fill="#8F5066" width="22.875" height="30.804"/>
	<rect x="46.143" y="1042.271" fill="#F8C1D5" width="21.52" height="30.804"/>
	<path fill="#D495AB" d="M161.545,1017.94h42.235v55.164h-42.235V1017.94z M182.195,1001.199l21.585,16.776l-42.235,0.248
		L182.195,1001.199z"/>
	<rect x="95.63" y="1018.223" fill="#F8C1D5" width="65.915" height="54.882"/>
	<polygon fill="#8F5066" points="161.614,1018.222 140.981,1001.199 182.248,1001.199 	"/>
	<polygon fill="#8F5066" points="116.263,1001.199 95.63,1018.222 136.897,1018.222 	"/>
	<rect x="116.263" y="1001.198" fill="#8F5066" width="45.351" height="17.024"/>
	<polygon fill="#D495AB" points="188.383,1057.702 101.672,1075.879 101.672,1039.526 	"/>
	<rect x="117.15" y="1042.301" fill="#8F5066" width="22.875" height="30.804"/>
	<rect x="139.873" y="1042.271" fill="#F8C1D5" width="21.52" height="30.804"/>
	<path fill="#D495AB" d="M67.815,1110.222h42.234v55.164H67.815V1110.222z M88.466,1093.48l21.585,16.776l-42.235,0.248
		L88.466,1093.48z"/>
	<rect x="1.9" y="1110.504" fill="#F8C1D5" width="65.916" height="54.882"/>
	<polygon fill="#8F5066" points="67.884,1110.504 47.251,1093.48 88.518,1093.48 	"/>
	<polygon fill="#8F5066" points="22.533,1093.48 1.9,1110.504 43.167,1110.504 	"/>
	<rect x="22.534" y="1093.48" fill="#8F5066" width="45.35" height="17.024"/>
	<polygon fill="#D495AB" points="94.653,1149.984 7.942,1168.16 7.942,1131.807 	"/>
	<rect x="23.419" y="1134.582" fill="#8F5066" width="22.876" height="30.804"/>
	<rect x="46.143" y="1134.552" fill="#F8C1D5" width="21.52" height="30.804"/>
	<path fill="#D6CC5A" d="M163.485,1111.664h42.235v55.164h-42.235V1111.664z M184.135,1094.922l21.585,16.776l-42.235,0.247
		L184.135,1094.922z"/>
	<polygon fill="#BFA152" points="163.554,1111.946 142.921,1094.922 184.188,1094.922 	"/>
	<rect x="118.203" y="1094.922" fill="#BFA152" width="45.351" height="17.024"/>
	<path fill="#D6CC5A" d="M67.941,1205.528h42.235v55.164H67.941V1205.528z M88.591,1188.786l21.585,16.776l-42.235,0.247
		L88.591,1188.786z"/>
	<rect x="2.025" y="1205.81" fill="#FFF68F" width="65.915" height="54.882"/>
	<polygon fill="#BFA152" points="68.01,1205.81 47.376,1188.787 88.644,1188.787 	"/>
	<polygon fill="#BFA152" points="22.659,1188.786 2.026,1205.81 43.293,1205.81 	"/>
	<rect x="22.659" y="1188.786" fill="#BFA152" width="45.351" height="17.024"/>
	<polygon fill="#D6CC5A" points="94.931,1245.32 8.219,1263.497 8.219,1227.143 	"/>
	<rect x="46.42" y="1229.888" fill="#FFF68F" width="21.52" height="30.804"/>
	<rect x="23.546" y="1229.888" fill="#BFA152" width="22.875" height="30.804"/>
	<path fill="#D6CC5A" d="M161.671,1205.528h42.234v55.164h-42.234V1205.528z M182.321,1188.786l21.585,16.776l-42.235,0.247
		L182.321,1188.786z"/>
	<rect x="95.755" y="1205.81" fill="#FFF68F" width="65.916" height="54.882"/>
	<polygon fill="#BFA152" points="161.74,1205.81 141.107,1188.787 182.373,1188.787 	"/>
	<polygon fill="#BFA152" points="116.389,1188.786 95.756,1205.81 137.023,1205.81 	"/>
	<rect x="116.39" y="1188.786" fill="#BFA152" width="45.35" height="17.024"/>
	<polygon fill="#D6CC5A" points="188.661,1245.32 101.95,1263.497 101.95,1227.143 	"/>
	<rect x="140.151" y="1229.888" fill="#FFF68F" width="21.52" height="30.804"/>
	<rect x="117.275" y="1229.888" fill="#BFA152" width="22.876" height="30.804"/>
	<rect style="opacity:0.7;" x="2.025" y="1187.74" fill="#FFFCF1" width="202.601" height="78.748"/>
	
		<rect x="1.787" y="1194.616" fill="none" stroke="#D495AB" stroke-linecap="round" stroke-linejoin="round" stroke-miterlimit="10" width="0.007" height="0.007"/>
	<g>
		<g>
			<path fill="#FEFEFE" d="M297.052,1146.008c-1.926,0.525-3.378,1.593-4.271,3.406c-0.099,0.201-0.399,0.423-0.603,0.421
				c-0.258-0.002-0.523-0.21-0.765-0.361c-0.107-0.067-0.165-0.212-0.286-0.377c-1.08,1.122-2.45,0.926-3.707,0.642
				c-1.604-0.363-1.19-2.03-1.806-3.313c-0.864,0.124-1.826,0.227-2.769,0.425c-0.192,0.041-0.381,0.423-0.443,0.68
				c-0.082,0.338-0.038,0.706-0.049,1.062c0.117,0.756-0.573,0.943-0.953,1.348c0.018,0.649,0.036,1.297,0.055,1.945
				c0.076,0.296,0.154,0.591,0.23,0.887c0.014,0.59,0.028,1.179,0.042,1.77c0.609,0.423,0.24,1.009,0.255,1.532
				c0.009,0.475,0.019,0.95,0.028,1.425l0.188,0.515c0.579,1.584,1.098,3.193,1.758,4.743c0.397,0.933,0.421,1.174-0.45,1.693
				c-0.254,0.151-0.505,0.307-0.758,0.46c0.254,0.108,0.509,0.216,0.763,0.324l0.012,0.008c0.5,0.145,1.031,0.228,1.494,0.451
				c0.59,0.284,0.666,1.048,0.358,1.688c-0.148,0.307-0.2,0.741-0.108,1.065c0.302,1.072,0.036,2.028-0.766,2.411
				c-0.319,0.012-0.638,0.024-0.958,0.036c-0.117-0.081-0.235-0.162-0.352-0.244c-0.163-0.002-0.327-0.005-0.49-0.007
				c-0.001,0.055-0.003,0.109-0.002,0.164c0.03,1.274,0.03,1.274-1.318,1.514c0.077,0.323,0.134,0.648,0.232,0.959
				c0.197,0.624,0.161,1.211-0.408,1.593c-0.473,0.317-0.946,0.25-1.464-0.101c-1.38-0.937-1.52-2.355-1.635-3.81
				c-0.038-0.48,0.225-1.079-0.478-1.322c-0.494,0.17-0.979,0.386-1.486,0.496c-0.43,0.094-0.714-0.052-0.868-0.586
				c-0.378-1.31-0.87-2.588-1.325-3.875c-0.019-0.055-0.135-0.075-0.207-0.111l-0.123,0.98c-0.035,0.217-0.071,0.433-0.106,0.65
				c-0.132,0.135-0.263,0.271-0.394,0.407c0.225,0.468,0.447,0.938,0.674,1.404c0.059,0.12,0.175,0.223,0.203,0.347
				c0.59,2.651,1.851,5.011,3.087,7.397c0.629,1.214,1.144,2.471,1.092,3.979c-0.051,1.484,0.476,2.979,0.632,4.481
				c0.098,0.939,0.021,1.905-0.056,2.852c-0.069,0.849-0.815,0.965-1.456,1.156c-0.052,0.405-0.105,0.81-0.157,1.215
				c0.526,0.162,1.042,0.371,1.58,0.477c1.216,0.239,2.384,0.553,3.301,1.502c-0.302,0.625-0.691,0.92-1.402,0.898
				c-1.667-0.052-3.336,0.006-5.004-0.035c-0.359-0.009-0.972-0.188-1.018-0.391c-0.119-0.52-0.047-1.112,0.074-1.647
				c0.063-0.278,0.393-0.494,0.602-0.739c-0.098-0.412-0.197-0.825-0.295-1.238c-0.615-0.006-1.241,0.054-1.843-0.039
				c-0.644-0.099-0.946-0.499-0.956-1.238c-0.029-2.37-0.145-4.738-0.237-7.107c-0.007-0.182-0.061-0.375-0.139-0.54
				c-0.697-1.452-1.404-2.899-2.109-4.346c-0.091-0.009-0.242-0.055-0.263-0.022c-0.594,0.988-1.182,1.98-1.757,2.98
				c-1.274,2.219-2.538,4.444-3.811,6.664c-0.428,0.746-0.859,1.491-1.313,2.221c-0.464,0.746-1.169,0.818-1.84,0.244
				c-0.306-0.261-0.654-0.474-0.983-0.709c-0.067,0.171-0.134,0.342-0.2,0.513c0.596,0.859,1.215,1.704,1.779,2.583
				c0.265,0.414,0.5,0.878,0.614,1.351c0.134,0.555-0.819,1.091-1.356,0.702c-1.235-0.896-2.475-1.811-3.57-2.868
				c-0.882-0.85-0.482-1.892,0.723-2.283c0.032-0.531,0.065-1.063,0.097-1.594c-0.634-0.35-1.272-0.694-1.902-1.051
				c-1.142-0.646-1.189-1.248-0.328-2.235c0.966-1.109,1.952-2.225,2.736-3.461c0.802-1.261,1.372-2.669,2.038-4.016
				c0.903-1.827,1.793-3.662,2.706-5.485c0.285-0.569,0.625-1.11,0.941-1.664c-0.552-2.053-0.009-4.09,0.213-6.106
				c0.131-1.188,0.74-2.349,1.258-3.465c0.84-1.809,1.657-3.649,2.717-5.329c1.062-1.681,1.884-3.544,3.419-4.916
				c0.977-0.872,1.779-1.959,2.817-2.737c1.142-0.856,2.418-1.58,3.73-2.139c0.663-0.282,1.569-0.423,2.292,0.167
				c0.595-0.044,1.198-0.04,1.782-0.143c0.931-0.164,1.883-0.31,2.759-0.641c0.431-0.162,0.812-0.672,1.041-1.114
				c0.593-1.144,1.315-2.074,2.547-2.629c0.943-0.425,1.714-1.3,2.677-1.592c1.877-0.567,3.76-0.816,5.443,0.805
				c1.544,1.487,2.498,3.153,2.427,5.307C299.082,1144.712,298.458,1145.625,297.052,1146.008"/>
			<path fill="#D8C09B" d="M264.005,1167.86c-0.551-2.053-0.009-4.09,0.213-6.106c0.131-1.188,0.74-2.349,1.258-3.465
				c0.84-1.808,1.657-3.649,2.717-5.328c1.062-1.682,1.884-3.545,3.419-4.916c0.976-0.872,1.778-1.959,2.817-2.737
				c1.142-0.855,2.418-1.58,3.73-2.139c0.663-0.282,1.569-0.423,2.291,0.167c-0.077,2.009,0.541,3.767,1.903,5.256
				c0.116,0.756-0.573,0.943-0.953,1.348c-1.728,1.043-2.522,2.823-3.039,4.567c-0.666,2.239-0.253,4.571,0.428,6.815
				c0.297,0.979,0.52,1.98,0.815,2.959c0.181,0.603,0.436,1.184,0.658,1.774c0.053,0.29,0.065,0.594,0.167,0.865
				c0.27,0.718,0.195,1.314-0.49,1.754c-0.179-0.107-0.413-0.347-0.527-0.3c-0.563,0.233-1.103,0.527-1.63,0.836
				c-0.1,0.059-0.104,0.281-0.151,0.428c-0.494,0.171-0.979,0.386-1.486,0.496c-0.43,0.094-0.714-0.052-0.868-0.586
				c-0.378-1.31-0.869-2.588-1.325-3.875c-0.019-0.055-0.135-0.075-0.207-0.111c-0.079-0.265-0.214-0.527-0.225-0.794
				c-0.033-0.776-0.016-1.555-0.019-2.333c0.004-0.724,0.031-1.45-0.004-2.172c-0.011-0.218-0.193-0.428-0.297-0.641
				c-0.001-0.76-0.002-1.52-0.003-2.281c0.101-0.116,0.201-0.233,0.302-0.348c0.112-0.763,0.226-1.527,0.338-2.29
				c0.052-0.113,0.105-0.225,0.157-0.338c0.113-0.38,0.226-0.76,0.34-1.14c0.008-0.089,0.015-0.179,0.024-0.269
				c-0.061,0.09-0.122,0.18-0.184,0.271c-0.201,0.215-0.519,0.399-0.586,0.65c-0.435,1.648-0.943,3.292-1.177,4.973
				c-0.227,1.634-0.134,3.312-0.218,4.968c-0.062,1.212-0.184,2.421-0.267,3.467c-0.415,0.244-0.653,0.384-0.891,0.524
				c-0.971,0.052-1.942,0.144-2.914,0.146C266.749,1167.959,265.377,1167.895,264.005,1167.86"/>
			<path fill="#67522F" d="M264.005,1167.86c1.371,0.035,2.743,0.099,4.115,0.097c0.972-0.002,1.943-0.094,2.914-0.146
				c0.389,0.013,0.777,0.025,1.166,0.038c-0.31,0.622-0.657,1.229-0.922,1.87c-0.373,0.911-0.692,1.843-1.02,2.771
				c-0.4,1.131-0.98,2.236-0.564,3.5c-0.091-0.009-0.242-0.055-0.263-0.022c-0.594,0.988-1.183,1.98-1.757,2.98
				c-1.274,2.219-2.537,4.444-3.81,6.663c-0.428,0.746-0.859,1.491-1.314,2.221c-0.464,0.746-1.169,0.818-1.84,0.244
				c-0.305-0.262-0.654-0.475-0.983-0.71c-0.35-0.876-1.051-1.331-1.912-1.595c-0.634-0.35-1.272-0.695-1.903-1.051
				c-1.142-0.646-1.189-1.248-0.328-2.235c0.966-1.109,1.952-2.225,2.737-3.461c0.801-1.261,1.372-2.668,2.038-4.016
				c0.903-1.827,1.793-3.662,2.706-5.485C263.35,1168.954,263.69,1168.414,264.005,1167.86"/>
			<path fill="#DB394D" d="M282.354,1148.592c-1.361-1.489-1.979-3.247-1.902-5.256c0.595-0.044,1.198-0.039,1.783-0.142
				c0.931-0.164,1.883-0.31,2.758-0.641c0.431-0.163,0.812-0.672,1.041-1.114c0.593-1.144,1.314-2.074,2.547-2.629
				c0.943-0.425,1.713-1.3,2.677-1.591c1.876-0.568,3.76-0.816,5.443,0.805c1.544,1.487,2.498,3.153,2.427,5.306
				c-0.045,1.384-0.67,2.297-2.075,2.68c-1.927,0.525-3.379,1.593-4.271,3.406c-0.099,0.201-0.399,0.423-0.603,0.421
				c-0.257-0.002-0.522-0.21-0.764-0.361c-0.107-0.067-0.165-0.212-0.287-0.377c-1.08,1.122-2.45,0.926-3.707,0.642
				c-1.603-0.363-1.189-2.03-1.805-3.313c-0.865,0.124-1.826,0.227-2.769,0.425c-0.192,0.041-0.381,0.423-0.443,0.68
				C282.32,1147.868,282.365,1148.236,282.354,1148.592"/>
			<path fill="#4F3E24" d="M269.694,1175.99c-0.416-1.264,0.165-2.369,0.564-3.5c0.328-0.928,0.647-1.861,1.02-2.771
				c0.264-0.641,0.612-1.248,0.922-1.87c0.307-0.083,0.615-0.165,0.922-0.247c0.225,0.468,0.447,0.937,0.675,1.403
				c0.059,0.121,0.175,0.223,0.202,0.348c0.59,2.651,1.851,5.011,3.088,7.397c0.629,1.214,1.144,2.47,1.091,3.979
				c-0.051,1.483,0.476,2.978,0.632,4.481c0.098,0.939,0.021,1.905-0.055,2.852c-0.069,0.849-0.815,0.965-1.457,1.157
				c-0.773,0.014-1.546,0.028-2.319,0.042c-0.615-0.007-1.241,0.053-1.843-0.039c-0.644-0.099-0.948-0.499-0.956-1.238
				c-0.029-2.369-0.145-4.738-0.237-7.107c-0.006-0.182-0.06-0.374-0.139-0.54C271.106,1178.885,270.399,1177.438,269.694,1175.99"
				/>
			<path fill="#AA977B" d="M280.263,1166.055c-0.222-0.591-0.477-1.172-0.658-1.775c-0.295-0.979-0.517-1.98-0.815-2.959
				c-0.681-2.244-1.094-4.575-0.428-6.815c0.517-1.744,1.311-3.524,3.039-4.567c0.018,0.649,0.036,1.297,0.054,1.945
				c0.077,0.295,0.153,0.592,0.23,0.887c0.014,0.59,0.028,1.179,0.042,1.77c0.085,0.51,0.171,1.021,0.256,1.532
				c0.009,0.475,0.018,0.95,0.028,1.425c0.062,0.171,0.124,0.343,0.187,0.515c0.578,1.584,1.098,3.193,1.757,4.743
				c0.397,0.932,0.422,1.174-0.448,1.693c-0.254,0.151-0.506,0.307-0.757,0.458c-0.081,0.087-0.163,0.176-0.244,0.266
				c-0.095,0.022-0.189,0.044-0.283,0.065c-0.112,0.102-0.224,0.204-0.336,0.305c-0.233,0.175-0.465,0.349-0.698,0.524
				C280.881,1166.062,280.572,1166.059,280.263,1166.055"/>
			<path fill="#5F5B54" d="M277.141,1190.434c0.526,0.162,1.042,0.371,1.58,0.477c1.216,0.238,2.384,0.553,3.301,1.502
				c-0.302,0.625-0.691,0.92-1.403,0.897c-1.667-0.052-3.336,0.006-5.004-0.035c-0.359-0.009-0.972-0.188-1.018-0.391
				c-0.119-0.52-0.047-1.113,0.074-1.647c0.063-0.278,0.393-0.495,0.602-0.739C275.897,1190.477,276.519,1190.455,277.141,1190.434"
				/>
			<path fill="#5E5953" d="M259.528,1187.88c0.596,0.859,1.214,1.704,1.778,2.583c0.266,0.414,0.5,0.878,0.614,1.351
				c0.134,0.555-0.819,1.091-1.355,0.702c-1.235-0.896-2.475-1.811-3.57-2.868c-0.881-0.85-0.481-1.892,0.723-2.283
				C258.221,1187.884,258.862,1187.926,259.528,1187.88"/>
			<path fill="#DB394D" d="M281.19,1166.066c0.233-0.175,0.465-0.35,0.698-0.524c0.112-0.101,0.224-0.203,0.336-0.305
				c0.094-0.022,0.188-0.044,0.283-0.065c0.335,0.021,0.67,0.041,1.005,0.061l0.012,0.008c0.374,0.234,0.758,0.451,1.117,0.706
				c0.273,0.193,0.514,0.433,0.822,0.697c-0.488,0.267-0.789,0.431-1.091,0.596c0.235,0.601,0.481,1.111,0.63,1.647
				c0.202,0.732-0.172,1.354-0.5,1.971c-0.319,0.012-0.638,0.024-0.958,0.036c-0.117-0.081-0.234-0.162-0.352-0.244
				c-0.163-0.002-0.326-0.005-0.49-0.007l0.013,0.006c0.134-0.471-0.039-0.633-0.504-0.502l0.011,0.011
				C282.266,1168.697,281.904,1167.337,281.19,1166.066"/>
			<path fill="#AB997B" d="M274.254,1153.229l-0.08-0.001c-0.202,0.215-0.52,0.4-0.586,0.65c-0.435,1.648-0.943,3.293-1.177,4.973
				c-0.227,1.635-0.134,3.312-0.218,4.969c-0.045,0.887-0.123,1.771-0.194,2.592c-0.007,0.017-0.025,0.062-0.031,0.077
				c-0.134,0.318-0.299,0.624-0.484,0.916c-0.031,0.049-0.041,0.107-0.041,0.165c-0.153,0.09-0.282,0.165-0.408,0.24
				c0.173,0.006,0.345,0.012,0.518,0.017c0.018,0.016,0.032,0.035,0.054,0.047c0.138,0.073,0.271,0.051,0.378-0.032
				c0.072,0.003,0.144,0.005,0.215,0.007c0.307-0.082,0.615-0.164,0.922-0.247c0.132-0.136,0.262-0.272,0.394-0.407
				c0.036-0.217,0.071-0.434,0.107-0.65c0.041-0.327,0.081-0.654,0.122-0.981c-0.079-0.264-0.214-0.527-0.225-0.794
				c-0.033-0.776-0.016-1.555-0.019-2.332c-0.105-0.214-0.288-0.423-0.298-0.64c-0.035-0.723-0.007-1.448-0.002-2.173
				c-0.001-0.76-0.002-1.521-0.003-2.281c0.101-0.117,0.201-0.233,0.302-0.349c0.112-0.763,0.226-1.526,0.338-2.289
				c0.052-0.112,0.105-0.225,0.157-0.338c0.113-0.38,0.226-0.76,0.34-1.14L274.254,1153.229z"/>
			<path fill="#E05350" d="M284.503,1170.857c0.327-0.617,0.702-1.239,0.5-1.971c-0.15-0.536-0.396-1.045-0.63-1.647
				c0.302-0.165,0.603-0.329,1.091-0.596c-0.308-0.264-0.549-0.503-0.822-0.697c-0.359-0.254-0.743-0.472-1.117-0.706
				c0.5,0.145,1.031,0.228,1.494,0.451c0.59,0.284,0.666,1.048,0.358,1.689c-0.148,0.307-0.199,0.741-0.108,1.065
				C285.571,1169.518,285.305,1170.474,284.503,1170.857"/>
			<path fill="#DB394D" d="M277.141,1190.434c-0.623,0.022-1.245,0.043-1.867,0.064c-0.098-0.413-0.197-0.825-0.295-1.238
				c0.773-0.014,1.546-0.028,2.319-0.042C277.246,1189.624,277.194,1190.029,277.141,1190.434"/>
			<path fill="#DB394D" d="M259.528,1187.88c-0.666,0.046-1.307,0.004-1.811-0.514c0.033-0.531,0.066-1.063,0.099-1.594
				c0.861,0.265,1.561,0.72,1.912,1.596C259.661,1187.538,259.594,1187.709,259.528,1187.88"/>
			<path fill="#DBD4C9" d="M281.984,1156.073c-0.085-0.511-0.171-1.022-0.256-1.533
				C282.338,1154.964,281.968,1155.551,281.984,1156.073"/>
			<path fill="#E05350" d="M283.512,1165.233c-0.335-0.02-0.67-0.041-1.005-0.061c0.081-0.089,0.163-0.179,0.244-0.266
				C283.004,1165.017,283.258,1165.125,283.512,1165.233"/>
			<path fill="#DBD4C9" d="M281.686,1152.771c-0.077-0.295-0.154-0.591-0.23-0.886
				C281.532,1152.18,281.609,1152.476,281.686,1152.771"/>
			<path fill="#DBD4C9" d="M282.199,1158.013c-0.062-0.172-0.125-0.343-0.187-0.515
				C282.074,1157.67,282.137,1157.841,282.199,1158.013"/>
			<path fill="#C0AC8C" d="M273.516,1167.194c0.036-0.217,0.071-0.434,0.107-0.65
				C273.587,1166.761,273.552,1166.978,273.516,1167.194"/>
			<path fill="#E05350" d="M283.193,1170.65c0.117,0.081,0.234,0.162,0.352,0.244
				C283.428,1170.812,283.311,1170.731,283.193,1170.65"/>
			<path fill="#FFFBF0" d="M281.19,1166.066c0.713,1.271,1.075,2.63,1.032,4.092c-0.761-0.495-1.522-0.989-2.282-1.484
				c0.684-0.439,0.76-1.036,0.49-1.753c-0.102-0.271-0.114-0.576-0.167-0.866C280.572,1166.059,280.881,1166.063,281.19,1166.066"/>
			<path fill="#C0AC8C" d="M273.501,1162.437c-0.105-0.213-0.288-0.423-0.298-0.64c-0.034-0.723-0.007-1.448-0.002-2.172
				c0.104,0.213,0.287,0.423,0.297,0.641C273.532,1160.987,273.504,1161.713,273.501,1162.437"/>
			<path fill="#BFAA89" d="M274.334,1153.227l-0.081,0.002l-0.079-0.001c0.061-0.09,0.123-0.18,0.184-0.27
				C274.35,1153.047,274.342,1153.137,274.334,1153.227"/>
			<path fill="#C0AC8C" d="M273.838,1154.705c0.052-0.112,0.105-0.225,0.157-0.338
				C273.942,1154.479,273.89,1154.593,273.838,1154.705"/>
			<path fill="#C0AC8C" d="M273.197,1157.343c0.101-0.116,0.201-0.232,0.302-0.349
				C273.399,1157.11,273.298,1157.227,273.197,1157.343"/>
			<path fill="#E05350" d="M282.224,1165.237c-0.112,0.102-0.224,0.204-0.336,0.305C282,1165.441,282.113,1165.339,282.224,1165.237
				"/>
			<path fill="#FEFEFE" d="M282.212,1170.147c0.465-0.131,0.638,0.032,0.504,0.503
				C282.548,1170.482,282.38,1170.315,282.212,1170.147"/>
			<path fill="#FFFBF0" d="M282.91,1156.158c-0.008-0.171-0.14-0.331-0.318-0.338c-0.003-0.009-0.006-0.018-0.008-0.026
				c-0.035-0.135-0.059-0.272-0.078-0.41c-0.002-0.02-0.006-0.048-0.007-0.055c-0.005-0.035-0.009-0.071-0.012-0.106
				c-0.008-0.071-0.015-0.142-0.022-0.214c-0.016-0.152-0.032-0.305-0.048-0.458c-0.012-0.115-0.072-0.222-0.165-0.286
				c-0.057-0.756-0.091-1.515-0.088-2.275c0.002-0.44-0.683-0.441-0.684,0c-0.006,1.844,0.164,3.684,0.503,5.498
				c0.081,0.432,0.74,0.249,0.66-0.182c-0.05-0.269-0.089-0.539-0.131-0.809c0.019,0,0.038,0.004,0.056,0.003
				C282.746,1156.492,282.918,1156.349,282.91,1156.158"/>
			<path fill="#DB394D" d="M285.406,1166.995c0.133-0.371,0.042-0.763-0.207-1.061c-0.26-0.311-0.656-0.449-1.03-0.567
				c-0.022-0.007-0.039-0.004-0.06-0.006c-0.265-0.106-0.531-0.209-0.8-0.305c-0.078-0.028-0.155-0.054-0.234-0.081
				c-0.097-0.033-0.195-0.076-0.299-0.073c-0.221,0.006-0.382,0.214-0.532,0.353c-0.132,0.122-0.133,0.363,0,0.484
				c0.141,0.129,0.343,0.13,0.484,0c0.042-0.039,0.084-0.078,0.127-0.117c0.132,0.045,0.264,0.091,0.396,0.138
				c0.284,0.102,0.565,0.211,0.844,0.325c0.035,0.014,0.073,0.015,0.109,0.012c0.2,0.068,0.402,0.159,0.517,0.334
				c0.139,0.209,0.025,0.447-0.141,0.6c-0.127,0.117-0.237,0.239-0.275,0.413c-0.039,0.179-0.001,0.363,0.049,0.536
				c0.101,0.341,0.171,0.682,0.195,1.037c0.005,0.075,0.035,0.142,0.077,0.2c-0.004,0.073,0.001,0.145-0.009,0.218
				c-0.015,0.12-0.055,0.301-0.1,0.439c-0.044,0.132-0.087,0.198-0.189,0.292c-0.012,0.01-0.016,0.016-0.018,0.018
				c-0.003,0.001-0.01,0.005-0.024,0.013c-0.03,0.018-0.061,0.035-0.091,0.053c-0.014,0.008-0.019,0.012-0.021,0.014
				c-0.004,0.001-0.009,0.003-0.025,0.008c-0.033,0.012-0.067,0.023-0.101,0.032c-0.137,0.037-0.288,0.041-0.444,0.021
				c-0.11-0.015-0.27-0.055-0.393-0.102c-0.022-0.008-0.024-0.008-0.002,0c-0.017-0.007-0.034-0.015-0.049-0.023
				c-0.032-0.016-0.064-0.034-0.094-0.053c-0.015-0.01-0.03-0.019-0.045-0.03c0.018,0.014,0.018,0.013-0.001-0.002
				c-0.031-0.028-0.059-0.058-0.087-0.089c-0.057-0.067-0.142-0.096-0.228-0.097c-0.042-0.02-0.091-0.032-0.149-0.032
				c-0.427,0-0.437,0.64-0.034,0.677c0.275,0.267,0.669,0.385,1.041,0.432c0.425,0.052,0.857-0.038,1.195-0.309
				c0.331-0.264,0.461-0.68,0.52-1.084c0.066-0.443,0.052-0.882-0.047-1.319c-0.018-0.084-0.076-0.15-0.147-0.193
				c-0.025-0.109-0.046-0.218-0.078-0.327c-0.01-0.035-0.023-0.072-0.029-0.109c-0.002-0.016-0.001-0.081-0.008-0.064
				c0.002-0.006,0.105-0.091,0.131-0.117C285.238,1167.344,285.341,1167.177,285.406,1166.995"/>
			<path fill="#FEFEFE" d="M285.907,1167.753C285.907,1167.753,285.907,1167.753,285.907,1167.753
				C285.907,1167.753,285.907,1167.753,285.907,1167.753z"/>
			<path fill="#FFFBF0" d="M286.41,1168.742c-0.036-0.04-0.073-0.081-0.108-0.123c-0.021-0.025-0.041-0.051-0.062-0.076
				c-0.002-0.003-0.004-0.005-0.007-0.008c-0.001-0.031-0.004-0.062-0.014-0.092c0.058-0.103,0.075-0.229,0.005-0.334
				c-0.072-0.106-0.159-0.193-0.249-0.283c-0.017-0.016-0.033-0.033-0.048-0.051c-0.002-0.001-0.007-0.008-0.011-0.014
				c-0.005-0.008-0.009-0.016-0.015-0.024v-0.028c0.002-0.008,0.003-0.015,0.005-0.023c0.002-0.01,0.006-0.021,0.01-0.031
				c0.001-0.001,0.001-0.002,0.002-0.004c0.009-0.016,0.025-0.025,0.031-0.045c0.002-0.005,0-0.011,0.001-0.016
				c0.015-0.026,0.031-0.053,0.048-0.079c0.002-0.003,0.004-0.007,0.005-0.01c0.095-0.085,0.172-0.186,0.193-0.316
				c0.005-0.028,0.003-0.058,0.001-0.087c0.062-0.084,0.124-0.168,0.186-0.253c0.049-0.067,0.056-0.187,0.035-0.263
				c-0.022-0.08-0.083-0.166-0.157-0.205c-0.001-0.001-0.002-0.001-0.004-0.001c-0.015-0.036-0.037-0.069-0.068-0.097
				c-0.135-0.125-0.35-0.136-0.483,0c-0.112,0.112-0.134,0.241-0.153,0.39c0.004-0.031,0.008-0.061,0.012-0.091
				c-0.017,0.117-0.055,0.229-0.099,0.339c-0.013,0.029-0.028,0.056-0.042,0.084l-0.146,0.198c-0.195,0.178-0.288,0.417-0.194,0.69
				c0.024,0.068,0.057,0.132,0.085,0.199c0.058,0.171,0.145,0.333,0.251,0.479c0.15,0.235,0.323,0.457,0.505,0.658
				c0.121,0.133,0.363,0.132,0.484,0C286.54,1169.084,286.539,1168.884,286.41,1168.742"/>
			<path fill="#FFFBF0" d="M286.722,1171.023c-0.868-0.121-1.768,0.047-2.624-0.139c-0.636-0.139-1.088-0.534-1.411-1.05
				c-0.186-0.548-0.418-1.083-0.707-1.585c-0.089-0.155-0.314-0.223-0.469-0.123c-0.156,0.101-0.218,0.302-0.122,0.469
				c0.147,0.257,0.282,0.52,0.402,0.791c0.002,0.005,0.004,0.009,0.006,0.014c-0.31-0.242-0.623-0.491-0.845-0.816
				c-0.247-0.361-0.84-0.019-0.591,0.345c0.438,0.64,1.112,1.006,1.649,1.546c0.231,0.233,0.429,0.5,0.501,0.825
				c0.02,0.092,0.092,0.863-0.037,0.866c-0.44,0.011-0.441,0.694,0,0.684c0.563-0.013,0.743-0.544,0.75-1.022
				c0.002-0.194-0.013-0.382-0.042-0.566c0.163,0.092,0.335,0.172,0.521,0.228c0.924,0.28,1.895,0.063,2.836,0.194
				c0.184,0.026,0.365-0.045,0.421-0.239C287.006,1171.284,286.905,1171.048,286.722,1171.023"/>
			<path fill="#DB394D" d="M282.704,1170.643l0.012,0.006c-0.168-0.167-0.336-0.335-0.504-0.502l0.011,0.011
				c-0.761-0.495-1.522-0.989-2.282-1.484c-0.18-0.107-0.413-0.347-0.528-0.299c-0.563,0.232-1.103,0.527-1.63,0.836
				c-0.1,0.059-0.104,0.282-0.151,0.429c0.703,0.243,0.44,0.843,0.478,1.322c0.115,1.456,0.255,2.873,1.635,3.81
				c0.518,0.351,0.991,0.418,1.464,0.101c0.312-0.209,0.46-0.482,0.501-0.787c0.058-0.146,0.099-0.3,0.106-0.454
				c0.011-0.237-0.033-0.483-0.093-0.711c-0.048-0.182-0.128-0.345-0.225-0.501c0.079,0.011,0.161,0.012,0.243,0.005
				c0.144-0.012,0.281-0.034,0.414-0.089c0.184-0.078,0.317-0.211,0.397-0.378c0.172-0.188,0.166-0.506,0.151-1.152
				C282.701,1170.752,282.703,1170.698,282.704,1170.643"/>
			<path fill="#FFFBF0" d="M282.865,1170.471c-0.245-0.345-0.551-0.635-0.859-0.923c-0.361-0.338-0.723-0.675-1.084-1.012
				c-0.321-0.3-0.806,0.182-0.484,0.484c0.569,0.531,1.189,1.038,1.7,1.627c0.339,0.391,0.686,1.091,0.285,1.564
				c-0.119,0.141-0.138,0.345,0,0.484c0.122,0.122,0.364,0.142,0.484,0C283.458,1172.044,283.334,1171.131,282.865,1170.471"/>
			<path fill="#AB997B" d="M272.919,1156.898c-0.009,1.776-0.018,3.551-0.027,5.327c-0.002,0.441,0.682,0.441,0.684,0l0.028-5.327
				C273.605,1156.458,272.921,1156.457,272.919,1156.898"/>
			<path fill="#D8C09B" d="M275.855,1169.548c-0.004,0.002-0.005,0.008-0.022-0.001c-0.064-0.033-0.098-0.096-0.131-0.156
				c-0.082-0.152-0.135-0.321-0.198-0.481c-0.161-0.412-0.32-0.825-0.468-1.241c-0.291-0.818-0.539-1.651-0.684-2.508
				c-0.003-0.015-0.011-0.025-0.015-0.039c0.135-0.062,0.235-0.197,0.185-0.383c-0.5-1.853-0.462-3.778-0.381-5.681
				c0.085-1.988,0.261-3.972,0.711-5.914c0.099-0.428-0.56-0.611-0.66-0.182c-0.463,2-0.648,4.049-0.735,6.096
				c-0.084,1.963-0.111,3.95,0.405,5.863c0.005,0.018,0.016,0.029,0.022,0.045c-0.126,0.068-0.222,0.2-0.192,0.377
				c0.19,1.112,0.551,2.179,0.952,3.23c0.097,0.253,0.195,0.505,0.294,0.757c0.089,0.225,0.171,0.458,0.338,0.639
				c0.318,0.347,0.889,0.357,1.153-0.056C276.661,1169.547,276.101,1169.215,275.855,1169.548"/>
			<path fill="#67522F" d="M271.861,1167.747c-0.351-0.005-0.702,0.014-1.05,0.057c-0.184,0.022-0.343,0.141-0.343,0.342
				c0,0.168,0.157,0.365,0.343,0.343c0.155-0.019,0.31-0.016,0.465-0.025c-0.029,0.039-0.058,0.078-0.083,0.116
				c-0.14,0.207-0.281,0.412-0.424,0.617c-0.294,0.424-0.593,0.845-0.896,1.263c-0.109,0.15-0.026,0.381,0.122,0.468
				c0.173,0.101,0.36,0.028,0.468-0.122c0.312-0.432,0.621-0.866,0.924-1.304c0.152-0.219,0.303-0.438,0.453-0.659
				c0.138-0.205,0.304-0.413,0.351-0.661C272.231,1167.962,272.097,1167.75,271.861,1167.747"/>
			<path fill="#4F3E24" d="M273.203,1167.838c-0.071-0.161-0.233-0.234-0.404-0.198c-0.215,0.046-0.431,0.091-0.647,0.137
				c-0.174,0.036-0.275,0.235-0.24,0.402c-0.002,0.004-0.006,0.006-0.009,0.01c-0.178,0.287-0.33,0.592-0.459,0.903
				c-0.257,0.617-0.397,1.274-0.431,1.942c-0.009,0.185,0.165,0.342,0.343,0.342c0.193,0,0.333-0.156,0.342-0.342
				c0.029-0.569,0.154-1.128,0.365-1.657c0.099-0.252,0.229-0.492,0.364-0.727c0.076-0.131,0.086-0.144,0.218-0.201
				c0.139-0.061,0.278-0.122,0.417-0.183C273.216,1168.198,273.264,1167.978,273.203,1167.838"/>
		</g>
	</g>
	<g>
		<g>
			<path fill="#FEFEFE" d="M255.181,1159.624c-1.926,0.525-3.378,1.593-4.271,3.406c-0.099,0.201-0.399,0.423-0.603,0.421
				c-0.258-0.002-0.523-0.21-0.765-0.361c-0.107-0.067-0.165-0.212-0.286-0.377c-1.08,1.122-2.45,0.926-3.707,0.641
				c-1.604-0.363-1.19-2.03-1.806-3.313c-0.864,0.124-1.826,0.227-2.769,0.425c-0.192,0.041-0.381,0.423-0.443,0.68
				c-0.082,0.338-0.038,0.706-0.049,1.062c0.117,0.756-0.573,0.943-0.953,1.348c0.018,0.649,0.036,1.297,0.055,1.945
				c0.076,0.296,0.154,0.591,0.23,0.887c0.014,0.59,0.028,1.179,0.042,1.77c0.609,0.423,0.24,1.009,0.255,1.532
				c0.009,0.475,0.019,0.95,0.028,1.425l0.188,0.515c0.579,1.584,1.098,3.193,1.758,4.743c0.397,0.933,0.421,1.174-0.45,1.693
				c-0.254,0.151-0.505,0.307-0.758,0.46c0.254,0.108,0.509,0.216,0.763,0.324l0.012,0.008c0.5,0.145,1.031,0.228,1.494,0.451
				c0.59,0.284,0.666,1.048,0.358,1.689c-0.148,0.307-0.2,0.741-0.108,1.065c0.302,1.072,0.036,2.028-0.766,2.411
				c-0.319,0.012-0.638,0.024-0.958,0.036c-0.117-0.081-0.235-0.162-0.352-0.244c-0.163-0.002-0.327-0.005-0.49-0.007
				c-0.001,0.055-0.003,0.109-0.002,0.164c0.03,1.274,0.03,1.274-1.318,1.514c0.077,0.323,0.134,0.648,0.232,0.959
				c0.197,0.624,0.161,1.211-0.408,1.593c-0.473,0.317-0.946,0.25-1.464-0.101c-1.38-0.937-1.52-2.355-1.635-3.81
				c-0.038-0.48,0.225-1.079-0.478-1.323c-0.494,0.17-0.979,0.386-1.486,0.496c-0.43,0.094-0.714-0.052-0.868-0.586
				c-0.378-1.31-0.87-2.588-1.325-3.875c-0.019-0.055-0.135-0.075-0.207-0.111l-0.123,0.981c-0.035,0.217-0.071,0.433-0.106,0.65
				c-0.132,0.135-0.263,0.271-0.394,0.407c0.225,0.468,0.447,0.938,0.674,1.404c0.059,0.12,0.175,0.223,0.203,0.347
				c0.59,2.651,1.851,5.011,3.088,7.397c0.629,1.214,1.144,2.471,1.092,3.979c-0.051,1.484,0.476,2.979,0.632,4.481
				c0.098,0.939,0.021,1.905-0.056,2.852c-0.069,0.849-0.815,0.965-1.456,1.156c-0.052,0.405-0.105,0.81-0.157,1.215
				c0.526,0.162,1.042,0.371,1.58,0.477c1.217,0.239,2.384,0.553,3.301,1.502c-0.302,0.625-0.691,0.92-1.402,0.898
				c-1.667-0.052-3.336,0.006-5.004-0.035c-0.359-0.01-0.972-0.188-1.018-0.391c-0.119-0.52-0.047-1.112,0.074-1.647
				c0.063-0.278,0.393-0.494,0.602-0.739c-0.098-0.413-0.197-0.825-0.295-1.238c-0.615-0.006-1.241,0.054-1.843-0.039
				c-0.644-0.099-0.946-0.499-0.956-1.238c-0.029-2.37-0.145-4.738-0.237-7.107c-0.007-0.182-0.061-0.375-0.139-0.54
				c-0.697-1.452-1.404-2.899-2.109-4.346c-0.091-0.009-0.242-0.055-0.263-0.022c-0.594,0.988-1.182,1.98-1.757,2.98
				c-1.274,2.219-2.538,4.444-3.811,6.663c-0.428,0.746-0.859,1.491-1.313,2.221c-0.464,0.746-1.169,0.818-1.84,0.244
				c-0.306-0.261-0.654-0.474-0.983-0.709c-0.067,0.171-0.134,0.342-0.2,0.513c0.596,0.859,1.215,1.704,1.779,2.583
				c0.265,0.414,0.5,0.878,0.614,1.351c0.134,0.555-0.819,1.091-1.356,0.702c-1.235-0.896-2.475-1.811-3.57-2.868
				c-0.882-0.85-0.482-1.892,0.723-2.283c0.032-0.531,0.065-1.063,0.097-1.594c-0.634-0.349-1.272-0.694-1.902-1.051
				c-1.142-0.646-1.189-1.248-0.328-2.235c0.966-1.109,1.952-2.225,2.736-3.461c0.802-1.261,1.372-2.669,2.038-4.016
				c0.903-1.827,1.793-3.662,2.706-5.485c0.285-0.569,0.625-1.11,0.941-1.664c-0.552-2.053-0.009-4.09,0.213-6.106
				c0.131-1.188,0.74-2.349,1.258-3.465c0.84-1.809,1.657-3.649,2.717-5.329c1.062-1.681,1.884-3.544,3.419-4.916
				c0.977-0.872,1.779-1.959,2.817-2.737c1.142-0.856,2.418-1.58,3.73-2.139c0.663-0.282,1.569-0.423,2.292,0.167
				c0.595-0.044,1.198-0.04,1.782-0.143c0.931-0.164,1.883-0.31,2.759-0.642c0.431-0.162,0.812-0.672,1.041-1.114
				c0.593-1.144,1.315-2.074,2.547-2.629c0.943-0.425,1.714-1.3,2.677-1.592c1.877-0.567,3.76-0.816,5.443,0.805
				c1.544,1.487,2.498,3.153,2.427,5.307C257.211,1158.328,256.586,1159.241,255.181,1159.624"/>
			<path fill="#D8C09B" d="M222.134,1181.476c-0.551-2.053-0.009-4.09,0.213-6.106c0.131-1.188,0.74-2.349,1.258-3.465
				c0.84-1.808,1.657-3.649,2.717-5.328c1.062-1.681,1.884-3.545,3.419-4.916c0.976-0.872,1.778-1.959,2.817-2.737
				c1.142-0.855,2.418-1.58,3.73-2.139c0.663-0.282,1.569-0.423,2.291,0.167c-0.077,2.009,0.541,3.767,1.903,5.256
				c0.116,0.756-0.573,0.943-0.953,1.348c-1.728,1.043-2.522,2.823-3.039,4.567c-0.666,2.239-0.253,4.571,0.428,6.815
				c0.297,0.979,0.52,1.98,0.815,2.959c0.181,0.603,0.436,1.184,0.658,1.775c0.053,0.29,0.065,0.594,0.167,0.865
				c0.27,0.718,0.195,1.314-0.49,1.754c-0.179-0.107-0.413-0.347-0.527-0.3c-0.563,0.232-1.103,0.527-1.63,0.836
				c-0.1,0.059-0.104,0.281-0.151,0.428c-0.494,0.171-0.979,0.386-1.486,0.496c-0.43,0.094-0.714-0.052-0.868-0.586
				c-0.378-1.31-0.869-2.588-1.325-3.875c-0.019-0.055-0.135-0.075-0.207-0.111c-0.079-0.265-0.214-0.527-0.225-0.794
				c-0.033-0.776-0.016-1.556-0.019-2.333c0.004-0.724,0.031-1.45-0.004-2.172c-0.011-0.218-0.193-0.428-0.297-0.641
				c-0.001-0.76-0.002-1.52-0.003-2.281c0.101-0.116,0.201-0.232,0.302-0.348c0.112-0.763,0.226-1.527,0.338-2.289
				c0.052-0.113,0.105-0.225,0.157-0.339c0.113-0.38,0.226-0.76,0.34-1.14c0.008-0.089,0.015-0.179,0.024-0.269
				c-0.061,0.09-0.122,0.18-0.184,0.271c-0.201,0.215-0.519,0.399-0.586,0.65c-0.435,1.648-0.943,3.292-1.177,4.973
				c-0.227,1.634-0.134,3.312-0.218,4.968c-0.062,1.212-0.184,2.421-0.267,3.467c-0.415,0.244-0.653,0.384-0.891,0.524
				c-0.971,0.052-1.942,0.144-2.914,0.146C224.877,1181.575,223.505,1181.511,222.134,1181.476"/>
			<path fill="#67522F" d="M222.134,1181.476c1.371,0.035,2.743,0.099,4.115,0.096c0.972-0.002,1.943-0.094,2.914-0.146
				c0.389,0.013,0.777,0.025,1.166,0.038c-0.31,0.622-0.657,1.229-0.922,1.87c-0.373,0.911-0.692,1.843-1.02,2.771
				c-0.4,1.131-0.98,2.236-0.564,3.5c-0.091-0.009-0.242-0.055-0.262-0.022c-0.594,0.988-1.183,1.98-1.757,2.98
				c-1.274,2.219-2.537,4.444-3.81,6.663c-0.428,0.746-0.859,1.491-1.314,2.221c-0.464,0.746-1.169,0.818-1.84,0.244
				c-0.305-0.262-0.654-0.475-0.983-0.71c-0.35-0.876-1.051-1.331-1.912-1.596c-0.634-0.35-1.272-0.694-1.903-1.051
				c-1.142-0.646-1.189-1.248-0.328-2.235c0.966-1.109,1.952-2.225,2.737-3.461c0.801-1.261,1.372-2.668,2.038-4.016
				c0.903-1.828,1.793-3.662,2.706-5.485C221.478,1182.571,221.818,1182.03,222.134,1181.476"/>
			<path fill="#DB394D" d="M240.483,1162.208c-1.361-1.489-1.979-3.247-1.902-5.256c0.595-0.044,1.198-0.039,1.783-0.142
				c0.931-0.164,1.883-0.31,2.758-0.641c0.431-0.163,0.812-0.672,1.041-1.114c0.593-1.144,1.314-2.074,2.547-2.629
				c0.943-0.425,1.713-1.3,2.677-1.591c1.876-0.568,3.76-0.816,5.443,0.805c1.544,1.487,2.498,3.153,2.427,5.306
				c-0.045,1.384-0.67,2.297-2.075,2.68c-1.927,0.525-3.379,1.593-4.271,3.406c-0.099,0.201-0.399,0.423-0.603,0.421
				c-0.257-0.002-0.522-0.21-0.764-0.361c-0.107-0.067-0.165-0.212-0.287-0.377c-1.08,1.122-2.45,0.926-3.707,0.642
				c-1.603-0.363-1.189-2.03-1.805-3.313c-0.865,0.124-1.826,0.227-2.769,0.425c-0.192,0.041-0.381,0.423-0.443,0.68
				C240.449,1161.484,240.493,1161.852,240.483,1162.208"/>
			<path fill="#4F3E24" d="M227.823,1189.606c-0.416-1.264,0.165-2.369,0.564-3.5c0.328-0.928,0.647-1.861,1.02-2.771
				c0.264-0.641,0.611-1.248,0.922-1.87c0.307-0.083,0.615-0.165,0.922-0.247c0.225,0.468,0.447,0.937,0.675,1.403
				c0.059,0.121,0.175,0.223,0.202,0.348c0.59,2.651,1.851,5.011,3.088,7.397c0.629,1.214,1.144,2.47,1.091,3.979
				c-0.051,1.483,0.476,2.978,0.632,4.481c0.098,0.939,0.021,1.905-0.055,2.852c-0.069,0.849-0.815,0.965-1.457,1.157
				c-0.773,0.014-1.546,0.028-2.319,0.042c-0.615-0.007-1.241,0.054-1.843-0.039c-0.644-0.099-0.948-0.499-0.956-1.238
				c-0.029-2.37-0.145-4.738-0.237-7.107c-0.006-0.182-0.06-0.374-0.139-0.54C229.235,1192.501,228.527,1191.054,227.823,1189.606"
				/>
			<path fill="#AA977B" d="M238.391,1179.671c-0.222-0.591-0.477-1.172-0.658-1.774c-0.295-0.979-0.517-1.98-0.815-2.959
				c-0.681-2.244-1.094-4.575-0.428-6.815c0.517-1.744,1.311-3.524,3.039-4.567c0.018,0.649,0.036,1.297,0.054,1.945
				c0.077,0.296,0.153,0.592,0.23,0.887c0.014,0.59,0.028,1.179,0.042,1.77c0.085,0.51,0.171,1.021,0.256,1.532
				c0.009,0.475,0.018,0.95,0.028,1.425c0.062,0.171,0.124,0.343,0.187,0.515c0.578,1.584,1.098,3.193,1.757,4.743
				c0.397,0.932,0.422,1.174-0.448,1.693c-0.254,0.151-0.506,0.307-0.757,0.458c-0.081,0.086-0.163,0.176-0.244,0.265
				c-0.095,0.022-0.189,0.044-0.283,0.065c-0.112,0.102-0.224,0.204-0.336,0.305c-0.233,0.175-0.465,0.35-0.698,0.524
				C239.01,1179.679,238.7,1179.675,238.391,1179.671"/>
			<path fill="#5F5B54" d="M235.27,1204.05c0.526,0.162,1.042,0.371,1.58,0.477c1.217,0.238,2.384,0.553,3.301,1.502
				c-0.302,0.625-0.691,0.92-1.403,0.898c-1.667-0.052-3.336,0.006-5.004-0.035c-0.359-0.009-0.972-0.188-1.018-0.391
				c-0.119-0.52-0.047-1.113,0.074-1.647c0.063-0.278,0.393-0.495,0.602-0.739C234.025,1204.093,234.647,1204.072,235.27,1204.05"/>
			<path fill="#5E5953" d="M217.656,1201.496c0.596,0.859,1.214,1.704,1.778,2.583c0.266,0.414,0.5,0.878,0.614,1.351
				c0.134,0.555-0.819,1.091-1.355,0.702c-1.235-0.896-2.475-1.811-3.57-2.868c-0.881-0.85-0.481-1.892,0.723-2.283
				C216.35,1201.5,216.99,1201.542,217.656,1201.496"/>
			<path fill="#DB394D" d="M239.319,1179.682c0.233-0.175,0.465-0.35,0.698-0.524c0.112-0.101,0.224-0.203,0.336-0.305
				c0.094-0.022,0.188-0.044,0.283-0.065c0.335,0.021,0.67,0.041,1.005,0.061l0.012,0.008c0.374,0.234,0.758,0.451,1.117,0.706
				c0.273,0.193,0.514,0.433,0.822,0.697c-0.488,0.267-0.789,0.431-1.091,0.596c0.235,0.602,0.481,1.111,0.63,1.647
				c0.202,0.732-0.172,1.354-0.5,1.971c-0.319,0.012-0.638,0.024-0.958,0.036c-0.117-0.081-0.234-0.162-0.352-0.244
				c-0.163-0.002-0.326-0.005-0.49-0.007l0.013,0.006c0.134-0.471-0.039-0.633-0.504-0.502l0.011,0.011
				C240.394,1182.313,240.032,1180.953,239.319,1179.682"/>
			<path fill="#AB997B" d="M232.382,1166.846l-0.08-0.001c-0.202,0.215-0.52,0.4-0.586,0.65c-0.435,1.648-0.943,3.293-1.177,4.973
				c-0.227,1.635-0.134,3.312-0.218,4.969c-0.045,0.887-0.123,1.771-0.194,2.592c-0.007,0.017-0.025,0.062-0.031,0.077
				c-0.134,0.318-0.299,0.624-0.484,0.916c-0.031,0.049-0.041,0.106-0.041,0.165c-0.153,0.09-0.282,0.165-0.408,0.24
				c0.173,0.006,0.345,0.012,0.518,0.017c0.018,0.016,0.032,0.035,0.054,0.047c0.138,0.073,0.271,0.051,0.378-0.032
				c0.072,0.003,0.144,0.005,0.215,0.007c0.307-0.082,0.615-0.164,0.922-0.247c0.132-0.136,0.262-0.272,0.394-0.407
				c0.036-0.217,0.071-0.434,0.107-0.65c0.041-0.327,0.081-0.654,0.122-0.98c-0.079-0.264-0.214-0.527-0.225-0.794
				c-0.033-0.776-0.016-1.555-0.019-2.332c-0.105-0.214-0.288-0.423-0.298-0.64c-0.035-0.723-0.007-1.448-0.002-2.173
				c-0.001-0.76-0.002-1.521-0.003-2.281c0.101-0.117,0.201-0.233,0.302-0.349c0.112-0.763,0.226-1.526,0.338-2.289
				c0.052-0.112,0.105-0.225,0.157-0.338c0.113-0.38,0.226-0.76,0.34-1.14L232.382,1166.846z"/>
			<path fill="#E05350" d="M242.631,1184.474c0.327-0.617,0.702-1.239,0.5-1.971c-0.15-0.536-0.396-1.045-0.63-1.647
				c0.302-0.165,0.603-0.329,1.091-0.596c-0.308-0.264-0.549-0.503-0.822-0.697c-0.359-0.254-0.743-0.472-1.117-0.706
				c0.5,0.145,1.031,0.228,1.494,0.451c0.59,0.284,0.666,1.048,0.358,1.688c-0.148,0.307-0.2,0.741-0.108,1.065
				C243.699,1183.134,243.433,1184.09,242.631,1184.474"/>
			<path fill="#DB394D" d="M235.27,1204.05c-0.623,0.022-1.245,0.043-1.867,0.064c-0.098-0.413-0.197-0.825-0.295-1.238
				c0.773-0.014,1.546-0.028,2.319-0.042C235.375,1203.24,235.322,1203.645,235.27,1204.05"/>
			<path fill="#DB394D" d="M217.656,1201.496c-0.666,0.046-1.307,0.004-1.811-0.514c0.033-0.531,0.066-1.063,0.099-1.594
				c0.861,0.265,1.561,0.72,1.912,1.596C217.79,1201.154,217.723,1201.325,217.656,1201.496"/>
			<path fill="#DBD4C9" d="M240.113,1169.689c-0.085-0.511-0.171-1.022-0.256-1.533
				C240.466,1168.58,240.097,1169.167,240.113,1169.689"/>
			<path fill="#E05350" d="M241.641,1178.849c-0.335-0.02-0.67-0.041-1.005-0.061c0.081-0.089,0.163-0.179,0.244-0.265
				C241.132,1178.633,241.387,1178.741,241.641,1178.849"/>
			<path fill="#DBD4C9" d="M239.814,1166.387c-0.077-0.296-0.154-0.591-0.23-0.886
				C239.661,1165.796,239.738,1166.092,239.814,1166.387"/>
			<path fill="#DBD4C9" d="M240.328,1171.629c-0.062-0.172-0.125-0.343-0.187-0.515
				C240.203,1171.286,240.265,1171.457,240.328,1171.629"/>
			<path fill="#C0AC8C" d="M231.645,1180.811c0.036-0.217,0.071-0.434,0.107-0.65
				C231.715,1180.377,231.681,1180.594,231.645,1180.811"/>
			<path fill="#E05350" d="M241.322,1184.266c0.117,0.081,0.234,0.162,0.352,0.244
				C241.556,1184.428,241.439,1184.347,241.322,1184.266"/>
			<path fill="#FFFBF0" d="M239.319,1179.682c0.713,1.271,1.075,2.63,1.032,4.092c-0.761-0.495-1.522-0.989-2.282-1.484
				c0.684-0.439,0.76-1.036,0.49-1.753c-0.102-0.271-0.114-0.576-0.167-0.866C238.7,1179.675,239.01,1179.679,239.319,1179.682"/>
			<path fill="#C0AC8C" d="M231.629,1176.053c-0.105-0.213-0.288-0.422-0.298-0.64c-0.034-0.723-0.007-1.448-0.002-2.172
				c0.104,0.213,0.287,0.423,0.297,0.641C231.661,1174.604,231.633,1175.329,231.629,1176.053"/>
			<path fill="#BFAA89" d="M232.463,1166.843l-0.081,0.002l-0.079-0.001c0.061-0.09,0.123-0.18,0.184-0.27
				C232.478,1166.664,232.471,1166.754,232.463,1166.843"/>
			<path fill="#C0AC8C" d="M231.966,1168.321c0.052-0.112,0.105-0.225,0.157-0.338
				C232.071,1168.096,232.019,1168.209,231.966,1168.321"/>
			<path fill="#C0AC8C" d="M231.326,1170.959c0.101-0.116,0.201-0.232,0.302-0.349
				C231.527,1170.726,231.427,1170.843,231.326,1170.959"/>
			<path fill="#E05350" d="M240.353,1178.853c-0.112,0.102-0.224,0.204-0.336,0.305
				C240.129,1179.057,240.241,1178.955,240.353,1178.853"/>
			<path fill="#FEFEFE" d="M240.341,1183.763c0.465-0.131,0.638,0.032,0.504,0.503
				C240.676,1184.098,240.509,1183.931,240.341,1183.763"/>
			<path fill="#FFFBF0" d="M241.038,1169.774c-0.008-0.171-0.14-0.331-0.318-0.338c-0.003-0.009-0.006-0.018-0.008-0.026
				c-0.035-0.135-0.059-0.272-0.078-0.41c-0.002-0.019-0.006-0.048-0.007-0.055c-0.005-0.035-0.009-0.071-0.012-0.106
				c-0.008-0.071-0.015-0.142-0.022-0.214c-0.016-0.152-0.032-0.306-0.048-0.458c-0.012-0.115-0.072-0.223-0.165-0.286
				c-0.057-0.756-0.091-1.515-0.088-2.275c0.002-0.44-0.683-0.441-0.684,0c-0.006,1.844,0.164,3.684,0.503,5.498
				c0.081,0.432,0.74,0.249,0.66-0.182c-0.05-0.269-0.089-0.539-0.131-0.809c0.019,0.001,0.038,0.004,0.056,0.004
				C240.874,1170.108,241.047,1169.965,241.038,1169.774"/>
			<path fill="#DB394D" d="M243.535,1180.611c0.133-0.371,0.042-0.763-0.207-1.061c-0.26-0.311-0.656-0.449-1.03-0.567
				c-0.022-0.007-0.039-0.004-0.06-0.006c-0.265-0.106-0.531-0.209-0.8-0.305c-0.078-0.028-0.155-0.054-0.234-0.081
				c-0.097-0.033-0.195-0.076-0.299-0.073c-0.221,0.006-0.382,0.214-0.532,0.353c-0.132,0.122-0.133,0.363,0,0.484
				c0.141,0.129,0.343,0.13,0.484,0c0.042-0.039,0.084-0.078,0.127-0.117c0.132,0.045,0.264,0.091,0.396,0.138
				c0.284,0.102,0.565,0.211,0.844,0.325c0.035,0.014,0.073,0.015,0.109,0.012c0.2,0.068,0.402,0.159,0.517,0.334
				c0.139,0.209,0.025,0.447-0.141,0.6c-0.127,0.117-0.237,0.239-0.275,0.413c-0.039,0.179-0.001,0.363,0.049,0.536
				c0.101,0.341,0.171,0.682,0.195,1.037c0.005,0.075,0.035,0.142,0.077,0.199c-0.004,0.073,0.001,0.145-0.009,0.218
				c-0.015,0.12-0.055,0.301-0.1,0.439c-0.044,0.132-0.087,0.198-0.189,0.292c-0.012,0.011-0.016,0.016-0.018,0.018
				c-0.003,0.001-0.01,0.005-0.024,0.013c-0.03,0.018-0.061,0.035-0.091,0.053c-0.014,0.008-0.019,0.012-0.021,0.014
				c-0.004,0.001-0.009,0.003-0.025,0.008c-0.033,0.012-0.067,0.023-0.101,0.032c-0.137,0.037-0.288,0.041-0.444,0.021
				c-0.11-0.015-0.27-0.055-0.393-0.102c-0.022-0.008-0.024-0.008-0.002,0c-0.017-0.007-0.034-0.015-0.049-0.023
				c-0.032-0.016-0.064-0.034-0.094-0.053c-0.015-0.01-0.03-0.019-0.045-0.03c0.018,0.014,0.018,0.013-0.001-0.002
				c-0.031-0.028-0.059-0.058-0.087-0.089c-0.057-0.067-0.142-0.096-0.228-0.097c-0.042-0.02-0.091-0.032-0.149-0.032
				c-0.427,0-0.437,0.64-0.034,0.677c0.275,0.267,0.669,0.385,1.041,0.431c0.425,0.052,0.857-0.038,1.195-0.309
				c0.331-0.264,0.461-0.68,0.52-1.084c0.066-0.443,0.052-0.882-0.047-1.319c-0.018-0.084-0.076-0.15-0.147-0.193
				c-0.025-0.109-0.046-0.218-0.078-0.327c-0.01-0.035-0.023-0.072-0.029-0.109c-0.002-0.016-0.001-0.081-0.008-0.064
				c0.002-0.006,0.105-0.091,0.131-0.117C243.367,1180.96,243.469,1180.793,243.535,1180.611"/>
			<path fill="#FEFEFE" d="M244.035,1181.369C244.036,1181.369,244.036,1181.369,244.035,1181.369
				C244.036,1181.369,244.036,1181.369,244.035,1181.369z"/>
			<path fill="#FFFBF0" d="M244.538,1182.358c-0.036-0.04-0.073-0.081-0.108-0.123c-0.021-0.025-0.041-0.051-0.062-0.076
				c-0.002-0.003-0.004-0.005-0.007-0.008c-0.001-0.031-0.004-0.062-0.014-0.092c0.058-0.103,0.075-0.229,0.005-0.334
				c-0.072-0.107-0.159-0.193-0.249-0.283c-0.017-0.016-0.033-0.033-0.048-0.051c-0.002-0.001-0.007-0.008-0.011-0.014
				c-0.005-0.008-0.009-0.016-0.015-0.024v-0.028c0.002-0.008,0.003-0.015,0.005-0.023c0.002-0.011,0.006-0.021,0.01-0.031
				c0.001-0.001,0.001-0.002,0.002-0.004c0.009-0.016,0.025-0.025,0.031-0.045c0.002-0.005,0-0.011,0.001-0.016
				c0.015-0.026,0.031-0.053,0.048-0.079c0.002-0.004,0.004-0.007,0.005-0.01c0.095-0.085,0.172-0.186,0.193-0.316
				c0.005-0.028,0.003-0.058,0.001-0.087c0.062-0.084,0.124-0.168,0.186-0.253c0.049-0.067,0.056-0.187,0.035-0.263
				c-0.022-0.08-0.083-0.166-0.157-0.205c-0.001-0.001-0.002-0.001-0.004-0.001c-0.015-0.036-0.037-0.069-0.068-0.096
				c-0.135-0.125-0.35-0.137-0.483,0c-0.112,0.112-0.134,0.241-0.153,0.39c0.004-0.031,0.008-0.061,0.012-0.091
				c-0.017,0.117-0.055,0.229-0.099,0.339c-0.013,0.029-0.028,0.056-0.042,0.084l-0.146,0.198c-0.195,0.178-0.288,0.417-0.194,0.69
				c0.024,0.068,0.057,0.132,0.085,0.199c0.058,0.171,0.145,0.333,0.251,0.479c0.15,0.235,0.323,0.457,0.505,0.658
				c0.121,0.133,0.363,0.132,0.484,0C244.669,1182.7,244.667,1182.5,244.538,1182.358"/>
			<path fill="#FFFBF0" d="M244.85,1184.639c-0.868-0.121-1.768,0.047-2.624-0.14c-0.636-0.139-1.088-0.534-1.411-1.05
				c-0.186-0.549-0.418-1.083-0.707-1.585c-0.089-0.155-0.314-0.223-0.468-0.123c-0.156,0.101-0.218,0.302-0.122,0.469
				c0.147,0.257,0.282,0.52,0.402,0.791c0.002,0.005,0.004,0.009,0.006,0.014c-0.31-0.242-0.623-0.491-0.845-0.816
				c-0.247-0.361-0.84-0.019-0.591,0.345c0.438,0.64,1.112,1.006,1.649,1.546c0.231,0.232,0.429,0.5,0.501,0.824
				c0.02,0.092,0.092,0.863-0.037,0.866c-0.44,0.011-0.441,0.695,0,0.685c0.563-0.013,0.743-0.544,0.75-1.022
				c0.002-0.194-0.013-0.382-0.042-0.566c0.163,0.092,0.335,0.172,0.521,0.228c0.924,0.28,1.895,0.063,2.836,0.194
				c0.184,0.026,0.365-0.045,0.421-0.239C245.135,1184.9,245.033,1184.664,244.85,1184.639"/>
			<path fill="#DB394D" d="M240.832,1184.259l0.012,0.006c-0.168-0.167-0.336-0.335-0.504-0.502l0.011,0.011
				c-0.761-0.495-1.522-0.989-2.282-1.484c-0.18-0.107-0.413-0.347-0.528-0.299c-0.563,0.232-1.103,0.527-1.63,0.836
				c-0.1,0.059-0.104,0.282-0.151,0.429c0.703,0.243,0.44,0.843,0.478,1.323c0.115,1.455,0.255,2.873,1.635,3.81
				c0.518,0.351,0.991,0.418,1.464,0.101c0.312-0.209,0.46-0.482,0.501-0.787c0.058-0.146,0.099-0.3,0.106-0.454
				c0.011-0.237-0.033-0.483-0.093-0.711c-0.048-0.182-0.128-0.345-0.225-0.501c0.079,0.011,0.161,0.012,0.243,0.005
				c0.144-0.012,0.281-0.033,0.414-0.089c0.184-0.078,0.317-0.211,0.397-0.378c0.172-0.188,0.166-0.505,0.151-1.152
				C240.829,1184.368,240.832,1184.314,240.832,1184.259"/>
			<path fill="#FFFBF0" d="M240.993,1184.087c-0.245-0.345-0.551-0.635-0.859-0.923c-0.361-0.338-0.723-0.675-1.084-1.012
				c-0.321-0.3-0.806,0.182-0.484,0.484c0.569,0.531,1.189,1.038,1.7,1.627c0.339,0.391,0.686,1.091,0.285,1.564
				c-0.119,0.141-0.138,0.345,0,0.484c0.122,0.122,0.364,0.142,0.484,0C241.586,1185.661,241.462,1184.748,240.993,1184.087"/>
			<path fill="#AB997B" d="M231.047,1170.514c-0.009,1.776-0.018,3.551-0.027,5.327c-0.002,0.441,0.682,0.441,0.684,0l0.028-5.327
				C231.734,1170.074,231.049,1170.073,231.047,1170.514"/>
			<path fill="#D8C09B" d="M233.984,1183.164c-0.004,0.002-0.005,0.008-0.022-0.001c-0.064-0.034-0.098-0.096-0.131-0.157
				c-0.082-0.152-0.135-0.321-0.198-0.481c-0.161-0.412-0.32-0.824-0.468-1.241c-0.291-0.818-0.539-1.651-0.684-2.508
				c-0.003-0.015-0.011-0.025-0.015-0.039c0.135-0.062,0.235-0.197,0.185-0.383c-0.5-1.853-0.462-3.778-0.381-5.681
				c0.085-1.988,0.261-3.972,0.711-5.914c0.099-0.428-0.56-0.612-0.66-0.182c-0.463,2-0.648,4.049-0.735,6.096
				c-0.084,1.963-0.111,3.95,0.405,5.862c0.005,0.018,0.016,0.029,0.022,0.045c-0.126,0.068-0.222,0.2-0.192,0.377
				c0.19,1.112,0.551,2.179,0.952,3.23c0.097,0.252,0.195,0.505,0.294,0.757c0.089,0.225,0.171,0.458,0.338,0.639
				c0.318,0.347,0.889,0.357,1.153-0.056C234.789,1183.164,234.23,1182.831,233.984,1183.164"/>
			<path fill="#67522F" d="M229.989,1181.363c-0.351-0.005-0.702,0.014-1.05,0.057c-0.184,0.022-0.343,0.141-0.343,0.342
				c0,0.168,0.157,0.365,0.343,0.343c0.155-0.019,0.31-0.016,0.465-0.025c-0.029,0.039-0.058,0.078-0.083,0.116
				c-0.14,0.207-0.281,0.412-0.424,0.617c-0.294,0.424-0.593,0.844-0.896,1.263c-0.109,0.15-0.026,0.381,0.122,0.468
				c0.173,0.101,0.36,0.028,0.468-0.122c0.313-0.432,0.621-0.866,0.924-1.304c0.152-0.219,0.303-0.438,0.453-0.659
				c0.138-0.205,0.304-0.412,0.351-0.661C230.36,1181.578,230.225,1181.366,229.989,1181.363"/>
			<path fill="#4F3E24" d="M231.331,1181.454c-0.071-0.161-0.233-0.234-0.404-0.198c-0.215,0.046-0.431,0.091-0.647,0.137
				c-0.174,0.036-0.275,0.235-0.24,0.403c-0.002,0.004-0.006,0.006-0.009,0.009c-0.178,0.287-0.33,0.592-0.459,0.903
				c-0.257,0.617-0.397,1.274-0.431,1.942c-0.009,0.185,0.165,0.342,0.343,0.342c0.193,0,0.333-0.156,0.342-0.342
				c0.029-0.569,0.154-1.128,0.365-1.657c0.099-0.252,0.229-0.492,0.364-0.727c0.076-0.131,0.086-0.144,0.218-0.201
				c0.139-0.061,0.278-0.122,0.417-0.183C231.345,1181.814,231.392,1181.594,231.331,1181.454"/>
		</g>
	</g>
	<path fill="#D495AB" d="M68.051,1783.739h42.238v55.144H68.051V1783.739z M88.703,1767.003l21.586,16.769l-42.238,0.248
		L88.703,1767.003z"/>
	<rect x="2.13" y="1784.021" fill="#F8B4CC" width="65.921" height="54.862"/>
	<polygon fill="#8F5066" points="68.12,1784.021 47.485,1767.003 88.756,1767.003 	"/>
	<polygon fill="#8F5066" points="22.766,1767.003 2.131,1784.021 43.401,1784.021 	"/>
	<rect x="22.766" y="1767.003" fill="#8F5066" width="45.355" height="17.017"/>
	<polygon fill="#D495AB" points="94.892,1823.487 8.174,1841.656 8.174,1805.317 	"/>
	<rect x="23.653" y="1808.09" fill="#8F5066" width="22.877" height="30.793"/>
	<rect x="46.378" y="1808.061" fill="#F8B4CC" width="21.522" height="30.793"/>
	<path fill="#D495AB" d="M161.789,1783.739h42.238v55.144h-42.238V1783.739z M182.441,1767.003l21.586,16.769l-42.238,0.248
		L182.441,1767.003z"/>
	<rect x="95.868" y="1784.021" fill="#F8B4CC" width="65.921" height="54.862"/>
	<polygon fill="#8F5066" points="161.858,1784.021 141.223,1767.003 182.493,1767.003 	"/>
	<polygon fill="#8F5066" points="116.504,1767.003 95.868,1784.021 137.139,1784.021 	"/>
	<rect x="116.503" y="1767.003" fill="#8F5066" width="45.355" height="17.017"/>
	<polygon fill="#D495AB" points="188.63,1823.487 101.911,1841.656 101.911,1805.317 	"/>
	<rect x="117.39" y="1808.09" fill="#8F5066" width="22.877" height="30.793"/>
	<rect x="140.115" y="1808.061" fill="#F8B4CC" width="21.522" height="30.793"/>
	<path fill="#D495AB" d="M255.527,1783.739h42.237v55.144h-42.237V1783.739z M276.179,1767.003l21.586,16.769l-42.238,0.248
		L276.179,1767.003z"/>
	<rect x="189.606" y="1784.021" fill="#F8B4CC" width="65.921" height="54.862"/>
	<polygon fill="#8F5066" points="255.596,1784.021 234.961,1767.003 276.231,1767.003 	"/>
	<polygon fill="#8F5066" points="210.241,1767.003 189.606,1784.021 230.877,1784.021 	"/>
	<rect x="210.242" y="1767.003" fill="#8F5066" width="45.354" height="17.017"/>
	<polygon fill="#D495AB" points="282.367,1823.487 195.649,1841.656 195.649,1805.317 	"/>
	<rect x="211.127" y="1808.09" fill="#8F5066" width="22.878" height="30.793"/>
	<rect x="233.853" y="1808.061" fill="#F8B4CC" width="21.522" height="30.793"/>
	<rect x="2.467" y="1877.006" fill="#FFF68F" width="65.921" height="54.862"/>
	<polygon fill="#BFA152" points="68.457,1877.006 47.822,1859.989 89.093,1859.989 	"/>
	<polygon fill="#BFA152" points="23.103,1859.988 2.468,1877.006 43.738,1877.006 	"/>
	<rect x="23.103" y="1859.988" fill="#BFA152" width="45.355" height="17.017"/>
	<polygon fill="#D6CC5A" points="95.38,1916.502 8.662,1934.672 8.662,1898.331 	"/>
	<rect x="46.866" y="1901.075" fill="#FFF68F" width="21.522" height="30.793"/>
	<rect x="23.99" y="1901.075" fill="#BFA152" width="22.877" height="30.793"/>
	<path fill="#D6CC5A" d="M162.126,1876.724h42.238v55.145h-42.238V1876.724z M182.778,1859.988l21.586,16.77l-42.238,0.247
		L182.778,1859.988z"/>
	<path fill="#D6CC5A" d="M68.388,1876.724h42.238v55.145H68.388V1876.724z M89.04,1859.988l21.586,16.77l-42.238,0.247
		L89.04,1859.988z"/>
	<rect x="96.205" y="1877.006" fill="#FFF68F" width="65.921" height="54.862"/>
	<polygon fill="#BFA152" points="162.195,1877.006 141.56,1859.989 182.83,1859.989 	"/>
	<polygon fill="#BFA152" points="116.84,1859.988 96.205,1877.006 137.476,1877.006 	"/>
	<rect x="116.84" y="1859.988" fill="#BFA152" width="45.355" height="17.017"/>
	<polygon fill="#D6CC5A" points="189.118,1916.502 102.4,1934.672 102.4,1898.331 	"/>
	<rect x="140.604" y="1901.075" fill="#FFF68F" width="21.522" height="30.793"/>
	<rect x="117.727" y="1901.075" fill="#BFA152" width="22.877" height="30.793"/>
	<path fill="#D6CC5A" d="M162.047,1876.724h42.238v55.145h-42.238V1876.724z M182.699,1859.988l21.586,16.77l-42.238,0.247
		L182.699,1859.988z"/>
	<path fill="#D6CC5A" d="M255.864,1876.724h42.237v55.145h-42.237V1876.724z M276.516,1859.988l21.586,16.77l-42.238,0.247
		L276.516,1859.988z"/>
	<polygon fill="#BFA152" points="255.932,1877.006 235.298,1859.989 276.568,1859.989 	"/>
	<polygon fill="#BFA152" points="210.578,1859.988 189.943,1877.006 231.213,1877.006 	"/>
	<rect x="210.579" y="1859.988" fill="#BFA152" width="45.354" height="17.017"/>
	<rect x="189.943" y="1877.006" fill="#FFF68F" width="65.921" height="54.862"/>
	<polygon fill="#D6CC5A" points="282.856,1916.502 196.138,1934.672 196.138,1898.331 	"/>
	<rect x="234.342" y="1901.075" fill="#FFF68F" width="21.522" height="30.793"/>
	<rect x="211.464" y="1901.075" fill="#BFA152" width="22.878" height="30.793"/>
	<path fill="#46B5CC" d="M68.22,1694.359h42.238v55.144H68.22V1694.359z M88.871,1677.623l21.586,16.77l-42.238,0.248
		L88.871,1677.623z"/>
	<rect x="2.299" y="1694.641" fill="#B1DFE9" width="65.921" height="54.862"/>
	<polygon fill="#00657A" points="68.289,1694.641 47.654,1677.623 88.924,1677.623 	"/>
	<polygon fill="#00657A" points="22.934,1677.623 2.299,1694.641 43.57,1694.641 	"/>
	<rect x="22.934" y="1677.624" fill="#00657A" width="45.355" height="17.017"/>
	<rect x="23.821" y="1718.71" fill="#00657A" width="22.877" height="30.793"/>
	<path fill="#FFF264" d="M43.293,1732.831c-1.775,0-1.778,2.758,0,2.758C45.067,1735.589,45.07,1732.831,43.293,1732.831"/>
	<path fill="#46B5CC" d="M161.957,1694.359h42.238v55.144h-42.238V1694.359z M182.609,1677.623l21.586,16.77l-42.238,0.248
		L182.609,1677.623z"/>
	<rect x="96.037" y="1694.641" fill="#B1DFE9" width="65.921" height="54.862"/>
	<polygon fill="#00657A" points="162.027,1694.641 141.391,1677.623 182.662,1677.623 	"/>
	<polygon fill="#00657A" points="116.672,1677.623 96.037,1694.641 137.307,1694.641 	"/>
	<rect x="116.672" y="1677.624" fill="#00657A" width="45.355" height="17.017"/>
	<rect x="117.559" y="1718.71" fill="#00657A" width="22.877" height="30.793"/>
	<path fill="#FFF264" d="M137.031,1732.831c-1.775,0-1.778,2.758,0,2.758C138.805,1735.589,138.808,1732.831,137.031,1732.831"/>
	<polyline fill="#46B5CC" points="297.933,1749.503 255.695,1749.503 255.695,1694.359 297.933,1694.359 	"/>
	<polyline fill="#46B5CC" points="297.934,1694.393 255.695,1694.641 276.347,1677.623 297.934,1694.393 	"/>
	<rect x="189.774" y="1694.641" fill="#B1DFE9" width="65.921" height="54.862"/>
	<polygon fill="#00657A" points="255.764,1694.641 235.129,1677.623 276.399,1677.623 	"/>
	<polygon fill="#00657A" points="210.41,1677.623 189.774,1694.641 231.045,1694.641 	"/>
	<rect x="210.41" y="1677.624" fill="#00657A" width="45.354" height="17.017"/>
	<rect x="211.296" y="1718.71" fill="#00657A" width="22.878" height="30.793"/>
	<path fill="#FFF264" d="M230.768,1732.831c-1.775,0-1.778,2.758,0,2.758C232.543,1735.589,232.546,1732.831,230.768,1732.831"/>
	<polygon fill="#BFA152" points="162.116,1877.006 141.481,1859.989 182.752,1859.989 	"/>
	<polygon fill="#BFA152" points="116.762,1859.988 96.127,1877.006 137.397,1877.006 	"/>
	<rect x="116.762" y="1859.988" fill="#BFA152" width="45.355" height="17.017"/>
	<path fill="#D6CC5A" d="M255.785,1876.724h42.237v55.145h-42.237V1876.724z M276.437,1859.988l21.586,16.77l-42.238,0.247
		L276.437,1859.988z"/>
	<polygon fill="#BFA152" points="255.854,1877.006 235.219,1859.989 276.489,1859.989 	"/>
	<polygon fill="#BFA152" points="210.5,1859.988 189.864,1877.006 231.135,1877.006 	"/>
	<rect x="210.5" y="1859.988" fill="#BFA152" width="45.354" height="17.017"/>
	<path fill="#D6CC5A" d="M255.375,1783.739h42.219v55.144h-42.219V1783.739z M276.018,1767.003l21.577,16.77l-42.22,0.248
		L276.018,1767.003z"/>
	<path fill="#D495AB" d="M275.237,1768.231h2.366v16.282h-2.366V1768.231z"/>
	<path fill="#D495AB" d="M276.018,1767.003l-0.072,1.278l1.657-0.05L276.018,1767.003z"/>
	<path fill="#D495AB" d="M255.375,1783.738h22.228v55.144h-22.228V1783.738z M276.018,1767.003l-0.441,17.51l-20.202-0.493
		L276.018,1767.003z"/>
	<rect style="opacity:0.7;" x="2.131" y="1668.355" fill="#FFFCF1" width="295.971" height="84.878"/>
	<rect style="opacity:0.7;" x="0.729" y="1754.047" fill="#FFFCF1" width="276.874" height="90.451"/>
	<path fill="#D495AB" d="M68.408,464.511h42.235v55.164H68.408V464.511z M89.058,447.769l21.585,16.776l-42.235,0.248
		L89.058,447.769z"/>
	<rect x="2.492" y="464.793" fill="#F8B4CC" width="65.915" height="54.882"/>
	<polygon fill="#8F5066" points="68.477,464.793 47.843,447.769 89.111,447.769 	"/>
	<polygon fill="#8F5066" points="23.126,447.769 2.493,464.793 43.76,464.793 	"/>
	<rect x="23.126" y="447.769" fill="#8F5066" width="45.351" height="17.024"/>
	<polygon fill="#D495AB" points="95.246,504.273 8.535,522.449 8.535,486.096 	"/>
	<rect x="24.013" y="488.871" fill="#8F5066" width="22.875" height="30.804"/>
	<rect x="46.736" y="488.841" fill="#F8B4CC" width="21.52" height="30.804"/>
	<path fill="#D495AB" d="M162.138,464.511h42.235v55.164h-42.235V464.511z M182.788,447.769l21.585,16.776l-42.235,0.248
		L182.788,447.769z"/>
	<rect x="96.222" y="464.793" fill="#F8B4CC" width="65.915" height="54.882"/>
	<polygon fill="#8F5066" points="162.207,464.793 141.573,447.769 182.841,447.769 	"/>
	<polygon fill="#8F5066" points="116.856,447.769 96.223,464.793 137.49,464.793 	"/>
	<rect x="116.856" y="447.769" fill="#8F5066" width="45.351" height="17.024"/>
	<polygon fill="#D495AB" points="188.976,504.273 102.265,522.449 102.265,486.096 	"/>
	<rect x="117.743" y="488.871" fill="#8F5066" width="22.875" height="30.804"/>
	<rect x="140.466" y="488.841" fill="#F8B4CC" width="21.52" height="30.804"/>
	<path fill="#D495AB" d="M255.868,464.511h42.234v55.164h-42.234V464.511z M276.518,447.769l21.585,16.776l-42.235,0.248
		L276.518,447.769z"/>
	<rect x="189.952" y="464.793" fill="#F8B4CC" width="65.916" height="54.882"/>
	<polygon fill="#8F5066" points="255.937,464.793 235.304,447.769 276.57,447.769 	"/>
	<polygon fill="#8F5066" points="210.586,447.769 189.953,464.793 231.22,464.793 	"/>
	<rect x="210.587" y="447.769" fill="#8F5066" width="45.35" height="17.024"/>
	<polygon fill="#D495AB" points="282.706,504.273 195.995,522.449 195.995,486.096 	"/>
	<rect x="211.472" y="488.871" fill="#8F5066" width="22.876" height="30.804"/>
	<rect x="234.196" y="488.841" fill="#F8B4CC" width="21.52" height="30.804"/>
	<rect style="opacity:0.7;" x="2.493" y="444.535" fill="#FFFCF1" width="295.947" height="78.748"/>
	<path fill="#D6CC5A" d="M67.948,1110.216h42.219v55.144H67.948V1110.216z M88.591,1093.48l21.577,16.77l-42.22,0.248
		L88.591,1093.48z"/>
	<path fill="#D495AB" d="M87.81,1094.708h2.366v16.282H87.81V1094.708z"/>
	<rect x="97.57" y="1111.946" fill="#FFF68F" width="65.915" height="54.882"/>
	<path fill="#D495AB" d="M88.591,1093.48l-0.072,1.278l1.657-0.05L88.591,1093.48z"/>
	<path fill="#D495AB" d="M67.948,1110.215h22.228v55.145H67.948V1110.215z M88.591,1093.48l-0.441,17.51l-20.202-0.493
		L88.591,1093.48z"/>
	<polygon fill="#D6CC5A" points="190.475,1151.456 103.764,1169.632 103.764,1133.279 	"/>
	<rect x="119.09" y="1136.023" fill="#BFA152" width="22.875" height="30.804"/>
	<rect x="141.965" y="1136.023" fill="#FFF68F" width="21.52" height="30.804"/>
	<polygon fill="#BFA152" points="118.203,1094.922 97.57,1111.946 138.837,1111.946 	"/>
	<rect style="opacity:0.7;" x="90.176" y="1088.705" fill="#FFFCF1" width="116.775" height="84.473"/>
	<g>
		<g>
			<path fill="#FEFEFE" d="M229.574,1134.798c-1.926,0.525-3.378,1.593-4.271,3.406c-0.099,0.201-0.399,0.423-0.603,0.421
				c-0.258-0.002-0.523-0.21-0.765-0.361c-0.107-0.067-0.165-0.212-0.286-0.377c-1.08,1.122-2.45,0.926-3.707,0.641
				c-1.604-0.363-1.19-2.03-1.806-3.313c-0.864,0.124-1.826,0.227-2.769,0.425c-0.192,0.041-0.381,0.423-0.443,0.68
				c-0.082,0.338-0.038,0.706-0.049,1.062c0.117,0.756-0.573,0.943-0.953,1.348c0.018,0.649,0.036,1.297,0.055,1.945
				c0.076,0.295,0.154,0.591,0.23,0.887c0.014,0.59,0.028,1.179,0.042,1.77c0.609,0.423,0.24,1.009,0.255,1.532
				c0.009,0.475,0.019,0.95,0.028,1.425l0.188,0.515c0.579,1.584,1.098,3.193,1.758,4.743c0.397,0.933,0.421,1.174-0.45,1.693
				c-0.254,0.151-0.505,0.307-0.758,0.46c0.254,0.108,0.509,0.216,0.763,0.324l0.012,0.008c0.5,0.145,1.031,0.228,1.494,0.451
				c0.59,0.284,0.666,1.048,0.358,1.688c-0.148,0.307-0.2,0.741-0.108,1.065c0.303,1.072,0.036,2.027-0.766,2.411
				c-0.319,0.012-0.638,0.024-0.958,0.036c-0.117-0.081-0.235-0.162-0.352-0.244c-0.163-0.002-0.327-0.005-0.49-0.007
				c-0.001,0.055-0.003,0.109-0.002,0.164c0.03,1.274,0.03,1.274-1.318,1.514c0.077,0.323,0.134,0.648,0.232,0.959
				c0.197,0.624,0.161,1.211-0.408,1.593c-0.473,0.317-0.946,0.25-1.464-0.101c-1.38-0.937-1.52-2.355-1.635-3.81
				c-0.038-0.48,0.225-1.079-0.478-1.322c-0.494,0.17-0.979,0.386-1.486,0.496c-0.43,0.094-0.714-0.052-0.868-0.586
				c-0.378-1.31-0.87-2.588-1.325-3.875c-0.019-0.055-0.135-0.075-0.207-0.111l-0.123,0.98c-0.035,0.217-0.071,0.433-0.106,0.65
				c-0.132,0.135-0.263,0.271-0.394,0.407c0.225,0.468,0.447,0.938,0.674,1.404c0.059,0.12,0.175,0.223,0.203,0.347
				c0.59,2.651,1.851,5.011,3.087,7.397c0.629,1.214,1.144,2.471,1.092,3.979c-0.051,1.484,0.476,2.979,0.632,4.481
				c0.098,0.939,0.021,1.905-0.056,2.852c-0.069,0.849-0.815,0.965-1.456,1.156c-0.052,0.405-0.105,0.81-0.157,1.215
				c0.526,0.162,1.042,0.371,1.58,0.477c1.217,0.239,2.384,0.553,3.301,1.502c-0.302,0.625-0.691,0.92-1.402,0.898
				c-1.667-0.052-3.336,0.006-5.004-0.035c-0.359-0.009-0.972-0.188-1.018-0.391c-0.119-0.52-0.047-1.112,0.074-1.647
				c0.063-0.278,0.393-0.494,0.602-0.739c-0.098-0.413-0.197-0.825-0.295-1.238c-0.615-0.006-1.241,0.054-1.843-0.039
				c-0.644-0.099-0.946-0.499-0.956-1.238c-0.029-2.369-0.145-4.738-0.237-7.107c-0.007-0.182-0.061-0.375-0.139-0.54
				c-0.697-1.452-1.404-2.899-2.109-4.346c-0.091-0.009-0.242-0.055-0.263-0.022c-0.594,0.988-1.182,1.98-1.757,2.98
				c-1.274,2.219-2.538,4.444-3.811,6.663c-0.428,0.746-0.859,1.491-1.313,2.221c-0.464,0.746-1.169,0.818-1.84,0.244
				c-0.306-0.261-0.654-0.474-0.983-0.709c-0.066,0.171-0.134,0.342-0.2,0.513c0.596,0.859,1.215,1.704,1.779,2.583
				c0.265,0.414,0.5,0.878,0.614,1.351c0.134,0.555-0.819,1.091-1.356,0.702c-1.235-0.896-2.475-1.811-3.57-2.868
				c-0.882-0.85-0.482-1.892,0.723-2.283c0.032-0.531,0.065-1.063,0.097-1.594c-0.634-0.35-1.272-0.694-1.902-1.051
				c-1.142-0.646-1.189-1.248-0.328-2.235c0.966-1.109,1.952-2.225,2.736-3.461c0.802-1.261,1.372-2.669,2.038-4.016
				c0.903-1.828,1.793-3.662,2.706-5.485c0.285-0.569,0.625-1.11,0.941-1.664c-0.552-2.053-0.009-4.09,0.213-6.106
				c0.131-1.188,0.74-2.349,1.258-3.465c0.84-1.809,1.657-3.649,2.717-5.329c1.062-1.681,1.884-3.544,3.419-4.916
				c0.977-0.872,1.779-1.959,2.817-2.737c1.142-0.856,2.418-1.58,3.73-2.139c0.663-0.282,1.569-0.423,2.292,0.167
				c0.595-0.044,1.198-0.04,1.782-0.143c0.931-0.164,1.883-0.31,2.759-0.641c0.431-0.162,0.812-0.672,1.041-1.114
				c0.593-1.144,1.315-2.074,2.547-2.629c0.943-0.425,1.714-1.3,2.677-1.592c1.877-0.567,3.76-0.816,5.443,0.805
				c1.544,1.487,2.498,3.153,2.427,5.307C231.603,1133.502,230.979,1134.415,229.574,1134.798"/>
			<path fill="#D8C09B" d="M196.527,1156.65c-0.551-2.053-0.009-4.09,0.213-6.106c0.131-1.188,0.74-2.349,1.258-3.465
				c0.84-1.808,1.657-3.649,2.717-5.328c1.062-1.682,1.884-3.545,3.419-4.916c0.976-0.872,1.778-1.959,2.817-2.737
				c1.142-0.855,2.418-1.58,3.73-2.139c0.663-0.282,1.569-0.423,2.291,0.167c-0.077,2.009,0.541,3.767,1.903,5.256
				c0.116,0.756-0.573,0.943-0.953,1.348c-1.728,1.043-2.522,2.823-3.039,4.567c-0.666,2.24-0.253,4.571,0.428,6.815
				c0.297,0.979,0.52,1.98,0.815,2.959c0.181,0.603,0.436,1.183,0.658,1.774c0.053,0.29,0.065,0.594,0.167,0.865
				c0.27,0.718,0.195,1.314-0.49,1.754c-0.179-0.107-0.413-0.347-0.527-0.3c-0.563,0.232-1.103,0.527-1.63,0.836
				c-0.1,0.059-0.104,0.281-0.151,0.428c-0.494,0.171-0.979,0.386-1.486,0.496c-0.43,0.094-0.714-0.052-0.868-0.586
				c-0.378-1.31-0.869-2.588-1.325-3.875c-0.019-0.055-0.135-0.075-0.207-0.111c-0.079-0.265-0.214-0.527-0.225-0.794
				c-0.033-0.776-0.016-1.556-0.019-2.333c0.004-0.724,0.031-1.45-0.004-2.172c-0.011-0.218-0.193-0.428-0.297-0.641
				c-0.001-0.76-0.002-1.52-0.003-2.281c0.101-0.116,0.201-0.232,0.302-0.348c0.112-0.763,0.226-1.527,0.338-2.289
				c0.052-0.113,0.105-0.225,0.157-0.338c0.113-0.38,0.226-0.76,0.34-1.14c0.008-0.089,0.015-0.179,0.024-0.269
				c-0.061,0.09-0.122,0.18-0.184,0.271c-0.201,0.215-0.519,0.399-0.586,0.65c-0.435,1.648-0.943,3.292-1.177,4.973
				c-0.227,1.634-0.134,3.312-0.218,4.968c-0.062,1.212-0.184,2.421-0.267,3.467c-0.415,0.244-0.653,0.384-0.891,0.524
				c-0.971,0.052-1.942,0.144-2.914,0.146C199.27,1156.749,197.898,1156.685,196.527,1156.65"/>
			<path fill="#67522F" d="M196.527,1156.65c1.371,0.035,2.743,0.099,4.115,0.097c0.972-0.002,1.943-0.094,2.914-0.146
				c0.389,0.013,0.777,0.025,1.166,0.038c-0.31,0.622-0.657,1.229-0.922,1.87c-0.373,0.91-0.692,1.843-1.02,2.771
				c-0.4,1.131-0.98,2.236-0.564,3.499c-0.091-0.009-0.242-0.055-0.262-0.022c-0.594,0.988-1.183,1.98-1.757,2.98
				c-1.274,2.219-2.537,4.444-3.81,6.664c-0.428,0.746-0.859,1.491-1.314,2.221c-0.464,0.746-1.169,0.817-1.84,0.244
				c-0.305-0.262-0.654-0.475-0.983-0.71c-0.35-0.876-1.051-1.331-1.912-1.596c-0.634-0.35-1.272-0.694-1.903-1.051
				c-1.142-0.646-1.189-1.248-0.328-2.235c0.966-1.109,1.952-2.225,2.737-3.461c0.801-1.261,1.372-2.668,2.038-4.016
				c0.903-1.827,1.793-3.662,2.706-5.485C195.871,1157.744,196.211,1157.203,196.527,1156.65"/>
			<path fill="#DB394D" d="M214.875,1137.381c-1.361-1.489-1.979-3.247-1.902-5.256c0.595-0.043,1.198-0.039,1.783-0.142
				c0.931-0.164,1.883-0.31,2.758-0.642c0.431-0.163,0.812-0.672,1.041-1.114c0.593-1.144,1.314-2.074,2.547-2.629
				c0.943-0.425,1.713-1.3,2.677-1.591c1.876-0.568,3.76-0.816,5.443,0.805c1.544,1.487,2.498,3.153,2.427,5.306
				c-0.045,1.384-0.67,2.297-2.075,2.68c-1.927,0.525-3.379,1.593-4.271,3.406c-0.099,0.201-0.399,0.423-0.603,0.421
				c-0.257-0.002-0.522-0.21-0.764-0.361c-0.107-0.067-0.165-0.212-0.287-0.377c-1.08,1.122-2.45,0.926-3.707,0.642
				c-1.603-0.363-1.189-2.03-1.805-3.313c-0.865,0.124-1.826,0.227-2.769,0.425c-0.192,0.041-0.381,0.423-0.443,0.68
				C214.841,1136.658,214.886,1137.026,214.875,1137.381"/>
			<path fill="#4F3E24" d="M202.215,1164.78c-0.416-1.264,0.165-2.369,0.564-3.5c0.328-0.928,0.647-1.861,1.02-2.771
				c0.264-0.642,0.611-1.248,0.922-1.87c0.307-0.083,0.615-0.165,0.922-0.247c0.225,0.468,0.447,0.937,0.675,1.403
				c0.059,0.121,0.175,0.223,0.202,0.348c0.59,2.651,1.851,5.011,3.088,7.397c0.629,1.214,1.144,2.47,1.091,3.979
				c-0.051,1.483,0.476,2.978,0.632,4.481c0.098,0.939,0.021,1.905-0.055,2.851c-0.069,0.849-0.815,0.965-1.457,1.157
				c-0.773,0.014-1.546,0.028-2.319,0.042c-0.615-0.007-1.241,0.054-1.843-0.039c-0.644-0.099-0.948-0.499-0.956-1.238
				c-0.029-2.37-0.145-4.738-0.237-7.107c-0.006-0.182-0.06-0.374-0.139-0.54C203.627,1167.675,202.92,1166.228,202.215,1164.78"/>
			<path fill="#AA977B" d="M212.784,1154.845c-0.222-0.591-0.477-1.172-0.658-1.774c-0.295-0.979-0.517-1.98-0.815-2.959
				c-0.681-2.244-1.094-4.575-0.428-6.815c0.517-1.744,1.311-3.524,3.039-4.567c0.018,0.649,0.036,1.297,0.054,1.945
				c0.077,0.295,0.153,0.591,0.23,0.887c0.014,0.59,0.028,1.179,0.042,1.77c0.085,0.51,0.171,1.021,0.256,1.532
				c0.009,0.475,0.018,0.95,0.028,1.425c0.062,0.171,0.124,0.343,0.187,0.515c0.578,1.584,1.098,3.193,1.757,4.743
				c0.397,0.932,0.422,1.174-0.448,1.693c-0.254,0.151-0.506,0.307-0.757,0.458c-0.081,0.087-0.163,0.176-0.244,0.265
				c-0.095,0.022-0.189,0.044-0.282,0.065c-0.112,0.102-0.224,0.204-0.336,0.305c-0.233,0.175-0.465,0.35-0.698,0.524
				C213.403,1154.852,213.093,1154.849,212.784,1154.845"/>
			<path fill="#5F5B54" d="M209.663,1179.224c0.526,0.162,1.042,0.371,1.58,0.477c1.217,0.238,2.384,0.553,3.301,1.502
				c-0.302,0.625-0.691,0.92-1.403,0.898c-1.667-0.052-3.336,0.006-5.004-0.035c-0.359-0.009-0.972-0.188-1.018-0.391
				c-0.119-0.52-0.047-1.113,0.074-1.647c0.063-0.278,0.393-0.495,0.602-0.739C208.418,1179.266,209.04,1179.245,209.663,1179.224"
				/>
			<path fill="#5E5953" d="M192.049,1176.67c0.596,0.859,1.214,1.704,1.778,2.583c0.266,0.414,0.5,0.878,0.614,1.351
				c0.134,0.555-0.819,1.091-1.355,0.702c-1.235-0.896-2.475-1.811-3.57-2.868c-0.881-0.85-0.481-1.892,0.723-2.283
				C190.742,1176.674,191.383,1176.716,192.049,1176.67"/>
			<path fill="#DB394D" d="M213.712,1154.856c0.233-0.175,0.465-0.349,0.698-0.524c0.112-0.101,0.224-0.203,0.336-0.305
				c0.094-0.022,0.188-0.044,0.283-0.065c0.335,0.021,0.67,0.041,1.005,0.061l0.012,0.008c0.374,0.234,0.758,0.451,1.117,0.706
				c0.273,0.193,0.514,0.432,0.822,0.697c-0.488,0.267-0.789,0.431-1.091,0.596c0.235,0.602,0.481,1.111,0.63,1.647
				c0.202,0.732-0.172,1.354-0.5,1.971c-0.319,0.012-0.638,0.024-0.958,0.036c-0.117-0.081-0.234-0.162-0.352-0.244
				c-0.163-0.002-0.326-0.005-0.49-0.007l0.013,0.006c0.134-0.471-0.039-0.633-0.504-0.502l0.011,0.011
				C214.787,1157.486,214.425,1156.127,213.712,1154.856"/>
			<path fill="#AB997B" d="M206.775,1142.019l-0.08-0.001c-0.202,0.215-0.52,0.4-0.586,0.65c-0.435,1.648-0.943,3.293-1.177,4.973
				c-0.227,1.635-0.134,3.312-0.218,4.969c-0.045,0.887-0.123,1.771-0.194,2.592c-0.007,0.017-0.025,0.062-0.031,0.077
				c-0.134,0.318-0.299,0.625-0.484,0.916c-0.031,0.049-0.041,0.107-0.041,0.165c-0.153,0.09-0.282,0.165-0.408,0.24
				c0.173,0.006,0.345,0.012,0.519,0.017c0.018,0.016,0.032,0.035,0.054,0.047c0.138,0.073,0.271,0.051,0.378-0.032
				c0.072,0.003,0.144,0.005,0.215,0.007c0.307-0.082,0.615-0.164,0.922-0.247c0.132-0.136,0.262-0.272,0.394-0.407
				c0.036-0.217,0.071-0.434,0.107-0.65c0.041-0.327,0.081-0.654,0.122-0.98c-0.079-0.264-0.214-0.527-0.225-0.794
				c-0.033-0.776-0.016-1.555-0.019-2.332c-0.105-0.214-0.288-0.423-0.298-0.64c-0.035-0.723-0.007-1.448-0.002-2.173
				c-0.001-0.76-0.002-1.521-0.003-2.281c0.101-0.116,0.201-0.232,0.302-0.349c0.112-0.763,0.226-1.526,0.338-2.289
				c0.052-0.112,0.105-0.225,0.157-0.338c0.113-0.38,0.226-0.76,0.34-1.14L206.775,1142.019z"/>
			<path fill="#E05350" d="M217.024,1159.647c0.327-0.617,0.702-1.239,0.5-1.971c-0.15-0.536-0.396-1.045-0.63-1.647
				c0.302-0.165,0.603-0.329,1.091-0.596c-0.308-0.264-0.549-0.503-0.822-0.697c-0.359-0.254-0.743-0.472-1.117-0.706
				c0.5,0.145,1.031,0.228,1.494,0.451c0.59,0.284,0.666,1.048,0.358,1.689c-0.148,0.307-0.2,0.741-0.108,1.065
				C218.092,1158.308,217.826,1159.264,217.024,1159.647"/>
			<path fill="#DB394D" d="M209.663,1179.224c-0.623,0.022-1.245,0.043-1.867,0.064c-0.098-0.413-0.197-0.825-0.295-1.238
				c0.773-0.014,1.546-0.028,2.319-0.042C209.767,1178.414,209.715,1178.819,209.663,1179.224"/>
			<path fill="#DB394D" d="M192.049,1176.67c-0.666,0.046-1.307,0.004-1.811-0.514c0.033-0.531,0.066-1.063,0.099-1.594
				c0.861,0.265,1.561,0.72,1.912,1.596C192.182,1176.328,192.115,1176.499,192.049,1176.67"/>
			<path fill="#DBD4C9" d="M214.505,1144.863c-0.085-0.511-0.171-1.022-0.256-1.532
				C214.859,1143.754,214.489,1144.341,214.505,1144.863"/>
			<path fill="#E05350" d="M216.034,1154.023c-0.335-0.02-0.67-0.041-1.005-0.061c0.081-0.089,0.163-0.179,0.244-0.266
				C215.525,1153.807,215.779,1153.915,216.034,1154.023"/>
			<path fill="#DBD4C9" d="M214.207,1141.561c-0.077-0.295-0.154-0.591-0.23-0.886
				C214.053,1140.97,214.131,1141.266,214.207,1141.561"/>
			<path fill="#DBD4C9" d="M214.72,1146.803c-0.062-0.172-0.125-0.343-0.187-0.515
				C214.596,1146.46,214.658,1146.631,214.72,1146.803"/>
			<path fill="#C0AC8C" d="M206.038,1155.984c0.036-0.217,0.071-0.434,0.107-0.65
				C206.108,1155.551,206.073,1155.768,206.038,1155.984"/>
			<path fill="#E05350" d="M215.715,1159.439c0.117,0.081,0.234,0.162,0.352,0.244
				C215.949,1159.602,215.832,1159.521,215.715,1159.439"/>
			<path fill="#FFFBF0" d="M213.712,1154.856c0.713,1.271,1.075,2.63,1.032,4.092c-0.761-0.495-1.522-0.989-2.282-1.484
				c0.684-0.439,0.76-1.036,0.49-1.753c-0.102-0.271-0.114-0.576-0.167-0.866C213.093,1154.849,213.403,1154.853,213.712,1154.856"
				/>
			<path fill="#C0AC8C" d="M206.022,1151.227c-0.105-0.213-0.288-0.423-0.298-0.64c-0.034-0.723-0.007-1.448-0.002-2.172
				c0.104,0.213,0.287,0.423,0.297,0.641C206.053,1149.777,206.026,1150.503,206.022,1151.227"/>
			<path fill="#BFAA89" d="M206.855,1142.017l-0.081,0.002l-0.079-0.001c0.061-0.09,0.123-0.18,0.184-0.27
				C206.871,1141.837,206.864,1141.927,206.855,1142.017"/>
			<path fill="#C0AC8C" d="M206.359,1143.495c0.052-0.112,0.105-0.225,0.157-0.338
				C206.464,1143.269,206.411,1143.382,206.359,1143.495"/>
			<path fill="#C0AC8C" d="M205.719,1146.133c0.101-0.117,0.201-0.233,0.302-0.349C205.92,1145.9,205.819,1146.017,205.719,1146.133
				"/>
			<path fill="#E05350" d="M214.746,1154.027c-0.112,0.102-0.224,0.204-0.336,0.305
				C214.521,1154.231,214.634,1154.129,214.746,1154.027"/>
			<path fill="#FEFEFE" d="M214.734,1158.937c0.465-0.131,0.638,0.032,0.504,0.503
				C215.069,1159.272,214.901,1159.105,214.734,1158.937"/>
			<path fill="#FFFBF0" d="M215.431,1144.948c-0.008-0.171-0.14-0.331-0.318-0.338c-0.003-0.009-0.006-0.018-0.008-0.026
				c-0.035-0.135-0.059-0.273-0.078-0.41c-0.002-0.019-0.006-0.048-0.007-0.055c-0.005-0.035-0.009-0.071-0.012-0.106
				c-0.008-0.071-0.015-0.142-0.022-0.214c-0.016-0.152-0.032-0.305-0.048-0.458c-0.012-0.115-0.072-0.222-0.165-0.286
				c-0.057-0.756-0.091-1.515-0.088-2.275c0.002-0.44-0.683-0.441-0.684,0c-0.006,1.844,0.164,3.684,0.503,5.498
				c0.081,0.432,0.74,0.249,0.66-0.182c-0.05-0.269-0.089-0.539-0.131-0.809c0.019,0.001,0.038,0.004,0.056,0.004
				C215.267,1145.281,215.44,1145.138,215.431,1144.948"/>
			<path fill="#DB394D" d="M217.927,1155.785c0.133-0.371,0.042-0.763-0.207-1.061c-0.26-0.311-0.656-0.449-1.03-0.567
				c-0.022-0.007-0.039-0.004-0.06-0.006c-0.265-0.106-0.531-0.21-0.8-0.305c-0.078-0.028-0.155-0.054-0.234-0.081
				c-0.097-0.033-0.195-0.076-0.299-0.073c-0.221,0.006-0.382,0.214-0.532,0.353c-0.132,0.122-0.133,0.363,0,0.484
				c0.141,0.129,0.343,0.129,0.484,0c0.042-0.039,0.084-0.078,0.127-0.117c0.132,0.045,0.264,0.091,0.396,0.138
				c0.284,0.102,0.565,0.211,0.844,0.325c0.035,0.014,0.073,0.015,0.109,0.012c0.2,0.068,0.402,0.159,0.517,0.334
				c0.139,0.209,0.025,0.447-0.141,0.6c-0.127,0.117-0.237,0.239-0.275,0.413c-0.039,0.18-0.001,0.363,0.049,0.536
				c0.101,0.341,0.171,0.682,0.195,1.037c0.005,0.075,0.035,0.142,0.077,0.199c-0.004,0.073,0.001,0.145-0.009,0.218
				c-0.015,0.12-0.055,0.301-0.1,0.439c-0.044,0.132-0.087,0.198-0.189,0.292c-0.012,0.011-0.016,0.016-0.018,0.018
				c-0.003,0.001-0.01,0.005-0.024,0.013c-0.03,0.018-0.061,0.035-0.091,0.053c-0.014,0.008-0.019,0.012-0.021,0.014
				c-0.004,0.001-0.009,0.003-0.025,0.008c-0.033,0.012-0.067,0.023-0.101,0.032c-0.137,0.037-0.288,0.041-0.444,0.021
				c-0.11-0.015-0.27-0.055-0.393-0.102c-0.022-0.008-0.024-0.008-0.002,0c-0.017-0.007-0.034-0.015-0.049-0.023
				c-0.032-0.016-0.064-0.034-0.094-0.053c-0.015-0.01-0.03-0.019-0.045-0.03c0.018,0.014,0.018,0.013-0.001-0.002
				c-0.031-0.028-0.059-0.058-0.087-0.089c-0.057-0.067-0.142-0.096-0.228-0.097c-0.042-0.02-0.091-0.032-0.149-0.032
				c-0.427,0-0.437,0.64-0.034,0.677c0.275,0.267,0.669,0.385,1.041,0.431c0.425,0.052,0.857-0.038,1.195-0.309
				c0.331-0.264,0.461-0.68,0.52-1.084c0.066-0.443,0.052-0.882-0.047-1.319c-0.018-0.084-0.076-0.149-0.147-0.193
				c-0.025-0.109-0.046-0.218-0.078-0.327c-0.01-0.035-0.023-0.072-0.029-0.109c-0.002-0.016-0.001-0.081-0.008-0.063
				c0.002-0.006,0.105-0.091,0.131-0.117C217.76,1156.134,217.862,1155.967,217.927,1155.785"/>
			<path fill="#FEFEFE" d="M218.428,1156.543C218.429,1156.543,218.429,1156.543,218.428,1156.543
				C218.429,1156.543,218.429,1156.543,218.428,1156.543z"/>
			<path fill="#FFFBF0" d="M218.931,1157.532c-0.036-0.04-0.073-0.081-0.108-0.123c-0.021-0.025-0.041-0.051-0.062-0.076
				c-0.002-0.003-0.004-0.005-0.007-0.008c-0.001-0.031-0.004-0.062-0.014-0.092c0.058-0.103,0.075-0.229,0.005-0.334
				c-0.072-0.107-0.159-0.193-0.249-0.283c-0.017-0.016-0.033-0.033-0.048-0.051c-0.002-0.001-0.007-0.008-0.011-0.014
				c-0.005-0.008-0.009-0.016-0.015-0.024v-0.028c0.002-0.008,0.003-0.015,0.005-0.023c0.002-0.011,0.006-0.021,0.01-0.031
				c0.001-0.001,0.001-0.002,0.002-0.004c0.009-0.016,0.025-0.025,0.031-0.045c0.002-0.005,0-0.01,0.001-0.016
				c0.015-0.026,0.031-0.053,0.048-0.079c0.002-0.004,0.004-0.007,0.005-0.01c0.095-0.085,0.172-0.186,0.193-0.316
				c0.005-0.028,0.003-0.058,0.001-0.087c0.062-0.084,0.124-0.168,0.186-0.253c0.049-0.067,0.056-0.187,0.035-0.263
				c-0.022-0.08-0.083-0.166-0.157-0.205c-0.001,0-0.002,0-0.004-0.001c-0.015-0.036-0.037-0.069-0.068-0.097
				c-0.135-0.125-0.35-0.137-0.483,0c-0.112,0.112-0.134,0.241-0.153,0.39c0.004-0.031,0.008-0.061,0.012-0.091
				c-0.017,0.117-0.055,0.23-0.099,0.339c-0.013,0.029-0.028,0.056-0.042,0.084l-0.146,0.198c-0.195,0.178-0.288,0.417-0.194,0.69
				c0.024,0.068,0.057,0.132,0.085,0.199c0.058,0.171,0.145,0.333,0.251,0.479c0.15,0.235,0.323,0.457,0.505,0.658
				c0.121,0.133,0.363,0.132,0.484,0C219.062,1157.874,219.06,1157.674,218.931,1157.532"/>
			<path fill="#FFFBF0" d="M219.243,1159.812c-0.868-0.121-1.768,0.047-2.624-0.14c-0.636-0.139-1.088-0.534-1.411-1.05
				c-0.186-0.548-0.418-1.083-0.707-1.585c-0.089-0.155-0.314-0.222-0.468-0.123c-0.156,0.101-0.218,0.302-0.122,0.468
				c0.147,0.257,0.282,0.52,0.402,0.791c0.002,0.005,0.004,0.009,0.006,0.014c-0.31-0.242-0.623-0.491-0.845-0.816
				c-0.247-0.361-0.84-0.019-0.591,0.345c0.438,0.64,1.112,1.006,1.649,1.546c0.231,0.232,0.429,0.5,0.501,0.825
				c0.02,0.092,0.092,0.863-0.037,0.866c-0.44,0.011-0.441,0.694,0,0.684c0.563-0.013,0.743-0.544,0.75-1.022
				c0.002-0.194-0.013-0.382-0.042-0.566c0.163,0.092,0.335,0.172,0.521,0.228c0.924,0.28,1.895,0.063,2.836,0.194
				c0.184,0.026,0.365-0.045,0.421-0.239C219.527,1160.074,219.426,1159.838,219.243,1159.812"/>
			<path fill="#DB394D" d="M215.225,1159.433l0.012,0.006c-0.168-0.167-0.336-0.335-0.504-0.502l0.011,0.011
				c-0.761-0.495-1.522-0.989-2.282-1.484c-0.18-0.107-0.413-0.347-0.528-0.299c-0.563,0.233-1.103,0.527-1.63,0.836
				c-0.1,0.059-0.104,0.282-0.151,0.429c0.703,0.243,0.44,0.843,0.478,1.322c0.115,1.455,0.255,2.873,1.635,3.81
				c0.518,0.351,0.991,0.418,1.464,0.101c0.312-0.21,0.46-0.482,0.501-0.787c0.058-0.147,0.099-0.3,0.106-0.454
				c0.011-0.237-0.033-0.483-0.093-0.711c-0.048-0.182-0.128-0.345-0.225-0.501c0.079,0.011,0.161,0.012,0.243,0.005
				c0.144-0.012,0.281-0.034,0.414-0.089c0.184-0.078,0.317-0.211,0.397-0.378c0.172-0.188,0.166-0.506,0.151-1.152
				C215.222,1159.542,215.224,1159.487,215.225,1159.433"/>
			<path fill="#FFFBF0" d="M215.386,1159.261c-0.245-0.345-0.551-0.635-0.859-0.923c-0.361-0.338-0.723-0.675-1.084-1.012
				c-0.321-0.3-0.806,0.182-0.484,0.484c0.569,0.531,1.189,1.038,1.7,1.627c0.339,0.391,0.686,1.091,0.285,1.564
				c-0.119,0.141-0.138,0.346,0,0.484c0.122,0.122,0.364,0.142,0.484,0C215.979,1160.834,215.855,1159.921,215.386,1159.261"/>
			<path fill="#AB997B" d="M205.44,1145.688c-0.009,1.776-0.018,3.551-0.027,5.327c-0.002,0.441,0.682,0.441,0.684,0l0.028-5.327
				C206.127,1145.248,205.442,1145.247,205.44,1145.688"/>
			<path fill="#D8C09B" d="M208.376,1158.338c-0.004,0.002-0.005,0.008-0.022-0.001c-0.064-0.034-0.098-0.096-0.131-0.156
				c-0.082-0.152-0.135-0.321-0.198-0.481c-0.161-0.412-0.32-0.825-0.468-1.241c-0.291-0.818-0.539-1.651-0.684-2.508
				c-0.003-0.015-0.011-0.025-0.015-0.039c0.135-0.062,0.235-0.197,0.185-0.383c-0.5-1.853-0.462-3.779-0.381-5.681
				c0.085-1.988,0.261-3.972,0.711-5.914c0.099-0.428-0.56-0.611-0.66-0.182c-0.463,2-0.648,4.049-0.735,6.096
				c-0.084,1.963-0.111,3.95,0.405,5.862c0.005,0.018,0.016,0.029,0.022,0.045c-0.126,0.068-0.222,0.199-0.192,0.377
				c0.189,1.112,0.551,2.179,0.952,3.23c0.097,0.252,0.195,0.505,0.294,0.757c0.089,0.225,0.171,0.458,0.338,0.639
				c0.318,0.347,0.889,0.357,1.153-0.056C209.182,1158.337,208.622,1158.005,208.376,1158.338"/>
			<path fill="#67522F" d="M204.382,1156.537c-0.351-0.005-0.702,0.014-1.05,0.057c-0.184,0.022-0.343,0.141-0.343,0.342
				c0,0.168,0.157,0.365,0.343,0.343c0.155-0.019,0.31-0.016,0.465-0.025c-0.029,0.04-0.058,0.078-0.083,0.116
				c-0.14,0.207-0.281,0.412-0.424,0.617c-0.294,0.424-0.593,0.845-0.896,1.263c-0.109,0.149-0.026,0.381,0.122,0.468
				c0.173,0.101,0.36,0.028,0.468-0.122c0.313-0.432,0.621-0.866,0.924-1.304c0.152-0.219,0.303-0.438,0.453-0.659
				c0.138-0.205,0.304-0.413,0.351-0.662C204.753,1156.752,204.618,1156.54,204.382,1156.537"/>
			<path fill="#4F3E24" d="M205.724,1156.628c-0.071-0.161-0.233-0.234-0.404-0.198c-0.215,0.046-0.431,0.091-0.647,0.137
				c-0.174,0.036-0.275,0.235-0.24,0.403c-0.002,0.004-0.006,0.006-0.009,0.009c-0.178,0.287-0.33,0.592-0.459,0.903
				c-0.257,0.617-0.397,1.274-0.431,1.942c-0.009,0.185,0.165,0.342,0.343,0.342c0.193,0,0.333-0.157,0.342-0.342
				c0.029-0.569,0.154-1.128,0.365-1.657c0.099-0.253,0.229-0.492,0.364-0.727c0.076-0.131,0.086-0.144,0.218-0.201
				c0.139-0.061,0.278-0.122,0.417-0.183C205.737,1156.988,205.785,1156.768,205.724,1156.628"/>
		</g>
	</g>
</g>
<style>
#g-pantries-mobile-img rect, #g-pantries-mobile-img circle, #g-pantries-mobile-img path, #g-pantries-mobile-img line, #g-pantries-mobile-img polyline { vector-effect: non-scaling-stroke; }
</style>
</svg>

