<?xml version="1.0" encoding="utf-8"?>
<!-- Generator: Adobe Illustrator 23.1.1, SVG Export Plug-In . SVG Version: 6.00 Build 0)  -->
<svg version="1.2" baseProfile="tiny" id="g-plate-mobile-img" xmlns="http://www.w3.org/2000/svg" xmlns:xlink="http://www.w3.org/1999/xlink"
	 x="0px" y="0px" viewBox="0 0 300 400" xml:space="preserve">
<g>
	<g id="layer1_9_" transform="translate(-72.047241,-226.18111)">
		<g id="g3176_9_">
			<linearGradient id="SVGID_1_" gradientUnits="userSpaceOnUse" x1="158.3854" y1="382.4475" x2="336.9326" y2="543.846">
				<stop  offset="0" style="stop-color:#FCFDFF"/>
				<stop  offset="1" style="stop-color:#F0EFEF"/>
			</linearGradient>
			<linearGradient id="SVGID_2_" gradientUnits="userSpaceOnUse" x1="157.8049" y1="381.9228" x2="337.258" y2="544.1402">
				<stop  offset="0" style="stop-color:#F0EFEF"/>
				<stop  offset="1" style="stop-color:#FCFDFF"/>
			</linearGradient>
			<path fill-rule="evenodd" fill="url(#SVGID_1_)" stroke="url(#SVGID_2_)" stroke-width="1.6081" d="M233.018,306.278
				l-0.267,143.282c0,0-115.608,54.657-128.567,60.783c23.209,45.647,70.626,76.921,125.349,76.912
				c77.602-0.011,140.501-62.92,140.49-140.511c0-0.014,0-0.028,0-0.041C370.011,370.291,308.99,308.138,233.018,306.278z"/>
			<linearGradient id="SVGID_3_" gradientUnits="userSpaceOnUse" x1="298.3902" y1="509.3727" x2="183.907" y2="405.1226">
				<stop  offset="0" style="stop-color:#EBEBEB"/>
				<stop  offset="1" style="stop-color:#FFFFFF"/>
			</linearGradient>
			<path fill-rule="evenodd" fill="#F5F5F5" stroke="url(#SVGID_3_)" stroke-width="5.4046" d="M233.015,355.16
				c-0.029-0.001-0.059-0.001-0.089-0.002l-0.176,94.401c0,0-46.81,22.131-84.197,39.806c15.325,29.154,45.882,49.034,81.079,49.025
				c50.555-0.012,91.528-41.044,91.516-91.647c0-0.015,0-0.03,0-0.045C321.137,397.245,281.983,356.952,233.015,355.16z"/>
		</g>
	</g>
	<linearGradient id="SVGID_4_" gradientUnits="userSpaceOnUse" x1="160.688" y1="223.3609" x2="160.688" y2="223.3609">
		<stop  offset="0" style="stop-color:#EBEBEB"/>
		<stop  offset="1" style="stop-color:#FFFFFF"/>
	</linearGradient>
	<path fill-rule="evenodd" fill="#F5F5F5" stroke="url(#SVGID_4_)" stroke-width="5.4046" d="M160.688,223.361"/>
	<g id="layer1_8_" transform="translate(-72.047241,-226.18111)">
		<g id="g3176_8_">
			<linearGradient id="SVGID_5_" gradientUnits="userSpaceOnUse" x1="100.0877" y1="349.721" x2="211.4779" y2="450.4128">
				<stop  offset="0" style="stop-color:#FCFDFF"/>
				<stop  offset="1" style="stop-color:#F0EFEF"/>
			</linearGradient>
			<linearGradient id="SVGID_6_" gradientUnits="userSpaceOnUse" x1="99.6846" y1="349.2947" x2="212.0417" y2="450.8604">
				<stop  offset="0" style="stop-color:#F0EFEF"/>
				<stop  offset="1" style="stop-color:#FCFDFF"/>
			</linearGradient>
			<path fill-rule="evenodd" fill="url(#SVGID_5_)" stroke="url(#SVGID_6_)" stroke-width="1.6081" d="M218.088,296.126
				c-1.172-0.029-2.347-0.044-3.526-0.044c-77.602,0.011-140.501,62.92-140.49,140.511c0,0.014,0,0.028,0,0.041
				c0.003,22.876,5.479,44.472,15.183,63.557l128.567-60.783L218.088,296.126z"/>
			<linearGradient id="SVGID_7_" gradientUnits="userSpaceOnUse" x1="186.2911" y1="421.9771" x2="139.7503" y2="379.5965">
				<stop  offset="0" style="stop-color:#EBEBEB"/>
				<stop  offset="1" style="stop-color:#FFFFFF"/>
			</linearGradient>
			<path fill-rule="evenodd" fill="#F5F5F5" stroke="url(#SVGID_7_)" stroke-width="5.4046" d="M217.997,345.006
				c-1.108-0.04-2.221-0.061-3.338-0.061c-50.555,0.012-91.528,41.044-91.516,91.647c0,0.015,0,0.03,0,0.045
				c0.004,15.372,3.795,29.856,10.482,42.576"/>
		</g>
	</g>
	<linearGradient id="SVGID_8_" gradientUnits="userSpaceOnUse" x1="133.0618" y1="206.1497" x2="133.0618" y2="206.1497">
		<stop  offset="0" style="stop-color:#EBEBEB"/>
		<stop  offset="1" style="stop-color:#FFFFFF"/>
	</linearGradient>
	<path fill-rule="evenodd" fill="#F5F5F5" stroke="url(#SVGID_8_)" stroke-width="5.4046" d="M133.062,206.15"/>
	<g id="layer1_6_" transform="translate(-72.047241,-226.18111)">
		<g id="g3176_6_">
			<linearGradient id="SVGID_9_" gradientUnits="userSpaceOnUse" x1="300.1982" y1="512.1481" x2="185.7149" y2="407.898">
				<stop  offset="0" style="stop-color:#EBEBEB"/>
				<stop  offset="1" style="stop-color:#FFFFFF"/>
			</linearGradient>
			<path fill-rule="evenodd" fill="#F5F5F5" stroke="url(#SVGID_9_)" stroke-width="5.4046" d="M234.823,357.936
				c-0.029-0.001-0.059-0.001-0.089-0.002l-0.176,94.401c0,0-46.81,22.131-84.197,39.806c15.325,29.154,45.882,49.034,81.079,49.025
				c50.555-0.013,91.528-41.044,91.516-91.647c0-0.015,0-0.03,0-0.045C322.945,400.021,283.791,359.727,234.823,357.936z"/>
		</g>
	</g>
	<polyline fill="none" stroke="#FFFBF0" stroke-width="12" stroke-miterlimit="10" points="160.687,74.797 161.795,224.658 
		29.904,286.982 	"/>
</g>
<style>
#g-plate-mobile-img rect, #g-plate-mobile-img circle, #g-plate-mobile-img path, #g-plate-mobile-img line, #g-plate-mobile-img polyline { vector-effect: non-scaling-stroke; }
</style>
</svg>

