<?xml version="1.0" encoding="utf-8"?>
<!-- Generator: Adobe Illustrator 23.1.1, SVG Export Plug-In . SVG Version: 6.00 Build 0)  -->
<svg version="1.2" baseProfile="tiny" id="g-plate-desktop_tablet-img" xmlns="http://www.w3.org/2000/svg" xmlns:xlink="http://www.w3.org/1999/xlink"
	 x="0px" y="0px" viewBox="0 0 600 450" xml:space="preserve">
<g>
	<g id="layer1_9_" transform="translate(-72.047241,-226.18111)">
		<g id="g3176_9_">
			<linearGradient id="SVGID_1_" gradientUnits="userSpaceOnUse" x1="279.4709" y1="366.6508" x2="532.5945" y2="595.4633">
				<stop  offset="0" style="stop-color:#FCFDFF"/>
				<stop  offset="1" style="stop-color:#F0EFEF"/>
			</linearGradient>
			<linearGradient id="SVGID_2_" gradientUnits="userSpaceOnUse" x1="279.0137" y1="366.2376" x2="532.7966" y2="595.6459">
				<stop  offset="0" style="stop-color:#F0EFEF"/>
				<stop  offset="1" style="stop-color:#FCFDFF"/>
			</linearGradient>
			<path fill-rule="evenodd" fill="url(#SVGID_1_)" stroke="url(#SVGID_2_)" stroke-width="1.6081" d="M385.276,258.666
				l-0.378,203.128c0,0-163.896,77.486-182.267,86.171c32.904,64.714,100.126,109.049,177.705,109.038
				c110.015-0.016,199.187-89.201,199.171-199.2c0-0.02,0-0.039,0-0.059C579.49,349.417,492.981,261.303,385.276,258.666z"/>
			<linearGradient id="SVGID_3_" gradientUnits="userSpaceOnUse" x1="477.1355" y1="545.8459" x2="316.8337" y2="399.8728">
				<stop  offset="0" style="stop-color:#EBEBEB"/>
				<stop  offset="1" style="stop-color:#FFFFFF"/>
			</linearGradient>
			<path fill-rule="evenodd" fill="#F5F5F5" stroke="url(#SVGID_3_)" stroke-width="5.4046" d="M385.273,327.966
				c-0.042-0.001-0.084-0.001-0.126-0.002l-0.249,133.831c0,0-66.362,31.374-119.365,56.433
				c21.726,41.331,65.046,69.515,114.945,69.503c71.672-0.018,129.759-58.188,129.741-129.926c0-0.021,0-0.043,0-0.064
				C510.202,387.63,454.694,330.506,385.273,327.966z"/>
		</g>
	</g>
	<linearGradient id="SVGID_4_" gradientUnits="userSpaceOnUse" x1="312.8283" y1="235.5887" x2="312.8283" y2="235.5887">
		<stop  offset="0" style="stop-color:#EBEBEB"/>
		<stop  offset="1" style="stop-color:#FFFFFF"/>
	</linearGradient>
	<path fill-rule="evenodd" fill="#F5F5F5" stroke="url(#SVGID_4_)" stroke-width="5.4046" d="M312.828,235.589"/>
	<g id="layer1_8_" transform="translate(-72.047241,-226.18111)">
		<g id="g3176_8_">
			<linearGradient id="SVGID_5_" gradientUnits="userSpaceOnUse" x1="196.823" y1="320.2551" x2="354.7393" y2="463.0043">
				<stop  offset="0" style="stop-color:#FCFDFF"/>
				<stop  offset="1" style="stop-color:#F0EFEF"/>
			</linearGradient>
			<linearGradient id="SVGID_6_" gradientUnits="userSpaceOnUse" x1="196.4969" y1="319.8983" x2="355.2262" y2="463.3824">
				<stop  offset="0" style="stop-color:#F0EFEF"/>
				<stop  offset="1" style="stop-color:#FCFDFF"/>
			</linearGradient>
			<path fill-rule="evenodd" fill="url(#SVGID_5_)" stroke="url(#SVGID_6_)" stroke-width="1.6081" d="M364.11,244.274
				c-1.662-0.041-3.328-0.063-4.999-0.062c-110.015,0.016-199.187,89.201-199.171,199.2c0,0.02,0,0.039,0,0.059
				c0.005,32.431,7.767,63.047,21.524,90.104l182.267-86.171L364.11,244.274z"/>
			<linearGradient id="SVGID_7_" gradientUnits="userSpaceOnUse" x1="318.8239" y1="422.3665" x2="253.9449" y2="363.2868">
				<stop  offset="0" style="stop-color:#EBEBEB"/>
				<stop  offset="1" style="stop-color:#FFFFFF"/>
			</linearGradient>
			<path fill-rule="evenodd" fill="#F5F5F5" stroke="url(#SVGID_7_)" stroke-width="5.4046" d="M363.981,313.571
				c-1.571-0.056-3.148-0.086-4.732-0.086c-71.672,0.018-129.759,58.187-129.741,129.926c0,0.021,0,0.043,0,0.064
				c0.005,21.793,5.38,42.326,14.86,60.36"/>
		</g>
	</g>
	<linearGradient id="SVGID_8_" gradientUnits="userSpaceOnUse" x1="273.6631" y1="211.1886" x2="273.6631" y2="211.1886">
		<stop  offset="0" style="stop-color:#EBEBEB"/>
		<stop  offset="1" style="stop-color:#FFFFFF"/>
	</linearGradient>
	<path fill-rule="evenodd" fill="#F5F5F5" stroke="url(#SVGID_8_)" stroke-width="5.4046" d="M273.663,211.189"/>
	<g id="layer1_6_" transform="translate(-72.047241,-226.18111)">
		<g id="g3176_6_">
			<linearGradient id="SVGID_9_" gradientUnits="userSpaceOnUse" x1="479.6987" y1="549.7806" x2="319.3969" y2="403.8074">
				<stop  offset="0" style="stop-color:#EBEBEB"/>
				<stop  offset="1" style="stop-color:#FFFFFF"/>
			</linearGradient>
			<path fill-rule="evenodd" fill="#F5F5F5" stroke="url(#SVGID_9_)" stroke-width="5.4046" d="M387.836,331.901
				c-0.042-0.001-0.084-0.001-0.126-0.002l-0.249,133.831c0,0-66.362,31.374-119.365,56.433
				c21.726,41.331,65.046,69.515,114.945,69.503c71.672-0.018,129.759-58.188,129.741-129.926c0-0.021,0-0.043,0-0.064
				C512.765,391.564,457.257,334.441,387.836,331.901z"/>
		</g>
	</g>
	<path fill-rule="evenodd" fill="none" d="M67.919,327.457c0,70.303,69.85,108.537,174.076,124.211
		c130.853,19.679,271.466-80.603,267.755-174.014"/>
	
		<text transform="matrix(0.9259 -0.3853 0.3842 0.9233 374.3709 434.5197)" fill="#787878" font-family="'Roboto-Regular'" font-size="12px">S</text>
	
		<text transform="matrix(0.9163 -0.4077 0.4065 0.9136 380.9081 431.799)" fill="#787878" font-family="'Roboto-Regular'" font-size="12px">o</text>
	
		<text transform="matrix(0.9065 -0.4291 0.4279 0.9038 387.1405 429.0245)" fill="#787878" font-family="'Roboto-Regular'" font-size="12px">u</text>
	
		<text transform="matrix(0.8983 -0.446 0.4447 0.8957 393.1112 426.1857)" fill="#787878" font-family="'Roboto-Regular'" font-size="12px">r</text>
	
		<text transform="matrix(0.8901 -0.4622 0.4609 0.8875 396.7303 424.3986)" fill="#787878" font-family="'Roboto-Regular'" font-size="12px">c</text>
	
		<text transform="matrix(0.8795 -0.4819 0.4805 0.877 402.2743 421.5226)" fill="#787878" font-family="'Roboto-Regular'" font-size="12px">e</text>
	
		<text transform="matrix(0.8715 -0.4963 0.4949 0.869 407.8397 418.4572)" fill="#787878" font-family="'Roboto-Regular'" font-size="12px">:</text>
	
		<text transform="matrix(0.8663 -0.5054 0.5039 0.8638 410.3426 417.0314)" fill="#787878" font-family="'Roboto-Regular'" font-size="12px"> </text>
	
		<text transform="matrix(0.8574 -0.5203 0.5188 0.8549 412.909 415.5519)" fill="#787878" font-family="'Roboto-Regular'" font-size="12px">F</text>
	
		<text transform="matrix(0.8444 -0.5411 0.5395 0.842 418.5536 412.13)" fill="#787878" font-family="'Roboto-Regular'" font-size="12px">o</text>
	
		<text transform="matrix(0.8305 -0.5622 0.5606 0.8281 424.2948 408.4523)" fill="#787878" font-family="'Roboto-Regular'" font-size="12px">o</text>
	
		<text transform="matrix(0.8159 -0.5833 0.5816 0.8135 429.95 404.6241)" fill="#787878" font-family="'Roboto-Regular'" font-size="12px">d</text>
	
		<text transform="matrix(0.8049 -0.5983 0.5965 0.8026 435.4198 400.6945)" fill="#787878" font-family="'Roboto-Regular'" font-size="12px"> </text>
	
		<text transform="matrix(0.7926 -0.6145 0.6127 0.7903 437.7948 398.9581)" fill="#787878" font-family="'Roboto-Regular'" font-size="12px">B</text>
	
		<text transform="matrix(0.7752 -0.6363 0.6345 0.773 443.6815 394.3859)" fill="#787878" font-family="'Roboto-Regular'" font-size="12px">a</text>
	
		<text transform="matrix(0.7579 -0.6568 0.6549 0.7557 448.6893 390.2784)" fill="#787878" font-family="'Roboto-Regular'" font-size="12px">n</text>
	
		<text transform="matrix(0.74 -0.6769 0.6749 0.7379 453.6756 385.9532)" fill="#787878" font-family="'Roboto-Regular'" font-size="12px">k</text>
	
		<text transform="matrix(0.7267 -0.6912 0.6892 0.7245 458.1424 381.8478)" fill="#787878" font-family="'Roboto-Regular'" font-size="12px"> </text>
	
		<text transform="matrix(0.7157 -0.7026 0.7005 0.7136 460.2782 379.8234)" fill="#787878" font-family="'Roboto-Regular'" font-size="12px">f</text>
	
		<text transform="matrix(0.698 -0.7202 0.7181 0.6959 463.2401 376.9415)" fill="#787878" font-family="'Roboto-Regular'" font-size="12px">o</text>
	
		<text transform="matrix(0.6794 -0.7377 0.7356 0.6774 467.9725 372.0333)" fill="#787878" font-family="'Roboto-Regular'" font-size="12px">r</text>
	
		<text transform="matrix(0.6668 -0.7491 0.747 0.6649 470.7069 369.0577)" fill="#787878" font-family="'Roboto-Regular'" font-size="12px"> </text>
	
		<text transform="matrix(0.6448 -0.7681 0.7659 0.643 472.7332 366.8419)" fill="#787878" font-family="'Roboto-Regular'" font-size="12px">N</text>
	
		<text transform="matrix(0.6134 -0.7935 0.7912 0.6116 478.3661 360.0939)" fill="#787878" font-family="'Roboto-Regular'" font-size="12px">e</text>
	
		<text transform="matrix(0.5779 -0.8197 0.8173 0.5762 482.4178 354.8956)" fill="#787878" font-family="'Roboto-Regular'" font-size="12px">w</text>
	
		<text transform="matrix(0.5476 -0.8402 0.8378 0.546 487.6883 347.3214)" fill="#787878" font-family="'Roboto-Regular'" font-size="12px"> </text>
	
		<text transform="matrix(0.5199 -0.8576 0.8551 0.5184 489.4403 344.6906)" fill="#787878" font-family="'Roboto-Regular'" font-size="12px">Y</text>
	
		<text transform="matrix(0.4786 -0.8813 0.8788 0.4772 493.2987 338.3107)" fill="#787878" font-family="'Roboto-Regular'" font-size="12px">o</text>
	
		<text transform="matrix(0.4436 -0.8995 0.8968 0.4423 496.6483 332.0792)" fill="#787878" font-family="'Roboto-Regular'" font-size="12px">r</text>
	
		<text transform="matrix(0.4088 -0.9158 0.9132 0.4076 498.5487 328.2657)" fill="#787878" font-family="'Roboto-Regular'" font-size="12px">k</text>
	
		<text transform="matrix(0.3754 -0.93 0.9273 0.3743 501.0858 322.5021)" fill="#787878" font-family="'Roboto-Regular'" font-size="12px"> </text>
	
		<text transform="matrix(0.3331 -0.946 0.9432 0.3321 502.3319 319.5519)" fill="#787878" font-family="'Roboto-Regular'" font-size="12px">C</text>
	
		<text transform="matrix(0.2877 -0.9608 0.958 0.2869 504.9588 311.9025)" fill="#787878" font-family="'Roboto-Regular'" font-size="12px">i</text>
	
		<text transform="matrix(0.2572 -0.9694 0.9666 0.2565 505.8485 308.9503)" fill="#787878" font-family="'Roboto-Regular'" font-size="12px">t</text>
	
		<text transform="matrix(0.2122 -0.9802 0.9774 0.2116 506.9305 304.9327)" fill="#787878" font-family="'Roboto-Regular'" font-size="12px">y</text>
	
		<text transform="matrix(0.1696 -0.9885 0.9856 0.1691 508.1473 299.1583)" fill="#787878" font-family="'Roboto-Regular'" font-size="12px"> </text>
	<polyline fill="none" stroke="#FFFBF0" stroke-width="12" stroke-miterlimit="10" points="312.827,24.971 314.398,237.428 
		127.418,325.784 	"/>
</g>
<style>
#g-plate-desktop_tablet-img rect, #g-plate-desktop_tablet-img circle, #g-plate-desktop_tablet-img path, #g-plate-desktop_tablet-img line, #g-plate-desktop_tablet-img polyline { vector-effect: non-scaling-stroke; }
</style>
</svg>

