<?xml version="1.0" encoding="utf-8"?>
<!-- Generator: Adobe Illustrator 23.1.1, SVG Export Plug-In . SVG Version: 6.00 Build 0)  -->
<svg version="1.2" baseProfile="tiny" id="g-homeless-pop-tablet-img" xmlns="http://www.w3.org/2000/svg" xmlns:xlink="http://www.w3.org/1999/xlink"
	 x="0px" y="0px" viewBox="0 0 600 1050" xml:space="preserve">
<g>
	<g>
		
			<line fill="none" stroke="#000000" stroke-width="0.75" stroke-linecap="round" stroke-linejoin="round" stroke-miterlimit="10" stroke-dasharray="0.01,4" x1="13.667" y1="857.535" x2="158.419" y2="857.535"/>
		
			<line fill="none" stroke="#000000" stroke-width="0.75" stroke-linecap="round" stroke-linejoin="round" stroke-miterlimit="10" stroke-dasharray="0.01,4" x1="13.667" y1="910.241" x2="158.419" y2="910.241"/>
		<polygon fill="#F8B4CC" points="51.789,867.997 57.399,866.985 63.01,867.232 68.62,867.298 74.238,867.947 79.849,868.696 
			85.46,868.408 91.07,868.425 96.688,867.248 102.299,866.253 107.909,864.509 113.519,864.443 119.138,862.781 124.748,862.337 
			130.358,862.666 135.969,861.087 141.588,861.901 147.198,860.659 152.809,860.174 158.419,859.227 158.419,962.97 
			152.809,962.97 147.198,962.97 141.588,962.97 135.969,962.97 130.358,962.97 124.748,962.97 119.138,962.97 113.519,962.97 
			107.909,962.97 102.299,962.97 96.688,962.97 91.07,962.97 85.46,962.97 79.849,962.97 74.238,962.97 68.62,962.97 63.01,962.97 
			57.399,962.97 51.789,962.97 		"/>
		
			<line fill="none" stroke="#000000" stroke-width="0.75" stroke-linecap="round" stroke-linejoin="round" stroke-miterlimit="10" stroke-dasharray="0.01,4" x1="421.618" y1="617.31" x2="566.371" y2="617.31"/>
		
			<line fill="none" stroke="#000000" stroke-width="0.75" stroke-linecap="round" stroke-linejoin="round" stroke-miterlimit="10" stroke-dasharray="0.01,4" x1="421.618" y1="670.017" x2="566.371" y2="670.017"/>
		<polygon fill="#C8F5A7" points="459.741,601.988 465.351,603.147 470.962,604.759 476.572,608.462 482.19,610.238 
			487.801,610.649 493.411,609.991 499.021,607.975 504.64,606.495 510.251,605.639 515.861,605.573 521.471,606.866 
			527.09,607.532 532.7,610.28 538.31,612.525 543.921,614.87 549.54,617.239 555.15,619.444 560.761,621.278 566.371,622.709 
			566.371,722.882 560.761,722.882 555.15,722.882 549.54,722.882 543.921,722.882 538.31,722.882 532.7,722.882 527.09,722.882 
			521.471,722.882 515.861,722.882 510.251,722.882 504.64,722.882 499.021,722.882 493.411,722.882 487.801,722.882 
			482.19,722.882 476.572,722.882 470.962,722.882 465.351,722.882 459.741,722.882 		"/>
		
			<line fill="none" stroke="#000000" stroke-width="0.75" stroke-linecap="round" stroke-linejoin="round" stroke-miterlimit="10" stroke-dasharray="0.01,4" x1="13.666" y1="617.31" x2="158.419" y2="617.31"/>
		
			<line fill="none" stroke="#000000" stroke-width="0.75" stroke-linecap="round" stroke-linejoin="round" stroke-miterlimit="10" stroke-dasharray="0.01,4" x1="13.666" y1="670.016" x2="158.419" y2="670.016"/>
		
			<line fill="none" stroke="#000000" stroke-width="0.75" stroke-linecap="round" stroke-linejoin="round" stroke-miterlimit="10" stroke-dasharray="0.01,4" x1="223.667" y1="910.241" x2="368.419" y2="910.241"/>
		
			<line fill="none" stroke="#000000" stroke-width="0.75" stroke-linecap="round" stroke-linejoin="round" stroke-miterlimit="10" stroke-dasharray="0.01,4" x1="215.618" y1="617.31" x2="360.37" y2="617.31"/>
		
			<line fill="none" stroke="#000000" stroke-width="0.75" stroke-linecap="round" stroke-linejoin="round" stroke-miterlimit="10" stroke-dasharray="0.01,4" x1="215.618" y1="670.017" x2="360.37" y2="670.017"/>
		<polygon fill="#A4BEED" points="253.741,602.124 259.351,603.152 264.962,604.387 270.572,607.185 276.19,608.205 
			281.801,608.525 287.411,608.386 293.021,607.118 298.64,606 304.251,605.645 309.861,605.967 315.471,607.39 321.09,607.917 
			326.7,610.254 332.31,612.294 337.921,614.171 343.539,616.853 349.149,618.909 354.76,620.966 360.37,622.736 360.37,722.745 
			354.76,722.745 349.149,722.745 343.539,722.745 337.921,722.745 332.31,722.745 326.7,722.745 321.09,722.745 315.471,722.745 
			309.861,722.745 304.251,722.745 298.64,722.745 293.021,722.745 287.411,722.745 281.801,722.745 276.19,722.745 
			270.572,722.745 264.962,722.745 259.351,722.745 253.741,722.745 		"/>
		<polygon fill="#FCB578" points="456.836,938.433 462.446,938.368 468.058,938.588 473.667,938.662 479.286,939.017 
			484.897,938.975 490.507,938.959 496.117,938.729 501.735,938.063 507.346,937.832 512.956,937.593 518.566,937.479 
			524.177,936.976 529.796,937.091 535.406,937.405 541.017,937.355 546.627,938.038 552.245,938.177 557.856,938.162 
			563.466,937.766 563.466,962.948 557.856,962.948 552.245,962.948 546.627,962.948 541.017,962.948 535.406,962.948 
			529.796,962.948 524.177,962.948 518.566,962.948 512.956,962.948 507.346,962.948 501.735,962.948 496.117,962.948 
			490.507,962.948 484.897,962.948 479.286,962.948 473.667,962.948 468.058,962.948 462.446,962.948 456.836,962.948 		"/>
		<polygon fill="#FFF264" points="261.789,892.489 267.399,891.544 273.01,891.567 278.62,891.567 284.239,891.855 289.85,892.645 
			295.46,892.374 301.07,892.62 306.688,892.118 312.299,891.345 317.909,889.84 323.519,889.889 329.139,888.73 334.749,888.17 
			340.359,888.187 345.97,886.656 351.588,886.78 357.198,885.407 362.809,884.937 368.419,884.394 368.419,962.947 
			362.809,962.947 357.198,962.947 351.588,962.947 345.97,962.947 340.359,962.947 334.749,962.947 329.139,962.947 
			323.519,962.947 317.909,962.947 312.299,962.947 306.688,962.947 301.07,962.947 295.46,962.947 289.85,962.947 284.239,962.947 
			278.62,962.947 273.01,962.947 267.399,962.947 261.789,962.947 		"/>
		<polygon fill="#A0DCE9" points="51.784,641.068 57.403,641.848 63.013,642.647 68.625,644.581 74.234,645.386 79.852,645.831 
			85.463,645.657 91.074,644.686 96.683,643.864 102.303,643.683 107.913,643.806 113.523,644.76 119.134,645.337 124.752,647.122 
			130.363,648.422 135.973,649.664 141.583,651.449 147.202,652.757 152.812,653.966 158.423,654.912 158.423,722.722 
			152.812,722.722 147.202,722.722 141.583,722.722 135.973,722.722 130.363,722.722 124.752,722.722 119.134,722.722 
			113.523,722.722 107.913,722.722 102.303,722.722 96.683,722.722 91.074,722.722 85.463,722.722 79.852,722.722 74.234,722.722 
			68.625,722.722 63.013,722.722 57.403,722.722 51.784,722.722 		"/>
		
			<line fill="none" stroke="#000000" stroke-width="0.75" stroke-linejoin="round" stroke-miterlimit="10" x1="253.741" y1="722.723" x2="360.37" y2="722.723"/>
		
			<line fill="none" stroke="#000000" stroke-width="0.75" stroke-linejoin="round" stroke-miterlimit="10" x1="459.741" y1="722.723" x2="566.371" y2="722.723"/>
		
			<line fill="none" stroke="#000000" stroke-width="0.75" stroke-linejoin="round" stroke-miterlimit="10" x1="51.789" y1="962.947" x2="158.419" y2="962.947"/>
		
			<line fill="none" stroke="#000000" stroke-width="0.75" stroke-linecap="round" stroke-linejoin="round" stroke-miterlimit="10" stroke-dasharray="0.01,4" x1="223.667" y1="857.534" x2="368.419" y2="857.534"/>
		
			<line fill="none" stroke="#000000" stroke-width="0.75" stroke-linejoin="round" stroke-miterlimit="10" x1="261.789" y1="962.947" x2="368.419" y2="962.947"/>
		
			<line fill="none" stroke="#000000" stroke-width="0.75" stroke-linecap="round" stroke-linejoin="round" stroke-miterlimit="10" stroke-dasharray="0.01,4" x1="418.714" y1="857.534" x2="563.466" y2="857.534"/>
		
			<line fill="none" stroke="#000000" stroke-width="0.75" stroke-linecap="round" stroke-linejoin="round" stroke-miterlimit="10" stroke-dasharray="0.01,4" x1="418.714" y1="910.241" x2="563.466" y2="910.241"/>
		
			<line fill="none" stroke="#000000" stroke-width="0.75" stroke-linejoin="round" stroke-miterlimit="10" x1="456.836" y1="962.947" x2="563.466" y2="962.947"/>
		
			<line fill="none" stroke="#000000" stroke-width="0.75" stroke-linejoin="round" stroke-miterlimit="10" x1="51.789" y1="722.723" x2="158.419" y2="722.723"/>
		
			<line fill="none" stroke="#000000" stroke-width="0.75" stroke-linecap="round" stroke-linejoin="round" stroke-miterlimit="10" stroke-dasharray="0.01,4" x1="104.904" y1="372.763" x2="249.656" y2="372.763"/>
		
			<line fill="none" stroke="#000000" stroke-width="0.75" stroke-linecap="round" stroke-linejoin="round" stroke-miterlimit="10" stroke-dasharray="0.01,4" x1="104.904" y1="425.47" x2="249.656" y2="425.47"/>
		
			<line fill="none" stroke="#000000" stroke-width="0.75" stroke-linecap="round" stroke-linejoin="round" stroke-miterlimit="10" stroke-dasharray="0.01,4" x1="104.904" y1="320.058" x2="249.656" y2="320.058"/>
		
			<line fill="none" stroke="#000000" stroke-width="0.75" stroke-linecap="round" stroke-linejoin="round" stroke-miterlimit="10" stroke-dasharray="0.01,4" x1="104.904" y1="267.352" x2="249.656" y2="267.352"/>
		
			<line fill="none" stroke="#000000" stroke-width="0.75" stroke-linecap="round" stroke-linejoin="round" stroke-miterlimit="10" stroke-dasharray="0.01,4" x1="104.904" y1="214.653" x2="249.656" y2="214.653"/>
		
			<line fill="none" stroke="#000000" stroke-width="0.75" stroke-linecap="round" stroke-linejoin="round" stroke-miterlimit="10" stroke-dasharray="0.01,4" x1="104.904" y1="161.947" x2="249.277" y2="161.947"/>
		<polygon fill="#FBD3D0" points="143.023,141.711 148.622,142.896 154.21,145.981 159.801,152.553 165.391,155.992 170.99,157.473 
			176.579,156.387 182.169,153.121 187.76,149.345 193.359,147.148 198.949,145.651 204.54,148.292 210.13,147.823 215.728,152.471 
			221.318,157.078 226.909,159.718 232.499,165.592 238.096,168.611 243.689,172.017 249.277,174.279 249.277,478.176 
			243.689,478.176 238.096,478.176 232.499,478.176 226.909,478.176 221.318,478.176 215.728,478.176 210.13,478.176 
			204.54,478.176 198.949,478.176 193.359,478.176 187.76,478.176 182.169,478.176 176.579,478.176 170.99,478.176 165.391,478.176 
			159.801,478.176 154.21,478.176 148.622,478.176 143.023,478.176 		"/>
		
			<line fill="none" stroke="#000000" stroke-width="0.75" stroke-linecap="round" stroke-linejoin="round" stroke-miterlimit="10" stroke-dasharray="0.01,4" x1="313.23" y1="426.236" x2="457.982" y2="426.236"/>
		
			<line fill="none" stroke="#000000" stroke-width="0.75" stroke-linejoin="round" stroke-miterlimit="10" x1="143.026" y1="478.176" x2="249.277" y2="478.176"/>
		
			<line fill="none" stroke="#000000" stroke-width="0.75" stroke-linecap="round" stroke-linejoin="round" stroke-miterlimit="10" stroke-dasharray="0.01,4" x1="313.23" y1="373.53" x2="457.982" y2="373.53"/>
		
			<line fill="none" stroke="#000000" stroke-width="0.75" stroke-linecap="round" stroke-linejoin="round" stroke-miterlimit="10" stroke-dasharray="0.01,4" x1="313.23" y1="320.824" x2="457.982" y2="320.824"/>
		
			<line fill="none" stroke="#000000" stroke-width="0.75" stroke-linecap="round" stroke-linejoin="round" stroke-miterlimit="10" stroke-dasharray="0.01,4" x1="313.23" y1="268.118" x2="457.982" y2="268.118"/>
		<polygon fill="#DCF2F7" points="351.349,237.461 356.966,239.658 362.577,242.496 368.188,249.003 373.798,251.792 
			379.416,252.524 385.026,251.726 390.636,248.443 396.245,245.836 401.865,244.634 407.474,244.881 413.085,247.596 
			418.696,248.797 424.314,253.881 429.924,258.159 435.535,262.379 441.143,267.446 446.762,271.699 452.372,275.59 
			457.983,278.798 457.983,478.953 452.372,478.953 446.762,478.953 441.143,478.953 435.535,478.953 429.924,478.953 
			424.314,478.953 418.696,478.953 413.085,478.953 407.474,478.953 401.865,478.953 396.245,478.953 390.636,478.953 
			385.026,478.953 379.416,478.953 373.798,478.953 368.188,478.953 362.577,478.953 356.966,478.953 351.349,478.953 		"/>
		
			<line fill="none" stroke="#000000" stroke-width="0.75" stroke-linecap="round" stroke-linejoin="round" stroke-miterlimit="10" stroke-dasharray="0.01,4" x1="313.23" y1="215.42" x2="457.982" y2="215.42"/>
		
			<line fill="none" stroke="#000000" stroke-width="0.75" stroke-linecap="round" stroke-linejoin="round" stroke-miterlimit="10" stroke-dasharray="0.01,4" x1="313.23" y1="162.714" x2="457.982" y2="162.714"/>
		
			<line fill="none" stroke="#000000" stroke-width="0.75" stroke-linejoin="round" stroke-miterlimit="10" x1="351.349" y1="478.942" x2="457.983" y2="478.942"/>
	</g>
</g>
<style>
#g-homeless-pop-tablet-img rect, #g-homeless-pop-tablet-img circle, #g-homeless-pop-tablet-img path, #g-homeless-pop-tablet-img line, #g-homeless-pop-tablet-img polyline { vector-effect: non-scaling-stroke; }
</style>
</svg>

