<?xml version="1.0" encoding="utf-8"?>
<!-- Generator: Adobe Illustrator 23.1.1, SVG Export Plug-In . SVG Version: 6.00 Build 0)  -->
<svg version="1.2" baseProfile="tiny" id="g-homeless-pop-desktop-img" xmlns="http://www.w3.org/2000/svg" xmlns:xlink="http://www.w3.org/1999/xlink"
	 x="0px" y="0px" viewBox="0 0 1200 900" xml:space="preserve">
<g>
	<g>
		
			<line fill="none" stroke="#000000" stroke-width="0.75" stroke-linecap="round" stroke-linejoin="round" stroke-miterlimit="10" stroke-dasharray="0.01,4" x1="416.999" y1="363.356" x2="561.751" y2="363.356"/>
		
			<line fill="none" stroke="#000000" stroke-width="0.75" stroke-linecap="round" stroke-linejoin="round" stroke-miterlimit="10" stroke-dasharray="0.01,4" x1="416.999" y1="416.062" x2="561.751" y2="416.062"/>
		
			<line fill="none" stroke="#000000" stroke-width="0.75" stroke-linecap="round" stroke-linejoin="round" stroke-miterlimit="10" stroke-dasharray="0.01,4" x1="416.999" y1="310.65" x2="561.751" y2="310.65"/>
		
			<line fill="none" stroke="#000000" stroke-width="0.75" stroke-linecap="round" stroke-linejoin="round" stroke-miterlimit="10" stroke-dasharray="0.01,4" x1="416.999" y1="257.944" x2="561.751" y2="257.944"/>
		
			<line fill="none" stroke="#000000" stroke-width="0.75" stroke-linecap="round" stroke-linejoin="round" stroke-miterlimit="10" stroke-dasharray="0.01,4" x1="416.999" y1="205.246" x2="561.751" y2="205.246"/>
		
			<line fill="none" stroke="#000000" stroke-width="0.75" stroke-linecap="round" stroke-linejoin="round" stroke-miterlimit="10" stroke-dasharray="0.01,4" x1="416.999" y1="152.54" x2="561.373" y2="152.54"/>
		<polygon fill="#FBD3D0" points="455.117,132.303 460.736,133.488 466.345,136.573 471.956,143.145 477.566,146.584 
			483.184,148.065 488.794,146.979 494.405,143.713 500.015,139.937 505.633,137.74 511.244,136.243 516.854,138.884 
			522.463,138.415 528.082,143.063 533.692,147.67 539.302,150.31 544.913,156.184 550.531,159.203 556.142,162.609 
			561.751,164.871 561.751,468.768 556.142,468.768 550.531,468.768 544.913,468.768 539.302,468.768 533.692,468.768 
			528.082,468.768 522.463,468.768 516.854,468.768 511.244,468.768 505.633,468.768 500.015,468.768 494.405,468.768 
			488.794,468.768 483.184,468.768 477.566,468.768 471.956,468.768 466.345,468.768 460.736,468.768 455.117,468.768 		"/>
		
			<line fill="none" stroke="#000000" stroke-width="0.75" stroke-linecap="round" stroke-linejoin="round" stroke-miterlimit="10" stroke-dasharray="0.01,4" x1="625.325" y1="416.828" x2="770.077" y2="416.828"/>
		
			<line fill="none" stroke="#000000" stroke-width="0.75" stroke-linejoin="round" stroke-miterlimit="10" x1="455.122" y1="468.769" x2="561.373" y2="468.769"/>
		
			<line fill="none" stroke="#000000" stroke-width="0.75" stroke-linecap="round" stroke-linejoin="round" stroke-miterlimit="10" stroke-dasharray="0.01,4" x1="625.325" y1="364.122" x2="770.077" y2="364.122"/>
		
			<line fill="none" stroke="#000000" stroke-width="0.75" stroke-linecap="round" stroke-linejoin="round" stroke-miterlimit="10" stroke-dasharray="0.01,4" x1="625.325" y1="311.417" x2="770.077" y2="311.417"/>
		
			<line fill="none" stroke="#000000" stroke-width="0.75" stroke-linecap="round" stroke-linejoin="round" stroke-miterlimit="10" stroke-dasharray="0.01,4" x1="625.325" y1="258.71" x2="770.077" y2="258.71"/>
		<polygon fill="#DCF2F7" points="663.443,228.054 669.061,230.251 674.671,233.089 680.282,239.596 685.892,242.385 
			691.51,243.117 697.12,242.319 702.731,239.036 708.34,236.429 713.959,235.228 719.568,235.474 725.179,238.189 730.79,239.39 
			736.408,244.474 742.018,248.752 747.629,252.972 753.238,258.039 758.856,262.292 764.466,266.183 770.077,269.391 
			770.077,469.546 764.466,469.546 758.856,469.546 753.238,469.546 747.629,469.546 742.018,469.546 736.408,469.546 
			730.79,469.546 725.179,469.546 719.568,469.546 713.959,469.546 708.34,469.546 702.731,469.546 697.12,469.546 691.51,469.546 
			685.892,469.546 680.282,469.546 674.671,469.546 669.061,469.546 663.443,469.546 		"/>
		
			<line fill="none" stroke="#000000" stroke-width="0.75" stroke-linecap="round" stroke-linejoin="round" stroke-miterlimit="10" stroke-dasharray="0.01,4" x1="625.325" y1="206.012" x2="770.077" y2="206.012"/>
		
			<line fill="none" stroke="#000000" stroke-width="0.75" stroke-linecap="round" stroke-linejoin="round" stroke-miterlimit="10" stroke-dasharray="0.01,4" x1="625.325" y1="153.306" x2="770.077" y2="153.306"/>
		
			<line fill="none" stroke="#000000" stroke-width="0.75" stroke-linejoin="round" stroke-miterlimit="10" x1="663.443" y1="469.534" x2="770.077" y2="469.534"/>
		
			<line fill="none" stroke="#000000" stroke-width="0.75" stroke-linecap="round" stroke-linejoin="round" stroke-miterlimit="10" stroke-dasharray="0.01,4" x1="621.955" y1="718.356" x2="766.707" y2="718.356"/>
		
			<line fill="none" stroke="#000000" stroke-width="0.75" stroke-linecap="round" stroke-linejoin="round" stroke-miterlimit="10" stroke-dasharray="0.01,4" x1="621.955" y1="771.062" x2="766.707" y2="771.062"/>
		<polygon fill="#F8B4CC" points="660.077,728.818 665.687,727.806 671.298,728.053 676.908,728.119 682.527,728.768 
			688.138,729.517 693.748,729.229 699.358,729.246 704.976,728.069 710.587,727.074 716.197,725.33 721.807,725.264 
			727.427,723.602 733.037,723.158 738.647,723.487 744.258,721.908 749.876,722.722 755.486,721.48 761.097,720.995 
			766.707,720.048 766.707,823.791 761.097,823.791 755.486,823.791 749.876,823.791 744.258,823.791 738.647,823.791 
			733.037,823.791 727.427,823.791 721.807,823.791 716.197,823.791 710.587,823.791 704.976,823.791 699.358,823.791 
			693.748,823.791 688.138,823.791 682.527,823.791 676.908,823.791 671.298,823.791 665.687,823.791 660.077,823.791 		"/>
		
			<line fill="none" stroke="#000000" stroke-width="0.75" stroke-linecap="round" stroke-linejoin="round" stroke-miterlimit="10" stroke-dasharray="0.01,4" x1="414.955" y1="718.355" x2="559.707" y2="718.355"/>
		
			<line fill="none" stroke="#000000" stroke-width="0.75" stroke-linecap="round" stroke-linejoin="round" stroke-miterlimit="10" stroke-dasharray="0.01,4" x1="414.955" y1="771.062" x2="559.707" y2="771.062"/>
		<polygon fill="#C8F5A7" points="453.078,703.034 458.688,704.193 464.299,705.805 469.909,709.508 475.527,711.284 
			481.138,711.695 486.748,711.037 492.358,709.021 497.977,707.541 503.587,706.685 509.198,706.619 514.808,707.912 
			520.427,708.578 526.037,711.326 531.647,713.571 537.258,715.916 542.876,718.285 548.487,720.49 554.097,722.324 
			559.707,723.755 559.707,823.928 554.097,823.928 548.487,823.928 542.876,823.928 537.258,823.928 531.647,823.928 
			526.037,823.928 520.427,823.928 514.808,823.928 509.198,823.928 503.587,823.928 497.977,823.928 492.358,823.928 
			486.748,823.928 481.138,823.928 475.527,823.928 469.909,823.928 464.299,823.928 458.688,823.928 453.078,823.928 		"/>
		
			<line fill="none" stroke="#000000" stroke-width="0.75" stroke-linecap="round" stroke-linejoin="round" stroke-miterlimit="10" stroke-dasharray="0.01,4" x1="7.002" y1="718.355" x2="151.754" y2="718.355"/>
		
			<line fill="none" stroke="#000000" stroke-width="0.75" stroke-linecap="round" stroke-linejoin="round" stroke-miterlimit="10" stroke-dasharray="0.01,4" x1="7.002" y1="771.062" x2="151.754" y2="771.062"/>
		
			<line fill="none" stroke="#000000" stroke-width="0.75" stroke-linecap="round" stroke-linejoin="round" stroke-miterlimit="10" stroke-dasharray="0.01,4" x1="831.955" y1="771.062" x2="976.707" y2="771.062"/>
		
			<line fill="none" stroke="#000000" stroke-width="0.75" stroke-linecap="round" stroke-linejoin="round" stroke-miterlimit="10" stroke-dasharray="0.01,4" x1="208.955" y1="718.356" x2="353.707" y2="718.356"/>
		
			<line fill="none" stroke="#000000" stroke-width="0.75" stroke-linecap="round" stroke-linejoin="round" stroke-miterlimit="10" stroke-dasharray="0.01,4" x1="208.955" y1="771.062" x2="353.707" y2="771.062"/>
		<polygon fill="#A4BEED" points="247.077,703.17 252.687,704.198 258.298,705.433 263.908,708.231 269.527,709.251 
			275.137,709.571 280.747,709.432 286.358,708.164 291.976,707.046 297.587,706.691 303.197,707.013 308.807,708.436 
			314.426,708.963 320.036,711.3 325.647,713.34 331.257,715.217 336.876,717.899 342.486,719.955 348.097,722.012 353.707,723.782 
			353.707,823.791 348.097,823.791 342.486,823.791 336.876,823.791 331.257,823.791 325.647,823.791 320.036,823.791 
			314.426,823.791 308.807,823.791 303.197,823.791 297.587,823.791 291.976,823.791 286.358,823.791 280.747,823.791 
			275.137,823.791 269.527,823.791 263.908,823.791 258.298,823.791 252.687,823.791 247.077,823.791 		"/>
		<polygon fill="#FCB578" points="1065.125,799.254 1070.735,799.189 1076.347,799.409 1081.956,799.483 1087.574,799.838 
			1093.185,799.796 1098.795,799.78 1104.405,799.549 1110.024,798.884 1115.635,798.653 1121.245,798.414 1126.855,798.3 
			1132.466,797.797 1138.084,797.912 1143.694,798.226 1149.305,798.176 1154.915,798.859 1160.534,798.998 1166.145,798.983 
			1171.755,798.587 1171.755,823.769 1166.145,823.769 1160.534,823.769 1154.915,823.769 1149.305,823.769 1143.694,823.769 
			1138.084,823.769 1132.466,823.769 1126.855,823.769 1121.245,823.769 1115.635,823.769 1110.024,823.769 1104.405,823.769 
			1098.795,823.769 1093.185,823.769 1087.574,823.769 1081.956,823.769 1076.347,823.769 1070.735,823.769 1065.125,823.769 		"/>
		<polygon fill="#FFF264" points="870.078,753.31 875.688,752.366 881.299,752.389 886.909,752.389 892.527,752.677 
			898.138,753.466 903.748,753.195 909.358,753.442 914.976,752.94 920.587,752.167 926.198,750.662 931.808,750.711 
			937.427,749.552 943.037,748.992 948.647,749.009 954.258,747.478 959.876,747.602 965.486,746.228 971.097,745.758 
			976.707,745.215 976.707,823.769 971.097,823.769 965.486,823.769 959.876,823.769 954.258,823.769 948.647,823.769 
			943.037,823.769 937.427,823.769 931.808,823.769 926.198,823.769 920.587,823.769 914.976,823.769 909.358,823.769 
			903.748,823.769 898.138,823.769 892.527,823.769 886.909,823.769 881.299,823.769 875.688,823.769 870.078,823.769 		"/>
		<polygon fill="#A0DCE9" points="45.121,742.114 50.739,742.894 56.35,743.693 61.961,745.627 67.57,746.432 73.189,746.877 
			78.799,746.703 84.411,745.732 90.02,744.91 95.639,744.729 101.249,744.852 106.859,745.806 112.47,746.383 118.088,748.168 
			123.7,749.468 129.31,750.71 134.919,752.495 140.538,753.803 146.149,755.012 151.759,755.958 151.759,823.768 146.149,823.768 
			140.538,823.768 134.919,823.768 129.31,823.768 123.7,823.768 118.088,823.768 112.47,823.768 106.859,823.768 101.249,823.768 
			95.639,823.768 90.02,823.768 84.411,823.768 78.799,823.768 73.189,823.768 67.57,823.768 61.961,823.768 56.35,823.768 
			50.739,823.768 45.121,823.768 		"/>
		
			<line fill="none" stroke="#000000" stroke-width="0.75" stroke-linejoin="round" stroke-miterlimit="10" x1="247.077" y1="823.769" x2="353.707" y2="823.769"/>
		
			<line fill="none" stroke="#000000" stroke-width="0.75" stroke-linejoin="round" stroke-miterlimit="10" x1="453.077" y1="823.769" x2="559.707" y2="823.769"/>
		
			<line fill="none" stroke="#000000" stroke-width="0.75" stroke-linejoin="round" stroke-miterlimit="10" x1="660.077" y1="823.769" x2="766.707" y2="823.769"/>
		
			<line fill="none" stroke="#000000" stroke-width="0.75" stroke-linecap="round" stroke-linejoin="round" stroke-miterlimit="10" stroke-dasharray="0.01,4" x1="831.955" y1="718.355" x2="976.707" y2="718.355"/>
		
			<line fill="none" stroke="#000000" stroke-width="0.75" stroke-linejoin="round" stroke-miterlimit="10" x1="870.078" y1="823.769" x2="976.707" y2="823.769"/>
		
			<line fill="none" stroke="#000000" stroke-width="0.75" stroke-linecap="round" stroke-linejoin="round" stroke-miterlimit="10" stroke-dasharray="0.01,4" x1="1027.002" y1="718.355" x2="1171.755" y2="718.355"/>
		
			<line fill="none" stroke="#000000" stroke-width="0.75" stroke-linecap="round" stroke-linejoin="round" stroke-miterlimit="10" stroke-dasharray="0.01,4" x1="1027.002" y1="771.062" x2="1171.755" y2="771.062"/>
		
			<line fill="none" stroke="#000000" stroke-width="0.75" stroke-linejoin="round" stroke-miterlimit="10" x1="1065.125" y1="823.769" x2="1171.755" y2="823.769"/>
		
			<line fill="none" stroke="#000000" stroke-width="0.75" stroke-linejoin="round" stroke-miterlimit="10" x1="45.125" y1="823.769" x2="151.755" y2="823.769"/>
	</g>
</g>
<style>
#g-homeless-pop-desktop-img rect, #g-homeless-pop-desktop-img circle, #g-homeless-pop-desktop-img path, #g-homeless-pop-desktop-img line, #g-homeless-pop-desktop-img polyline { vector-effect: non-scaling-stroke; }
</style>
</svg>

