<?xml version="1.0" encoding="utf-8"?>
<!-- Generator: Adobe Illustrator 23.1.1, SVG Export Plug-In . SVG Version: 6.00 Build 0)  -->
<svg version="1.2" baseProfile="tiny" id="g-pantries-tablet-img" xmlns="http://www.w3.org/2000/svg" xmlns:xlink="http://www.w3.org/1999/xlink"
	 x="0px" y="0px" viewBox="0 0 600 1800" xml:space="preserve">
<g>
	<path fill="#D495AB" d="M77.766,360.339h41.005v53.557H77.766V360.339z M97.815,344.085l20.956,16.287l-41.005,0.241
		L97.815,344.085z"/>
	<rect x="13.771" y="360.613" fill="#F8B4CC" width="63.995" height="53.283"/>
	<polygon fill="#8F5066" points="77.834,360.613 57.801,344.085 97.866,344.085 	"/>
	<polygon fill="#8F5066" points="33.804,344.085 13.771,360.613 53.836,360.613 	"/>
	<rect x="33.804" y="344.085" fill="#8F5066" width="44.03" height="16.528"/>
	<polygon fill="#D495AB" points="103.823,398.943 19.638,416.59 19.638,381.296 	"/>
	<rect x="34.665" y="383.99" fill="#8F5066" width="22.209" height="29.907"/>
	<rect x="56.726" y="383.961" fill="#F8B4CC" width="20.894" height="29.907"/>
	<path fill="#D495AB" d="M168.766,360.339h41.005v53.557h-41.005V360.339z M188.815,344.085l20.956,16.287l-41.005,0.241
		L188.815,344.085z"/>
	<rect x="104.771" y="360.613" fill="#F8B4CC" width="63.995" height="53.283"/>
	<polygon fill="#8F5066" points="168.834,360.613 148.801,344.085 188.866,344.085 	"/>
	<polygon fill="#8F5066" points="124.804,344.085 104.771,360.613 144.836,360.613 	"/>
	<rect x="124.804" y="344.085" fill="#8F5066" width="44.03" height="16.528"/>
	<polygon fill="#D495AB" points="194.823,398.943 110.638,416.59 110.638,381.296 	"/>
	<rect x="125.665" y="383.99" fill="#8F5066" width="22.209" height="29.907"/>
	<rect x="147.726" y="383.961" fill="#F8B4CC" width="20.894" height="29.907"/>
	<path fill="#D495AB" d="M259.767,360.339h41.004v53.557h-41.004V360.339z M279.816,344.085l20.956,16.287l-41.005,0.241
		L279.816,344.085z"/>
	<rect x="195.771" y="360.613" fill="#F8B4CC" width="63.996" height="53.283"/>
	<polygon fill="#8F5066" points="259.833,360.613 239.801,344.085 279.866,344.085 	"/>
	<polygon fill="#8F5066" points="215.804,344.085 195.771,360.613 235.836,360.613 	"/>
	<rect x="215.804" y="344.085" fill="#8F5066" width="44.029" height="16.528"/>
	<polygon fill="#D495AB" points="285.823,398.943 201.637,416.59 201.637,381.296 	"/>
	<rect x="216.664" y="383.99" fill="#8F5066" width="22.21" height="29.907"/>
	<rect x="238.726" y="383.961" fill="#F8B4CC" width="20.894" height="29.907"/>
	<rect style="opacity:0.7;" x="13.771" y="340.945" fill="#FFFCF1" width="287.327" height="76.455"/>
	<path fill="#46B5CC" d="M77.93,273.531h41.005v53.557H77.93V273.531z M97.979,257.277l20.956,16.287l-41.005,0.241L97.979,257.277z
		"/>
	<rect x="13.935" y="273.805" fill="#B1DFE9" width="63.995" height="53.283"/>
	<polygon fill="#00657A" points="77.997,273.805 57.965,257.277 98.03,257.277 	"/>
	<polygon fill="#00657A" points="33.967,257.277 13.935,273.805 54,273.805 	"/>
	<rect x="33.967" y="257.278" fill="#00657A" width="44.03" height="16.528"/>
	<rect x="34.828" y="297.182" fill="#00657A" width="22.209" height="29.907"/>
	<path fill="#FFF264" d="M53.731,310.896c-1.723,0-1.726,2.678,0,2.678C55.454,313.574,55.457,310.896,53.731,310.896"/>
	<path fill="#46B5CC" d="M168.93,273.531h41.005v53.557H168.93V273.531z M188.979,257.277l20.956,16.287l-41.005,0.241
		L188.979,257.277z"/>
	<rect x="104.935" y="273.805" fill="#B1DFE9" width="63.995" height="53.283"/>
	<polygon fill="#00657A" points="168.997,273.805 148.965,257.277 189.03,257.277 	"/>
	<polygon fill="#00657A" points="124.967,257.277 104.935,273.805 145,273.805 	"/>
	<rect x="124.967" y="257.278" fill="#00657A" width="44.03" height="16.528"/>
	<rect x="125.828" y="297.182" fill="#00657A" width="22.209" height="29.907"/>
	<path fill="#FFF264" d="M144.731,310.896c-1.723,0-1.726,2.678,0,2.678C146.454,313.574,146.457,310.896,144.731,310.896"/>
	<polyline fill="#46B5CC" points="300.934,327.089 259.93,327.089 259.93,273.531 300.934,273.531 	"/>
	<polyline fill="#46B5CC" points="300.935,273.564 259.93,273.805 279.979,257.277 300.935,273.564 	"/>
	<rect x="195.935" y="273.805" fill="#B1DFE9" width="63.996" height="53.283"/>
	<polygon fill="#00657A" points="259.997,273.805 239.965,257.277 280.029,257.277 	"/>
	<polygon fill="#00657A" points="215.967,257.277 195.935,273.805 236,273.805 	"/>
	<rect x="215.968" y="257.278" fill="#00657A" width="44.029" height="16.528"/>
	<rect x="216.827" y="297.182" fill="#00657A" width="22.21" height="29.907"/>
	<path fill="#FFF264" d="M235.731,310.896c-1.723,0-1.726,2.678,0,2.678C237.454,313.574,237.458,310.896,235.731,310.896"/>
	<path fill="#D495AB" d="M78.982,869.904h41.005v53.557H78.982V869.904z M99.03,853.65l20.956,16.287l-41.005,0.241L99.03,853.65z"
		/>
	<rect x="14.986" y="870.177" fill="#F8C1D5" width="63.995" height="53.283"/>
	<polygon fill="#8F5066" points="79.049,870.177 59.016,853.649 99.082,853.649 	"/>
	<polygon fill="#8F5066" points="35.019,853.65 14.986,870.177 55.052,870.177 	"/>
	<rect x="35.019" y="853.649" fill="#8F5066" width="44.03" height="16.528"/>
	<polygon fill="#D495AB" points="105.038,908.507 20.853,926.154 20.853,890.86 	"/>
	<rect x="35.88" y="893.554" fill="#8F5066" width="22.209" height="29.907"/>
	<rect x="57.941" y="893.525" fill="#F8C1D5" width="20.894" height="29.907"/>
	<path fill="#D495AB" d="M169.982,869.904h41.005v53.557h-41.005V869.904z M190.03,853.65l20.956,16.287l-41.005,0.241
		L190.03,853.65z"/>
	<rect x="105.986" y="870.177" fill="#F8C1D5" width="63.995" height="53.283"/>
	<polygon fill="#8F5066" points="170.049,870.177 150.016,853.649 190.082,853.649 	"/>
	<polygon fill="#8F5066" points="126.019,853.65 105.986,870.177 146.052,870.177 	"/>
	<rect x="126.019" y="853.649" fill="#8F5066" width="44.03" height="16.528"/>
	<polygon fill="#D495AB" points="196.038,908.507 111.853,926.154 111.853,890.86 	"/>
	<rect x="126.88" y="893.554" fill="#8F5066" width="22.209" height="29.907"/>
	<rect x="148.941" y="893.525" fill="#F8C1D5" width="20.894" height="29.907"/>
	<path fill="#D495AB" d="M260.982,869.904h41.004v53.557h-41.004V869.904z M281.031,853.65l20.956,16.287l-41.005,0.241
		L281.031,853.65z"/>
	<rect x="196.986" y="870.177" fill="#F8C1D5" width="63.996" height="53.283"/>
	<polygon fill="#8F5066" points="261.049,870.177 241.017,853.649 281.081,853.649 	"/>
	<polygon fill="#8F5066" points="217.019,853.65 196.986,870.177 237.052,870.177 	"/>
	<rect x="217.02" y="853.649" fill="#8F5066" width="44.029" height="16.528"/>
	<polygon fill="#D495AB" points="287.038,908.507 202.853,926.154 202.853,890.86 	"/>
	<rect x="217.879" y="893.554" fill="#8F5066" width="22.21" height="29.907"/>
	<rect x="239.941" y="893.525" fill="#F8C1D5" width="20.894" height="29.907"/>
	<path fill="#D6CC5A" d="M353.865,871.303h41.005v53.558h-41.005V871.303z M373.914,855.049l20.956,16.288l-41.005,0.24
		L373.914,855.049z"/>
	<polygon fill="#BFA152" points="353.932,871.577 333.9,855.049 373.965,855.049 	"/>
	<rect x="309.902" y="855.049" fill="#BFA152" width="44.03" height="16.528"/>
	<rect x="332.971" y="894.953" fill="#FFF68F" width="20.894" height="29.907"/>
	<path fill="#D6CC5A" d="M444.865,871.303h41.005v53.558h-41.005V871.303z M464.914,855.049l20.956,16.288l-41.005,0.24
		L464.914,855.049z"/>
	<rect x="380.87" y="871.577" fill="#FFF68F" width="63.995" height="53.283"/>
	<polygon fill="#BFA152" points="444.932,871.577 424.9,855.049 464.965,855.049 	"/>
	<polygon fill="#BFA152" points="400.902,855.049 380.87,871.577 420.935,871.577 	"/>
	<rect x="400.902" y="855.049" fill="#BFA152" width="44.03" height="16.528"/>
	<polygon fill="#D6CC5A" points="471.069,909.936 386.883,927.583 386.883,892.289 	"/>
	<rect x="423.971" y="894.953" fill="#FFF68F" width="20.894" height="29.907"/>
	<rect x="401.763" y="894.953" fill="#BFA152" width="22.209" height="29.907"/>
	<path fill="#D6CC5A" d="M535.865,871.303h41.004v53.558h-41.004V871.303z M555.914,855.049l20.956,16.288l-41.005,0.24
		L555.914,855.049z"/>
	<rect x="471.87" y="871.577" fill="#FFF68F" width="63.996" height="53.283"/>
	<polygon fill="#BFA152" points="535.932,871.577 515.9,855.049 555.965,855.049 	"/>
	<polygon fill="#BFA152" points="491.902,855.049 471.87,871.577 511.935,871.577 	"/>
	<rect x="491.903" y="855.049" fill="#BFA152" width="44.029" height="16.528"/>
	<polygon fill="#D6CC5A" points="562.069,909.936 477.884,927.583 477.884,892.289 	"/>
	<rect x="514.972" y="894.953" fill="#FFF68F" width="20.894" height="29.907"/>
	<rect x="492.763" y="894.953" fill="#BFA152" width="22.21" height="29.907"/>
	<g>
		<g>
			<path fill="#FEFEFE" d="M457.906,944.741c-2.772,0.755-4.862,2.293-6.147,4.902c-0.142,0.289-0.574,0.609-0.867,0.606
				c-0.371-0.003-0.752-0.302-1.1-0.52c-0.154-0.097-0.237-0.305-0.412-0.542c-1.554,1.614-3.526,1.332-5.335,0.923
				c-2.308-0.522-1.713-2.921-2.599-4.768c-1.243,0.178-2.628,0.326-3.985,0.612c-0.277,0.058-0.548,0.609-0.638,0.978
				c-0.119,0.486-0.055,1.016-0.07,1.528c0.168,1.088-0.824,1.357-1.371,1.94c0.026,0.933,0.053,1.866,0.079,2.799
				c0.11,0.425,0.221,0.85,0.331,1.276c0.019,0.849,0.04,1.697,0.061,2.547c0.877,0.608,0.345,1.453,0.368,2.205
				c0.014,0.684,0.027,1.367,0.04,2.051l0.27,0.741c0.833,2.28,1.58,4.596,2.53,6.826c0.571,1.342,0.606,1.69-0.647,2.436
				c-0.365,0.217-0.727,0.441-1.091,0.662c0.366,0.156,0.733,0.311,1.098,0.467l0.018,0.011c0.72,0.209,1.484,0.329,2.15,0.65
				c0.849,0.408,0.959,1.509,0.516,2.43c-0.213,0.441-0.288,1.066-0.156,1.533c0.435,1.542,0.053,2.918-1.102,3.47
				c-0.459,0.018-0.918,0.035-1.378,0.052c-0.169-0.117-0.338-0.234-0.507-0.351c-0.235-0.003-0.47-0.007-0.705-0.01
				c-0.001,0.079-0.004,0.158-0.003,0.236c0.043,1.834,0.043,1.834-1.897,2.179c0.111,0.465,0.192,0.933,0.335,1.381
				c0.284,0.898,0.232,1.743-0.587,2.293c-0.68,0.457-1.361,0.36-2.107-0.146c-1.986-1.348-2.188-3.389-2.353-5.483
				c-0.054-0.69,0.324-1.553-0.688-1.903c-0.711,0.245-1.409,0.556-2.139,0.714c-0.619,0.135-1.027-0.075-1.249-0.843
				c-0.545-1.885-1.252-3.724-1.907-5.577c-0.028-0.079-0.195-0.108-0.297-0.159l-0.177,1.411c-0.051,0.312-0.102,0.623-0.152,0.936
				c-0.19,0.195-0.379,0.39-0.567,0.585c0.324,0.673,0.643,1.349,0.971,2.02c0.086,0.173,0.252,0.321,0.292,0.5
				c0.849,3.816,2.664,7.212,4.443,10.646c0.905,1.747,1.647,3.556,1.571,5.727c-0.073,2.135,0.684,4.287,0.909,6.448
				c0.141,1.352,0.03,2.741-0.08,4.105c-0.099,1.221-1.172,1.389-2.095,1.664c-0.075,0.583-0.151,1.166-0.226,1.749
				c0.756,0.234,1.5,0.534,2.273,0.686c1.751,0.344,3.431,0.795,4.751,2.161c-0.435,0.9-0.994,1.324-2.018,1.293
				c-2.399-0.075-4.802,0.008-7.201-0.05c-0.517-0.014-1.398-0.27-1.465-0.563c-0.171-0.748-0.068-1.601,0.107-2.371
				c0.091-0.4,0.566-0.711,0.866-1.064c-0.141-0.594-0.283-1.188-0.425-1.781c-0.885-0.009-1.785,0.078-2.653-0.056
				c-0.927-0.142-1.362-0.718-1.376-1.782c-0.041-3.41-0.208-6.819-0.34-10.228c-0.01-0.263-0.087-0.54-0.201-0.777
				c-1.003-2.09-2.021-4.172-3.035-6.255c-0.131-0.013-0.349-0.08-0.379-0.031c-0.855,1.422-1.702,2.849-2.528,4.288
				c-1.834,3.193-3.652,6.396-5.484,9.59c-0.616,1.073-1.236,2.145-1.89,3.196c-0.667,1.074-1.683,1.177-2.649,0.352
				c-0.44-0.376-0.941-0.683-1.414-1.021c-0.096,0.246-0.192,0.492-0.288,0.738c0.858,1.236,1.748,2.452,2.56,3.717
				c0.382,0.596,0.719,1.264,0.883,1.945c0.192,0.799-1.179,1.57-1.951,1.01c-1.778-1.29-3.562-2.606-5.137-4.127
				c-1.269-1.224-0.694-2.723,1.041-3.286c0.047-0.765,0.093-1.53,0.14-2.295c-0.912-0.503-1.83-0.999-2.738-1.512
				c-1.644-0.929-1.712-1.796-0.472-3.217c1.391-1.596,2.809-3.203,3.938-4.98c1.154-1.814,1.974-3.841,2.932-5.779
				c1.3-2.63,2.581-5.27,3.895-7.894c0.41-0.819,0.9-1.597,1.354-2.394c-0.794-2.954-0.013-5.886,0.307-8.788
				c0.188-1.71,1.065-3.38,1.811-4.986c1.209-2.603,2.384-5.251,3.911-7.669c1.528-2.419,2.711-5.101,4.92-7.075
				c1.406-1.254,2.56-2.819,4.054-3.939c1.644-1.232,3.48-2.274,5.368-3.078c0.955-0.406,2.258-0.609,3.299,0.241
				c0.856-0.064,1.724-0.058,2.565-0.206c1.34-0.235,2.71-0.446,3.971-0.923c0.62-0.234,1.168-0.966,1.497-1.603
				c0.853-1.646,1.892-2.985,3.665-3.784c1.357-0.612,2.466-1.871,3.852-2.291c2.701-0.817,5.411-1.174,7.833,1.159
				c2.222,2.14,3.595,4.538,3.493,7.637C460.827,942.877,459.929,944.19,457.906,944.741"/>
			<path fill="#D8C09B" d="M410.347,976.189c-0.794-2.954-0.013-5.886,0.307-8.788c0.188-1.71,1.065-3.381,1.811-4.986
				c1.209-2.602,2.384-5.251,3.911-7.668c1.528-2.42,2.711-5.101,4.921-7.075c1.405-1.255,2.559-2.82,4.054-3.939
				c1.643-1.231,3.479-2.274,5.368-3.078c0.955-0.406,2.258-0.609,3.297,0.24c-0.111,2.892,0.778,5.422,2.738,7.565
				c0.167,1.088-0.825,1.357-1.371,1.94c-2.487,1.501-3.629,4.062-4.374,6.573c-0.958,3.223-0.364,6.579,0.616,9.807
				c0.428,1.409,0.748,2.849,1.172,4.259c0.261,0.867,0.628,1.703,0.947,2.554c0.076,0.417,0.093,0.855,0.241,1.245
				c0.389,1.033,0.28,1.891-0.705,2.524c-0.257-0.154-0.594-0.5-0.759-0.431c-0.811,0.335-1.587,0.759-2.346,1.204
				c-0.144,0.085-0.149,0.405-0.218,0.617c-0.711,0.246-1.409,0.556-2.139,0.714c-0.619,0.135-1.027-0.075-1.249-0.843
				c-0.544-1.885-1.251-3.724-1.907-5.577c-0.028-0.079-0.195-0.108-0.297-0.159c-0.113-0.381-0.307-0.758-0.324-1.143
				c-0.047-1.117-0.023-2.239-0.027-3.357c0.005-1.042,0.045-2.086-0.005-3.125c-0.015-0.313-0.278-0.616-0.428-0.923
				c-0.002-1.094-0.003-2.188-0.004-3.282c0.145-0.167,0.29-0.335,0.435-0.501c0.162-1.099,0.325-2.197,0.487-3.295
				c0.075-0.163,0.151-0.324,0.225-0.487c0.163-0.547,0.325-1.094,0.49-1.641c0.011-0.129,0.022-0.258,0.034-0.387
				c-0.088,0.13-0.176,0.259-0.265,0.39c-0.29,0.309-0.747,0.574-0.843,0.936c-0.626,2.372-1.358,4.738-1.694,7.157
				c-0.327,2.352-0.192,4.766-0.314,7.149c-0.089,1.744-0.265,3.484-0.385,4.989c-0.597,0.352-0.939,0.553-1.282,0.754
				c-1.398,0.075-2.795,0.207-4.194,0.21C414.295,976.331,412.32,976.24,410.347,976.189"/>
			<path fill="#67522F" d="M410.347,976.189c1.974,0.051,3.948,0.142,5.921,0.139c1.399-0.003,2.797-0.136,4.194-0.21
				c0.56,0.019,1.119,0.036,1.678,0.055c-0.446,0.895-0.946,1.769-1.326,2.692c-0.536,1.31-0.996,2.653-1.468,3.989
				c-0.575,1.628-1.41,3.218-0.812,5.036c-0.13-0.013-0.349-0.08-0.378-0.031c-0.855,1.422-1.702,2.849-2.529,4.288
				c-1.834,3.193-3.651,6.396-5.483,9.59c-0.617,1.073-1.236,2.145-1.891,3.197c-0.667,1.073-1.683,1.177-2.649,0.352
				c-0.44-0.377-0.941-0.684-1.414-1.021c-0.504-1.26-1.513-1.916-2.752-2.296c-0.913-0.504-1.831-0.999-2.738-1.513
				c-1.643-0.929-1.711-1.796-0.472-3.217c1.391-1.596,2.809-3.203,3.939-4.98c1.153-1.814,1.974-3.84,2.932-5.779
				c1.3-2.63,2.581-5.27,3.894-7.894C409.403,977.764,409.893,976.986,410.347,976.189"/>
			<path fill="#DB394D" d="M436.753,948.459c-1.959-2.143-2.848-4.673-2.738-7.565c0.856-0.063,1.724-0.057,2.566-0.205
				c1.34-0.235,2.71-0.446,3.97-0.923c0.621-0.235,1.168-0.966,1.498-1.603c0.853-1.647,1.891-2.985,3.665-3.784
				c1.357-0.612,2.466-1.871,3.852-2.29c2.7-0.817,5.411-1.175,7.833,1.159c2.222,2.14,3.595,4.537,3.493,7.637
				c-0.065,1.992-0.965,3.306-2.987,3.856c-2.773,0.756-4.863,2.292-6.147,4.902c-0.142,0.289-0.574,0.609-0.868,0.606
				c-0.37-0.003-0.751-0.302-1.099-0.52c-0.154-0.097-0.238-0.305-0.412-0.543c-1.554,1.615-3.525,1.333-5.335,0.924
				c-2.307-0.522-1.712-2.921-2.598-4.768c-1.244,0.178-2.628,0.326-3.985,0.612c-0.277,0.058-0.549,0.609-0.638,0.978
				C436.704,947.417,436.769,947.948,436.753,948.459"/>
			<path fill="#4F3E24" d="M418.534,987.89c-0.598-1.818,0.237-3.409,0.812-5.037c0.472-1.336,0.932-2.678,1.468-3.988
				c0.38-0.923,0.88-1.796,1.326-2.692c0.442-0.119,0.885-0.237,1.326-0.356c0.324,0.673,0.643,1.348,0.972,2.019
				c0.085,0.174,0.252,0.321,0.291,0.501c0.849,3.816,2.664,7.211,4.444,10.646c0.905,1.747,1.646,3.555,1.57,5.727
				c-0.073,2.134,0.685,4.286,0.909,6.448c0.141,1.352,0.03,2.741-0.08,4.104c-0.1,1.222-1.172,1.389-2.096,1.665
				c-1.113,0.02-2.225,0.04-3.338,0.06c-0.885-0.01-1.786,0.077-2.653-0.056c-0.927-0.143-1.364-0.718-1.376-1.782
				c-0.042-3.41-0.208-6.819-0.341-10.228c-0.009-0.262-0.086-0.539-0.201-0.777C420.566,992.055,419.548,989.973,418.534,987.89"/>
			<path fill="#AA977B" d="M433.743,973.591c-0.319-0.85-0.686-1.686-0.947-2.554c-0.424-1.409-0.745-2.85-1.172-4.259
				c-0.98-3.229-1.574-6.585-0.616-9.808c0.745-2.51,1.887-5.071,4.374-6.572c0.026,0.933,0.052,1.866,0.078,2.799
				c0.11,0.425,0.22,0.851,0.331,1.276c0.019,0.849,0.041,1.697,0.061,2.547c0.123,0.734,0.246,1.47,0.368,2.205
				c0.013,0.684,0.026,1.367,0.041,2.051c0.089,0.247,0.179,0.494,0.268,0.741c0.832,2.28,1.581,4.596,2.529,6.826
				c0.572,1.342,0.607,1.69-0.645,2.436c-0.366,0.217-0.728,0.441-1.089,0.659c-0.116,0.125-0.235,0.253-0.352,0.382
				c-0.136,0.031-0.272,0.063-0.407,0.094c-0.161,0.147-0.323,0.293-0.484,0.439c-0.335,0.252-0.669,0.503-1.005,0.755
				C434.634,973.602,434.188,973.597,433.743,973.591"/>
			<path fill="#5F5B54" d="M429.251,1008.676c0.757,0.233,1.5,0.534,2.273,0.686c1.751,0.343,3.431,0.795,4.751,2.162
				c-0.435,0.899-0.994,1.324-2.018,1.292c-2.399-0.075-4.802,0.008-7.201-0.05c-0.517-0.013-1.398-0.27-1.465-0.562
				c-0.171-0.749-0.068-1.602,0.107-2.371c0.091-0.4,0.566-0.712,0.866-1.064C427.46,1008.738,428.355,1008.707,429.251,1008.676"/>
			<path fill="#5E5953" d="M403.902,1005.001c0.858,1.236,1.747,2.452,2.559,3.717c0.383,0.596,0.72,1.264,0.883,1.945
				c0.193,0.799-1.178,1.57-1.951,1.01c-1.778-1.29-3.562-2.606-5.138-4.127c-1.268-1.224-0.693-2.723,1.04-3.286
				C402.022,1005.007,402.944,1005.067,403.902,1005.001"/>
			<path fill="#DB394D" d="M435.078,973.608c0.335-0.252,0.669-0.503,1.005-0.755c0.161-0.146,0.322-0.292,0.484-0.439
				c0.135-0.031,0.27-0.063,0.407-0.093c0.483,0.03,0.965,0.058,1.447,0.087l0.018,0.012c0.538,0.336,1.091,0.65,1.608,1.016
				c0.393,0.278,0.739,0.623,1.182,1.003c-0.703,0.384-1.136,0.62-1.57,0.857c0.338,0.866,0.692,1.599,0.907,2.371
				c0.291,1.053-0.248,1.948-0.719,2.837c-0.459,0.017-0.918,0.035-1.378,0.052c-0.169-0.117-0.337-0.234-0.507-0.351
				c-0.235-0.003-0.469-0.008-0.705-0.01l0.019,0.009c0.192-0.678-0.057-0.911-0.726-0.722l0.015,0.015
				C436.626,977.393,436.105,975.437,435.078,973.608"/>
			<path fill="#AB997B" d="M425.096,955.134l-0.115-0.002c-0.291,0.309-0.748,0.575-0.843,0.936
				c-0.626,2.372-1.358,4.739-1.694,7.157c-0.327,2.353-0.192,4.766-0.314,7.15c-0.065,1.276-0.177,2.549-0.28,3.73
				c-0.01,0.025-0.036,0.09-0.045,0.111c-0.193,0.458-0.43,0.899-0.696,1.319c-0.045,0.07-0.058,0.153-0.058,0.237
				c-0.22,0.13-0.406,0.238-0.588,0.345c0.249,0.008,0.497,0.017,0.746,0.025c0.025,0.024,0.047,0.051,0.077,0.067
				c0.198,0.105,0.39,0.074,0.545-0.047c0.103,0.004,0.207,0.007,0.31,0.01c0.442-0.118,0.885-0.236,1.326-0.355
				c0.19-0.196,0.378-0.391,0.567-0.586c0.052-0.312,0.102-0.624,0.153-0.936c0.058-0.471,0.117-0.941,0.176-1.411
				c-0.113-0.38-0.308-0.758-0.324-1.143c-0.047-1.117-0.023-2.238-0.027-3.357c-0.151-0.307-0.415-0.609-0.429-0.922
				c-0.05-1.04-0.01-2.084-0.003-3.127c-0.002-1.094-0.003-2.189-0.004-3.282c0.145-0.168,0.29-0.335,0.435-0.502
				c0.162-1.099,0.325-2.196,0.487-3.295c0.075-0.162,0.151-0.324,0.225-0.486c0.163-0.547,0.325-1.094,0.49-1.641L425.096,955.134z
				"/>
			<path fill="#E05350" d="M439.845,980.503c0.471-0.888,1.01-1.783,0.719-2.837c-0.215-0.772-0.569-1.504-0.907-2.371
				c0.435-0.237,0.867-0.473,1.57-0.857c-0.443-0.379-0.789-0.724-1.182-1.003c-0.517-0.366-1.07-0.679-1.608-1.016
				c0.72,0.209,1.484,0.329,2.15,0.65c0.849,0.408,0.959,1.508,0.516,2.43c-0.213,0.441-0.287,1.066-0.156,1.532
				C441.382,978.575,441,979.951,439.845,980.503"/>
			<path fill="#DB394D" d="M429.251,1008.676c-0.896,0.031-1.791,0.062-2.688,0.092c-0.141-0.594-0.283-1.188-0.424-1.781
				c1.113-0.02,2.225-0.041,3.338-0.06C429.402,1007.511,429.327,1008.093,429.251,1008.676"/>
			<path fill="#DB394D" d="M403.902,1005.001c-0.958,0.066-1.88,0.006-2.606-0.74c0.047-0.765,0.095-1.53,0.142-2.295
				c1.239,0.381,2.247,1.037,2.752,2.297C404.095,1004.509,403.998,1004.755,403.902,1005.001"/>
			<path fill="#DBD4C9" d="M436.221,959.226c-0.123-0.735-0.246-1.47-0.368-2.206C436.73,957.63,436.198,958.475,436.221,959.226"/>
			<path fill="#E05350" d="M438.42,972.409c-0.482-0.029-0.965-0.058-1.447-0.088c0.117-0.129,0.235-0.258,0.351-0.382
				C437.688,972.098,438.054,972.253,438.42,972.409"/>
			<path fill="#DBD4C9" d="M435.791,954.474c-0.111-0.425-0.221-0.85-0.331-1.276C435.57,953.624,435.681,954.049,435.791,954.474"
				/>
			<path fill="#DBD4C9" d="M436.53,962.018c-0.09-0.247-0.18-0.494-0.268-0.741C436.351,961.524,436.44,961.771,436.53,962.018"/>
			<path fill="#C0AC8C" d="M424.034,975.232c0.052-0.312,0.102-0.624,0.153-0.936C424.136,974.607,424.086,974.92,424.034,975.232"
				/>
			<path fill="#E05350" d="M437.961,980.204c0.169,0.117,0.337,0.234,0.507,0.351C438.298,980.438,438.13,980.321,437.961,980.204"
				/>
			<path fill="#FFFBF0" d="M435.078,973.608c1.027,1.829,1.547,3.785,1.486,5.888c-1.095-0.712-2.19-1.424-3.285-2.136
				c0.985-0.632,1.093-1.491,0.705-2.523c-0.147-0.39-0.164-0.829-0.241-1.246C434.188,973.597,434.634,973.603,435.078,973.608"/>
			<path fill="#C0AC8C" d="M424.012,968.385c-0.151-0.307-0.414-0.608-0.429-0.922c-0.049-1.04-0.01-2.084-0.003-3.126
				c0.15,0.307,0.413,0.608,0.428,0.922C424.057,966.299,424.017,967.343,424.012,968.385"/>
			<path fill="#BFAA89" d="M425.211,955.13l-0.116,0.003l-0.114-0.002c0.088-0.13,0.177-0.259,0.264-0.389
				C425.233,954.872,425.223,955.001,425.211,955.13"/>
			<path fill="#C0AC8C" d="M424.497,957.257c0.075-0.162,0.151-0.324,0.225-0.486C424.647,956.933,424.572,957.095,424.497,957.257"
				/>
			<path fill="#C0AC8C" d="M423.575,961.054c0.145-0.168,0.29-0.335,0.434-0.502C423.865,960.719,423.72,960.887,423.575,961.054"/>
			<path fill="#E05350" d="M436.566,972.415c-0.161,0.147-0.323,0.293-0.484,0.439C436.244,972.708,436.405,972.561,436.566,972.415
				"/>
			<path fill="#FEFEFE" d="M436.549,979.481c0.669-0.188,0.918,0.046,0.725,0.723C437.032,979.963,436.79,979.722,436.549,979.481"
				/>
			<path fill="#FFFBF0" d="M437.552,959.348c-0.011-0.246-0.201-0.476-0.457-0.486c-0.004-0.013-0.008-0.025-0.012-0.038
				c-0.05-0.194-0.085-0.392-0.113-0.59c-0.003-0.028-0.008-0.069-0.009-0.08c-0.007-0.051-0.013-0.102-0.018-0.152
				c-0.011-0.102-0.021-0.205-0.032-0.307c-0.023-0.219-0.046-0.44-0.069-0.659c-0.017-0.165-0.104-0.32-0.237-0.412
				c-0.082-1.088-0.13-2.18-0.127-3.274c0.003-0.634-0.983-0.634-0.984,0c-0.009,2.654,0.236,5.302,0.724,7.912
				c0.116,0.622,1.066,0.358,0.949-0.262c-0.072-0.387-0.128-0.776-0.189-1.164c0.027,0.001,0.054,0.006,0.081,0.005
				C437.317,959.828,437.565,959.623,437.552,959.348"/>
			<path fill="#DB394D" d="M441.146,974.944c0.191-0.534,0.061-1.098-0.297-1.526c-0.374-0.447-0.944-0.646-1.482-0.816
				c-0.031-0.01-0.057-0.005-0.086-0.009c-0.382-0.152-0.764-0.302-1.152-0.439c-0.112-0.04-0.224-0.078-0.336-0.116
				c-0.139-0.047-0.28-0.109-0.43-0.105c-0.318,0.008-0.55,0.307-0.766,0.507c-0.19,0.175-0.191,0.522,0,0.697
				c0.202,0.185,0.494,0.186,0.696,0c0.06-0.057,0.121-0.113,0.182-0.169c0.191,0.064,0.38,0.13,0.57,0.198
				c0.408,0.147,0.813,0.303,1.215,0.468c0.05,0.02,0.105,0.021,0.158,0.018c0.288,0.098,0.579,0.229,0.745,0.48
				c0.2,0.301,0.036,0.643-0.203,0.864c-0.182,0.169-0.341,0.344-0.396,0.595c-0.057,0.258-0.002,0.522,0.071,0.771
				c0.145,0.49,0.246,0.982,0.28,1.492c0.008,0.108,0.05,0.205,0.11,0.287c-0.005,0.105,0.001,0.208-0.013,0.314
				c-0.022,0.173-0.079,0.434-0.144,0.632c-0.063,0.191-0.125,0.285-0.272,0.42c-0.017,0.015-0.023,0.023-0.025,0.025
				c-0.004,0.002-0.014,0.007-0.035,0.019c-0.043,0.025-0.087,0.051-0.13,0.076c-0.02,0.012-0.027,0.017-0.031,0.019
				c-0.005,0.002-0.014,0.004-0.036,0.012c-0.047,0.017-0.096,0.033-0.145,0.046c-0.197,0.053-0.415,0.059-0.639,0.03
				c-0.158-0.022-0.389-0.08-0.566-0.147c-0.032-0.012-0.034-0.012-0.003,0c-0.025-0.01-0.048-0.021-0.071-0.033
				c-0.047-0.024-0.092-0.049-0.136-0.076c-0.022-0.014-0.043-0.028-0.064-0.043c0.025,0.019,0.025,0.019-0.001-0.003
				c-0.045-0.04-0.086-0.083-0.125-0.129c-0.082-0.097-0.204-0.138-0.329-0.14c-0.061-0.029-0.131-0.047-0.214-0.047
				c-0.615,0-0.628,0.921-0.048,0.975c0.396,0.384,0.962,0.555,1.497,0.621c0.612,0.075,1.233-0.055,1.72-0.445
				c0.477-0.38,0.663-0.978,0.749-1.56c0.095-0.638,0.075-1.269-0.068-1.898c-0.026-0.121-0.109-0.215-0.212-0.278
				c-0.036-0.157-0.067-0.314-0.112-0.47c-0.014-0.051-0.033-0.104-0.042-0.158c-0.003-0.023-0.001-0.117-0.012-0.091
				c0.003-0.008,0.151-0.13,0.188-0.169C440.904,975.447,441.052,975.207,441.146,974.944"/>
			<path fill="#FEFEFE" d="M441.866,976.035C441.867,976.035,441.867,976.035,441.866,976.035
				C441.867,976.035,441.867,976.035,441.866,976.035z"/>
			<path fill="#FFFBF0" d="M442.59,977.459c-0.053-0.058-0.105-0.117-0.156-0.177c-0.03-0.036-0.059-0.073-0.089-0.109
				c-0.003-0.004-0.006-0.007-0.009-0.011c-0.002-0.045-0.005-0.09-0.02-0.133c0.084-0.148,0.108-0.33,0.007-0.481
				c-0.104-0.153-0.229-0.278-0.358-0.407c-0.025-0.024-0.047-0.047-0.069-0.073c-0.003-0.002-0.01-0.011-0.016-0.019
				c-0.008-0.011-0.014-0.023-0.021-0.035v-0.04c0.003-0.011,0.004-0.022,0.008-0.033c0.003-0.015,0.008-0.031,0.014-0.045
				c0.001-0.002,0.002-0.003,0.003-0.006c0.013-0.023,0.036-0.036,0.044-0.064c0.003-0.007,0-0.015,0.002-0.023
				c0.022-0.038,0.045-0.076,0.069-0.114c0.003-0.005,0.005-0.01,0.008-0.014c0.136-0.122,0.248-0.268,0.278-0.455
				c0.007-0.041,0.004-0.083,0.002-0.125c0.089-0.121,0.179-0.242,0.268-0.364c0.071-0.097,0.081-0.268,0.05-0.379
				c-0.031-0.115-0.119-0.239-0.226-0.295c-0.002-0.001-0.003-0.001-0.005-0.002c-0.022-0.052-0.053-0.099-0.097-0.139
				c-0.195-0.18-0.503-0.196-0.695,0c-0.161,0.162-0.192,0.346-0.22,0.561c0.006-0.044,0.012-0.088,0.017-0.131
				c-0.025,0.169-0.079,0.33-0.142,0.488c-0.019,0.042-0.041,0.081-0.061,0.121l-0.21,0.285c-0.281,0.257-0.415,0.6-0.279,0.993
				c0.034,0.097,0.081,0.191,0.123,0.286c0.083,0.246,0.208,0.479,0.362,0.689c0.216,0.339,0.465,0.658,0.727,0.947
				c0.174,0.191,0.523,0.19,0.696,0C442.778,977.951,442.775,977.663,442.59,977.459"/>
			<path fill="#FFFBF0" d="M443.039,980.741c-1.249-0.174-2.544,0.068-3.777-0.201c-0.916-0.2-1.566-0.768-2.03-1.511
				c-0.268-0.789-0.601-1.558-1.017-2.281c-0.128-0.224-0.451-0.32-0.674-0.177c-0.224,0.146-0.313,0.435-0.176,0.674
				c0.212,0.369,0.407,0.749,0.578,1.138c0.003,0.007,0.006,0.013,0.008,0.019c-0.445-0.348-0.896-0.706-1.216-1.174
				c-0.356-0.52-1.209-0.028-0.85,0.496c0.631,0.922,1.601,1.448,2.373,2.224c0.333,0.335,0.617,0.719,0.722,1.187
				c0.029,0.132,0.133,1.242-0.053,1.246c-0.633,0.015-0.635,0.999,0,0.985c0.81-0.019,1.07-0.783,1.08-1.471
				c0.003-0.28-0.019-0.55-0.061-0.814c0.235,0.133,0.483,0.247,0.75,0.329c1.33,0.402,2.727,0.091,4.082,0.279
				c0.265,0.037,0.526-0.064,0.606-0.344C443.448,981.117,443.302,980.777,443.039,980.741"/>
			<path fill="#DB394D" d="M437.256,980.194l0.018,0.009c-0.242-0.241-0.484-0.482-0.725-0.722l0.015,0.015
				c-1.095-0.712-2.19-1.424-3.285-2.136c-0.258-0.154-0.594-0.499-0.76-0.43c-0.811,0.335-1.587,0.759-2.345,1.203
				c-0.144,0.085-0.149,0.406-0.218,0.617c1.012,0.35,0.634,1.213,0.688,1.903c0.165,2.095,0.367,4.134,2.353,5.483
				c0.745,0.505,1.426,0.602,2.106,0.146c0.449-0.302,0.662-0.694,0.721-1.132c0.083-0.211,0.143-0.431,0.152-0.654
				c0.015-0.341-0.047-0.695-0.134-1.023c-0.069-0.262-0.184-0.497-0.324-0.721c0.114,0.016,0.232,0.018,0.35,0.008
				c0.207-0.018,0.404-0.048,0.595-0.129c0.265-0.112,0.457-0.304,0.571-0.544c0.247-0.271,0.239-0.728,0.218-1.658
				C437.252,980.352,437.255,980.273,437.256,980.194"/>
			<path fill="#FEFEFE" d="M437.488,979.947c-0.352-0.497-0.793-0.914-1.236-1.328c-0.52-0.486-1.04-0.972-1.56-1.457
				c-0.462-0.432-1.16,0.263-0.696,0.696c0.818,0.764,1.712,1.494,2.447,2.341c0.488,0.563,0.988,1.57,0.411,2.251
				c-0.171,0.202-0.199,0.497,0,0.696c0.176,0.176,0.523,0.204,0.696,0C438.342,982.211,438.163,980.897,437.488,979.947"/>
			<path fill="#AB997B" d="M423.174,960.413c-0.014,2.555-0.025,5.111-0.039,7.666c-0.003,0.634,0.981,0.634,0.984,0l0.04-7.666
				C424.163,959.78,423.177,959.779,423.174,960.413"/>
			<path fill="#D8C09B" d="M427.4,978.619c-0.005,0.003-0.007,0.011-0.031-0.002c-0.092-0.048-0.141-0.138-0.189-0.225
				c-0.118-0.219-0.195-0.462-0.285-0.693c-0.231-0.593-0.461-1.187-0.674-1.785c-0.419-1.176-0.775-2.376-0.985-3.609
				c-0.004-0.022-0.015-0.036-0.022-0.056c0.195-0.09,0.339-0.284,0.266-0.551c-0.719-2.667-0.665-5.438-0.548-8.175
				c0.122-2.861,0.376-5.716,1.023-8.511c0.142-0.617-0.806-0.88-0.949-0.262c-0.666,2.879-0.933,5.827-1.058,8.773
				c-0.121,2.825-0.16,5.685,0.583,8.437c0.008,0.026,0.023,0.042,0.032,0.064c-0.181,0.098-0.32,0.287-0.276,0.543
				c0.273,1.6,0.793,3.136,1.37,4.648c0.139,0.363,0.28,0.727,0.424,1.089c0.128,0.324,0.246,0.659,0.487,0.919
				c0.458,0.5,1.279,0.513,1.659-0.081C428.56,978.618,427.754,978.139,427.4,978.619"/>
			<path fill="#67522F" d="M421.651,976.026c-0.506-0.007-1.01,0.02-1.511,0.082c-0.264,0.032-0.493,0.203-0.493,0.492
				c0,0.241,0.226,0.525,0.493,0.493c0.223-0.027,0.446-0.023,0.669-0.036c-0.042,0.057-0.083,0.113-0.119,0.167
				c-0.202,0.297-0.405,0.593-0.61,0.888c-0.423,0.611-0.854,1.215-1.29,1.818c-0.157,0.215-0.037,0.549,0.176,0.673
				c0.249,0.146,0.517,0.04,0.674-0.176c0.45-0.622,0.894-1.247,1.33-1.877c0.219-0.315,0.436-0.631,0.651-0.949
				c0.199-0.295,0.437-0.594,0.505-0.952C422.185,976.336,421.991,976.031,421.651,976.026"/>
			<path fill="#4F3E24" d="M423.583,976.158c-0.103-0.232-0.335-0.337-0.582-0.285c-0.31,0.066-0.62,0.131-0.931,0.197
				c-0.251,0.052-0.396,0.339-0.345,0.579c-0.003,0.005-0.009,0.008-0.013,0.014c-0.257,0.413-0.474,0.852-0.661,1.3
				c-0.369,0.888-0.571,1.834-0.62,2.794c-0.013,0.266,0.237,0.492,0.493,0.492c0.278,0,0.479-0.225,0.492-0.492
				c0.042-0.819,0.222-1.623,0.525-2.385c0.143-0.363,0.329-0.708,0.524-1.046c0.109-0.189,0.124-0.207,0.314-0.29
				c0.2-0.088,0.4-0.175,0.601-0.263C423.602,976.676,423.671,976.36,423.583,976.158"/>
		</g>
	</g>
	<g>
		<g>
			<path fill="#FEFEFE" d="M394.787,966.296c-2.772,0.756-4.862,2.293-6.147,4.902c-0.142,0.289-0.574,0.609-0.867,0.606
				c-0.371-0.003-0.752-0.302-1.1-0.52c-0.154-0.097-0.237-0.305-0.412-0.542c-1.554,1.614-3.526,1.332-5.335,0.923
				c-2.308-0.522-1.713-2.921-2.599-4.768c-1.243,0.178-2.628,0.326-3.985,0.612c-0.277,0.058-0.548,0.609-0.638,0.978
				c-0.119,0.486-0.055,1.016-0.07,1.528c0.168,1.088-0.824,1.357-1.371,1.94c0.026,0.933,0.053,1.866,0.079,2.799
				c0.11,0.425,0.221,0.85,0.331,1.276c0.019,0.849,0.04,1.697,0.061,2.547c0.877,0.608,0.345,1.453,0.368,2.205
				c0.014,0.684,0.027,1.367,0.04,2.051l0.27,0.741c0.833,2.28,1.58,4.596,2.53,6.826c0.571,1.342,0.606,1.69-0.647,2.436
				c-0.365,0.217-0.727,0.441-1.091,0.662c0.366,0.156,0.733,0.311,1.098,0.467l0.018,0.011c0.72,0.209,1.484,0.329,2.15,0.65
				c0.849,0.408,0.959,1.509,0.516,2.43c-0.213,0.441-0.288,1.066-0.156,1.533c0.435,1.542,0.053,2.918-1.102,3.47
				c-0.459,0.018-0.918,0.035-1.378,0.052c-0.169-0.117-0.338-0.234-0.507-0.351c-0.235-0.003-0.47-0.007-0.705-0.01
				c-0.001,0.079-0.004,0.158-0.003,0.236c0.043,1.834,0.043,1.834-1.897,2.178c0.111,0.465,0.192,0.933,0.335,1.381
				c0.284,0.898,0.232,1.743-0.587,2.293c-0.68,0.457-1.361,0.36-2.107-0.146c-1.986-1.348-2.188-3.389-2.353-5.484
				c-0.054-0.69,0.324-1.553-0.688-1.903c-0.711,0.245-1.409,0.556-2.139,0.714c-0.619,0.135-1.027-0.075-1.249-0.843
				c-0.545-1.885-1.252-3.724-1.907-5.577c-0.028-0.079-0.195-0.108-0.297-0.159l-0.177,1.411c-0.051,0.312-0.102,0.623-0.152,0.936
				c-0.19,0.195-0.379,0.39-0.567,0.585c0.324,0.673,0.643,1.349,0.971,2.02c0.086,0.173,0.252,0.321,0.292,0.5
				c0.849,3.816,2.664,7.212,4.443,10.646c0.905,1.747,1.647,3.556,1.571,5.727c-0.073,2.135,0.684,4.287,0.909,6.448
				c0.141,1.352,0.03,2.741-0.08,4.105c-0.099,1.221-1.172,1.389-2.095,1.664c-0.075,0.583-0.151,1.166-0.226,1.749
				c0.756,0.234,1.5,0.534,2.273,0.686c1.751,0.344,3.431,0.795,4.751,2.161c-0.435,0.9-0.994,1.324-2.018,1.293
				c-2.399-0.075-4.802,0.008-7.201-0.05c-0.517-0.014-1.398-0.27-1.465-0.563c-0.171-0.748-0.068-1.601,0.107-2.371
				c0.091-0.4,0.566-0.712,0.866-1.064c-0.141-0.594-0.283-1.188-0.425-1.781c-0.885-0.009-1.785,0.078-2.653-0.056
				c-0.927-0.142-1.362-0.718-1.376-1.782c-0.041-3.41-0.208-6.819-0.34-10.227c-0.01-0.263-0.087-0.54-0.201-0.777
				c-1.003-2.09-2.021-4.171-3.035-6.255c-0.131-0.013-0.349-0.08-0.379-0.031c-0.855,1.422-1.702,2.849-2.528,4.288
				c-1.834,3.193-3.652,6.396-5.484,9.59c-0.616,1.073-1.236,2.145-1.89,3.196c-0.667,1.074-1.683,1.177-2.649,0.351
				c-0.44-0.376-0.941-0.683-1.414-1.021c-0.096,0.246-0.192,0.492-0.288,0.738c0.858,1.236,1.748,2.452,2.56,3.717
				c0.382,0.596,0.719,1.264,0.883,1.945c0.192,0.799-1.179,1.57-1.952,1.01c-1.778-1.29-3.562-2.606-5.137-4.127
				c-1.269-1.224-0.694-2.723,1.041-3.285c0.047-0.765,0.093-1.53,0.14-2.295c-0.912-0.503-1.83-0.999-2.737-1.512
				c-1.644-0.929-1.712-1.796-0.472-3.217c1.391-1.596,2.809-3.203,3.938-4.98c1.154-1.814,1.974-3.841,2.932-5.779
				c1.3-2.63,2.581-5.27,3.895-7.894c0.41-0.819,0.9-1.597,1.354-2.394c-0.794-2.954-0.013-5.886,0.307-8.788
				c0.188-1.71,1.065-3.38,1.811-4.986c1.209-2.603,2.384-5.251,3.911-7.669c1.528-2.419,2.711-5.101,4.92-7.075
				c1.406-1.254,2.56-2.819,4.054-3.939c1.644-1.232,3.48-2.274,5.368-3.078c0.955-0.406,2.258-0.609,3.299,0.241
				c0.856-0.064,1.724-0.058,2.565-0.206c1.34-0.235,2.71-0.446,3.971-0.923c0.62-0.234,1.168-0.966,1.497-1.603
				c0.853-1.646,1.892-2.985,3.665-3.784c1.357-0.612,2.466-1.871,3.852-2.291c2.701-0.817,5.411-1.174,7.833,1.159
				c2.222,2.14,3.595,4.538,3.493,7.637C397.708,964.432,396.81,965.745,394.787,966.296"/>
			<path fill="#D8C09B" d="M347.228,997.744c-0.794-2.954-0.013-5.886,0.307-8.788c0.188-1.71,1.065-3.381,1.811-4.986
				c1.21-2.602,2.384-5.251,3.911-7.668c1.528-2.42,2.711-5.102,4.921-7.075c1.405-1.255,2.559-2.82,4.054-3.939
				c1.643-1.231,3.479-2.274,5.368-3.078c0.955-0.406,2.258-0.609,3.297,0.24c-0.111,2.892,0.778,5.422,2.738,7.565
				c0.167,1.088-0.825,1.357-1.371,1.94c-2.487,1.501-3.629,4.062-4.374,6.573c-0.958,3.223-0.364,6.579,0.616,9.807
				c0.428,1.409,0.748,2.849,1.172,4.259c0.261,0.867,0.628,1.703,0.947,2.554c0.076,0.417,0.093,0.855,0.241,1.245
				c0.389,1.033,0.28,1.891-0.705,2.524c-0.257-0.154-0.594-0.5-0.759-0.431c-0.811,0.335-1.587,0.759-2.346,1.204
				c-0.144,0.085-0.149,0.405-0.218,0.617c-0.711,0.246-1.409,0.556-2.139,0.714c-0.619,0.135-1.027-0.075-1.249-0.843
				c-0.544-1.885-1.251-3.724-1.907-5.577c-0.028-0.079-0.195-0.108-0.297-0.159c-0.113-0.381-0.307-0.758-0.324-1.143
				c-0.047-1.117-0.023-2.239-0.027-3.357c0.005-1.042,0.045-2.086-0.005-3.125c-0.015-0.313-0.278-0.616-0.428-0.923
				c-0.002-1.094-0.003-2.188-0.004-3.282c0.145-0.167,0.29-0.335,0.435-0.501c0.162-1.099,0.325-2.197,0.487-3.295
				c0.075-0.163,0.151-0.324,0.225-0.487c0.163-0.547,0.325-1.093,0.49-1.641c0.011-0.129,0.022-0.258,0.034-0.387
				c-0.088,0.13-0.176,0.259-0.265,0.39c-0.29,0.309-0.747,0.574-0.843,0.936c-0.626,2.372-1.358,4.738-1.694,7.157
				c-0.327,2.352-0.192,4.766-0.314,7.149c-0.089,1.744-0.265,3.484-0.385,4.989c-0.597,0.352-0.939,0.553-1.282,0.754
				c-1.398,0.075-2.795,0.207-4.194,0.21C351.176,997.886,349.201,997.795,347.228,997.744"/>
			<path fill="#67522F" d="M347.228,997.744c1.974,0.051,3.948,0.142,5.921,0.139c1.399-0.003,2.797-0.135,4.194-0.21
				c0.56,0.019,1.119,0.036,1.678,0.055c-0.446,0.895-0.946,1.769-1.326,2.692c-0.536,1.31-0.996,2.653-1.468,3.989
				c-0.575,1.628-1.41,3.218-0.812,5.036c-0.13-0.013-0.349-0.08-0.378-0.031c-0.855,1.422-1.702,2.849-2.529,4.288
				c-1.834,3.193-3.651,6.396-5.483,9.59c-0.617,1.073-1.236,2.145-1.891,3.197c-0.667,1.073-1.683,1.177-2.649,0.352
				c-0.44-0.377-0.941-0.684-1.414-1.021c-0.504-1.26-1.513-1.916-2.752-2.296c-0.913-0.504-1.831-0.999-2.738-1.513
				c-1.643-0.929-1.711-1.796-0.472-3.217c1.391-1.596,2.809-3.203,3.939-4.98c1.153-1.814,1.974-3.84,2.932-5.779
				c1.3-2.63,2.581-5.27,3.894-7.894C346.284,999.32,346.774,998.541,347.228,997.744"/>
			<path fill="#DB394D" d="M373.634,970.014c-1.959-2.143-2.848-4.673-2.738-7.565c0.856-0.063,1.724-0.057,2.566-0.205
				c1.34-0.235,2.71-0.446,3.97-0.923c0.621-0.235,1.168-0.966,1.498-1.603c0.853-1.647,1.891-2.985,3.665-3.784
				c1.357-0.612,2.466-1.871,3.852-2.29c2.7-0.817,5.411-1.175,7.833,1.159c2.222,2.14,3.595,4.537,3.493,7.637
				c-0.065,1.992-0.965,3.306-2.987,3.856c-2.773,0.756-4.863,2.292-6.147,4.902c-0.142,0.289-0.574,0.609-0.868,0.606
				c-0.37-0.003-0.751-0.302-1.099-0.52c-0.154-0.097-0.238-0.305-0.412-0.543c-1.554,1.615-3.525,1.333-5.335,0.924
				c-2.307-0.522-1.712-2.921-2.598-4.768c-1.244,0.178-2.628,0.326-3.985,0.612c-0.277,0.058-0.549,0.609-0.638,0.978
				C373.585,968.973,373.65,969.503,373.634,970.014"/>
			<path fill="#4F3E24" d="M355.415,1009.445c-0.598-1.819,0.237-3.409,0.812-5.037c0.472-1.336,0.932-2.678,1.468-3.988
				c0.38-0.923,0.88-1.797,1.326-2.692c0.442-0.119,0.885-0.237,1.326-0.356c0.324,0.673,0.643,1.348,0.972,2.019
				c0.085,0.174,0.252,0.321,0.291,0.501c0.849,3.816,2.664,7.211,4.444,10.646c0.905,1.747,1.646,3.555,1.57,5.727
				c-0.073,2.134,0.685,4.286,0.909,6.448c0.141,1.352,0.03,2.741-0.08,4.104c-0.1,1.222-1.172,1.389-2.096,1.665
				c-1.113,0.02-2.225,0.04-3.338,0.06c-0.885-0.01-1.786,0.077-2.653-0.056c-0.927-0.143-1.364-0.718-1.376-1.782
				c-0.042-3.41-0.208-6.819-0.341-10.228c-0.009-0.262-0.086-0.539-0.201-0.777C357.447,1013.61,356.429,1011.529,355.415,1009.445
				"/>
			<path fill="#AA977B" d="M370.624,995.146c-0.319-0.85-0.686-1.686-0.947-2.554c-0.424-1.409-0.745-2.85-1.172-4.259
				c-0.98-3.229-1.574-6.585-0.616-9.808c0.745-2.51,1.887-5.071,4.374-6.572c0.026,0.933,0.052,1.866,0.078,2.799
				c0.11,0.425,0.22,0.851,0.331,1.276c0.019,0.849,0.041,1.697,0.061,2.547c0.123,0.734,0.246,1.47,0.368,2.205
				c0.013,0.683,0.026,1.367,0.041,2.051c0.089,0.246,0.179,0.494,0.268,0.741c0.832,2.28,1.581,4.596,2.529,6.826
				c0.572,1.342,0.607,1.69-0.645,2.436c-0.366,0.217-0.728,0.441-1.089,0.659c-0.116,0.125-0.235,0.253-0.352,0.382
				c-0.136,0.031-0.272,0.063-0.407,0.094c-0.161,0.147-0.323,0.293-0.484,0.439c-0.335,0.252-0.669,0.503-1.005,0.755
				C371.515,995.157,371.069,995.152,370.624,995.146"/>
			<path fill="#5F5B54" d="M366.132,1030.231c0.757,0.233,1.5,0.534,2.273,0.686c1.751,0.343,3.431,0.795,4.751,2.161
				c-0.435,0.9-0.994,1.324-2.018,1.292c-2.399-0.075-4.802,0.008-7.201-0.05c-0.517-0.013-1.398-0.27-1.465-0.562
				c-0.171-0.749-0.068-1.602,0.107-2.371c0.091-0.4,0.566-0.712,0.866-1.064C364.341,1030.293,365.236,1030.262,366.132,1030.231"
				/>
			<path fill="#5E5953" d="M340.784,1026.556c0.858,1.236,1.747,2.452,2.559,3.718c0.383,0.596,0.72,1.264,0.883,1.945
				c0.193,0.799-1.178,1.57-1.951,1.01c-1.778-1.29-3.562-2.606-5.138-4.127c-1.268-1.224-0.693-2.723,1.04-3.285
				C338.903,1026.562,339.826,1026.622,340.784,1026.556"/>
			<path fill="#DB394D" d="M371.96,995.163c0.335-0.252,0.669-0.503,1.005-0.755c0.161-0.146,0.322-0.292,0.484-0.439
				c0.135-0.031,0.27-0.063,0.407-0.093c0.483,0.03,0.965,0.058,1.447,0.087l0.018,0.012c0.538,0.336,1.091,0.65,1.608,1.016
				c0.393,0.278,0.739,0.623,1.182,1.003c-0.703,0.384-1.136,0.62-1.57,0.857c0.338,0.866,0.692,1.599,0.907,2.371
				c0.291,1.053-0.248,1.948-0.719,2.837c-0.459,0.017-0.918,0.035-1.378,0.052c-0.169-0.117-0.337-0.234-0.507-0.351
				c-0.235-0.003-0.469-0.008-0.705-0.01l0.019,0.009c0.192-0.678-0.057-0.911-0.726-0.722l0.015,0.015
				C373.507,998.948,372.986,996.992,371.96,995.163"/>
			<path fill="#AB997B" d="M361.977,976.689l-0.115-0.002c-0.291,0.309-0.748,0.575-0.843,0.936
				c-0.626,2.372-1.358,4.739-1.694,7.157c-0.327,2.353-0.192,4.766-0.314,7.15c-0.065,1.276-0.177,2.549-0.28,3.73
				c-0.01,0.025-0.036,0.09-0.045,0.111c-0.193,0.458-0.43,0.899-0.696,1.319c-0.045,0.07-0.058,0.153-0.058,0.237
				c-0.22,0.13-0.406,0.238-0.588,0.345c0.249,0.008,0.497,0.017,0.746,0.025c0.025,0.024,0.047,0.051,0.077,0.067
				c0.198,0.105,0.39,0.074,0.545-0.047c0.103,0.004,0.207,0.007,0.31,0.01c0.442-0.118,0.885-0.236,1.326-0.355
				c0.19-0.196,0.378-0.391,0.567-0.586c0.052-0.312,0.102-0.624,0.153-0.936c0.058-0.471,0.117-0.941,0.176-1.411
				c-0.113-0.38-0.308-0.758-0.324-1.143c-0.047-1.117-0.023-2.238-0.027-3.357c-0.151-0.307-0.415-0.609-0.429-0.922
				c-0.05-1.04-0.01-2.084-0.003-3.127c-0.002-1.094-0.003-2.189-0.004-3.282c0.145-0.168,0.29-0.335,0.435-0.502
				c0.162-1.099,0.325-2.196,0.487-3.295c0.075-0.162,0.151-0.324,0.225-0.486c0.163-0.547,0.325-1.094,0.49-1.641L361.977,976.689z
				"/>
			<path fill="#E05350" d="M376.726,1002.058c0.471-0.889,1.01-1.783,0.719-2.837c-0.215-0.772-0.569-1.504-0.907-2.371
				c0.435-0.237,0.867-0.473,1.57-0.857c-0.443-0.379-0.789-0.724-1.182-1.003c-0.517-0.366-1.07-0.679-1.608-1.016
				c0.72,0.209,1.484,0.329,2.15,0.65c0.849,0.408,0.959,1.508,0.516,2.43c-0.213,0.441-0.287,1.066-0.156,1.532
				C378.264,1000.13,377.881,1001.506,376.726,1002.058"/>
			<path fill="#DB394D" d="M366.132,1030.231c-0.896,0.031-1.791,0.062-2.688,0.092c-0.141-0.594-0.283-1.188-0.424-1.781
				c1.113-0.02,2.225-0.041,3.338-0.06C366.283,1029.066,366.208,1029.648,366.132,1030.231"/>
			<path fill="#DB394D" d="M340.784,1026.556c-0.958,0.066-1.88,0.006-2.606-0.74c0.047-0.765,0.095-1.53,0.142-2.295
				c1.239,0.381,2.247,1.037,2.752,2.297C340.976,1026.064,340.879,1026.31,340.784,1026.556"/>
			<path fill="#DBD4C9" d="M373.102,980.781c-0.123-0.735-0.246-1.47-0.368-2.206C373.611,979.185,373.079,980.03,373.102,980.781"
				/>
			<path fill="#E05350" d="M375.301,993.964c-0.482-0.029-0.965-0.058-1.447-0.088c0.117-0.129,0.235-0.258,0.351-0.382
				C374.569,993.653,374.935,993.808,375.301,993.964"/>
			<path fill="#DBD4C9" d="M372.673,976.029c-0.111-0.425-0.221-0.85-0.331-1.276C372.451,975.179,372.562,975.604,372.673,976.029"
				/>
			<path fill="#DBD4C9" d="M373.411,983.573c-0.09-0.247-0.18-0.494-0.268-0.741C373.232,983.079,373.321,983.326,373.411,983.573"
				/>
			<path fill="#C0AC8C" d="M360.915,996.787c0.052-0.312,0.102-0.624,0.153-0.936C361.017,996.162,360.967,996.475,360.915,996.787"
				/>
			<path fill="#E05350" d="M374.842,1001.759c0.169,0.117,0.337,0.234,0.507,0.351
				C375.179,1001.993,375.011,1001.876,374.842,1001.759"/>
			<path fill="#FFFBF0" d="M371.96,995.163c1.027,1.829,1.547,3.785,1.486,5.888c-1.095-0.712-2.19-1.424-3.285-2.136
				c0.985-0.632,1.093-1.491,0.705-2.523c-0.147-0.39-0.164-0.829-0.241-1.246C371.069,995.152,371.515,995.158,371.96,995.163"/>
			<path fill="#C0AC8C" d="M360.893,989.94c-0.151-0.307-0.414-0.608-0.429-0.922c-0.049-1.04-0.01-2.084-0.003-3.126
				c0.15,0.307,0.413,0.608,0.428,0.922C360.938,987.854,360.898,988.898,360.893,989.94"/>
			<path fill="#BFAA89" d="M362.092,976.685l-0.116,0.003l-0.114-0.002c0.088-0.13,0.177-0.259,0.264-0.389
				C362.114,976.427,362.104,976.557,362.092,976.685"/>
			<path fill="#C0AC8C" d="M361.378,978.812c0.075-0.162,0.151-0.324,0.225-0.486C361.529,978.488,361.453,978.651,361.378,978.812"
				/>
			<path fill="#C0AC8C" d="M360.456,982.609c0.145-0.168,0.29-0.335,0.434-0.502C360.746,982.274,360.601,982.442,360.456,982.609"
				/>
			<path fill="#E05350" d="M373.448,993.97c-0.161,0.147-0.323,0.293-0.484,0.439C373.125,994.263,373.287,994.116,373.448,993.97"
				/>
			<path fill="#FEFEFE" d="M373.43,1001.036c0.669-0.188,0.918,0.046,0.725,0.723
				C373.913,1001.518,373.672,1001.277,373.43,1001.036"/>
			<path fill="#FFFBF0" d="M374.434,980.903c-0.011-0.246-0.201-0.476-0.457-0.486c-0.004-0.013-0.008-0.025-0.012-0.038
				c-0.05-0.194-0.085-0.392-0.113-0.59c-0.003-0.028-0.008-0.069-0.009-0.08c-0.007-0.051-0.013-0.102-0.018-0.152
				c-0.011-0.102-0.021-0.205-0.032-0.307c-0.023-0.219-0.046-0.44-0.069-0.659c-0.017-0.165-0.104-0.32-0.237-0.412
				c-0.082-1.088-0.13-2.18-0.127-3.274c0.003-0.634-0.983-0.634-0.984,0c-0.009,2.654,0.236,5.302,0.724,7.912
				c0.116,0.622,1.066,0.358,0.949-0.262c-0.072-0.387-0.128-0.776-0.189-1.164c0.027,0.001,0.054,0.006,0.081,0.005
				C374.198,981.384,374.446,981.178,374.434,980.903"/>
			<path fill="#DB394D" d="M378.027,996.499c0.191-0.534,0.061-1.098-0.297-1.526c-0.374-0.447-0.944-0.646-1.482-0.816
				c-0.031-0.01-0.057-0.005-0.086-0.009c-0.382-0.152-0.764-0.302-1.152-0.439c-0.112-0.04-0.224-0.078-0.336-0.116
				c-0.139-0.047-0.28-0.109-0.43-0.105c-0.318,0.008-0.55,0.307-0.766,0.507c-0.19,0.175-0.191,0.522,0,0.697
				c0.202,0.185,0.494,0.186,0.696,0c0.06-0.057,0.121-0.113,0.182-0.169c0.191,0.064,0.38,0.13,0.57,0.198
				c0.408,0.147,0.813,0.303,1.215,0.468c0.05,0.02,0.105,0.021,0.158,0.018c0.288,0.098,0.579,0.229,0.745,0.48
				c0.2,0.301,0.036,0.643-0.203,0.864c-0.182,0.169-0.341,0.344-0.396,0.595c-0.057,0.258-0.002,0.522,0.071,0.771
				c0.145,0.49,0.246,0.982,0.28,1.492c0.008,0.108,0.05,0.205,0.11,0.287c-0.005,0.105,0.001,0.208-0.013,0.314
				c-0.022,0.173-0.079,0.434-0.144,0.632c-0.063,0.191-0.125,0.285-0.272,0.42c-0.017,0.015-0.023,0.023-0.025,0.025
				c-0.004,0.002-0.014,0.007-0.035,0.019c-0.043,0.025-0.087,0.051-0.13,0.076c-0.02,0.012-0.027,0.017-0.031,0.02
				c-0.005,0.002-0.014,0.004-0.036,0.012c-0.047,0.017-0.096,0.033-0.145,0.046c-0.197,0.053-0.415,0.059-0.639,0.03
				c-0.158-0.022-0.389-0.08-0.566-0.147c-0.032-0.012-0.034-0.012-0.003,0c-0.025-0.01-0.048-0.021-0.071-0.033
				c-0.047-0.024-0.091-0.049-0.136-0.076c-0.022-0.014-0.043-0.028-0.064-0.043c0.025,0.02,0.025,0.019-0.001-0.003
				c-0.045-0.04-0.086-0.083-0.125-0.129c-0.082-0.097-0.204-0.138-0.329-0.14c-0.061-0.029-0.131-0.047-0.214-0.047
				c-0.615,0-0.628,0.921-0.048,0.975c0.396,0.384,0.962,0.555,1.497,0.621c0.612,0.075,1.233-0.055,1.72-0.445
				c0.477-0.38,0.663-0.978,0.749-1.56c0.095-0.638,0.075-1.269-0.068-1.898c-0.026-0.121-0.109-0.215-0.212-0.278
				c-0.036-0.157-0.067-0.314-0.112-0.47c-0.014-0.051-0.033-0.104-0.042-0.158c-0.003-0.023-0.001-0.117-0.012-0.091
				c0.003-0.008,0.151-0.13,0.188-0.169C377.785,997.002,377.933,996.762,378.027,996.499"/>
			<path fill="#FEFEFE" d="M378.747,997.59C378.748,997.59,378.748,997.59,378.747,997.59
				C378.748,997.59,378.748,997.59,378.747,997.59z"/>
			<path fill="#FFFBF0" d="M379.471,999.014c-0.053-0.058-0.105-0.117-0.156-0.177c-0.03-0.036-0.059-0.073-0.089-0.109
				c-0.003-0.004-0.006-0.007-0.009-0.011c-0.002-0.045-0.005-0.09-0.02-0.133c0.084-0.148,0.108-0.33,0.007-0.481
				c-0.104-0.153-0.229-0.278-0.358-0.407c-0.025-0.024-0.047-0.047-0.069-0.073c-0.003-0.002-0.01-0.011-0.016-0.02
				c-0.008-0.011-0.014-0.023-0.021-0.035v-0.04c0.003-0.011,0.004-0.022,0.008-0.033c0.003-0.015,0.008-0.031,0.014-0.045
				c0.001-0.002,0.002-0.003,0.003-0.006c0.013-0.023,0.036-0.036,0.044-0.064c0.003-0.007,0-0.015,0.002-0.023
				c0.022-0.038,0.045-0.076,0.069-0.114c0.003-0.005,0.005-0.01,0.008-0.014c0.136-0.122,0.248-0.268,0.278-0.455
				c0.007-0.041,0.004-0.083,0.002-0.125c0.089-0.121,0.179-0.242,0.268-0.364c0.071-0.097,0.08-0.269,0.05-0.379
				c-0.031-0.115-0.119-0.239-0.226-0.295c-0.002-0.001-0.003-0.001-0.005-0.002c-0.022-0.052-0.053-0.099-0.097-0.139
				c-0.195-0.18-0.503-0.196-0.695,0c-0.161,0.162-0.192,0.346-0.22,0.561c0.006-0.044,0.012-0.088,0.017-0.131
				c-0.025,0.169-0.079,0.33-0.142,0.488c-0.019,0.042-0.041,0.081-0.061,0.121l-0.21,0.285c-0.281,0.257-0.415,0.601-0.279,0.994
				c0.034,0.097,0.081,0.191,0.123,0.286c0.083,0.247,0.208,0.479,0.362,0.689c0.216,0.339,0.465,0.658,0.727,0.947
				c0.174,0.191,0.523,0.19,0.696,0C379.659,999.506,379.656,999.218,379.471,999.014"/>
			<path fill="#FFFBF0" d="M379.92,1002.296c-1.249-0.174-2.544,0.068-3.777-0.201c-0.916-0.2-1.566-0.768-2.03-1.511
				c-0.268-0.789-0.601-1.558-1.017-2.281c-0.128-0.224-0.451-0.32-0.674-0.177c-0.224,0.146-0.313,0.435-0.176,0.674
				c0.212,0.369,0.407,0.749,0.578,1.138c0.003,0.007,0.006,0.013,0.008,0.019c-0.446-0.348-0.896-0.706-1.216-1.174
				c-0.356-0.52-1.209-0.028-0.85,0.496c0.631,0.922,1.601,1.448,2.373,2.224c0.333,0.335,0.617,0.719,0.722,1.187
				c0.029,0.132,0.133,1.242-0.053,1.246c-0.633,0.015-0.635,1,0,0.985c0.81-0.019,1.07-0.784,1.08-1.471
				c0.003-0.28-0.019-0.55-0.061-0.814c0.235,0.133,0.483,0.247,0.75,0.329c1.33,0.402,2.727,0.091,4.082,0.28
				c0.265,0.037,0.526-0.064,0.606-0.344C380.329,1002.672,380.183,1002.332,379.92,1002.296"/>
			<path fill="#DB394D" d="M374.137,1001.749l0.018,0.009c-0.242-0.241-0.484-0.482-0.725-0.722l0.015,0.015
				c-1.095-0.712-2.19-1.424-3.285-2.136c-0.258-0.154-0.594-0.499-0.76-0.43c-0.811,0.335-1.587,0.759-2.345,1.203
				c-0.144,0.085-0.149,0.406-0.218,0.617c1.012,0.35,0.634,1.213,0.688,1.903c0.165,2.095,0.367,4.134,2.353,5.483
				c0.745,0.505,1.426,0.602,2.106,0.146c0.449-0.302,0.662-0.694,0.721-1.132c0.083-0.211,0.143-0.431,0.152-0.654
				c0.015-0.341-0.047-0.695-0.134-1.023c-0.069-0.262-0.184-0.497-0.324-0.721c0.114,0.016,0.232,0.018,0.35,0.008
				c0.207-0.018,0.404-0.048,0.595-0.129c0.265-0.112,0.457-0.304,0.571-0.544c0.247-0.271,0.239-0.728,0.218-1.658
				C374.133,1001.907,374.137,1001.828,374.137,1001.749"/>
			<path fill="#FEFEFE" d="M374.369,1001.502c-0.352-0.497-0.793-0.914-1.236-1.328c-0.52-0.486-1.04-0.971-1.56-1.457
				c-0.462-0.432-1.16,0.263-0.696,0.696c0.818,0.764,1.712,1.494,2.447,2.341c0.488,0.563,0.988,1.569,0.411,2.251
				c-0.171,0.202-0.199,0.497,0,0.696c0.176,0.176,0.523,0.204,0.696,0C375.223,1003.766,375.044,1002.453,374.369,1001.502"/>
			<path fill="#AB997B" d="M360.055,981.968c-0.014,2.555-0.025,5.111-0.039,7.666c-0.003,0.634,0.981,0.634,0.984,0l0.04-7.666
				C361.044,981.335,360.059,981.334,360.055,981.968"/>
			<path fill="#D8C09B" d="M364.281,1000.174c-0.005,0.003-0.007,0.011-0.031-0.002c-0.092-0.048-0.141-0.138-0.189-0.225
				c-0.118-0.219-0.195-0.462-0.285-0.693c-0.231-0.593-0.461-1.187-0.674-1.785c-0.419-1.176-0.775-2.376-0.985-3.609
				c-0.004-0.022-0.015-0.036-0.022-0.056c0.195-0.09,0.339-0.284,0.266-0.551c-0.719-2.667-0.665-5.438-0.548-8.175
				c0.122-2.861,0.376-5.716,1.023-8.511c0.142-0.617-0.806-0.88-0.949-0.262c-0.666,2.879-0.933,5.826-1.058,8.773
				c-0.121,2.825-0.16,5.685,0.583,8.437c0.008,0.026,0.023,0.042,0.032,0.064c-0.181,0.098-0.32,0.287-0.276,0.543
				c0.273,1.6,0.793,3.136,1.37,4.648c0.139,0.363,0.28,0.727,0.424,1.089c0.128,0.324,0.246,0.659,0.487,0.919
				c0.458,0.5,1.279,0.513,1.659-0.081C365.441,1000.173,364.635,999.694,364.281,1000.174"/>
			<path fill="#67522F" d="M358.532,997.582c-0.506-0.007-1.01,0.02-1.511,0.082c-0.264,0.032-0.493,0.203-0.493,0.492
				c0,0.241,0.226,0.525,0.493,0.493c0.223-0.027,0.446-0.023,0.669-0.036c-0.042,0.057-0.083,0.113-0.119,0.167
				c-0.202,0.297-0.405,0.593-0.61,0.889c-0.424,0.611-0.854,1.215-1.29,1.818c-0.157,0.215-0.037,0.549,0.176,0.673
				c0.249,0.146,0.518,0.04,0.674-0.176c0.45-0.622,0.894-1.247,1.33-1.877c0.219-0.315,0.436-0.631,0.651-0.949
				c0.199-0.295,0.437-0.594,0.505-0.952C359.066,997.892,358.872,997.586,358.532,997.582"/>
			<path fill="#4F3E24" d="M360.464,997.713c-0.103-0.232-0.335-0.337-0.582-0.285c-0.31,0.066-0.62,0.131-0.931,0.197
				c-0.251,0.052-0.396,0.339-0.345,0.579c-0.003,0.005-0.009,0.008-0.013,0.014c-0.257,0.413-0.474,0.852-0.661,1.3
				c-0.369,0.889-0.571,1.834-0.62,2.794c-0.013,0.266,0.237,0.492,0.493,0.492c0.278,0,0.479-0.225,0.492-0.492
				c0.042-0.819,0.222-1.623,0.525-2.385c0.143-0.363,0.329-0.708,0.524-1.046c0.109-0.189,0.124-0.207,0.314-0.29
				c0.2-0.088,0.4-0.175,0.601-0.263C360.483,998.231,360.552,997.915,360.464,997.713"/>
		</g>
	</g>
	<path fill="#D495AB" d="M357.104,1493.552h41.005v53.557h-41.005V1493.552z M377.153,1477.298l20.956,16.287l-41.005,0.241
		L377.153,1477.298z"/>
	<rect x="293.109" y="1493.826" fill="#F8B4CC" width="63.995" height="53.283"/>
	<polygon fill="#8F5066" points="357.171,1493.826 337.139,1477.298 377.204,1477.298 	"/>
	<polygon fill="#8F5066" points="313.141,1477.298 293.109,1493.826 333.174,1493.826 	"/>
	<rect x="313.141" y="1477.298" fill="#8F5066" width="44.03" height="16.528"/>
	<polygon fill="#D495AB" points="383.161,1532.156 298.975,1549.803 298.975,1514.509 	"/>
	<rect x="314.002" y="1517.203" fill="#8F5066" width="22.209" height="29.907"/>
	<rect x="336.063" y="1517.174" fill="#F8B4CC" width="20.894" height="29.907"/>
	<path fill="#D495AB" d="M448.104,1493.552h41.005v53.557h-41.005V1493.552z M468.153,1477.298l20.956,16.287l-41.005,0.241
		L468.153,1477.298z"/>
	<rect x="384.109" y="1493.826" fill="#F8B4CC" width="63.995" height="53.283"/>
	<polygon fill="#8F5066" points="448.171,1493.826 428.139,1477.298 468.204,1477.298 	"/>
	<polygon fill="#8F5066" points="404.141,1477.298 384.109,1493.826 424.174,1493.826 	"/>
	<rect x="404.141" y="1477.298" fill="#8F5066" width="44.03" height="16.528"/>
	<polygon fill="#D495AB" points="474.161,1532.156 389.975,1549.803 389.975,1514.509 	"/>
	<rect x="405.002" y="1517.203" fill="#8F5066" width="22.209" height="29.907"/>
	<rect x="427.063" y="1517.174" fill="#F8B4CC" width="20.894" height="29.907"/>
	<path fill="#D495AB" d="M539.104,1493.552h41.004v53.557h-41.004V1493.552z M559.153,1477.298l20.956,16.287l-41.005,0.241
		L559.153,1477.298z"/>
	<rect x="475.109" y="1493.826" fill="#F8B4CC" width="63.996" height="53.283"/>
	<polygon fill="#8F5066" points="539.171,1493.826 519.139,1477.298 559.203,1477.298 	"/>
	<polygon fill="#8F5066" points="495.141,1477.298 475.109,1493.826 515.174,1493.826 	"/>
	<rect x="495.142" y="1477.298" fill="#8F5066" width="44.029" height="16.528"/>
	<polygon fill="#D495AB" points="565.16,1532.156 480.975,1549.803 480.975,1514.509 	"/>
	<rect x="496.001" y="1517.203" fill="#8F5066" width="22.21" height="29.907"/>
	<rect x="518.063" y="1517.174" fill="#F8B4CC" width="20.894" height="29.907"/>
	<rect x="293.436" y="1584.135" fill="#FFF68F" width="63.995" height="53.283"/>
	<polygon fill="#BFA152" points="357.498,1584.135 337.466,1567.608 377.531,1567.608 	"/>
	<polygon fill="#BFA152" points="313.468,1567.607 293.436,1584.135 333.501,1584.135 	"/>
	<rect x="313.468" y="1567.608" fill="#BFA152" width="44.03" height="16.528"/>
	<polygon fill="#D6CC5A" points="383.635,1622.495 299.449,1640.142 299.449,1604.847 	"/>
	<rect x="336.537" y="1607.512" fill="#FFF68F" width="20.894" height="29.907"/>
	<rect x="314.329" y="1607.512" fill="#BFA152" width="22.209" height="29.907"/>
	<path fill="#D6CC5A" d="M448.431,1583.861h41.005v53.558h-41.005V1583.861z M468.48,1567.607l20.956,16.288l-41.005,0.24
		L468.48,1567.607z"/>
	<path fill="#D6CC5A" d="M357.431,1583.861h41.005v53.558h-41.005V1583.861z M377.48,1567.607l20.956,16.288l-41.005,0.24
		L377.48,1567.607z"/>
	<rect x="384.436" y="1584.135" fill="#FFF68F" width="63.995" height="53.283"/>
	<polygon fill="#BFA152" points="448.498,1584.135 428.466,1567.608 468.531,1567.608 	"/>
	<polygon fill="#BFA152" points="404.468,1567.607 384.436,1584.135 424.501,1584.135 	"/>
	<rect x="404.468" y="1567.608" fill="#BFA152" width="44.03" height="16.528"/>
	<polygon fill="#D6CC5A" points="474.635,1622.495 390.449,1640.142 390.449,1604.847 	"/>
	<rect x="427.537" y="1607.512" fill="#FFF68F" width="20.894" height="29.907"/>
	<rect x="405.329" y="1607.512" fill="#BFA152" width="22.209" height="29.907"/>
	<path fill="#D6CC5A" d="M448.355,1583.861h41.005v53.558h-41.005V1583.861z M468.403,1567.607l20.956,16.288l-41.005,0.24
		L468.403,1567.607z"/>
	<path fill="#D6CC5A" d="M539.431,1583.861h41.004v53.558h-41.004V1583.861z M559.48,1567.607l20.956,16.288l-41.005,0.24
		L559.48,1567.607z"/>
	<polygon fill="#BFA152" points="539.498,1584.135 519.466,1567.608 559.531,1567.608 	"/>
	<polygon fill="#BFA152" points="495.468,1567.607 475.436,1584.135 515.501,1584.135 	"/>
	<rect x="495.469" y="1567.608" fill="#BFA152" width="44.029" height="16.528"/>
	<rect x="475.436" y="1584.135" fill="#FFF68F" width="63.996" height="53.283"/>
	<polygon fill="#D6CC5A" points="565.635,1622.495 481.45,1640.142 481.45,1604.847 	"/>
	<rect x="518.538" y="1607.512" fill="#FFF68F" width="20.894" height="29.907"/>
	<rect x="496.329" y="1607.512" fill="#BFA152" width="22.21" height="29.907"/>
	<path fill="#46B5CC" d="M357.268,1406.745h41.005v53.557h-41.005V1406.745z M377.316,1390.491l20.956,16.287l-41.005,0.241
		L377.316,1390.491z"/>
	<rect x="293.272" y="1407.018" fill="#B1DFE9" width="63.995" height="53.283"/>
	<polygon fill="#00657A" points="357.335,1407.018 337.302,1390.49 377.367,1390.49 	"/>
	<polygon fill="#00657A" points="313.305,1390.491 293.272,1407.018 333.337,1407.018 	"/>
	<rect x="313.305" y="1390.491" fill="#00657A" width="44.03" height="16.528"/>
	<rect x="314.166" y="1430.395" fill="#00657A" width="22.209" height="29.907"/>
	<path fill="#FFF264" d="M333.069,1444.109c-1.723,0-1.726,2.678,0,2.678C334.792,1446.787,334.794,1444.109,333.069,1444.109"/>
	<path fill="#46B5CC" d="M448.268,1406.745h41.005v53.557h-41.005V1406.745z M468.316,1390.491l20.956,16.287l-41.005,0.241
		L468.316,1390.491z"/>
	<rect x="384.272" y="1407.018" fill="#B1DFE9" width="63.995" height="53.283"/>
	<polygon fill="#00657A" points="448.335,1407.018 428.302,1390.49 468.367,1390.49 	"/>
	<polygon fill="#00657A" points="404.305,1390.491 384.272,1407.018 424.337,1407.018 	"/>
	<rect x="404.305" y="1390.491" fill="#00657A" width="44.03" height="16.528"/>
	<rect x="405.166" y="1430.395" fill="#00657A" width="22.209" height="29.907"/>
	<path fill="#FFF264" d="M424.069,1444.109c-1.723,0-1.726,2.678,0,2.678C425.792,1446.787,425.794,1444.109,424.069,1444.109"/>
	<polyline fill="#46B5CC" points="580.272,1460.302 539.268,1460.302 539.268,1406.745 580.272,1406.745 	"/>
	<polyline fill="#46B5CC" points="580.272,1406.777 539.268,1407.018 559.317,1390.491 580.272,1406.777 	"/>
	<rect x="475.272" y="1407.018" fill="#B1DFE9" width="63.996" height="53.283"/>
	<polygon fill="#00657A" points="539.334,1407.018 519.303,1390.49 559.367,1390.49 	"/>
	<polygon fill="#00657A" points="495.305,1390.491 475.272,1407.018 515.337,1407.018 	"/>
	<rect x="495.305" y="1390.491" fill="#00657A" width="44.029" height="16.528"/>
	<rect x="496.165" y="1430.395" fill="#00657A" width="22.21" height="29.907"/>
	<path fill="#FFF264" d="M515.069,1444.109c-1.723,0-1.726,2.678,0,2.678C516.792,1446.787,516.795,1444.109,515.069,1444.109"/>
	<polygon fill="#BFA152" points="448.422,1584.135 428.389,1567.608 468.455,1567.608 	"/>
	<polygon fill="#BFA152" points="404.392,1567.607 384.359,1584.135 424.425,1584.135 	"/>
	<rect x="404.392" y="1567.608" fill="#BFA152" width="44.03" height="16.528"/>
	<path fill="#D6CC5A" d="M539.355,1583.861h41.004v53.558h-41.004V1583.861z M559.404,1567.607l20.956,16.288l-41.005,0.24
		L559.404,1567.607z"/>
	<polygon fill="#BFA152" points="539.422,1584.135 519.39,1567.608 559.454,1567.608 	"/>
	<polygon fill="#BFA152" points="495.392,1567.607 475.359,1584.135 515.425,1584.135 	"/>
	<rect x="495.393" y="1567.608" fill="#BFA152" width="44.029" height="16.528"/>
	<path fill="#D6CC5A" d="M538.957,1493.552h41.004v53.557h-41.004V1493.552z M559.006,1477.298l20.956,16.287l-41.005,0.241
		L559.006,1477.298z"/>
	<path fill="#D495AB" d="M559.006,1477.298l-0.07,1.242l1.609-0.049L559.006,1477.298z"/>
	<path fill="#D495AB" d="M538.957,1493.552h21.588v53.557h-21.588V1493.552z M559.006,1477.298l-0.429,17.006l-19.62-0.479
		L559.006,1477.298z"/>
	<path fill="#D495AB" d="M558.247,1478.491h2.298v15.813h-2.298V1478.491z"/>
	<rect style="opacity:0.7;" x="293.109" y="1370.489" fill="#FFFCF1" width="287.163" height="97.866"/>
	<rect style="opacity:0.7;" x="293.109" y="1466.787" fill="#FFFCF1" width="267.436" height="89.197"/>
	<path fill="#D6CC5A" d="M260.982,869.903h41.004v53.557h-41.004V869.903z M281.03,853.649l20.956,16.287l-41.005,0.241
		L281.03,853.649z"/>
	<path fill="#D495AB" d="M281.03,853.649l-0.07,1.242l1.609-0.049L281.03,853.649z"/>
	<path fill="#D495AB" d="M260.982,869.903h21.588v53.557h-21.588V869.903z M281.03,853.649l-0.429,17.006l-19.62-0.479
		L281.03,853.649z"/>
	<rect x="289.87" y="871.577" fill="#FFF68F" width="63.995" height="53.283"/>
	<polygon fill="#D6CC5A" points="380.069,909.936 295.883,927.583 295.883,892.289 	"/>
	<path fill="#D495AB" d="M280.272,854.842h2.298v15.813h-2.298V854.842z"/>
	<rect x="310.763" y="894.953" fill="#BFA152" width="22.209" height="29.907"/>
	<rect x="332.804" y="871.577" fill="#FFF68F" width="21.061" height="53.283"/>
	<polygon fill="#BFA152" points="309.902,855.049 289.87,871.577 329.935,871.577 	"/>
	<rect style="opacity:0.7;" x="282.57" y="854.033" fill="#FFFCF1" width="298.554" height="76.455"/>
	<g>
		<g>
			<path fill="#FEFEFE" d="M352.496,927.29c-2.772,0.756-4.862,2.293-6.147,4.902c-0.142,0.289-0.574,0.609-0.867,0.606
				c-0.371-0.003-0.752-0.302-1.1-0.52c-0.154-0.097-0.237-0.305-0.412-0.542c-1.554,1.614-3.526,1.332-5.335,0.923
				c-2.308-0.522-1.713-2.921-2.599-4.768c-1.243,0.178-2.628,0.326-3.985,0.612c-0.277,0.058-0.548,0.609-0.638,0.978
				c-0.119,0.486-0.055,1.016-0.07,1.528c0.168,1.088-0.824,1.357-1.371,1.94c0.026,0.933,0.053,1.866,0.079,2.799
				c0.11,0.425,0.221,0.85,0.331,1.276c0.019,0.849,0.04,1.697,0.061,2.547c0.877,0.608,0.345,1.453,0.368,2.205
				c0.014,0.684,0.027,1.367,0.04,2.051l0.27,0.741c0.833,2.28,1.58,4.596,2.53,6.826c0.571,1.343,0.606,1.69-0.647,2.436
				c-0.365,0.217-0.727,0.441-1.091,0.662c0.366,0.156,0.733,0.311,1.098,0.467l0.018,0.011c0.72,0.209,1.484,0.329,2.15,0.65
				c0.849,0.408,0.959,1.508,0.516,2.43c-0.213,0.441-0.288,1.066-0.156,1.533c0.435,1.542,0.053,2.918-1.102,3.47
				c-0.459,0.018-0.918,0.035-1.378,0.052c-0.169-0.117-0.338-0.234-0.507-0.351c-0.235-0.003-0.47-0.007-0.705-0.01
				c-0.001,0.079-0.004,0.158-0.003,0.236c0.043,1.834,0.043,1.834-1.897,2.178c0.111,0.465,0.192,0.933,0.335,1.381
				c0.284,0.898,0.232,1.743-0.587,2.293c-0.68,0.457-1.361,0.36-2.106-0.146c-1.986-1.348-2.188-3.389-2.353-5.483
				c-0.054-0.69,0.324-1.553-0.688-1.903c-0.711,0.245-1.409,0.556-2.139,0.714c-0.619,0.135-1.027-0.075-1.249-0.843
				c-0.545-1.885-1.252-3.724-1.907-5.577c-0.028-0.079-0.195-0.108-0.297-0.159l-0.177,1.411c-0.051,0.312-0.102,0.623-0.152,0.936
				c-0.19,0.195-0.379,0.391-0.567,0.585c0.324,0.673,0.643,1.349,0.971,2.02c0.086,0.173,0.252,0.321,0.292,0.5
				c0.849,3.816,2.664,7.212,4.443,10.646c0.905,1.747,1.647,3.556,1.571,5.727c-0.073,2.135,0.684,4.287,0.909,6.448
				c0.141,1.352,0.03,2.741-0.08,4.105c-0.099,1.221-1.172,1.389-2.095,1.664c-0.075,0.583-0.151,1.166-0.226,1.749
				c0.756,0.234,1.5,0.534,2.273,0.686c1.751,0.344,3.431,0.795,4.751,2.162c-0.435,0.9-0.994,1.324-2.018,1.293
				c-2.399-0.075-4.802,0.008-7.201-0.05c-0.517-0.014-1.398-0.27-1.465-0.563c-0.171-0.748-0.068-1.601,0.107-2.371
				c0.091-0.4,0.566-0.711,0.866-1.064c-0.141-0.594-0.283-1.188-0.425-1.781c-0.885-0.009-1.785,0.078-2.653-0.056
				c-0.927-0.142-1.362-0.718-1.376-1.782c-0.041-3.41-0.208-6.819-0.34-10.228c-0.01-0.263-0.087-0.54-0.201-0.777
				c-1.003-2.09-2.021-4.171-3.035-6.255c-0.131-0.013-0.349-0.08-0.379-0.031c-0.855,1.422-1.702,2.849-2.528,4.288
				c-1.834,3.193-3.652,6.396-5.484,9.59c-0.616,1.073-1.236,2.145-1.89,3.196c-0.667,1.074-1.683,1.177-2.649,0.352
				c-0.44-0.376-0.941-0.683-1.414-1.021c-0.096,0.246-0.192,0.492-0.288,0.738c0.858,1.236,1.748,2.452,2.56,3.717
				c0.382,0.596,0.719,1.264,0.883,1.945c0.192,0.799-1.179,1.57-1.951,1.01c-1.778-1.29-3.562-2.606-5.137-4.127
				c-1.269-1.224-0.694-2.723,1.041-3.285c0.047-0.765,0.093-1.53,0.14-2.295c-0.912-0.503-1.83-0.999-2.738-1.512
				c-1.644-0.929-1.712-1.796-0.472-3.217c1.391-1.596,2.809-3.202,3.938-4.98c1.154-1.814,1.974-3.841,2.932-5.779
				c1.3-2.63,2.581-5.27,3.895-7.894c0.41-0.819,0.9-1.597,1.354-2.394c-0.794-2.954-0.013-5.886,0.307-8.788
				c0.188-1.71,1.065-3.38,1.811-4.986c1.209-2.603,2.384-5.251,3.911-7.669c1.528-2.419,2.711-5.101,4.92-7.075
				c1.406-1.254,2.56-2.819,4.054-3.939c1.644-1.232,3.48-2.274,5.368-3.078c0.955-0.406,2.258-0.609,3.299,0.241
				c0.856-0.064,1.724-0.058,2.565-0.206c1.34-0.235,2.71-0.446,3.971-0.923c0.62-0.234,1.168-0.966,1.497-1.603
				c0.853-1.646,1.892-2.985,3.665-3.784c1.357-0.612,2.466-1.871,3.852-2.291c2.701-0.817,5.411-1.174,7.833,1.159
				c2.222,2.14,3.595,4.538,3.493,7.637C355.417,925.426,354.519,926.74,352.496,927.29"/>
			<path fill="#D8C09B" d="M304.937,958.738c-0.794-2.954-0.013-5.886,0.307-8.788c0.188-1.71,1.065-3.381,1.811-4.986
				c1.209-2.602,2.384-5.251,3.911-7.668c1.528-2.42,2.711-5.102,4.921-7.075c1.405-1.255,2.559-2.82,4.054-3.939
				c1.643-1.231,3.479-2.274,5.368-3.078c0.955-0.406,2.258-0.609,3.297,0.24c-0.111,2.892,0.778,5.422,2.738,7.565
				c0.167,1.088-0.825,1.357-1.371,1.94c-2.487,1.501-3.629,4.062-4.374,6.573c-0.958,3.223-0.364,6.579,0.616,9.807
				c0.428,1.409,0.748,2.849,1.172,4.259c0.261,0.867,0.628,1.703,0.947,2.554c0.076,0.417,0.093,0.855,0.241,1.245
				c0.389,1.033,0.28,1.891-0.705,2.524c-0.257-0.154-0.594-0.5-0.759-0.431c-0.811,0.335-1.587,0.759-2.346,1.204
				c-0.144,0.085-0.149,0.405-0.218,0.617c-0.711,0.246-1.409,0.556-2.139,0.714c-0.619,0.135-1.027-0.075-1.249-0.843
				c-0.544-1.885-1.251-3.724-1.907-5.577c-0.028-0.079-0.195-0.108-0.297-0.159c-0.113-0.381-0.307-0.758-0.324-1.143
				c-0.047-1.117-0.023-2.239-0.027-3.357c0.005-1.042,0.045-2.086-0.005-3.125c-0.015-0.313-0.278-0.616-0.428-0.923
				c-0.002-1.093-0.003-2.188-0.004-3.282c0.145-0.167,0.29-0.335,0.435-0.501c0.162-1.099,0.325-2.197,0.487-3.295
				c0.075-0.163,0.151-0.324,0.225-0.487c0.163-0.547,0.325-1.094,0.49-1.641c0.011-0.129,0.022-0.257,0.034-0.387
				c-0.088,0.13-0.176,0.259-0.265,0.39c-0.29,0.309-0.747,0.574-0.843,0.936c-0.626,2.372-1.358,4.738-1.694,7.157
				c-0.327,2.352-0.192,4.766-0.314,7.15c-0.089,1.744-0.265,3.484-0.385,4.989c-0.597,0.352-0.939,0.553-1.282,0.754
				c-1.398,0.075-2.795,0.207-4.194,0.21C308.884,958.881,306.91,958.789,304.937,958.738"/>
			<path fill="#67522F" d="M304.937,958.738c1.974,0.051,3.948,0.142,5.921,0.139c1.399-0.003,2.797-0.135,4.194-0.21
				c0.56,0.019,1.119,0.036,1.678,0.055c-0.446,0.895-0.946,1.768-1.326,2.692c-0.536,1.31-0.996,2.653-1.468,3.989
				c-0.575,1.628-1.41,3.218-0.812,5.036c-0.13-0.013-0.349-0.08-0.378-0.031c-0.855,1.422-1.702,2.849-2.529,4.288
				c-1.834,3.193-3.651,6.396-5.483,9.59c-0.617,1.073-1.236,2.145-1.891,3.197c-0.667,1.073-1.683,1.176-2.649,0.352
				c-0.44-0.377-0.941-0.684-1.414-1.021c-0.504-1.26-1.513-1.916-2.752-2.296c-0.913-0.504-1.831-0.999-2.738-1.513
				c-1.643-0.929-1.711-1.796-0.472-3.217c1.391-1.596,2.809-3.203,3.939-4.98c1.153-1.814,1.974-3.84,2.932-5.779
				c1.3-2.63,2.581-5.27,3.894-7.894C303.993,960.314,304.483,959.535,304.937,958.738"/>
			<path fill="#DB394D" d="M331.343,931.009c-1.959-2.143-2.848-4.673-2.738-7.565c0.856-0.063,1.724-0.057,2.566-0.205
				c1.34-0.235,2.71-0.446,3.97-0.923c0.621-0.235,1.168-0.966,1.498-1.603c0.853-1.647,1.891-2.985,3.665-3.784
				c1.357-0.612,2.466-1.871,3.852-2.29c2.7-0.817,5.411-1.175,7.833,1.159c2.222,2.14,3.595,4.537,3.493,7.637
				c-0.065,1.992-0.965,3.306-2.987,3.856c-2.773,0.755-4.863,2.292-6.147,4.902c-0.142,0.289-0.574,0.609-0.868,0.606
				c-0.37-0.003-0.751-0.302-1.099-0.52c-0.154-0.097-0.238-0.305-0.412-0.543c-1.554,1.615-3.525,1.333-5.335,0.924
				c-2.307-0.522-1.712-2.921-2.598-4.768c-1.244,0.178-2.628,0.326-3.985,0.612c-0.277,0.058-0.549,0.609-0.638,0.978
				C331.294,929.967,331.358,930.497,331.343,931.009"/>
			<path fill="#4F3E24" d="M313.124,970.439c-0.598-1.818,0.237-3.409,0.812-5.037c0.472-1.336,0.932-2.678,1.468-3.988
				c0.38-0.923,0.88-1.796,1.326-2.692c0.442-0.119,0.885-0.237,1.326-0.356c0.324,0.673,0.643,1.348,0.972,2.019
				c0.085,0.174,0.252,0.321,0.291,0.501c0.849,3.816,2.664,7.211,4.444,10.646c0.905,1.747,1.646,3.555,1.57,5.727
				c-0.073,2.134,0.685,4.286,0.909,6.448c0.141,1.352,0.03,2.741-0.08,4.104c-0.1,1.222-1.172,1.389-2.096,1.665
				c-1.113,0.02-2.225,0.04-3.338,0.06c-0.885-0.01-1.786,0.077-2.653-0.056c-0.927-0.143-1.364-0.718-1.376-1.782
				c-0.042-3.41-0.208-6.819-0.341-10.228c-0.009-0.262-0.086-0.539-0.201-0.777C315.156,974.605,314.138,972.523,313.124,970.439"
				/>
			<path fill="#AA977B" d="M328.333,956.141c-0.319-0.85-0.686-1.686-0.947-2.554c-0.424-1.409-0.745-2.85-1.172-4.259
				c-0.98-3.229-1.574-6.585-0.616-9.808c0.745-2.51,1.887-5.071,4.374-6.572c0.026,0.933,0.052,1.866,0.078,2.799
				c0.11,0.425,0.22,0.851,0.331,1.276c0.019,0.849,0.041,1.697,0.061,2.547c0.123,0.734,0.246,1.47,0.368,2.205
				c0.013,0.684,0.026,1.367,0.041,2.051c0.089,0.246,0.179,0.494,0.268,0.741c0.832,2.28,1.581,4.596,2.529,6.826
				c0.572,1.342,0.607,1.69-0.645,2.436c-0.366,0.217-0.728,0.441-1.089,0.659c-0.116,0.125-0.235,0.253-0.352,0.382
				c-0.136,0.031-0.272,0.063-0.407,0.094c-0.161,0.147-0.323,0.293-0.484,0.439c-0.335,0.252-0.669,0.503-1.005,0.755
				C329.223,956.152,328.778,956.147,328.333,956.141"/>
			<path fill="#5F5B54" d="M323.841,991.225c0.757,0.233,1.5,0.534,2.273,0.686c1.751,0.343,3.431,0.795,4.751,2.162
				c-0.435,0.9-0.994,1.324-2.018,1.292c-2.399-0.075-4.802,0.008-7.201-0.05c-0.517-0.013-1.398-0.27-1.465-0.562
				c-0.171-0.749-0.068-1.602,0.107-2.371c0.091-0.4,0.566-0.712,0.866-1.064C322.05,991.287,322.945,991.257,323.841,991.225"/>
			<path fill="#5E5953" d="M298.492,987.55c0.858,1.236,1.747,2.452,2.559,3.718c0.383,0.596,0.72,1.264,0.883,1.945
				c0.193,0.799-1.178,1.57-1.951,1.01c-1.778-1.29-3.562-2.606-5.138-4.127c-1.268-1.224-0.693-2.723,1.04-3.285
				C296.612,987.556,297.534,987.616,298.492,987.55"/>
			<path fill="#DB394D" d="M329.668,956.157c0.335-0.252,0.669-0.503,1.005-0.755c0.161-0.146,0.322-0.292,0.484-0.439
				c0.135-0.031,0.27-0.063,0.407-0.093c0.483,0.03,0.965,0.058,1.447,0.087l0.018,0.012c0.538,0.336,1.091,0.65,1.608,1.016
				c0.393,0.278,0.739,0.623,1.182,1.003c-0.703,0.384-1.136,0.62-1.57,0.857c0.338,0.866,0.692,1.599,0.907,2.371
				c0.291,1.053-0.248,1.948-0.719,2.837c-0.459,0.017-0.918,0.035-1.378,0.052c-0.169-0.117-0.337-0.234-0.507-0.351
				c-0.235-0.003-0.469-0.008-0.705-0.01l0.019,0.009c0.192-0.678-0.057-0.911-0.726-0.722l0.015,0.015
				C331.216,959.942,330.695,957.986,329.668,956.157"/>
			<path fill="#AB997B" d="M319.686,937.683l-0.115-0.002c-0.291,0.309-0.748,0.575-0.843,0.936
				c-0.626,2.372-1.358,4.739-1.694,7.157c-0.327,2.353-0.192,4.766-0.314,7.15c-0.065,1.276-0.177,2.549-0.279,3.73
				c-0.01,0.025-0.036,0.09-0.045,0.111c-0.193,0.458-0.43,0.899-0.696,1.319c-0.045,0.07-0.058,0.153-0.058,0.237
				c-0.22,0.13-0.406,0.238-0.588,0.345c0.249,0.008,0.497,0.017,0.746,0.025c0.025,0.024,0.047,0.051,0.077,0.067
				c0.198,0.105,0.39,0.074,0.545-0.047c0.103,0.004,0.207,0.007,0.31,0.01c0.442-0.118,0.885-0.236,1.326-0.355
				c0.19-0.196,0.378-0.391,0.567-0.586c0.052-0.312,0.102-0.624,0.153-0.936c0.058-0.471,0.117-0.941,0.176-1.411
				c-0.114-0.38-0.308-0.758-0.324-1.143c-0.047-1.117-0.023-2.238-0.027-3.357c-0.151-0.307-0.415-0.609-0.429-0.922
				c-0.05-1.04-0.01-2.084-0.003-3.127c-0.002-1.094-0.003-2.189-0.004-3.282c0.145-0.168,0.29-0.335,0.435-0.502
				c0.162-1.099,0.325-2.196,0.487-3.295c0.075-0.162,0.151-0.324,0.225-0.486c0.163-0.547,0.325-1.094,0.49-1.641L319.686,937.683z
				"/>
			<path fill="#E05350" d="M334.435,963.052c0.471-0.888,1.01-1.783,0.719-2.837c-0.215-0.772-0.569-1.504-0.907-2.371
				c0.435-0.237,0.867-0.474,1.57-0.857c-0.443-0.379-0.789-0.724-1.182-1.003c-0.517-0.366-1.07-0.679-1.608-1.016
				c0.72,0.209,1.484,0.329,2.15,0.65c0.849,0.408,0.959,1.509,0.516,2.43c-0.213,0.441-0.287,1.066-0.156,1.532
				C335.972,961.125,335.59,962.5,334.435,963.052"/>
			<path fill="#DB394D" d="M323.841,991.225c-0.896,0.031-1.791,0.062-2.688,0.092c-0.141-0.594-0.283-1.188-0.424-1.781
				c1.113-0.02,2.225-0.041,3.338-0.06C323.992,990.06,323.916,990.643,323.841,991.225"/>
			<path fill="#DB394D" d="M298.492,987.55c-0.958,0.066-1.88,0.006-2.606-0.74c0.047-0.765,0.095-1.53,0.142-2.295
				c1.239,0.381,2.247,1.037,2.752,2.297C298.685,987.058,298.588,987.304,298.492,987.55"/>
			<path fill="#DBD4C9" d="M330.811,941.776c-0.123-0.735-0.246-1.47-0.368-2.206C331.32,940.179,330.788,941.024,330.811,941.776"
				/>
			<path fill="#E05350" d="M333.01,954.958c-0.482-0.029-0.965-0.058-1.447-0.088c0.117-0.129,0.235-0.257,0.351-0.382
				C332.278,954.647,332.644,954.802,333.01,954.958"/>
			<path fill="#DBD4C9" d="M330.381,937.024c-0.111-0.425-0.221-0.85-0.331-1.276C330.16,936.173,330.271,936.598,330.381,937.024"
				/>
			<path fill="#DBD4C9" d="M331.12,944.567c-0.09-0.247-0.18-0.494-0.268-0.741C330.94,944.073,331.03,944.32,331.12,944.567"/>
			<path fill="#C0AC8C" d="M318.624,957.781c0.052-0.312,0.102-0.624,0.153-0.936C318.726,957.157,318.676,957.469,318.624,957.781"
				/>
			<path fill="#E05350" d="M332.551,962.753c0.169,0.117,0.337,0.234,0.506,0.351C332.888,962.987,332.719,962.87,332.551,962.753"
				/>
			<path fill="#FFFBF0" d="M329.668,956.157c1.027,1.829,1.547,3.785,1.486,5.888c-1.095-0.712-2.19-1.424-3.285-2.136
				c0.985-0.632,1.093-1.491,0.705-2.523c-0.147-0.39-0.164-0.829-0.241-1.246C328.778,956.146,329.224,956.152,329.668,956.157"/>
			<path fill="#C0AC8C" d="M318.602,950.934c-0.151-0.307-0.414-0.608-0.429-0.922c-0.049-1.04-0.01-2.084-0.003-3.126
				c0.15,0.307,0.413,0.608,0.428,0.922C318.647,948.848,318.607,949.892,318.602,950.934"/>
			<path fill="#BFAA89" d="M319.801,937.68l-0.116,0.003l-0.114-0.002c0.088-0.13,0.177-0.259,0.264-0.389
				C319.823,937.421,319.813,937.551,319.801,937.68"/>
			<path fill="#C0AC8C" d="M319.087,939.807c0.075-0.162,0.151-0.324,0.225-0.486C319.237,939.482,319.162,939.645,319.087,939.807"
				/>
			<path fill="#C0AC8C" d="M318.165,943.604c0.145-0.168,0.29-0.335,0.434-0.502C318.455,943.268,318.31,943.436,318.165,943.604"/>
			<path fill="#E05350" d="M331.156,954.964c-0.161,0.147-0.323,0.293-0.484,0.439C330.834,955.257,330.995,955.111,331.156,954.964
				"/>
			<path fill="#FEFEFE" d="M331.139,962.03c0.669-0.188,0.918,0.046,0.725,0.723C331.622,962.512,331.38,962.271,331.139,962.03"/>
			<path fill="#FFFBF0" d="M332.142,941.898c-0.011-0.246-0.201-0.476-0.457-0.486c-0.004-0.013-0.008-0.025-0.012-0.038
				c-0.05-0.194-0.085-0.392-0.113-0.59c-0.003-0.028-0.008-0.069-0.009-0.08c-0.007-0.051-0.013-0.102-0.018-0.152
				c-0.011-0.102-0.021-0.205-0.032-0.307c-0.023-0.219-0.046-0.44-0.069-0.659c-0.017-0.165-0.104-0.32-0.237-0.412
				c-0.082-1.088-0.13-2.18-0.127-3.274c0.003-0.634-0.983-0.634-0.984,0c-0.009,2.654,0.236,5.302,0.724,7.912
				c0.116,0.622,1.066,0.358,0.949-0.262c-0.072-0.387-0.128-0.776-0.189-1.164c0.027,0.001,0.054,0.006,0.081,0.005
				C331.907,942.378,332.155,942.172,332.142,941.898"/>
			<path fill="#DB394D" d="M335.735,957.493c0.191-0.534,0.061-1.098-0.297-1.526c-0.374-0.447-0.944-0.646-1.482-0.816
				c-0.031-0.01-0.057-0.005-0.086-0.009c-0.382-0.152-0.764-0.302-1.152-0.439c-0.112-0.04-0.224-0.078-0.336-0.116
				c-0.139-0.047-0.28-0.109-0.43-0.105c-0.318,0.008-0.55,0.307-0.766,0.507c-0.19,0.175-0.191,0.522,0,0.697
				c0.202,0.186,0.494,0.186,0.696,0c0.06-0.057,0.121-0.113,0.182-0.169c0.191,0.064,0.38,0.13,0.57,0.198
				c0.408,0.147,0.813,0.303,1.215,0.468c0.05,0.02,0.105,0.021,0.158,0.018c0.288,0.098,0.579,0.229,0.745,0.48
				c0.2,0.301,0.036,0.643-0.203,0.864c-0.182,0.169-0.341,0.344-0.396,0.595c-0.057,0.258-0.002,0.522,0.071,0.771
				c0.145,0.49,0.246,0.982,0.28,1.492c0.008,0.108,0.05,0.205,0.11,0.287c-0.005,0.105,0.001,0.208-0.013,0.314
				c-0.022,0.173-0.079,0.434-0.144,0.632c-0.063,0.191-0.125,0.285-0.272,0.42c-0.017,0.015-0.023,0.023-0.025,0.025
				c-0.004,0.002-0.014,0.007-0.035,0.019c-0.043,0.025-0.087,0.051-0.13,0.076c-0.02,0.012-0.027,0.017-0.031,0.019
				c-0.005,0.002-0.014,0.004-0.036,0.012c-0.047,0.017-0.096,0.033-0.145,0.046c-0.197,0.053-0.415,0.059-0.639,0.03
				c-0.158-0.022-0.389-0.08-0.566-0.147c-0.032-0.012-0.034-0.012-0.003,0c-0.025-0.01-0.048-0.021-0.071-0.033
				c-0.047-0.024-0.092-0.049-0.136-0.076c-0.022-0.014-0.043-0.028-0.064-0.043c0.025,0.019,0.025,0.019-0.001-0.003
				c-0.045-0.04-0.086-0.083-0.125-0.129c-0.082-0.097-0.204-0.138-0.329-0.14c-0.061-0.029-0.131-0.047-0.214-0.047
				c-0.615,0-0.628,0.921-0.048,0.975c0.396,0.384,0.962,0.555,1.497,0.621c0.612,0.075,1.233-0.055,1.72-0.445
				c0.477-0.38,0.663-0.978,0.749-1.56c0.095-0.638,0.075-1.269-0.068-1.898c-0.026-0.121-0.109-0.215-0.212-0.278
				c-0.036-0.157-0.067-0.314-0.112-0.47c-0.014-0.051-0.033-0.104-0.042-0.158c-0.003-0.023-0.001-0.117-0.012-0.091
				c0.003-0.008,0.151-0.13,0.188-0.169C335.494,957.997,335.641,957.756,335.735,957.493"/>
			<path fill="#FEFEFE" d="M336.456,958.584C336.457,958.584,336.457,958.584,336.456,958.584
				C336.457,958.584,336.457,958.584,336.456,958.584z"/>
			<path fill="#FFFBF0" d="M337.18,960.008c-0.053-0.058-0.105-0.117-0.156-0.177c-0.03-0.036-0.059-0.073-0.089-0.109
				c-0.003-0.004-0.006-0.007-0.009-0.011c-0.002-0.045-0.005-0.09-0.02-0.133c0.084-0.148,0.108-0.33,0.007-0.481
				c-0.104-0.153-0.229-0.278-0.358-0.407c-0.025-0.024-0.047-0.047-0.069-0.073c-0.003-0.002-0.01-0.011-0.016-0.019
				c-0.008-0.011-0.014-0.023-0.021-0.035v-0.04c0.003-0.011,0.004-0.022,0.008-0.033c0.003-0.015,0.008-0.03,0.014-0.045
				c0.001-0.002,0.002-0.003,0.003-0.006c0.013-0.023,0.036-0.036,0.044-0.064c0.003-0.007,0-0.015,0.002-0.023
				c0.022-0.038,0.045-0.076,0.069-0.113c0.003-0.005,0.005-0.01,0.008-0.014c0.136-0.122,0.248-0.268,0.278-0.455
				c0.007-0.041,0.004-0.083,0.002-0.125c0.089-0.121,0.179-0.242,0.268-0.364c0.071-0.097,0.081-0.268,0.05-0.379
				c-0.031-0.115-0.119-0.239-0.226-0.295c-0.002-0.001-0.003-0.001-0.005-0.002c-0.022-0.052-0.053-0.099-0.097-0.139
				c-0.195-0.18-0.503-0.197-0.695,0c-0.161,0.162-0.192,0.346-0.22,0.561c0.006-0.044,0.012-0.088,0.017-0.131
				c-0.025,0.169-0.079,0.33-0.142,0.488c-0.019,0.042-0.041,0.08-0.061,0.121l-0.21,0.285c-0.281,0.257-0.415,0.601-0.279,0.994
				c0.034,0.097,0.081,0.191,0.123,0.286c0.083,0.246,0.208,0.479,0.362,0.689c0.216,0.339,0.465,0.658,0.727,0.947
				c0.174,0.191,0.523,0.19,0.696,0C337.368,960.501,337.365,960.213,337.18,960.008"/>
			<path fill="#FFFBF0" d="M337.629,963.29c-1.249-0.174-2.544,0.068-3.777-0.201c-0.916-0.2-1.566-0.768-2.03-1.511
				c-0.268-0.789-0.601-1.558-1.017-2.281c-0.128-0.224-0.451-0.32-0.674-0.177c-0.224,0.146-0.313,0.435-0.176,0.674
				c0.212,0.369,0.407,0.749,0.578,1.138c0.003,0.007,0.006,0.013,0.008,0.019c-0.446-0.348-0.896-0.706-1.216-1.174
				c-0.356-0.52-1.209-0.028-0.85,0.496c0.631,0.922,1.601,1.448,2.373,2.224c0.333,0.335,0.617,0.719,0.722,1.187
				c0.029,0.132,0.133,1.242-0.053,1.246c-0.633,0.015-0.635,0.999,0,0.985c0.81-0.019,1.07-0.783,1.08-1.471
				c0.003-0.279-0.019-0.55-0.061-0.814c0.235,0.133,0.483,0.247,0.75,0.329c1.33,0.402,2.727,0.091,4.082,0.28
				c0.265,0.037,0.526-0.064,0.606-0.344C338.038,963.666,337.892,963.327,337.629,963.29"/>
			<path fill="#DB394D" d="M331.846,962.743l0.018,0.009c-0.242-0.241-0.484-0.482-0.725-0.723l0.015,0.015
				c-1.095-0.712-2.19-1.424-3.285-2.136c-0.258-0.154-0.594-0.499-0.76-0.43c-0.811,0.335-1.587,0.759-2.345,1.203
				c-0.144,0.085-0.149,0.406-0.218,0.617c1.012,0.35,0.634,1.213,0.688,1.903c0.165,2.095,0.367,4.134,2.353,5.484
				c0.745,0.505,1.426,0.602,2.106,0.146c0.449-0.302,0.662-0.694,0.721-1.132c0.083-0.211,0.143-0.431,0.152-0.654
				c0.015-0.341-0.047-0.695-0.134-1.023c-0.069-0.262-0.184-0.497-0.324-0.721c0.114,0.016,0.232,0.018,0.35,0.008
				c0.207-0.018,0.404-0.048,0.595-0.129c0.265-0.112,0.457-0.304,0.571-0.544c0.247-0.271,0.239-0.728,0.218-1.658
				C331.842,962.901,331.845,962.822,331.846,962.743"/>
			<path fill="#FFFBF0" d="M332.078,962.497c-0.352-0.497-0.793-0.914-1.236-1.328c-0.52-0.486-1.04-0.971-1.56-1.457
				c-0.462-0.432-1.16,0.263-0.696,0.696c0.818,0.764,1.712,1.494,2.447,2.341c0.488,0.563,0.988,1.57,0.411,2.251
				c-0.171,0.202-0.199,0.497,0,0.696c0.176,0.176,0.523,0.204,0.696,0C332.932,964.761,332.753,963.447,332.078,962.497"/>
			<path fill="#AB997B" d="M317.764,942.963c-0.014,2.555-0.025,5.111-0.039,7.666c-0.003,0.634,0.981,0.634,0.984,0l0.04-7.666
				C318.752,942.329,317.767,942.328,317.764,942.963"/>
			<path fill="#D8C09B" d="M321.99,961.168c-0.005,0.003-0.007,0.011-0.031-0.002c-0.092-0.048-0.141-0.138-0.189-0.225
				c-0.118-0.219-0.195-0.462-0.285-0.693c-0.231-0.593-0.461-1.187-0.674-1.785c-0.419-1.177-0.775-2.376-0.985-3.609
				c-0.004-0.022-0.015-0.036-0.022-0.056c0.195-0.09,0.339-0.284,0.266-0.551c-0.719-2.667-0.665-5.438-0.548-8.175
				c0.122-2.861,0.376-5.716,1.023-8.512c0.142-0.617-0.806-0.88-0.949-0.262c-0.666,2.879-0.933,5.827-1.058,8.773
				c-0.121,2.825-0.16,5.685,0.583,8.437c0.008,0.026,0.023,0.042,0.032,0.064c-0.181,0.098-0.32,0.287-0.276,0.543
				c0.273,1.6,0.793,3.136,1.37,4.648c0.139,0.363,0.28,0.727,0.424,1.089c0.128,0.324,0.246,0.659,0.487,0.919
				c0.458,0.5,1.279,0.513,1.659-0.08C323.149,961.167,322.344,960.689,321.99,961.168"/>
			<path fill="#67522F" d="M316.241,958.576c-0.506-0.007-1.01,0.02-1.511,0.082c-0.264,0.032-0.493,0.203-0.493,0.492
				c0,0.241,0.226,0.525,0.493,0.493c0.223-0.027,0.446-0.023,0.669-0.036c-0.042,0.057-0.083,0.113-0.119,0.167
				c-0.202,0.297-0.405,0.593-0.61,0.888c-0.423,0.611-0.854,1.215-1.29,1.818c-0.157,0.215-0.037,0.549,0.176,0.673
				c0.249,0.146,0.517,0.04,0.674-0.176c0.45-0.622,0.894-1.247,1.33-1.877c0.219-0.315,0.436-0.631,0.651-0.949
				c0.199-0.295,0.437-0.594,0.505-0.952C316.775,958.886,316.581,958.58,316.241,958.576"/>
			<path fill="#4F3E24" d="M318.173,958.707c-0.102-0.232-0.335-0.337-0.582-0.285c-0.31,0.066-0.62,0.131-0.931,0.197
				c-0.251,0.053-0.396,0.339-0.345,0.579c-0.003,0.005-0.009,0.008-0.013,0.014c-0.257,0.413-0.474,0.852-0.661,1.3
				c-0.369,0.888-0.571,1.834-0.62,2.794c-0.013,0.266,0.237,0.492,0.493,0.492c0.278,0,0.479-0.225,0.492-0.492
				c0.042-0.819,0.222-1.623,0.525-2.385c0.143-0.363,0.329-0.708,0.524-1.046c0.109-0.189,0.124-0.207,0.314-0.29
				c0.2-0.088,0.4-0.175,0.601-0.263C318.192,959.225,318.261,958.909,318.173,958.707"/>
		</g>
	</g>
	<path fill="#D495AB" d="M77.767,449.567h41.005v53.557H77.767V449.567z M97.815,433.313l20.956,16.287l-41.005,0.241
		L97.815,433.313z"/>
	<rect x="13.771" y="449.841" fill="#F8B4CC" width="63.995" height="53.283"/>
	<polygon fill="#8F5066" points="77.834,449.84 57.801,433.313 97.867,433.313 	"/>
	<polygon fill="#8F5066" points="33.804,433.313 13.771,449.84 53.837,449.84 	"/>
	<rect x="33.804" y="433.312" fill="#8F5066" width="44.03" height="16.528"/>
	<polyline fill="#D495AB" points="19.638,505.817 19.638,470.523 103.823,488.17 19.638,505.817 	"/>
	<rect x="34.665" y="473.217" fill="#8F5066" width="22.209" height="29.907"/>
	<rect x="56.726" y="473.188" fill="#F8B4CC" width="20.894" height="29.907"/>
	<path fill="#D495AB" d="M168.767,449.567h41.005v53.557h-41.005V449.567z M188.815,433.313l20.956,16.287l-41.005,0.241
		L188.815,433.313z"/>
	<rect x="104.771" y="449.841" fill="#F8B4CC" width="63.995" height="53.283"/>
	<polygon fill="#8F5066" points="168.834,449.84 148.801,433.313 188.867,433.313 	"/>
	<polygon fill="#8F5066" points="124.804,433.313 104.771,449.84 144.837,449.84 	"/>
	<rect x="124.804" y="433.312" fill="#8F5066" width="44.03" height="16.528"/>
	<polyline fill="#D495AB" points="110.638,505.817 110.638,470.523 194.823,488.17 110.638,505.817 	"/>
	<rect x="125.665" y="473.217" fill="#8F5066" width="22.209" height="29.907"/>
	<rect x="147.726" y="473.188" fill="#F8B4CC" width="20.894" height="29.907"/>
	<path fill="#D495AB" d="M259.767,449.567h41.004v53.557h-41.004V449.567z M279.816,433.313l20.956,16.287l-41.005,0.241
		L279.816,433.313z"/>
	<rect x="195.771" y="449.841" fill="#F8B4CC" width="63.996" height="53.283"/>
	<polygon fill="#8F5066" points="259.834,449.84 239.802,433.313 279.866,433.313 	"/>
	<polygon fill="#8F5066" points="215.804,433.313 195.771,449.84 235.837,449.84 	"/>
	<rect x="215.805" y="433.312" fill="#8F5066" width="44.029" height="16.528"/>
	<polyline fill="#D495AB" points="201.638,505.817 201.638,470.523 285.823,488.17 201.638,505.817 	"/>
	<rect x="216.664" y="473.217" fill="#8F5066" width="22.21" height="29.907"/>
	<rect x="238.726" y="473.188" fill="#F8B4CC" width="20.894" height="29.907"/>
	<polyline style="opacity:0.7;" fill="#FFFCF1" points="13.771,506.627 13.771,430.173 301.099,430.173 301.099,506.627 	"/>
</g>
<style>
#g-pantries-tablet-img rect, #g-pantries-tablet-img circle, #g-pantries-tablet-img path, #g-pantries-tablet-img line, #g-pantries-tablet-img polyline { vector-effect: non-scaling-stroke; }
</style>
</svg>

